# MagicaVoxel @ Ephtracy

# group
o 

# material
mtllib megavoxel-5.mtl
usemtl palette

# normals
vn -1 0 0
vn 1 0 0
vn 0 0 1
vn 0 0 -1
vn 0 -1 0
vn 0 1 0

# texcoords
vt 0.00585938 0.5
vt 0.0214844 0.5
vt 0.0253906 0.5
vt 0.0292969 0.5
vt 0.0410156 0.5
vt 0.0449219 0.5
vt 0.0878906 0.5
vt 0.134766 0.5
vt 0.189453 0.5

# verts
v -3.7 -7.1 3.1
v -3.7 -7.1 -3.9
v -3.7 7.7 3.1
v -3.7 7.7 -3.9
v -3.4 -6.9 3.3
v -3.4 -6.9 3.1
v -3.4 -6.7 3.5
v -3.4 -6.7 3.3
v -3.4 -6.5 3.1
v -3.4 -3.3 3.1
v -3.4 0.5 3.1
v -3.4 3.5 3.1
v -3.4 3.7 3.5
v -3.4 3.7 3.3
v -3.4 3.7 3.1
v -3.4 4.1 3.5
v -3.4 4.1 3.3
v -3.4 6.9 3.1
v -3.4 7.3 3.5
v -3.4 7.3 3.3
v -3.4 7.5 3.3
v -3.4 7.5 3.1
v -3.3 -7.7 2.9
v -3.3 -7.7 -3.7
v -3.3 -7.1 2.9
v -3.3 -7.1 -3.7
v -3.2 0.9 3.9
v -3.2 0.9 3.5
v -3.2 1.3 3.7
v -3.2 1.3 3.5
v -3.2 3.1 3.7
v -3.2 3.1 3.5
v -3.2 3.5 3.9
v -3.2 3.5 3.5
v -3.2 4.3 3.9
v -3.2 4.3 3.5
v -3.2 4.7 3.7
v -3.2 4.7 3.5
v -3.2 6.7 3.7
v -3.2 6.7 3.5
v -3.2 7.1 3.9
v -3.2 7.1 3.5
v 3.3 -6.5 3.1
v 3.3 -6.5 -3.1
v 3.3 -3.3 3.1
v 3.3 -3.3 -3.1
v 3.3 -3.1 3.1
v 3.3 -3.1 -3.1
v 3.3 0.3 3.1
v 3.3 0.3 -3.1
v 3.3 0.5 3.1
v 3.3 0.5 -3.1
v 3.3 3.5 3.1
v 3.3 3.5 -3.1
v 3.3 3.7 3.1
v 3.3 3.7 -3.1
v 3.3 6.9 3.1
v 3.3 6.9 -3.1
v 3.5 -6.9 -3.3
v 3.5 -6.9 -3.7
v 3.5 -6.7 -3.3
v 3.5 6.9 3.1
v 3.5 6.9 -3.1
v 3.5 6.9 -3.3
v 3.5 7.1 3.1
v 3.5 7.1 -3.7
v -3.3 -6.9 -3.3
v -3.3 -6.9 -3.7
v -3.3 -6.7 -3.3
v -3.3 -6.5 3.1
v -3.3 -6.5 -3.1
v -3.3 -3.3 3.1
v -3.3 -3.3 -3.1
v -3.3 -3.1 3.1
v -3.3 -3.1 -3.1
v -3.3 0.3 3.1
v -3.3 0.3 -3.1
v -3.3 0.5 3.1
v -3.3 0.5 -3.1
v -3.3 3.5 3.1
v -3.3 3.5 -3.1
v -3.3 3.7 3.1
v -3.3 3.7 -3.1
v -3.3 6.9 3.1
v -3.3 6.9 -3.1
v -3.3 7.1 -3.3
v -3.3 7.1 -3.7
v -2.8 0.9 3.9
v -2.8 0.9 3.5
v -2.8 1.3 3.7
v -2.8 1.3 3.5
v -2.8 3.1 3.7
v -2.8 3.1 3.5
v -2.8 3.5 3.9
v -2.8 3.5 3.5
v -2.8 4.3 3.9
v -2.8 4.3 3.5
v -2.8 4.7 3.7
v -2.8 4.7 3.5
v -2.8 6.7 3.7
v -2.8 6.7 3.5
v -2.8 7.1 3.9
v -2.8 7.1 3.5
v 3.1 -6.9 3.3
v 3.1 -6.9 3.2
v 3.1 -6.7 3.5
v 3.1 -6.7 3.3
v 3.1 3.7 3.5
v 3.1 3.7 3.3
v 3.1 4.1 3.5
v 3.1 4.1 3.3
v 3.1 7.3 3.5
v 3.1 7.3 3.3
v 3.1 7.5 3.3
v 3.1 7.5 3.2
v 3.3 -6.9 3.2
v 3.3 -6.9 3.1
v 3.3 -6.7 3.2
v 3.3 -6.7 3.1
v 3.3 3.7 3.2
v 3.3 3.7 3.1
v 3.3 4.1 3.2
v 3.3 4.1 3.1
v 3.3 6.9 3.1
v 3.3 6.9 -3.1
v 3.3 6.9 -3.3
v 3.3 7.1 3.1
v 3.3 7.1 -3.3
v 3.3 7.3 3.2
v 3.3 7.3 3.1
v 3.3 7.5 3.2
v 3.3 7.5 3.1
v 3.5 -7.7 2.9
v 3.5 -7.7 -3.7
v 3.5 -7.1 2.9
v 3.5 -7.1 -3.7
v 3.5 -6.7 3.2
v 3.5 -6.7 3.1
v 3.5 3.7 3.2
v 3.5 3.7 3.1
v 3.5 4.1 3.2
v 3.5 4.1 3.1
v 3.5 7.3 3.2
v 3.5 7.3 3.1
v 3.7 -7.1 3.1
v 3.7 -7.1 -3.9
v 3.7 7.7 3.1
v 3.7 7.7 -3.9
v -3.2 0.9 3.9
v -3.2 3.5 3.9
v -3.2 4.3 3.9
v -3.2 7.1 3.9
v -2.8 0.9 3.9
v -2.8 3.5 3.9
v -2.8 4.3 3.9
v -2.8 7.1 3.9
v -3.4 -6.7 3.5
v -3.4 3.7 3.5
v -3.4 4.1 3.5
v -3.4 7.3 3.5
v -3.2 0.9 3.5
v -3.2 1.3 3.5
v -3.2 3.1 3.5
v -3.2 3.5 3.5
v -3.2 4.3 3.5
v -3.2 4.7 3.5
v -3.2 6.7 3.5
v -3.2 7.1 3.5
v -2.8 0.9 3.5
v -2.8 1.3 3.5
v -2.8 3.1 3.5
v -2.8 3.5 3.5
v -2.8 4.3 3.5
v -2.8 4.7 3.5
v -2.8 6.7 3.5
v -2.8 7.1 3.5
v -0.8 -6.7 3.5
v -0.8 3.7 3.5
v 0.8 -6.7 3.5
v 0.8 3.7 3.5
v 3.1 -6.7 3.5
v 3.1 3.7 3.5
v 3.1 4.1 3.5
v 3.1 7.3 3.5
v -3.4 -6.9 3.3
v -3.4 -6.7 3.3
v -3.4 3.7 3.3
v -3.4 4.1 3.3
v -3.4 7.3 3.3
v -3.4 7.5 3.3
v -0.8 -6.7 3.3
v -0.8 3.7 3.3
v 0.8 -6.7 3.3
v 0.8 3.7 3.3
v 3.1 -6.9 3.3
v 3.1 -6.7 3.3
v 3.1 3.7 3.3
v 3.1 4.1 3.3
v 3.1 7.3 3.3
v 3.1 7.5 3.3
v 3.1 -6.9 3.2
v 3.1 7.5 3.2
v 3.3 -6.9 3.2
v 3.3 -6.7 3.2
v 3.3 3.7 3.2
v 3.3 4.1 3.2
v 3.3 7.3 3.2
v 3.3 7.5 3.2
v 3.5 -6.7 3.2
v 3.5 3.7 3.2
v 3.5 4.1 3.2
v 3.5 7.3 3.2
v -3.7 -7.1 3.1
v -3.7 7.7 3.1
v -3.5 -6.5 3.1
v -3.5 -3.3 3.1
v -3.5 0.5 3.1
v -3.5 3.5 3.1
v -3.5 3.7 3.1
v -3.5 6.9 3.1
v -3.4 -6.9 3.1
v -3.4 -6.5 3.1
v -3.4 -3.3 3.1
v -3.4 0.5 3.1
v -3.4 3.5 3.1
v -3.4 3.7 3.1
v -3.4 6.9 3.1
v -3.4 7.5 3.1
v 3.3 -6.9 3.1
v 3.3 -6.7 3.1
v 3.3 3.7 3.1
v 3.3 4.1 3.1
v 3.3 7.3 3.1
v 3.3 7.5 3.1
v 3.5 -6.9 3.1
v 3.5 -6.7 3.1
v 3.5 3.7 3.1
v 3.5 4.1 3.1
v 3.5 7.3 3.1
v 3.7 -7.1 3.1
v 3.7 7.7 3.1
v -3.3 -7.7 2.9
v -3.3 -7.1 2.9
v 3.5 -7.7 2.9
v 3.5 -7.1 2.9
v -3.3 -6.5 -3.1
v -3.3 -3.3 -3.1
v -3.3 -3.1 -3.1
v -3.3 0.3 -3.1
v -3.3 0.5 -3.1
v -3.3 3.5 -3.1
v -3.3 3.7 -3.1
v -3.3 6.9 -3.1
v 3.3 -6.5 -3.1
v 3.3 -3.3 -3.1
v 3.3 -3.1 -3.1
v 3.3 0.3 -3.1
v 3.3 0.5 -3.1
v 3.3 3.5 -3.1
v 3.3 3.7 -3.1
v 3.3 6.9 -3.1
v -3.3 -6.9 -3.7
v -3.3 7.1 -3.7
v 3.5 -6.9 -3.7
v 3.5 7.1 -3.7
v -3.2 1.3 3.7
v -3.2 3.1 3.7
v -3.2 4.7 3.7
v -3.2 6.7 3.7
v -2.8 1.3 3.7
v -2.8 3.1 3.7
v -2.8 4.7 3.7
v -2.8 6.7 3.7
v -3.3 -6.5 3.1
v -3.3 -3.3 3.1
v -3.3 -3.1 3.1
v -3.3 0.3 3.1
v -3.3 0.5 3.1
v -3.3 3.5 3.1
v -3.3 3.7 3.1
v -3.3 6.9 3.1
v 3.3 -6.5 3.1
v 3.3 -3.3 3.1
v 3.3 -3.1 3.1
v 3.3 0.3 3.1
v 3.3 0.5 3.1
v 3.3 3.5 3.1
v 3.3 3.7 3.1
v 3.3 6.9 3.1
v 3.3 7.1 3.1
v 3.5 6.9 3.1
v 3.5 7.1 3.1
v -3.3 -6.9 -3.3
v -3.3 -6.7 -3.3
v -3.3 7.1 -3.3
v 3.3 6.9 -3.3
v 3.3 7.1 -3.3
v 3.5 -6.9 -3.3
v 3.5 -6.7 -3.3
v 3.5 6.9 -3.3
v -3.3 -7.7 -3.7
v -3.3 -7.1 -3.7
v 3.5 -7.7 -3.7
v 3.5 -7.1 -3.7
v -3.7 -7.1 -3.9
v -3.7 7.7 -3.9
v -3.3 -6.9 -3.9
v -3.3 7.5 -3.9
v 3.5 -6.9 -3.9
v 3.5 7.5 -3.9
v 3.7 -7.1 -3.9
v 3.7 7.7 -3.9
v -3.3 -7.7 2.9
v 3.5 -7.7 2.9
v -3.3 -7.7 -3.7
v 3.5 -7.7 -3.7
v -3.7 -7.1 3.1
v 3.7 -7.1 3.1
v -3.3 -7.1 2.9
v 3.5 -7.1 2.9
v -3.3 -7.1 -3.7
v 3.5 -7.1 -3.7
v -3.7 -7.1 -3.9
v 3.7 -7.1 -3.9
v -3.4 -6.9 3.3
v 3.1 -6.9 3.3
v 3.1 -6.9 3.2
v 3.3 -6.9 3.2
v -3.4 -6.9 3.1
v 3.3 -6.9 3.1
v -3.4 -6.7 3.5
v -0.8 -6.7 3.5
v 0.8 -6.7 3.5
v 3.1 -6.7 3.5
v -3.4 -6.7 3.3
v -0.8 -6.7 3.3
v 0.8 -6.7 3.3
v 3.1 -6.7 3.3
v 3.3 -6.7 3.2
v 3.5 -6.7 3.2
v 3.3 -6.7 3.1
v 3.5 -6.7 3.1
v -3.3 -3.3 3.1
v 3.3 -3.3 3.1
v -3.3 -3.3 -3.1
v 3.3 -3.3 -3.1
v -3.3 0.3 3.1
v 3.3 0.3 3.1
v -3.3 0.3 -3.1
v 3.3 0.3 -3.1
v -3.2 0.9 3.9
v -2.8 0.9 3.9
v -3.2 0.9 3.5
v -2.8 0.9 3.5
v -3.2 3.1 3.7
v -2.8 3.1 3.7
v -3.2 3.1 3.5
v -2.8 3.1 3.5
v -3.3 3.5 3.1
v 3.3 3.5 3.1
v -3.3 3.5 -3.1
v 3.3 3.5 -3.1
v -3.4 4.1 3.5
v 3.1 4.1 3.5
v -3.4 4.1 3.3
v 3.1 4.1 3.3
v 3.3 4.1 3.2
v 3.5 4.1 3.2
v 3.3 4.1 3.1
v 3.5 4.1 3.1
v -3.2 4.3 3.9
v -2.8 4.3 3.9
v -3.2 4.3 3.5
v -2.8 4.3 3.5
v -3.2 6.7 3.7
v -2.8 6.7 3.7
v -3.2 6.7 3.5
v -2.8 6.7 3.5
v -3.3 6.9 3.1
v 3.3 6.9 3.1
v -3.3 6.9 -3.1
v 3.3 6.9 -3.1
v 3.3 7.1 3.1
v 3.5 7.1 3.1
v -3.3 7.1 -3.3
v 3.3 7.1 -3.3
v -3.3 7.1 -3.7
v 3.5 7.1 -3.7
v -3.3 -6.9 -3.3
v 3.5 -6.9 -3.3
v -3.3 -6.9 -3.7
v 3.5 -6.9 -3.7
v -3.3 -6.5 3.1
v 3.3 -6.5 3.1
v -3.3 -6.5 -3.1
v 3.3 -6.5 -3.1
v -3.3 -3.1 3.1
v 3.3 -3.1 3.1
v -3.3 -3.1 -3.1
v 3.3 -3.1 -3.1
v -3.3 0.5 3.1
v 3.3 0.5 3.1
v -3.3 0.5 -3.1
v 3.3 0.5 -3.1
v -3.2 1.3 3.7
v -2.8 1.3 3.7
v -3.2 1.3 3.5
v -2.8 1.3 3.5
v -3.2 3.5 3.9
v -2.8 3.5 3.9
v -3.2 3.5 3.5
v -2.8 3.5 3.5
v -3.4 3.7 3.5
v -0.8 3.7 3.5
v 0.8 3.7 3.5
v 3.1 3.7 3.5
v -3.4 3.7 3.3
v -0.8 3.7 3.3
v 0.8 3.7 3.3
v 3.1 3.7 3.3
v 3.3 3.7 3.2
v 3.5 3.7 3.2
v -3.3 3.7 3.1
v 3.3 3.7 3.1
v 3.5 3.7 3.1
v -3.3 3.7 -3.1
v 3.3 3.7 -3.1
v -3.2 4.7 3.7
v -2.8 4.7 3.7
v -3.2 4.7 3.5
v -2.8 4.7 3.5
v 3.3 6.9 3.1
v 3.5 6.9 3.1
v 3.3 6.9 -3.1
v 3.5 6.9 -3.1
v 3.3 6.9 -3.3
v 3.5 6.9 -3.3
v -3.2 7.1 3.9
v -2.8 7.1 3.9
v -3.2 7.1 3.5
v -2.8 7.1 3.5
v -3.4 7.3 3.5
v 3.1 7.3 3.5
v -3.4 7.3 3.3
v 3.1 7.3 3.3
v 3.3 7.3 3.2
v 3.5 7.3 3.2
v 3.3 7.3 3.1
v 3.5 7.3 3.1
v -3.4 7.5 3.3
v 3.1 7.5 3.3
v 3.1 7.5 3.2
v 3.3 7.5 3.2
v -3.4 7.5 3.1
v 3.3 7.5 3.1
v -3.7 7.7 3.1
v 3.7 7.7 3.1
v -3.7 7.7 -3.9
v 3.7 7.7 -3.9

# faces
f 3/3/1 2/3/1 1/3/1
f 4/3/1 2/3/1 3/3/1
f 8/7/1 6/7/1 5/7/1
f 9/7/1 6/7/1 8/7/1
f 10/7/1 9/7/1 8/7/1
f 11/7/1 10/7/1 8/7/1
f 12/7/1 11/7/1 8/7/1
f 13/1/1 8/1/1 7/1/1
f 14/7/1 12/7/1 8/7/1
f 14/1/1 8/1/1 13/1/1
f 15/7/1 12/7/1 14/7/1
f 17/7/1 15/7/1 14/7/1
f 18/7/1 15/7/1 17/7/1
f 19/3/1 17/3/1 16/3/1
f 20/7/1 18/7/1 17/7/1
f 20/3/1 17/3/1 19/3/1
f 21/7/1 18/7/1 20/7/1
f 22/7/1 18/7/1 21/7/1
f 25/4/1 24/4/1 23/4/1
f 26/4/1 24/4/1 25/4/1
f 29/5/1 28/5/1 27/5/1
f 30/5/1 28/5/1 29/5/1
f 31/5/1 29/5/1 27/5/1
f 33/5/1 31/5/1 27/5/1
f 33/5/1 32/5/1 31/5/1
f 34/5/1 32/5/1 33/5/1
f 37/5/1 36/5/1 35/5/1
f 38/5/1 36/5/1 37/5/1
f 39/5/1 37/5/1 35/5/1
f 41/5/1 39/5/1 35/5/1
f 41/5/1 40/5/1 39/5/1
f 42/5/1 40/5/1 41/5/1
f 45/2/1 44/2/1 43/2/1
f 46/2/1 44/2/1 45/2/1
f 49/3/1 48/3/1 47/3/1
f 50/3/1 48/3/1 49/3/1
f 53/4/1 52/4/1 51/4/1
f 54/4/1 52/4/1 53/4/1
f 57/5/1 56/5/1 55/5/1
f 58/5/1 56/5/1 57/5/1
f 61/3/1 60/3/1 59/3/1
f 64/3/1 60/3/1 61/3/1
f 65/3/1 63/3/1 62/3/1
f 65/3/1 64/3/1 63/3/1
f 66/3/1 60/3/1 64/3/1
f 66/3/1 64/3/1 65/3/1
f 67/3/2 68/3/2 69/3/2
f 70/2/2 71/2/2 72/2/2
f 72/2/2 71/2/2 73/2/2
f 74/3/2 75/3/2 76/3/2
f 76/3/2 75/3/2 77/3/2
f 78/4/2 79/4/2 80/4/2
f 80/4/2 79/4/2 81/4/2
f 82/5/2 83/5/2 84/5/2
f 84/5/2 83/5/2 85/5/2
f 69/3/2 68/3/2 86/3/2
f 86/3/2 68/3/2 87/3/2
f 88/5/2 89/5/2 90/5/2
f 90/5/2 89/5/2 91/5/2
f 88/5/2 90/5/2 92/5/2
f 88/5/2 92/5/2 94/5/2
f 92/5/2 93/5/2 94/5/2
f 94/5/2 93/5/2 95/5/2
f 96/5/2 97/5/2 98/5/2
f 98/5/2 97/5/2 99/5/2
f 96/5/2 98/5/2 100/5/2
f 96/5/2 100/5/2 102/5/2
f 100/5/2 101/5/2 102/5/2
f 102/5/2 101/5/2 103/5/2
f 104/7/2 105/7/2 107/7/2
f 106/4/2 107/4/2 108/4/2
f 107/7/2 105/7/2 109/7/2
f 108/4/2 107/4/2 109/4/2
f 109/7/2 105/7/2 111/7/2
f 110/3/2 111/3/2 112/3/2
f 111/7/2 105/7/2 113/7/2
f 112/3/2 111/3/2 113/3/2
f 113/7/2 105/7/2 114/7/2
f 114/7/2 105/7/2 115/7/2
f 116/7/2 117/7/2 118/7/2
f 118/7/2 117/7/2 119/7/2
f 120/7/2 121/7/2 122/7/2
f 122/7/2 121/7/2 123/7/2
f 124/9/2 125/9/2 127/9/2
f 125/9/2 126/9/2 127/9/2
f 127/9/2 126/9/2 128/9/2
f 129/7/2 130/7/2 131/7/2
f 131/7/2 130/7/2 132/7/2
f 133/4/2 134/4/2 135/4/2
f 135/4/2 134/4/2 136/4/2
f 137/4/2 138/4/2 139/4/2
f 139/4/2 138/4/2 140/4/2
f 141/3/2 142/3/2 143/3/2
f 143/3/2 142/3/2 144/3/2
f 145/3/2 146/3/2 147/3/2
f 147/3/2 146/3/2 148/3/2
f 153/5/3 150/5/3 149/5/3
f 154/5/3 150/5/3 153/5/3
f 155/5/3 152/5/3 151/5/3
f 156/5/3 152/5/3 155/5/3
f 161/1/3 158/1/3 157/1/3
f 162/1/3 158/1/3 161/1/3
f 163/1/3 158/1/3 162/1/3
f 164/1/3 158/1/3 163/1/3
f 165/3/3 160/3/3 159/3/3
f 166/3/3 160/3/3 165/3/3
f 167/3/3 160/3/3 166/3/3
f 168/3/3 160/3/3 167/3/3
f 169/1/3 161/1/3 157/1/3
f 170/1/3 163/1/3 162/1/3
f 171/1/3 163/1/3 170/1/3
f 172/1/3 158/1/3 164/1/3
f 173/3/3 165/3/3 159/3/3
f 174/3/3 167/3/3 166/3/3
f 175/3/3 167/3/3 174/3/3
f 176/3/3 160/3/3 168/3/3
f 177/1/3 171/1/3 170/1/3
f 177/1/3 169/1/3 157/1/3
f 177/1/3 172/1/3 171/1/3
f 177/1/3 170/1/3 169/1/3
f 178/1/3 158/1/3 172/1/3
f 178/1/3 172/1/3 177/1/3
f 179/6/3 178/6/3 177/6/3
f 180/6/3 178/6/3 179/6/3
f 181/4/3 180/4/3 179/4/3
f 182/4/3 180/4/3 181/4/3
f 183/3/3 176/3/3 175/3/3
f 183/3/3 175/3/3 174/3/3
f 183/3/3 173/3/3 159/3/3
f 183/3/3 174/3/3 173/3/3
f 184/3/3 160/3/3 176/3/3
f 184/3/3 176/3/3 183/3/3
f 191/7/3 186/7/3 185/7/3
f 192/7/3 188/7/3 187/7/3
f 193/7/3 191/7/3 185/7/3
f 194/7/3 188/7/3 192/7/3
f 195/7/3 193/7/3 185/7/3
f 196/7/3 193/7/3 195/7/3
f 197/7/3 188/7/3 194/7/3
f 198/7/3 188/7/3 197/7/3
f 199/7/3 190/7/3 189/7/3
f 200/7/3 190/7/3 199/7/3
f 203/7/3 202/7/3 201/7/3
f 204/7/3 202/7/3 203/7/3
f 205/7/3 202/7/3 204/7/3
f 206/7/3 202/7/3 205/7/3
f 207/7/3 202/7/3 206/7/3
f 208/7/3 202/7/3 207/7/3
f 209/4/3 205/4/3 204/4/3
f 210/4/3 205/4/3 209/4/3
f 211/3/3 207/3/3 206/3/3
f 212/3/3 207/3/3 211/3/3
f 215/3/3 214/3/3 213/3/3
f 216/3/3 214/3/3 215/3/3
f 217/3/3 214/3/3 216/3/3
f 218/3/3 214/3/3 217/3/3
f 219/3/3 214/3/3 218/3/3
f 220/3/3 214/3/3 219/3/3
f 221/3/3 215/3/3 213/3/3
f 222/2/3 216/2/3 215/2/3
f 222/3/3 215/3/3 221/3/3
f 223/3/3 217/3/3 216/3/3
f 223/2/3 216/2/3 222/2/3
f 224/4/3 218/4/3 217/4/3
f 224/3/3 217/3/3 223/3/3
f 225/3/3 219/3/3 218/3/3
f 225/4/3 218/4/3 224/4/3
f 226/5/3 220/5/3 219/5/3
f 226/3/3 219/3/3 225/3/3
f 227/3/3 214/3/3 220/3/3
f 227/5/3 220/5/3 226/5/3
f 228/3/3 214/3/3 227/3/3
f 229/3/3 221/3/3 213/3/3
f 234/3/3 214/3/3 228/3/3
f 235/3/3 229/3/3 213/3/3
f 235/5/3 230/5/3 229/5/3
f 236/5/3 230/5/3 235/5/3
f 237/5/3 232/5/3 231/5/3
f 238/5/3 232/5/3 237/5/3
f 239/3/3 234/3/3 233/3/3
f 240/3/3 236/3/3 235/3/3
f 240/3/3 239/3/3 238/3/3
f 240/3/3 238/3/3 237/3/3
f 240/3/3 235/3/3 213/3/3
f 240/3/3 237/3/3 236/3/3
f 241/3/3 234/3/3 239/3/3
f 241/3/3 239/3/3 240/3/3
f 241/3/3 214/3/3 234/3/3
f 244/4/3 243/4/3 242/4/3
f 245/4/3 243/4/3 244/4/3
f 254/9/3 247/9/3 246/9/3
f 255/9/3 247/9/3 254/9/3
f 256/9/3 249/9/3 248/9/3
f 257/9/3 249/9/3 256/9/3
f 258/9/3 251/9/3 250/9/3
f 259/9/3 251/9/3 258/9/3
f 260/9/3 253/9/3 252/9/3
f 261/9/3 253/9/3 260/9/3
f 264/8/3 263/8/3 262/8/3
f 265/8/3 263/8/3 264/8/3
f 266/5/4 267/5/4 270/5/4
f 270/5/4 267/5/4 271/5/4
f 268/5/4 269/5/4 272/5/4
f 272/5/4 269/5/4 273/5/4
f 274/7/4 275/7/4 282/7/4
f 282/7/4 275/7/4 283/7/4
f 276/7/4 277/7/4 284/7/4
f 284/7/4 277/7/4 285/7/4
f 278/7/4 279/7/4 286/7/4
f 286/7/4 279/7/4 287/7/4
f 280/7/4 281/7/4 288/7/4
f 288/7/4 281/7/4 289/7/4
f 289/3/4 290/3/4 291/3/4
f 291/3/4 290/3/4 292/3/4
f 294/9/4 295/9/4 296/9/4
f 296/9/4 295/9/4 297/9/4
f 293/5/4 294/5/4 298/5/4
f 294/9/4 296/9/4 299/9/4
f 298/5/4 294/5/4 299/5/4
f 299/9/4 296/9/4 300/9/4
f 301/4/4 302/4/4 303/4/4
f 303/4/4 302/4/4 304/4/4
f 305/3/4 306/3/4 307/3/4
f 307/3/4 306/3/4 308/3/4
f 305/3/4 307/3/4 309/3/4
f 307/8/4 308/8/4 309/8/4
f 308/3/4 306/3/4 310/3/4
f 309/8/4 308/8/4 310/8/4
f 305/3/4 309/3/4 311/3/4
f 309/3/4 310/3/4 311/3/4
f 310/3/4 306/3/4 312/3/4
f 311/3/4 310/3/4 312/3/4
f 315/4/5 314/4/5 313/4/5
f 316/4/5 314/4/5 315/4/5
f 319/3/5 318/3/5 317/3/5
f 320/3/5 318/3/5 319/3/5
f 321/3/5 319/3/5 317/3/5
f 322/3/5 318/3/5 320/3/5
f 323/3/5 321/3/5 317/3/5
f 323/3/5 322/3/5 321/3/5
f 324/3/5 318/3/5 322/3/5
f 324/3/5 322/3/5 323/3/5
f 327/7/5 326/7/5 325/7/5
f 329/7/5 327/7/5 325/7/5
f 329/7/5 328/7/5 327/7/5
f 330/7/5 328/7/5 329/7/5
f 335/1/5 332/1/5 331/1/5
f 336/6/5 333/6/5 332/6/5
f 336/1/5 332/1/5 335/1/5
f 337/4/5 334/4/5 333/4/5
f 337/6/5 333/6/5 336/6/5
f 338/4/5 334/4/5 337/4/5
f 341/4/5 340/4/5 339/4/5
f 342/4/5 340/4/5 341/4/5
f 345/9/5 344/9/5 343/9/5
f 346/9/5 344/9/5 345/9/5
f 349/9/5 348/9/5 347/9/5
f 350/9/5 348/9/5 349/9/5
f 353/5/5 352/5/5 351/5/5
f 354/5/5 352/5/5 353/5/5
f 357/5/5 356/5/5 355/5/5
f 358/5/5 356/5/5 357/5/5
f 361/9/5 360/9/5 359/9/5
f 362/9/5 360/9/5 361/9/5
f 365/3/5 364/3/5 363/3/5
f 366/3/5 364/3/5 365/3/5
f 369/3/5 368/3/5 367/3/5
f 370/3/5 368/3/5 369/3/5
f 373/5/5 372/5/5 371/5/5
f 374/5/5 372/5/5 373/5/5
f 377/5/5 376/5/5 375/5/5
f 378/5/5 376/5/5 377/5/5
f 381/9/5 380/9/5 379/9/5
f 382/9/5 380/9/5 381/9/5
f 386/3/5 384/3/5 383/3/5
f 387/3/5 386/3/5 385/3/5
f 388/3/5 384/3/5 386/3/5
f 388/3/5 386/3/5 387/3/5
f 389/7/6 390/7/6 391/7/6
f 391/7/6 390/7/6 392/7/6
f 393/9/6 394/9/6 395/9/6
f 395/9/6 394/9/6 396/9/6
f 397/9/6 398/9/6 399/9/6
f 399/9/6 398/9/6 400/9/6
f 401/9/6 402/9/6 403/9/6
f 403/9/6 402/9/6 404/9/6
f 405/5/6 406/5/6 407/5/6
f 407/5/6 406/5/6 408/5/6
f 409/5/6 410/5/6 411/5/6
f 411/5/6 410/5/6 412/5/6
f 413/1/6 414/1/6 417/1/6
f 414/6/6 415/6/6 418/6/6
f 417/1/6 414/1/6 418/1/6
f 415/4/6 416/4/6 419/4/6
f 418/6/6 415/6/6 419/6/6
f 419/4/6 416/4/6 420/4/6
f 421/4/6 422/4/6 424/4/6
f 424/4/6 422/4/6 425/4/6
f 423/9/6 424/9/6 426/9/6
f 426/9/6 424/9/6 427/9/6
f 428/5/6 429/5/6 430/5/6
f 430/5/6 429/5/6 431/5/6
f 432/5/6 433/5/6 434/5/6
f 434/5/6 433/5/6 435/5/6
f 434/9/6 435/9/6 436/9/6
f 436/9/6 435/9/6 437/9/6
f 438/5/6 439/5/6 440/5/6
f 440/5/6 439/5/6 441/5/6
f 442/3/6 443/3/6 444/3/6
f 444/3/6 443/3/6 445/3/6
f 446/3/6 447/3/6 448/3/6
f 448/3/6 447/3/6 449/3/6
f 450/7/6 451/7/6 452/7/6
f 450/7/6 452/7/6 454/7/6
f 452/7/6 453/7/6 454/7/6
f 454/7/6 453/7/6 455/7/6
f 456/3/6 457/3/6 458/3/6
f 458/3/6 457/3/6 459/3/6
