# MagicaVoxel @ Ephtracy

# group
o 

# material
mtllib megavoxel-8.mtl
usemtl palette

# normals
vn -1 0 0
vn 1 0 0
vn 0 0 1
vn 0 0 -1
vn 0 -1 0
vn 0 1 0

# texcoords
vt 0.00585938 0.5
vt 0.0214844 0.5
vt 0.0253906 0.5
vt 0.0292969 0.5
vt 0.0410156 0.5
vt 0.0449219 0.5
vt 0.0878906 0.5
vt 0.134766 0.5
vt 0.189453 0.5

# verts
v -3.8 -7.1 0.2
v -3.8 -7.1 -6.8
v -3.8 7.7 0.2
v -3.8 7.7 -6.8
v -3.4 -7.7 0
v -3.4 -7.7 -6.6
v -3.4 -7.1 0
v -3.4 -7.1 -6.6
v 3 -6.9 6.8
v 3 -6.9 0.2
v 3 -6.7 0.2
v 3 -6.5 0.2
v 3 -3.3 0.2
v 3 -3.1 0.2
v 3 0.3 0.2
v 3 0.5 0.2
v 3 3.5 0.2
v 3 3.7 0.2
v 3 6.9 0.2
v 3 7.1 0.2
v 3 7.3 0.2
v 3 7.5 6.8
v 3 7.5 0.2
v 3.2 -6.5 0.2
v 3.2 -6.5 -6
v 3.2 -3.3 0.2
v 3.2 -3.3 -6
v 3.2 -3.1 0.2
v 3.2 -3.1 -6
v 3.2 0.3 0.2
v 3.2 0.3 -6
v 3.2 0.5 0.2
v 3.2 0.5 -6
v 3.2 3.5 0.2
v 3.2 3.5 -6
v 3.2 3.7 0.2
v 3.2 3.7 -6
v 3.2 6.9 0.2
v 3.2 6.9 -6
v 3.4 -6.9 -6.2
v 3.4 -6.9 -6.6
v 3.4 -6.7 -6.2
v 3.4 6.9 0.2
v 3.4 6.9 -6
v 3.4 6.9 -6.2
v 3.4 7.1 0.2
v 3.4 7.1 -6.6
v 3.6 1.3 6.6
v 3.6 1.3 6.2
v 3.6 3.1 6.6
v 3.6 3.1 6.2
v 3.6 4.7 6.6
v 3.6 4.7 6.2
v 3.6 6.7 6.6
v 3.6 6.7 6.2
v -3.4 -6.9 -6.2
v -3.4 -6.9 -6.6
v -3.4 -6.7 -6.2
v -3.4 -6.5 0.2
v -3.4 -6.5 -6
v -3.4 -3.3 0.2
v -3.4 -3.3 -6
v -3.4 -3.1 0.2
v -3.4 -3.1 -6
v -3.4 0.3 0.2
v -3.4 0.3 -6
v -3.4 0.5 0.2
v -3.4 0.5 -6
v -3.4 3.5 0.2
v -3.4 3.5 -6
v -3.4 3.7 0.2
v -3.4 3.7 -6
v -3.4 6.9 0.2
v -3.4 6.9 -6
v -3.4 7.1 -6.2
v -3.4 7.1 -6.6
v 3.2 -6.9 6.8
v 3.2 -6.9 0.2
v 3.2 -6.7 6.8
v 3.2 -6.7 4.2
v 3.2 -6.7 2.6
v 3.2 -6.7 0.2
v 3.2 3.7 6.8
v 3.2 3.7 4.2
v 3.2 3.7 2.6
v 3.2 3.7 0.2
v 3.2 4.1 6.8
v 3.2 4.1 0.2
v 3.2 6.9 0.2
v 3.2 6.9 -6
v 3.2 6.9 -6.2
v 3.2 7.1 0.2
v 3.2 7.1 -6.2
v 3.2 7.3 6.8
v 3.2 7.3 0.2
v 3.2 7.5 6.8
v 3.2 7.5 0.2
v 3.4 -7.7 0
v 3.4 -7.7 -6.6
v 3.4 -7.1 0
v 3.4 -7.1 -6.6
v 3.4 -6.7 6.8
v 3.4 -6.7 4.2
v 3.4 -6.7 2.6
v 3.4 -6.7 0.2
v 3.4 0.9 6.6
v 3.4 0.9 6.2
v 3.4 1.3 6.6
v 3.4 1.3 6.2
v 3.4 3.1 6.6
v 3.4 3.1 6.2
v 3.4 3.5 6.6
v 3.4 3.5 6.2
v 3.4 3.7 6.8
v 3.4 3.7 4.2
v 3.4 3.7 2.6
v 3.4 3.7 0.2
v 3.4 4.1 6.8
v 3.4 4.1 0.2
v 3.4 4.3 6.6
v 3.4 4.3 6.2
v 3.4 4.7 6.6
v 3.4 4.7 6.2
v 3.4 6.7 6.6
v 3.4 6.7 6.2
v 3.4 7.1 6.6
v 3.4 7.1 6.2
v 3.4 7.3 6.8
v 3.4 7.3 0.2
v 3.6 -7.1 0.2
v 3.6 -7.1 -6.8
v 3.6 7.7 0.2
v 3.6 7.7 -6.8
v 3.8 0.9 6.6
v 3.8 0.9 6.2
v 3.8 3.5 6.6
v 3.8 3.5 6.2
v 3.8 4.3 6.6
v 3.8 4.3 6.2
v 3.8 7.1 6.6
v 3.8 7.1 6.2
v 3 -6.9 6.8
v 3 7.5 6.8
v 3.2 -6.9 6.8
v 3.2 -6.7 6.8
v 3.2 3.7 6.8
v 3.2 4.1 6.8
v 3.2 7.3 6.8
v 3.2 7.5 6.8
v 3.4 -6.7 6.8
v 3.4 3.7 6.8
v 3.4 4.1 6.8
v 3.4 7.3 6.8
v 3.4 0.9 6.6
v 3.4 1.3 6.6
v 3.4 3.1 6.6
v 3.4 3.5 6.6
v 3.4 4.3 6.6
v 3.4 4.7 6.6
v 3.4 6.7 6.6
v 3.4 7.1 6.6
v 3.6 1.3 6.6
v 3.6 3.1 6.6
v 3.6 4.7 6.6
v 3.6 6.7 6.6
v 3.8 0.9 6.6
v 3.8 3.5 6.6
v 3.8 4.3 6.6
v 3.8 7.1 6.6
v -3.8 -7.1 0.2
v -3.8 7.7 0.2
v -3.6 -6.5 0.2
v -3.6 -3.3 0.2
v -3.6 0.5 0.2
v -3.6 3.5 0.2
v -3.6 3.7 0.2
v -3.6 6.9 0.2
v -3.4 -6.9 0.2
v -3.4 -6.7 0.2
v -3.4 -6.5 0.2
v -3.4 -3.3 0.2
v -3.4 -3.1 0.2
v -3.4 0.3 0.2
v -3.4 0.5 0.2
v -3.4 3.5 0.2
v -3.4 3.7 0.2
v -3.4 6.9 0.2
v -3.4 7.1 0.2
v -3.4 7.3 0.2
v 3 -6.9 0.2
v 3 -6.7 0.2
v 3 -6.5 0.2
v 3 -3.3 0.2
v 3 -3.1 0.2
v 3 0.3 0.2
v 3 0.5 0.2
v 3 3.5 0.2
v 3 3.7 0.2
v 3 6.9 0.2
v 3 7.1 0.2
v 3 7.3 0.2
v 3 7.5 0.2
v 3.2 -6.9 0.2
v 3.2 -6.7 0.2
v 3.2 3.7 0.2
v 3.2 4.1 0.2
v 3.2 7.3 0.2
v 3.2 7.5 0.2
v 3.4 -6.9 0.2
v 3.4 -6.7 0.2
v 3.4 3.7 0.2
v 3.4 4.1 0.2
v 3.4 7.3 0.2
v 3.6 -7.1 0.2
v 3.6 7.7 0.2
v -3.4 -7.7 0
v -3.4 -7.1 0
v 3.4 -7.7 0
v 3.4 -7.1 0
v -3.4 -6.5 -6
v -3.4 -3.3 -6
v -3.4 -3.1 -6
v -3.4 0.3 -6
v -3.4 0.5 -6
v -3.4 3.5 -6
v -3.4 3.7 -6
v -3.4 6.9 -6
v 3.2 -6.5 -6
v 3.2 -3.3 -6
v 3.2 -3.1 -6
v 3.2 0.3 -6
v 3.2 0.5 -6
v 3.2 3.5 -6
v 3.2 3.7 -6
v 3.2 6.9 -6
v -3.4 -6.9 -6.6
v -3.4 7.1 -6.6
v 3.4 -6.9 -6.6
v 3.4 7.1 -6.6
v 3.4 0.9 6.2
v 3.4 1.3 6.2
v 3.4 3.1 6.2
v 3.4 3.5 6.2
v 3.4 4.3 6.2
v 3.4 4.7 6.2
v 3.4 6.7 6.2
v 3.4 7.1 6.2
v 3.6 1.3 6.2
v 3.6 3.1 6.2
v 3.6 4.7 6.2
v 3.6 6.7 6.2
v 3.8 0.9 6.2
v 3.8 3.5 6.2
v 3.8 4.3 6.2
v 3.8 7.1 6.2
v 3 -6.5 0.2
v 3 -3.3 0.2
v 3 -3.1 0.2
v 3 0.3 0.2
v 3 0.5 0.2
v 3 3.5 0.2
v 3 3.7 0.2
v 3 6.9 0.2
v 3.2 -6.5 0.2
v 3.2 -3.3 0.2
v 3.2 -3.1 0.2
v 3.2 0.3 0.2
v 3.2 0.5 0.2
v 3.2 3.5 0.2
v 3.2 3.7 0.2
v 3.2 6.9 0.2
v 3.2 7.1 0.2
v 3.4 6.9 0.2
v 3.4 7.1 0.2
v -3.4 -6.9 -6.2
v -3.4 -6.7 -6.2
v -3.4 7.1 -6.2
v 3.2 6.9 -6.2
v 3.2 7.1 -6.2
v 3.4 -6.9 -6.2
v 3.4 -6.7 -6.2
v 3.4 6.9 -6.2
v -3.4 -7.7 -6.6
v -3.4 -7.1 -6.6
v 3.4 -7.7 -6.6
v 3.4 -7.1 -6.6
v -3.8 -7.1 -6.8
v -3.8 7.7 -6.8
v -3.4 -6.9 -6.8
v -3.4 7.5 -6.8
v 3.4 -6.9 -6.8
v 3.4 7.5 -6.8
v 3.6 -7.1 -6.8
v 3.6 7.7 -6.8
v -3.4 -7.7 0
v 3.4 -7.7 0
v -3.4 -7.7 -6.6
v 3.4 -7.7 -6.6
v -3.8 -7.1 0.2
v 3.6 -7.1 0.2
v -3.4 -7.1 0
v 3.4 -7.1 0
v -3.4 -7.1 -6.6
v 3.4 -7.1 -6.6
v -3.8 -7.1 -6.8
v 3.6 -7.1 -6.8
v 3 -6.9 6.8
v 3.2 -6.9 6.8
v 3 -6.9 0.2
v 3.2 -6.9 0.2
v 3.2 -6.7 6.8
v 3.4 -6.7 6.8
v 3.2 -6.7 4.2
v 3.4 -6.7 4.2
v 3.2 -6.7 2.6
v 3.4 -6.7 2.6
v 3.2 -6.7 0.2
v 3.4 -6.7 0.2
v -3.4 -3.3 0.2
v 3 -3.3 0.2
v 3.2 -3.3 0.2
v -3.4 -3.3 -6
v 3.2 -3.3 -6
v -3.4 0.3 0.2
v 3 0.3 0.2
v 3.2 0.3 0.2
v -3.4 0.3 -6
v 3.2 0.3 -6
v 3.4 0.9 6.6
v 3.8 0.9 6.6
v 3.4 0.9 6.2
v 3.8 0.9 6.2
v 3.4 3.1 6.6
v 3.6 3.1 6.6
v 3.4 3.1 6.2
v 3.6 3.1 6.2
v -3.4 3.5 0.2
v 3 3.5 0.2
v 3.2 3.5 0.2
v -3.4 3.5 -6
v 3.2 3.5 -6
v 3.2 4.1 6.8
v 3.4 4.1 6.8
v 3.2 4.1 0.2
v 3.4 4.1 0.2
v 3.4 4.3 6.6
v 3.8 4.3 6.6
v 3.4 4.3 6.2
v 3.8 4.3 6.2
v 3.4 6.7 6.6
v 3.6 6.7 6.6
v 3.4 6.7 6.2
v 3.6 6.7 6.2
v -3.4 6.9 0.2
v 3 6.9 0.2
v 3.2 6.9 0.2
v -3.4 6.9 -6
v 3.2 6.9 -6
v 3.2 7.1 0.2
v 3.4 7.1 0.2
v -3.4 7.1 -6.2
v 3.2 7.1 -6.2
v -3.4 7.1 -6.6
v 3.4 7.1 -6.6
v -3.4 -6.9 -6.2
v 3.4 -6.9 -6.2
v -3.4 -6.9 -6.6
v 3.4 -6.9 -6.6
v -3.4 -6.5 0.2
v 3 -6.5 0.2
v 3.2 -6.5 0.2
v -3.4 -6.5 -6
v 3.2 -6.5 -6
v -3.4 -3.1 0.2
v 3 -3.1 0.2
v 3.2 -3.1 0.2
v -3.4 -3.1 -6
v 3.2 -3.1 -6
v -3.4 0.5 0.2
v 3 0.5 0.2
v 3.2 0.5 0.2
v -3.4 0.5 -6
v 3.2 0.5 -6
v 3.4 1.3 6.6
v 3.6 1.3 6.6
v 3.4 1.3 6.2
v 3.6 1.3 6.2
v 3.4 3.5 6.6
v 3.8 3.5 6.6
v 3.4 3.5 6.2
v 3.8 3.5 6.2
v 3.2 3.7 6.8
v 3.4 3.7 6.8
v 3.2 3.7 4.2
v 3.4 3.7 4.2
v 3.2 3.7 2.6
v 3.4 3.7 2.6
v -3.4 3.7 0.2
v 3 3.7 0.2
v 3.2 3.7 0.2
v 3.4 3.7 0.2
v -3.4 3.7 -6
v 3.2 3.7 -6
v 3.4 4.7 6.6
v 3.6 4.7 6.6
v 3.4 4.7 6.2
v 3.6 4.7 6.2
v 3.2 6.9 0.2
v 3.4 6.9 0.2
v 3.2 6.9 -6
v 3.4 6.9 -6
v 3.2 6.9 -6.2
v 3.4 6.9 -6.2
v 3.4 7.1 6.6
v 3.8 7.1 6.6
v 3.4 7.1 6.2
v 3.8 7.1 6.2
v 3.2 7.3 6.8
v 3.4 7.3 6.8
v 3.2 7.3 0.2
v 3.4 7.3 0.2
v 3 7.5 6.8
v 3.2 7.5 6.8
v 3 7.5 0.2
v 3.2 7.5 0.2
v -3.8 7.7 0.2
v 3.6 7.7 0.2
v -3.8 7.7 -6.8
v 3.6 7.7 -6.8

# faces
f 3/3/1 2/3/1 1/3/1
f 4/3/1 2/3/1 3/3/1
f 7/4/1 6/4/1 5/4/1
f 8/4/1 6/4/1 7/4/1
f 11/7/1 10/7/1 9/7/1
f 12/7/1 11/7/1 9/7/1
f 13/7/1 12/7/1 9/7/1
f 14/7/1 13/7/1 9/7/1
f 15/7/1 14/7/1 9/7/1
f 16/7/1 15/7/1 9/7/1
f 17/7/1 16/7/1 9/7/1
f 18/7/1 17/7/1 9/7/1
f 19/7/1 18/7/1 9/7/1
f 20/7/1 19/7/1 9/7/1
f 21/7/1 20/7/1 9/7/1
f 22/7/1 21/7/1 9/7/1
f 23/7/1 21/7/1 22/7/1
f 26/2/1 25/2/1 24/2/1
f 27/2/1 25/2/1 26/2/1
f 30/3/1 29/3/1 28/3/1
f 31/3/1 29/3/1 30/3/1
f 34/4/1 33/4/1 32/4/1
f 35/4/1 33/4/1 34/4/1
f 38/5/1 37/5/1 36/5/1
f 39/5/1 37/5/1 38/5/1
f 42/3/1 41/3/1 40/3/1
f 45/3/1 41/3/1 42/3/1
f 46/3/1 44/3/1 43/3/1
f 46/3/1 45/3/1 44/3/1
f 47/3/1 41/3/1 45/3/1
f 47/3/1 45/3/1 46/3/1
f 50/5/1 49/5/1 48/5/1
f 51/5/1 49/5/1 50/5/1
f 54/5/1 53/5/1 52/5/1
f 55/5/1 53/5/1 54/5/1
f 56/3/2 57/3/2 58/3/2
f 59/2/2 60/2/2 61/2/2
f 61/2/2 60/2/2 62/2/2
f 63/3/2 64/3/2 65/3/2
f 65/3/2 64/3/2 66/3/2
f 67/4/2 68/4/2 69/4/2
f 69/4/2 68/4/2 70/4/2
f 71/5/2 72/5/2 73/5/2
f 73/5/2 72/5/2 74/5/2
f 58/3/2 57/3/2 75/3/2
f 75/3/2 57/3/2 76/3/2
f 77/7/2 78/7/2 79/7/2
f 79/7/2 78/7/2 80/7/2
f 80/7/2 78/7/2 81/7/2
f 81/7/2 78/7/2 82/7/2
f 83/7/2 84/7/2 87/7/2
f 85/7/2 86/7/2 87/7/2
f 84/7/2 85/7/2 87/7/2
f 87/7/2 86/7/2 88/7/2
f 89/9/2 90/9/2 92/9/2
f 90/9/2 91/9/2 92/9/2
f 92/9/2 91/9/2 93/9/2
f 94/7/2 95/7/2 96/7/2
f 96/7/2 95/7/2 97/7/2
f 98/4/2 99/4/2 100/4/2
f 100/4/2 99/4/2 101/4/2
f 102/1/2 103/1/2 106/1/2
f 106/1/2 103/1/2 107/1/2
f 102/1/2 106/1/2 108/1/2
f 107/1/2 103/1/2 109/1/2
f 102/1/2 108/1/2 110/1/2
f 108/1/2 109/1/2 110/1/2
f 109/1/2 103/1/2 111/1/2
f 110/1/2 109/1/2 111/1/2
f 102/1/2 110/1/2 112/1/2
f 111/1/2 103/1/2 113/1/2
f 102/1/2 112/1/2 114/1/2
f 112/1/2 113/1/2 114/1/2
f 103/6/2 104/6/2 115/6/2
f 114/1/2 113/1/2 115/1/2
f 113/1/2 103/1/2 115/1/2
f 104/4/2 105/4/2 116/4/2
f 115/6/2 104/6/2 116/6/2
f 116/4/2 105/4/2 117/4/2
f 118/3/2 119/3/2 120/3/2
f 120/3/2 119/3/2 121/3/2
f 118/3/2 120/3/2 122/3/2
f 121/3/2 119/3/2 123/3/2
f 118/3/2 122/3/2 124/3/2
f 122/3/2 123/3/2 124/3/2
f 123/3/2 119/3/2 125/3/2
f 124/3/2 123/3/2 125/3/2
f 118/3/2 124/3/2 126/3/2
f 125/3/2 119/3/2 127/3/2
f 118/3/2 126/3/2 128/3/2
f 126/3/2 127/3/2 128/3/2
f 127/3/2 119/3/2 129/3/2
f 128/3/2 127/3/2 129/3/2
f 130/3/2 131/3/2 132/3/2
f 132/3/2 131/3/2 133/3/2
f 134/5/2 135/5/2 136/5/2
f 136/5/2 135/5/2 137/5/2
f 138/5/2 139/5/2 140/5/2
f 140/5/2 139/5/2 141/5/2
f 144/7/3 143/7/3 142/7/3
f 145/7/3 143/7/3 144/7/3
f 146/7/3 143/7/3 145/7/3
f 147/7/3 143/7/3 146/7/3
f 148/7/3 143/7/3 147/7/3
f 149/7/3 143/7/3 148/7/3
f 150/1/3 146/1/3 145/1/3
f 151/1/3 146/1/3 150/1/3
f 152/3/3 148/3/3 147/3/3
f 153/3/3 148/3/3 152/3/3
f 162/5/3 155/5/3 154/5/3
f 163/5/3 157/5/3 156/5/3
f 164/5/3 159/5/3 158/5/3
f 165/5/3 161/5/3 160/5/3
f 166/5/3 162/5/3 154/5/3
f 166/5/3 163/5/3 162/5/3
f 167/5/3 157/5/3 163/5/3
f 167/5/3 163/5/3 166/5/3
f 168/5/3 164/5/3 158/5/3
f 168/5/3 165/5/3 164/5/3
f 169/5/3 161/5/3 165/5/3
f 169/5/3 165/5/3 168/5/3
f 172/3/3 171/3/3 170/3/3
f 173/3/3 171/3/3 172/3/3
f 174/3/3 171/3/3 173/3/3
f 175/3/3 171/3/3 174/3/3
f 176/3/3 171/3/3 175/3/3
f 177/3/3 171/3/3 176/3/3
f 178/3/3 172/3/3 170/3/3
f 179/3/3 172/3/3 178/3/3
f 180/2/3 173/2/3 172/2/3
f 180/3/3 172/3/3 179/3/3
f 181/3/3 174/3/3 173/3/3
f 181/2/3 173/2/3 180/2/3
f 182/3/3 174/3/3 181/3/3
f 183/3/3 174/3/3 182/3/3
f 184/4/3 175/4/3 174/4/3
f 184/3/3 174/3/3 183/3/3
f 185/3/3 176/3/3 175/3/3
f 185/4/3 175/4/3 184/4/3
f 186/5/3 177/5/3 176/5/3
f 186/3/3 176/3/3 185/3/3
f 187/3/3 171/3/3 177/3/3
f 187/5/3 177/5/3 186/5/3
f 188/3/3 171/3/3 187/3/3
f 189/3/3 171/3/3 188/3/3
f 190/5/3 179/5/3 178/5/3
f 190/3/3 178/3/3 170/3/3
f 191/9/3 180/9/3 179/9/3
f 191/5/3 179/5/3 190/5/3
f 192/9/3 180/9/3 191/9/3
f 193/9/3 182/9/3 181/9/3
f 194/9/3 182/9/3 193/9/3
f 195/9/3 184/9/3 183/9/3
f 196/9/3 184/9/3 195/9/3
f 197/9/3 186/9/3 185/9/3
f 198/9/3 186/9/3 197/9/3
f 199/9/3 188/9/3 187/9/3
f 200/5/3 189/5/3 188/5/3
f 200/9/3 188/9/3 199/9/3
f 201/3/3 171/3/3 189/3/3
f 201/5/3 189/5/3 200/5/3
f 202/3/3 171/3/3 201/3/3
f 203/3/3 190/3/3 170/3/3
f 208/3/3 171/3/3 202/3/3
f 209/3/3 203/3/3 170/3/3
f 209/5/3 204/5/3 203/5/3
f 210/5/3 204/5/3 209/5/3
f 211/5/3 206/5/3 205/5/3
f 212/5/3 206/5/3 211/5/3
f 213/3/3 208/3/3 207/3/3
f 214/3/3 210/3/3 209/3/3
f 214/3/3 213/3/3 212/3/3
f 214/3/3 212/3/3 211/3/3
f 214/3/3 209/3/3 170/3/3
f 214/3/3 211/3/3 210/3/3
f 215/3/3 208/3/3 213/3/3
f 215/3/3 213/3/3 214/3/3
f 215/3/3 171/3/3 208/3/3
f 218/4/3 217/4/3 216/4/3
f 219/4/3 217/4/3 218/4/3
f 228/9/3 221/9/3 220/9/3
f 229/9/3 221/9/3 228/9/3
f 230/9/3 223/9/3 222/9/3
f 231/9/3 223/9/3 230/9/3
f 232/9/3 225/9/3 224/9/3
f 233/9/3 225/9/3 232/9/3
f 234/9/3 227/9/3 226/9/3
f 235/9/3 227/9/3 234/9/3
f 238/8/3 237/8/3 236/8/3
f 239/8/3 237/8/3 238/8/3
f 240/5/4 241/5/4 248/5/4
f 242/5/4 243/5/4 249/5/4
f 244/5/4 245/5/4 250/5/4
f 246/5/4 247/5/4 251/5/4
f 240/5/4 248/5/4 252/5/4
f 248/5/4 249/5/4 252/5/4
f 249/5/4 243/5/4 253/5/4
f 252/5/4 249/5/4 253/5/4
f 244/5/4 250/5/4 254/5/4
f 250/5/4 251/5/4 254/5/4
f 251/5/4 247/5/4 255/5/4
f 254/5/4 251/5/4 255/5/4
f 256/7/4 257/7/4 264/7/4
f 264/7/4 257/7/4 265/7/4
f 258/7/4 259/7/4 266/7/4
f 266/7/4 259/7/4 267/7/4
f 260/7/4 261/7/4 268/7/4
f 268/7/4 261/7/4 269/7/4
f 262/7/4 263/7/4 270/7/4
f 270/7/4 263/7/4 271/7/4
f 271/3/4 272/3/4 273/3/4
f 273/3/4 272/3/4 274/3/4
f 276/9/4 277/9/4 278/9/4
f 278/9/4 277/9/4 279/9/4
f 275/5/4 276/5/4 280/5/4
f 276/9/4 278/9/4 281/9/4
f 280/5/4 276/5/4 281/5/4
f 281/9/4 278/9/4 282/9/4
f 283/4/4 284/4/4 285/4/4
f 285/4/4 284/4/4 286/4/4
f 287/3/4 288/3/4 289/3/4
f 289/3/4 288/3/4 290/3/4
f 287/3/4 289/3/4 291/3/4
f 289/8/4 290/8/4 291/8/4
f 290/3/4 288/3/4 292/3/4
f 291/8/4 290/8/4 292/8/4
f 287/3/4 291/3/4 293/3/4
f 291/3/4 292/3/4 293/3/4
f 292/3/4 288/3/4 294/3/4
f 293/3/4 292/3/4 294/3/4
f 297/4/5 296/4/5 295/4/5
f 298/4/5 296/4/5 297/4/5
f 301/3/5 300/3/5 299/3/5
f 302/3/5 300/3/5 301/3/5
f 303/3/5 301/3/5 299/3/5
f 304/3/5 300/3/5 302/3/5
f 305/3/5 303/3/5 299/3/5
f 305/3/5 304/3/5 303/3/5
f 306/3/5 300/3/5 304/3/5
f 306/3/5 304/3/5 305/3/5
f 309/7/5 308/7/5 307/7/5
f 310/7/5 308/7/5 309/7/5
f 313/1/5 312/1/5 311/1/5
f 314/1/5 312/1/5 313/1/5
f 315/6/5 314/6/5 313/6/5
f 316/6/5 314/6/5 315/6/5
f 317/4/5 316/4/5 315/4/5
f 318/4/5 316/4/5 317/4/5
f 322/9/5 320/9/5 319/9/5
f 322/9/5 321/9/5 320/9/5
f 323/9/5 321/9/5 322/9/5
f 327/9/5 325/9/5 324/9/5
f 327/9/5 326/9/5 325/9/5
f 328/9/5 326/9/5 327/9/5
f 331/5/5 330/5/5 329/5/5
f 332/5/5 330/5/5 331/5/5
f 335/5/5 334/5/5 333/5/5
f 336/5/5 334/5/5 335/5/5
f 340/9/5 338/9/5 337/9/5
f 340/9/5 339/9/5 338/9/5
f 341/9/5 339/9/5 340/9/5
f 344/3/5 343/3/5 342/3/5
f 345/3/5 343/3/5 344/3/5
f 348/5/5 347/5/5 346/5/5
f 349/5/5 347/5/5 348/5/5
f 352/5/5 351/5/5 350/5/5
f 353/5/5 351/5/5 352/5/5
f 357/9/5 355/9/5 354/9/5
f 357/9/5 356/9/5 355/9/5
f 358/9/5 356/9/5 357/9/5
f 362/3/5 360/3/5 359/3/5
f 363/3/5 362/3/5 361/3/5
f 364/3/5 360/3/5 362/3/5
f 364/3/5 362/3/5 363/3/5
f 365/7/6 366/7/6 367/7/6
f 367/7/6 366/7/6 368/7/6
f 369/9/6 370/9/6 372/9/6
f 370/9/6 371/9/6 372/9/6
f 372/9/6 371/9/6 373/9/6
f 374/9/6 375/9/6 377/9/6
f 375/9/6 376/9/6 377/9/6
f 377/9/6 376/9/6 378/9/6
f 379/9/6 380/9/6 382/9/6
f 380/9/6 381/9/6 382/9/6
f 382/9/6 381/9/6 383/9/6
f 384/5/6 385/5/6 386/5/6
f 386/5/6 385/5/6 387/5/6
f 388/5/6 389/5/6 390/5/6
f 390/5/6 389/5/6 391/5/6
f 392/1/6 393/1/6 394/1/6
f 394/1/6 393/1/6 395/1/6
f 394/6/6 395/6/6 396/6/6
f 396/6/6 395/6/6 397/6/6
f 396/4/6 397/4/6 400/4/6
f 400/4/6 397/4/6 401/4/6
f 398/9/6 399/9/6 402/9/6
f 399/9/6 400/9/6 402/9/6
f 402/9/6 400/9/6 403/9/6
f 404/5/6 405/5/6 406/5/6
f 406/5/6 405/5/6 407/5/6
f 408/5/6 409/5/6 410/5/6
f 410/5/6 409/5/6 411/5/6
f 410/9/6 411/9/6 412/9/6
f 412/9/6 411/9/6 413/9/6
f 414/5/6 415/5/6 416/5/6
f 416/5/6 415/5/6 417/5/6
f 418/3/6 419/3/6 420/3/6
f 420/3/6 419/3/6 421/3/6
f 422/7/6 423/7/6 424/7/6
f 424/7/6 423/7/6 425/7/6
f 426/3/6 427/3/6 428/3/6
f 428/3/6 427/3/6 429/3/6
