# MagicaVoxel @ Ephtracy

# group
o 

# material
mtllib chertej-11.mtl
usemtl palette

# normals
vn 0 0 -1
vn 0 0 1
vn -1 0 0
vn 1 0 0
vn 0 -1 0
vn 0 1 0

# texcoords
vt 0.0253906 0.5
vt 0.103516 0.5
vt 0.505859 0.5
vt 0.884766 0.5
vt 0.958984 0.5
vt 0.962891 0.5
vt 0.982422 0.5

# verts
v 3.1 5.6 3.3
v 3.3 5.6 3.3
v 3.1 6.3 3.3
v 3.3 6.3 3.3
v 3.1 6.7 3.4
v 3.4 6.7 3.4
v 3.1 6.9 3.4
v 3.4 6.9 3.4
v 2.7 4.4 3.5
v 3.6 4.4 3.5
v 3.7 4.4 3.5
v 3.6 4.5 3.5
v 3.7 4.5 3.5
v 2.7 5 3.5
v 3.6 5 3.5
v 3.7 5 3.5
v 2.8 6.1 3.5
v 2.9 6.1 3.5
v 3.6 6.1 3.5
v 3.7 6.1 3.5
v 2.7 6.2 3.5
v 2.8 6.2 3.5
v 2.9 6.4 3.5
v 3.1 6.4 3.5
v 3.4 6.4 3.5
v 3.6 6.4 3.5
v 3.1 6.5 3.5
v 3.4 6.5 3.5
v 3.1 6.7 3.5
v 3.4 6.7 3.5
v 3.7 6.7 3.5
v 3.8 6.7 3.5
v 2.7 6.8 3.5
v 3.1 6.8 3.5
v 3.4 6.8 3.5
v 3.7 6.8 3.5
v 2.7 6.9 3.5
v 3.1 6.9 3.5
v 3.4 6.9 3.5
v 3.8 6.9 3.5
v 2.6 4.4 3.6
v 2.7 4.4 3.6
v 3.7 4.4 3.6
v 3.8 4.4 3.6
v 3.7 4.5 3.6
v 3.8 4.5 3.6
v 2.6 4.7 3.6
v 2.7 4.7 3.6
v 2.7 5 3.6
v 3.6 5 3.6
v 3.7 5 3.6
v 3.8 5 3.6
v 2.7 5.3 3.6
v 3.6 5.3 3.6
v 3.7 5.3 3.6
v 3.1 5.6 3.6
v 3.3 5.6 3.6
v 3.1 5.8 3.6
v 3.3 5.8 3.6
v 2.8 6.1 3.6
v 2.9 6.1 3.6
v 3.1 6.1 3.6
v 3.3 6.1 3.6
v 3.6 6.1 3.6
v 3.7 6.1 3.6
v 3.8 6.1 3.6
v 2.7 6.2 3.6
v 2.8 6.2 3.6
v 3.1 6.3 3.6
v 3.3 6.3 3.6
v 2.9 6.4 3.6
v 3.1 6.4 3.6
v 3.4 6.4 3.6
v 3.6 6.4 3.6
v 3.1 6.5 3.6
v 3.4 6.5 3.6
v 3.7 6.7 3.6
v 3.8 6.7 3.6
v 3.7 6.4 4.1
v 3.8 6.4 4.1
v 3.7 6.5 4.1
v 3.8 6.5 4.1
v 3.7 6.1 4.3
v 3.8 6.1 4.3
v 3.7 6.4 4.3
v 3.8 6.4 4.3
v 3.1 5.8 3.5
v 3.3 5.8 3.5
v 3.1 6.1 3.5
v 3.3 6.1 3.5
v 3.7 6.1 3.7
v 3.8 6.1 3.7
v 3.7 6.4 3.7
v 3.8 6.4 3.7
v 3.7 6.4 3.9
v 3.8 6.4 3.9
v 3.7 6.5 3.9
v 3.8 6.5 3.9
v 2.6 4.4 4.4
v 2.7 4.4 4.4
v 3.7 4.4 4.4
v 3.8 4.4 4.4
v 3.7 4.5 4.4
v 3.8 4.5 4.4
v 2.6 4.7 4.4
v 2.7 4.7 4.4
v 3.7 4.7 4.4
v 3.8 4.7 4.4
v 2.7 5 4.4
v 3.5 5 4.4
v 3.7 5 4.4
v 2.7 5.3 4.4
v 3.5 5.3 4.4
v 3.7 5.3 4.4
v 2.8 6.1 4.4
v 2.9 6.1 4.4
v 3.6 6.1 4.4
v 3.7 6.1 4.4
v 3.8 6.1 4.4
v 2.7 6.2 4.4
v 2.8 6.2 4.4
v 2.9 6.4 4.4
v 3 6.4 4.4
v 3.4 6.4 4.4
v 3.6 6.4 4.4
v 3 6.5 4.4
v 3.4 6.5 4.4
v 3.7 6.7 4.4
v 3.8 6.7 4.4
v 2.7 4.4 4.5
v 3.5 4.4 4.5
v 3.6 4.4 4.5
v 3.7 4.4 4.5
v 3.6 4.5 4.5
v 3.7 4.5 4.5
v 3.7 4.7 4.5
v 3.8 4.7 4.5
v 2.7 5 4.5
v 3.5 5 4.5
v 3.8 5 4.5
v 2.8 6.1 4.5
v 2.9 6.1 4.5
v 3.6 6.1 4.5
v 3.7 6.1 4.5
v 2.7 6.2 4.5
v 2.8 6.2 4.5
v 2.9 6.4 4.5
v 3 6.4 4.5
v 3.4 6.4 4.5
v 3.6 6.4 4.5
v 3 6.5 4.5
v 3.4 6.5 4.5
v 3.7 6.7 4.5
v 3.8 6.7 4.5
v 2.7 6.8 4.5
v 3.7 6.8 4.5
v 2.7 6.9 4.5
v 3.8 6.9 4.5
v 2.6 4.4 3.6
v 2.6 4.7 3.6
v 2.6 4.4 4.4
v 2.6 4.7 4.4
v 2.7 4.4 3.5
v 2.7 5 3.5
v 2.7 6.2 3.5
v 2.7 6.8 3.5
v 2.7 6.9 3.5
v 2.7 4.4 3.6
v 2.7 4.7 3.6
v 2.7 5 3.6
v 2.7 5.3 3.6
v 2.7 6.2 3.6
v 2.7 6.8 3.6
v 2.7 4.4 4.4
v 2.7 4.7 4.4
v 2.7 5 4.4
v 2.7 5.3 4.4
v 2.7 6.2 4.4
v 2.7 6.8 4.4
v 2.7 4.4 4.5
v 2.7 5 4.5
v 2.7 6.2 4.5
v 2.7 6.8 4.5
v 2.7 6.9 4.5
v 2.8 6.1 3.5
v 2.8 6.2 3.5
v 2.8 6.1 3.6
v 2.8 6.2 3.6
v 2.8 6.1 4.4
v 2.8 6.2 4.4
v 2.8 6.1 4.5
v 2.8 6.2 4.5
v 3.1 5.6 3.3
v 3.1 6.3 3.3
v 3.1 6.7 3.4
v 3.1 6.9 3.4
v 3.1 5.8 3.5
v 3.1 6.1 3.5
v 3.1 6.7 3.5
v 3.1 6.8 3.5
v 3.1 6.9 3.5
v 3.1 5.6 3.6
v 3.1 5.8 3.6
v 3.1 6.1 3.6
v 3.1 6.3 3.6
v 3.4 6.4 3.5
v 3.4 6.5 3.5
v 3.4 6.4 3.6
v 3.4 6.5 3.6
v 3.4 6.4 4.4
v 3.4 6.5 4.4
v 3.4 6.4 4.5
v 3.4 6.5 4.5
v 3.6 6.1 3.5
v 3.6 6.4 3.5
v 3.6 6.1 3.6
v 3.6 6.4 3.6
v 3.6 6.1 4.4
v 3.6 6.4 4.4
v 3.6 6.1 4.5
v 3.6 6.4 4.5
v 2.9 6.1 3.5
v 2.9 6.4 3.5
v 2.9 6.1 3.6
v 2.9 6.4 3.6
v 2.9 6.1 4.4
v 2.9 6.4 4.4
v 2.9 6.1 4.5
v 2.9 6.4 4.5
v 3 6.4 4.4
v 3 6.5 4.4
v 3 6.4 4.5
v 3 6.5 4.5
v 3.1 6.4 3.5
v 3.1 6.5 3.5
v 3.1 6.4 3.6
v 3.1 6.5 3.6
v 3.3 5.6 3.3
v 3.3 6.3 3.3
v 3.3 5.8 3.5
v 3.3 6.1 3.5
v 3.3 5.6 3.6
v 3.3 5.8 3.6
v 3.3 6.1 3.6
v 3.3 6.3 3.6
v 3.4 6.7 3.4
v 3.4 6.9 3.4
v 3.4 6.7 3.5
v 3.4 6.8 3.5
v 3.4 6.9 3.5
v 3.7 4.4 3.5
v 3.7 4.5 3.5
v 3.7 5 3.5
v 3.7 6.1 3.5
v 3.7 6.7 3.5
v 3.7 4.4 3.6
v 3.7 4.5 3.6
v 3.7 5 3.6
v 3.7 5.3 3.6
v 3.7 6.1 3.6
v 3.7 6.7 3.6
v 3.7 6.1 3.7
v 3.7 6.4 3.7
v 3.7 5 3.8
v 3.7 5 3.9
v 3.7 6.4 3.9
v 3.7 6.5 3.9
v 3.7 5.1 4.1
v 3.7 5.3 4.1
v 3.7 6.4 4.1
v 3.7 6.5 4.1
v 3.7 5 4.2
v 3.7 5.1 4.2
v 3.7 5.3 4.2
v 3.7 6.1 4.3
v 3.7 6.4 4.3
v 3.7 4.4 4.4
v 3.7 4.5 4.4
v 3.7 4.7 4.4
v 3.7 5 4.4
v 3.7 5.3 4.4
v 3.7 6.1 4.4
v 3.7 6.7 4.4
v 3.7 4.4 4.5
v 3.7 4.5 4.5
v 3.7 4.7 4.5
v 3.7 6.1 4.5
v 3.7 6.7 4.5
v 3.8 6.7 3.5
v 3.8 6.9 3.5
v 3.8 4.4 3.6
v 3.8 4.5 3.6
v 3.8 5 3.6
v 3.8 6.1 3.6
v 3.8 6.7 3.6
v 3.8 6.8 3.6
v 3.8 6.1 3.7
v 3.8 6.4 3.7
v 3.8 4.8 3.8
v 3.8 5 3.8
v 3.8 4.8 3.9
v 3.8 5 3.9
v 3.8 6.4 3.9
v 3.8 6.5 3.9
v 3.8 4.8 4.1
v 3.8 4.9 4.1
v 3.8 6.4 4.1
v 3.8 6.5 4.1
v 3.8 4.6 4.2
v 3.8 4.7 4.2
v 3.8 4.8 4.2
v 3.8 4.9 4.2
v 3.8 5 4.2
v 3.8 4.6 4.3
v 3.8 4.7 4.3
v 3.8 6.1 4.3
v 3.8 6.4 4.3
v 3.8 4.4 4.4
v 3.8 4.5 4.4
v 3.8 4.7 4.4
v 3.8 6.1 4.4
v 3.8 6.7 4.4
v 3.8 6.8 4.4
v 3.8 4.7 4.5
v 3.8 5 4.5
v 3.8 6.7 4.5
v 3.8 6.9 4.5
v 2.6 4.4 3.6
v 2.6 4.4 4.4
v 2.7 4.4 3.5
v 2.7 4.4 3.6
v 2.7 4.4 4.3
v 2.7 4.4 4.4
v 2.7 4.4 4.5
v 2.8 4.4 4.2
v 2.8 4.4 4.3
v 2.8 4.4 4.4
v 2.9 4.4 4.1
v 2.9 4.4 4.2
v 2.9 4.4 4.3
v 3 4.4 4
v 3 4.4 4.1
v 3 4.4 4.2
v 3.1 4.4 4
v 3.1 4.4 4.1
v 3.5 4.4 3.6
v 3.5 4.4 3.7
v 3.5 4.4 4.4
v 3.5 4.4 4.5
v 3.6 4.4 3.5
v 3.6 4.4 3.6
v 3.6 4.4 3.7
v 3.6 4.4 3.9
v 3.6 4.4 4.2
v 3.6 4.4 4.4
v 3.6 4.4 4.5
v 3.7 4.4 3.5
v 3.7 4.4 3.6
v 3.7 4.4 3.9
v 3.7 4.4 4.2
v 3.7 4.4 4.4
v 3.7 4.4 4.5
v 3.8 4.4 3.6
v 3.8 4.4 4.4
v 3.7 4.7 4.4
v 3.7 4.7 4.5
v 3.8 4.7 4.4
v 3.8 4.7 4.5
v 3.1 5.6 3.3
v 3.1 5.6 3.6
v 3.3 5.6 3.3
v 3.3 5.6 3.6
v 2.8 6.1 3.5
v 2.8 6.1 3.6
v 2.8 6.1 4.4
v 2.8 6.1 4.5
v 2.9 6.1 3.5
v 2.9 6.1 3.6
v 2.9 6.1 4.4
v 2.9 6.1 4.5
v 3.1 6.1 3.5
v 3.1 6.1 3.6
v 3.3 6.1 3.5
v 3.3 6.1 3.6
v 3.6 6.1 3.5
v 3.6 6.1 3.6
v 3.6 6.1 4.4
v 3.6 6.1 4.5
v 3.7 6.1 3.5
v 3.7 6.1 3.6
v 3.7 6.1 3.7
v 3.7 6.1 4.3
v 3.7 6.1 4.4
v 3.7 6.1 4.5
v 3.8 6.1 3.6
v 3.8 6.1 3.7
v 3.8 6.1 4.3
v 3.8 6.1 4.4
v 2.7 6.2 3.5
v 2.7 6.2 3.6
v 2.7 6.2 4.4
v 2.7 6.2 4.5
v 2.8 6.2 3.5
v 2.8 6.2 3.6
v 2.8 6.2 4.4
v 2.8 6.2 4.5
v 2.9 6.4 3.5
v 2.9 6.4 3.6
v 2.9 6.4 4.4
v 2.9 6.4 4.5
v 3 6.4 4.4
v 3 6.4 4.5
v 3.1 6.4 3.5
v 3.1 6.4 3.6
v 3.4 6.4 3.5
v 3.4 6.4 3.6
v 3.4 6.4 4.4
v 3.4 6.4 4.5
v 3.6 6.4 3.5
v 3.6 6.4 3.6
v 3.6 6.4 4.4
v 3.6 6.4 4.5
v 3.7 6.4 3.7
v 3.7 6.4 3.9
v 3.7 6.4 4.1
v 3.7 6.4 4.3
v 3.8 6.4 3.7
v 3.8 6.4 3.9
v 3.8 6.4 4.1
v 3.8 6.4 4.3
v 3 6.5 4.4
v 3 6.5 4.5
v 3.1 6.5 3.5
v 3.1 6.5 3.6
v 3.4 6.5 3.5
v 3.4 6.5 3.6
v 3.4 6.5 4.4
v 3.4 6.5 4.5
v 3.7 6.5 3.9
v 3.7 6.5 4.1
v 3.8 6.5 3.9
v 3.8 6.5 4.1
v 3.1 6.7 3.4
v 3.1 6.7 3.5
v 3.4 6.7 3.4
v 3.4 6.7 3.5
v 3.7 6.7 3.5
v 3.7 6.7 3.6
v 3.7 6.7 4.4
v 3.7 6.7 4.5
v 3.8 6.7 3.5
v 3.8 6.7 3.6
v 3.8 6.7 4.4
v 3.8 6.7 4.5
v 2.6 4.7 3.6
v 2.6 4.7 4.4
v 2.7 4.7 3.6
v 2.7 4.7 4.4
v 2.7 5 3.5
v 2.7 5 3.6
v 2.7 5 4.4
v 2.7 5 4.5
v 3.5 5 4.4
v 3.5 5 4.5
v 3.6 5 3.5
v 3.6 5 3.6
v 3.7 5 3.5
v 3.7 5 3.6
v 3.7 5 3.8
v 3.7 5 3.9
v 3.7 5 4.2
v 3.7 5 4.4
v 3.8 5 3.6
v 3.8 5 3.8
v 3.8 5 3.9
v 3.8 5 4.2
v 3.8 5 4.5
v 3.1 5.8 3.5
v 3.1 5.8 3.6
v 3.3 5.8 3.5
v 3.3 5.8 3.6
v 3.1 6.3 3.3
v 3.1 6.3 3.6
v 3.3 6.3 3.3
v 3.3 6.3 3.6
v 2.7 6.9 3.5
v 2.7 6.9 4.5
v 3.1 6.9 3.4
v 3.1 6.9 3.5
v 3.4 6.9 3.4
v 3.4 6.9 3.5
v 3.8 6.9 3.5
v 3.8 6.9 4.5

# faces
f 3/1/1 2/1/1 1/1/1
f 4/1/1 2/1/1 3/1/1
f 7/1/1 6/1/1 5/1/1
f 8/1/1 6/1/1 7/1/1
f 12/1/1 10/1/1 9/1/1
f 12/2/1 11/2/1 10/2/1
f 13/2/1 11/2/1 12/2/1
f 14/1/1 12/1/1 9/1/1
f 15/7/1 13/7/1 12/7/1
f 15/1/1 12/1/1 14/1/1
f 16/7/1 13/7/1 15/7/1
f 22/5/1 18/5/1 17/5/1
f 23/5/1 18/5/1 22/5/1
f 23/5/1 22/5/1 21/5/1
f 26/5/1 20/5/1 19/5/1
f 27/5/1 24/5/1 23/5/1
f 28/5/1 26/5/1 25/5/1
f 29/5/1 27/5/1 23/5/1
f 29/5/1 28/5/1 27/5/1
f 30/5/1 26/5/1 28/5/1
f 30/5/1 28/5/1 29/5/1
f 31/5/1 20/5/1 26/5/1
f 31/5/1 26/5/1 30/5/1
f 33/5/1 29/5/1 23/5/1
f 33/5/1 23/5/1 21/5/1
f 34/5/1 29/5/1 33/5/1
f 35/5/1 31/5/1 30/5/1
f 36/1/1 32/1/1 31/1/1
f 36/5/1 31/5/1 35/5/1
f 37/1/1 34/1/1 33/1/1
f 38/1/1 34/1/1 37/1/1
f 39/1/1 36/1/1 35/1/1
f 40/1/1 32/1/1 36/1/1
f 40/1/1 36/1/1 39/1/1
f 45/2/1 44/2/1 43/2/1
f 46/2/1 44/2/1 45/2/1
f 47/1/1 42/1/1 41/1/1
f 48/1/1 42/1/1 47/1/1
f 51/7/1 46/7/1 45/7/1
f 52/7/1 46/7/1 51/7/1
f 53/1/1 50/1/1 49/1/1
f 54/7/1 51/7/1 50/7/1
f 54/1/1 50/1/1 53/1/1
f 55/7/1 51/7/1 54/7/1
f 56/6/1 54/6/1 53/6/1
f 56/6/1 55/6/1 54/6/1
f 57/6/1 55/6/1 56/6/1
f 58/6/1 56/6/1 53/6/1
f 59/6/1 55/6/1 57/6/1
f 60/6/1 58/6/1 53/6/1
f 60/6/1 59/6/1 58/6/1
f 61/6/1 59/6/1 60/6/1
f 62/6/1 59/6/1 61/6/1
f 63/6/1 55/6/1 59/6/1
f 63/6/1 59/6/1 62/6/1
f 64/6/1 55/6/1 63/6/1
f 65/6/1 55/6/1 64/6/1
f 67/6/1 60/6/1 53/6/1
f 68/6/1 60/6/1 67/6/1
f 69/6/1 62/6/1 61/6/1
f 70/6/1 64/6/1 63/6/1
f 71/6/1 69/6/1 61/6/1
f 71/6/1 70/6/1 69/6/1
f 72/6/1 70/6/1 71/6/1
f 73/6/1 64/6/1 70/6/1
f 73/6/1 70/6/1 72/6/1
f 74/6/1 64/6/1 73/6/1
f 75/6/1 73/6/1 72/6/1
f 76/6/1 73/6/1 75/6/1
f 77/5/1 66/5/1 65/5/1
f 78/5/1 66/5/1 77/5/1
f 81/5/1 80/5/1 79/5/1
f 82/5/1 80/5/1 81/5/1
f 85/5/1 84/5/1 83/5/1
f 86/5/1 84/5/1 85/5/1
f 87/1/2 88/1/2 89/1/2
f 89/1/2 88/1/2 90/1/2
f 91/5/2 92/5/2 93/5/2
f 93/5/2 92/5/2 94/5/2
f 95/5/2 96/5/2 97/5/2
f 97/5/2 96/5/2 98/5/2
f 101/2/2 102/2/2 103/2/2
f 103/2/2 102/2/2 104/2/2
f 99/1/2 100/1/2 105/1/2
f 105/1/2 100/1/2 106/1/2
f 103/7/2 104/7/2 107/7/2
f 107/7/2 104/7/2 108/7/2
f 109/1/2 110/1/2 112/1/2
f 110/7/2 111/7/2 113/7/2
f 112/1/2 110/1/2 113/1/2
f 113/7/2 111/7/2 114/7/2
f 112/6/2 113/6/2 115/6/2
f 113/6/2 114/6/2 115/6/2
f 115/6/2 114/6/2 116/6/2
f 116/6/2 114/6/2 117/6/2
f 117/6/2 114/6/2 118/6/2
f 112/6/2 115/6/2 120/6/2
f 120/6/2 115/6/2 121/6/2
f 116/6/2 117/6/2 122/6/2
f 122/6/2 117/6/2 123/6/2
f 123/6/2 117/6/2 124/6/2
f 124/6/2 117/6/2 125/6/2
f 123/6/2 124/6/2 126/6/2
f 126/6/2 124/6/2 127/6/2
f 118/5/2 119/5/2 128/5/2
f 128/5/2 119/5/2 129/5/2
f 131/7/2 132/7/2 134/7/2
f 132/2/2 133/2/2 134/2/2
f 134/2/2 133/2/2 135/2/2
f 134/7/2 135/7/2 136/7/2
f 130/1/2 131/1/2 138/1/2
f 136/7/2 137/7/2 139/7/2
f 138/1/2 131/1/2 139/1/2
f 131/7/2 134/7/2 139/7/2
f 134/7/2 136/7/2 139/7/2
f 139/7/2 137/7/2 140/7/2
f 141/5/2 142/5/2 146/5/2
f 146/5/2 142/5/2 147/5/2
f 145/5/2 146/5/2 147/5/2
f 143/5/2 144/5/2 150/5/2
f 147/5/2 148/5/2 151/5/2
f 149/5/2 150/5/2 152/5/2
f 150/5/2 144/5/2 153/5/2
f 151/5/2 152/5/2 153/5/2
f 152/5/2 150/5/2 153/5/2
f 147/5/2 151/5/2 155/5/2
f 145/5/2 147/5/2 155/5/2
f 151/5/2 153/5/2 155/5/2
f 153/1/2 154/1/2 156/1/2
f 155/5/2 153/5/2 156/5/2
f 155/1/2 156/1/2 157/1/2
f 156/1/2 154/1/2 158/1/2
f 157/1/2 156/1/2 158/1/2
f 161/1/3 160/1/3 159/1/3
f 162/1/3 160/1/3 161/1/3
f 168/1/3 164/1/3 163/1/3
f 169/1/3 164/1/3 168/1/3
f 170/1/3 164/1/3 169/1/3
f 172/5/3 166/5/3 165/5/3
f 173/1/3 167/1/3 166/1/3
f 173/5/3 166/5/3 172/5/3
f 175/1/3 171/1/3 170/1/3
f 175/1/3 170/1/3 169/1/3
f 176/1/3 171/1/3 175/1/3
f 177/6/3 172/6/3 171/6/3
f 177/1/3 171/1/3 176/1/3
f 177/6/3 173/6/3 172/6/3
f 178/6/3 173/6/3 177/6/3
f 179/1/3 167/1/3 173/1/3
f 179/6/3 173/6/3 178/6/3
f 180/1/3 176/1/3 175/1/3
f 180/1/3 175/1/3 174/1/3
f 181/1/3 176/1/3 180/1/3
f 182/5/3 179/5/3 178/5/3
f 183/1/3 167/1/3 179/1/3
f 183/5/3 179/5/3 182/5/3
f 184/1/3 167/1/3 183/1/3
f 187/5/3 186/5/3 185/5/3
f 188/5/3 186/5/3 187/5/3
f 191/5/3 190/5/3 189/5/3
f 192/5/3 190/5/3 191/5/3
f 197/1/3 194/1/3 193/1/3
f 198/1/3 194/1/3 197/1/3
f 199/1/3 196/1/3 195/1/3
f 200/1/3 196/1/3 199/1/3
f 201/1/3 196/1/3 200/1/3
f 202/1/3 197/1/3 193/1/3
f 203/1/3 197/1/3 202/1/3
f 204/1/3 194/1/3 198/1/3
f 205/1/3 194/1/3 204/1/3
f 208/5/3 207/5/3 206/5/3
f 209/5/3 207/5/3 208/5/3
f 212/5/3 211/5/3 210/5/3
f 213/5/3 211/5/3 212/5/3
f 216/5/3 215/5/3 214/5/3
f 217/5/3 215/5/3 216/5/3
f 220/5/3 219/5/3 218/5/3
f 221/5/3 219/5/3 220/5/3
f 222/5/4 223/5/4 224/5/4
f 224/5/4 223/5/4 225/5/4
f 226/5/4 227/5/4 228/5/4
f 228/5/4 227/5/4 229/5/4
f 230/5/4 231/5/4 232/5/4
f 232/5/4 231/5/4 233/5/4
f 234/5/4 235/5/4 236/5/4
f 236/5/4 235/5/4 237/5/4
f 238/1/4 239/1/4 240/1/4
f 240/1/4 239/1/4 241/1/4
f 238/1/4 240/1/4 242/1/4
f 242/1/4 240/1/4 243/1/4
f 241/1/4 239/1/4 244/1/4
f 244/1/4 239/1/4 245/1/4
f 246/1/4 247/1/4 248/1/4
f 248/1/4 247/1/4 249/1/4
f 249/1/4 247/1/4 250/1/4
f 251/2/4 252/2/4 256/2/4
f 252/7/4 253/7/4 257/7/4
f 256/2/4 252/2/4 257/2/4
f 257/7/4 253/7/4 258/7/4
f 254/5/4 255/5/4 260/5/4
f 260/5/4 255/5/4 261/5/4
f 259/6/4 260/6/4 262/6/4
f 258/7/4 259/7/4 264/7/4
f 264/7/4 259/7/4 265/7/4
f 262/6/4 263/6/4 266/6/4
f 265/7/4 259/7/4 268/7/4
f 266/6/4 267/6/4 269/6/4
f 268/7/4 259/7/4 269/7/4
f 259/6/4 262/6/4 269/6/4
f 262/6/4 266/6/4 269/6/4
f 269/6/4 267/6/4 270/6/4
f 270/6/4 267/6/4 271/6/4
f 265/7/4 268/7/4 272/7/4
f 268/1/4 269/1/4 273/1/4
f 272/7/4 268/7/4 273/7/4
f 269/6/4 270/6/4 274/6/4
f 273/1/4 269/1/4 274/1/4
f 274/6/4 270/6/4 275/6/4
f 275/6/4 270/6/4 276/6/4
f 272/7/4 273/7/4 280/7/4
f 273/7/4 274/7/4 280/7/4
f 274/6/4 275/6/4 281/6/4
f 280/7/4 274/7/4 281/7/4
f 281/6/4 275/6/4 282/6/4
f 277/2/4 278/2/4 284/2/4
f 278/7/4 279/7/4 285/7/4
f 284/2/4 278/2/4 285/2/4
f 285/7/4 279/7/4 286/7/4
f 282/5/4 283/5/4 287/5/4
f 287/5/4 283/5/4 288/5/4
f 289/1/4 290/1/4 295/1/4
f 295/1/4 290/1/4 296/1/4
f 294/5/4 295/5/4 297/5/4
f 295/5/4 296/5/4 297/5/4
f 297/5/4 296/5/4 298/5/4
f 292/7/4 293/7/4 299/7/4
f 299/7/4 293/7/4 300/7/4
f 292/7/4 299/7/4 301/7/4
f 299/1/4 300/1/4 301/1/4
f 301/1/4 300/1/4 302/1/4
f 298/5/4 296/5/4 303/5/4
f 303/5/4 296/5/4 304/5/4
f 301/3/4 302/3/4 305/3/4
f 292/7/4 301/7/4 305/7/4
f 305/3/4 302/3/4 306/3/4
f 304/5/4 296/5/4 308/5/4
f 292/7/4 305/7/4 309/7/4
f 309/7/4 305/7/4 310/7/4
f 305/1/4 306/1/4 311/1/4
f 310/7/4 305/7/4 311/7/4
f 306/3/4 302/3/4 312/3/4
f 311/1/4 306/1/4 312/1/4
f 312/3/4 302/3/4 313/3/4
f 309/4/4 310/4/4 314/4/4
f 292/7/4 309/7/4 314/7/4
f 310/7/4 311/7/4 315/7/4
f 314/4/4 310/4/4 315/4/4
f 312/7/4 313/7/4 315/7/4
f 311/7/4 312/7/4 315/7/4
f 307/5/4 308/5/4 317/5/4
f 291/2/4 292/2/4 318/2/4
f 292/7/4 314/7/4 319/7/4
f 318/2/4 292/2/4 319/2/4
f 314/7/4 315/7/4 319/7/4
f 315/7/4 313/7/4 320/7/4
f 319/7/4 315/7/4 320/7/4
f 316/5/4 317/5/4 321/5/4
f 317/5/4 308/5/4 322/5/4
f 321/5/4 317/5/4 322/5/4
f 308/5/4 296/5/4 322/5/4
f 296/1/4 290/1/4 323/1/4
f 322/5/4 296/5/4 323/5/4
f 320/7/4 313/7/4 324/7/4
f 324/7/4 313/7/4 325/7/4
f 322/1/4 323/1/4 326/1/4
f 323/1/4 290/1/4 327/1/4
f 326/1/4 323/1/4 327/1/4
f 331/1/5 329/1/5 328/1/5
f 332/1/5 329/1/5 331/1/5
f 333/1/5 329/1/5 332/1/5
f 335/1/5 331/1/5 330/1/5
f 335/1/5 332/1/5 331/1/5
f 336/7/5 333/7/5 332/7/5
f 336/1/5 332/1/5 335/1/5
f 337/1/5 334/1/5 333/1/5
f 337/7/5 333/7/5 336/7/5
f 338/1/5 335/1/5 330/1/5
f 339/7/5 336/7/5 335/7/5
f 339/1/5 335/1/5 338/1/5
f 340/1/5 337/1/5 336/1/5
f 340/7/5 336/7/5 339/7/5
f 341/1/5 338/1/5 330/1/5
f 342/7/5 339/7/5 338/7/5
f 342/1/5 338/1/5 341/1/5
f 343/1/5 340/1/5 339/1/5
f 343/7/5 339/7/5 342/7/5
f 344/1/5 341/1/5 330/1/5
f 344/7/5 342/7/5 341/7/5
f 345/1/5 343/1/5 342/1/5
f 345/7/5 342/7/5 344/7/5
f 346/1/5 344/1/5 330/1/5
f 346/1/5 345/1/5 344/1/5
f 347/1/5 345/1/5 346/1/5
f 348/1/5 337/1/5 340/1/5
f 348/1/5 345/1/5 347/1/5
f 348/1/5 334/1/5 337/1/5
f 348/1/5 340/1/5 343/1/5
f 348/1/5 343/1/5 345/1/5
f 349/1/5 334/1/5 348/1/5
f 350/1/5 346/1/5 330/1/5
f 351/7/5 347/7/5 346/7/5
f 351/1/5 346/1/5 350/1/5
f 352/1/5 348/1/5 347/1/5
f 352/7/5 347/7/5 351/7/5
f 353/1/5 348/1/5 352/1/5
f 354/1/5 348/1/5 353/1/5
f 355/7/5 349/7/5 348/7/5
f 355/1/5 348/1/5 354/1/5
f 356/7/5 349/7/5 355/7/5
f 357/2/5 351/2/5 350/2/5
f 358/1/5 352/1/5 351/1/5
f 358/2/5 351/2/5 357/2/5
f 358/1/5 353/1/5 352/1/5
f 359/7/5 354/7/5 353/7/5
f 359/1/5 353/1/5 358/1/5
f 360/1/5 355/1/5 354/1/5
f 360/7/5 354/7/5 359/7/5
f 361/2/5 356/2/5 355/2/5
f 361/1/5 355/1/5 360/1/5
f 362/2/5 356/2/5 361/2/5
f 363/2/5 360/2/5 359/2/5
f 363/2/5 361/2/5 360/2/5
f 363/2/5 359/2/5 358/2/5
f 364/2/5 361/2/5 363/2/5
f 367/7/5 366/7/5 365/7/5
f 368/7/5 366/7/5 367/7/5
f 371/1/5 370/1/5 369/1/5
f 372/1/5 370/1/5 371/1/5
f 377/5/5 374/5/5 373/5/5
f 378/5/5 374/5/5 377/5/5
f 379/5/5 376/5/5 375/5/5
f 380/5/5 376/5/5 379/5/5
f 383/1/5 382/1/5 381/1/5
f 384/1/5 382/1/5 383/1/5
f 389/5/5 386/5/5 385/5/5
f 390/5/5 386/5/5 389/5/5
f 393/5/5 388/5/5 387/5/5
f 394/5/5 388/5/5 393/5/5
f 395/5/5 391/5/5 390/5/5
f 396/5/5 391/5/5 395/5/5
f 397/5/5 393/5/5 392/5/5
f 398/5/5 393/5/5 397/5/5
f 403/5/5 400/5/5 399/5/5
f 404/5/5 400/5/5 403/5/5
f 405/5/5 402/5/5 401/5/5
f 406/5/5 402/5/5 405/5/5
f 411/5/5 410/5/5 409/5/5
f 412/5/5 410/5/5 411/5/5
f 413/5/5 408/5/5 407/5/5
f 414/5/5 408/5/5 413/5/5
f 419/5/5 416/5/5 415/5/5
f 420/5/5 416/5/5 419/5/5
f 421/5/5 418/5/5 417/5/5
f 422/5/5 418/5/5 421/5/5
f 427/5/5 424/5/5 423/5/5
f 428/5/5 424/5/5 427/5/5
f 429/5/5 426/5/5 425/5/5
f 430/5/5 426/5/5 429/5/5
f 435/5/5 434/5/5 433/5/5
f 436/5/5 434/5/5 435/5/5
f 437/5/5 432/5/5 431/5/5
f 438/5/5 432/5/5 437/5/5
f 441/5/5 440/5/5 439/5/5
f 442/5/5 440/5/5 441/5/5
f 445/1/5 444/1/5 443/1/5
f 446/1/5 444/1/5 445/1/5
f 451/1/5 448/1/5 447/1/5
f 452/1/5 448/1/5 451/1/5
f 453/1/5 450/1/5 449/1/5
f 454/1/5 450/1/5 453/1/5
f 455/1/6 456/1/6 457/1/6
f 457/1/6 456/1/6 458/1/6
f 461/1/6 462/1/6 463/1/6
f 463/1/6 462/1/6 464/1/6
f 459/1/6 460/1/6 465/1/6
f 465/1/6 460/1/6 466/1/6
f 465/7/6 466/7/6 467/7/6
f 467/7/6 466/7/6 468/7/6
f 463/7/6 464/7/6 472/7/6
f 468/7/6 469/7/6 473/7/6
f 469/1/6 470/1/6 474/1/6
f 473/7/6 469/7/6 474/7/6
f 470/3/6 471/3/6 475/3/6
f 474/1/6 470/1/6 475/1/6
f 471/7/6 472/7/6 476/7/6
f 475/3/6 471/3/6 476/3/6
f 472/7/6 464/7/6 477/7/6
f 476/7/6 472/7/6 477/7/6
f 478/1/6 479/1/6 480/1/6
f 480/1/6 479/1/6 481/1/6
f 482/1/6 483/1/6 484/1/6
f 484/1/6 483/1/6 485/1/6
f 486/1/6 487/1/6 489/1/6
f 488/1/6 489/1/6 490/1/6
f 489/1/6 487/1/6 491/1/6
f 490/1/6 489/1/6 491/1/6
f 491/1/6 487/1/6 492/1/6
f 492/1/6 487/1/6 493/1/6
