# MagicaVoxel @ Ephtracy

# group
o 

# material
mtllib chertej-4.mtl
usemtl palette

# normals
vn -1 0 0
vn 1 0 0
vn 0 0 1
vn 0 0 -1
vn 0 -1 0
vn 0 1 0

# texcoords
vt 0.0566406 0.5
vt 0.533203 0.5
vt 0.837891 0.5
vt 0.958984 0.5

# verts
v -2.5 1.7 1.5
v -2.5 1.7 1.4
v -2.5 1.7 -1.7
v -2.5 2 1.4
v -2.5 2 -1.7
v -2.5 2.1 1.5
v -2.5 2.1 -1.7
v -2.1 -2.1 1.3
v -2.1 -2.1 0.9
v -2.1 -2.1 -1.3
v -2.1 -2.1 -1.7
v -2.1 -1.9 1.3
v -2.1 -1.9 1.2
v -2.1 -1.9 0.9
v -2.1 -1.9 -1.3
v -2.1 -1.9 -1.7
v -2.1 1.7 1.3
v -2.1 1.7 1.2
v -2.1 1.7 -1.7
v -1.9 -1.7 1.5
v -1.9 -1.7 1.3
v -1.9 0.5 1.5
v -1.9 0.5 1.3
v -1.9 0.7 1.5
v -1.9 0.7 1.3
v -1.9 1.5 1.5
v -1.9 1.5 1.3
v -1.3 1.1 1.7
v -1.3 1.1 1.5
v -1.3 1.3 1.7
v -1.3 1.3 1.5
v -0.3 -1.5 1.5
v -0.3 -1.5 1.3
v -0.3 -1.3 1.3
v -0.3 -1.1 1.3
v -0.3 -0.9 1.3
v -0.3 -0.7 1.3
v -0.3 -0.5 1.3
v -0.3 -0.3 1.3
v -0.3 -0.0999999 1.3
v -0.3 0.0999999 1.3
v -0.3 0.3 1.5
v -0.3 0.3 1.3
v 0.0999999 -1.7 1.5
v 0.0999999 -1.7 1.3
v 0.0999999 0.5 1.5
v 0.0999999 0.5 1.3
v 0.0999999 0.7 1.5
v 0.0999999 0.7 1.3
v 0.0999999 1.5 1.5
v 0.0999999 1.5 1.3
v 0.7 1.1 1.7
v 0.7 1.1 1.5
v 0.7 1.3 1.7
v 0.7 1.3 1.5
v 1.7 -2.1 1.3
v 1.7 -2.1 0.9
v 1.7 -2.1 -1.3
v 1.7 -2.1 -1.7
v 1.7 -1.9 1.3
v 1.7 -1.9 1.2
v 1.7 -1.9 0.9
v 1.7 -1.9 -1.3
v 1.7 -1.9 -1.7
v 1.7 -1.5 1.5
v 1.7 -1.5 1.3
v 1.7 -1.3 1.3
v 1.7 -1.1 1.3
v 1.7 -0.9 1.3
v 1.7 -0.7 1.3
v 1.7 -0.5 1.3
v 1.7 -0.3 1.3
v 1.7 -0.0999999 1.3
v 1.7 0.0999999 1.3
v 1.7 0.3 1.5
v 1.7 0.3 1.3
v -1.7 -2.1 1.3
v -1.7 -2.1 0.9
v -1.7 -2.1 -1.3
v -1.7 -2.1 -1.7
v -1.7 -1.9 1.3
v -1.7 -1.9 1.2
v -1.7 -1.9 0.9
v -1.7 -1.9 -1.3
v -1.7 -1.9 -1.7
v -1.7 -1.5 1.5
v -1.7 -1.5 1.3
v -1.7 -1.3 1.3
v -1.7 -1.1 1.3
v -1.7 -0.9 1.3
v -1.7 -0.7 1.3
v -1.7 -0.5 1.3
v -1.7 -0.3 1.3
v -1.7 -0.0999999 1.3
v -1.7 0.0999999 1.3
v -1.7 0.3 1.5
v -1.7 0.3 1.3
v -0.7 1.1 1.7
v -0.7 1.1 1.5
v -0.7 1.3 1.7
v -0.7 1.3 1.5
v -0.1 -1.7 1.5
v -0.1 -1.7 1.3
v -0.1 0.5 1.5
v -0.1 0.5 1.3
v -0.1 0.7 1.5
v -0.1 0.7 1.3
v -0.1 1.5 1.5
v -0.1 1.5 1.3
v 0.3 -1.5 1.5
v 0.3 -1.5 1.3
v 0.3 -1.3 1.3
v 0.3 -1.1 1.3
v 0.3 -0.9 1.3
v 0.3 -0.7 1.3
v 0.3 -0.5 1.3
v 0.3 -0.3 1.3
v 0.3 -0.0999999 1.3
v 0.3 0.0999999 1.3
v 0.3 0.3 1.5
v 0.3 0.3 1.3
v 1.3 1.1 1.7
v 1.3 1.1 1.5
v 1.3 1.3 1.7
v 1.3 1.3 1.5
v 1.9 -1.7 1.5
v 1.9 -1.7 1.3
v 1.9 0.5 1.5
v 1.9 0.5 1.3
v 1.9 0.7 1.5
v 1.9 0.7 1.3
v 1.9 1.5 1.5
v 1.9 1.5 1.3
v 2.1 -2.1 1.3
v 2.1 -2.1 0.9
v 2.1 -2.1 -1.3
v 2.1 -2.1 -1.7
v 2.1 -1.9 1.3
v 2.1 -1.9 0.9
v 2.1 -1.9 -1.3
v 2.1 -1.9 -1.7
v 2.1 1.7 1.3
v 2.1 1.7 -1.7
v 2.5 1.7 1.5
v 2.5 1.7 -1.7
v 2.5 2.1 1.5
v 2.5 2.1 -1.7
v -1.3 1.1 1.7
v -1.3 1.3 1.7
v -0.7 1.1 1.7
v -0.7 1.3 1.7
v 0.7 1.1 1.7
v 0.7 1.3 1.7
v 1.3 1.1 1.7
v 1.3 1.3 1.7
v -2.5 1.7 1.5
v -2.5 2.1 1.5
v -1.9 -1.7 1.5
v -1.9 0.5 1.5
v -1.9 0.7 1.5
v -1.9 1.5 1.5
v -1.7 -1.5 1.5
v -1.7 0.3 1.5
v -1.3 1.1 1.5
v -1.3 1.3 1.5
v -0.7 1.1 1.5
v -0.7 1.3 1.5
v -0.3 -1.5 1.5
v -0.3 0.3 1.5
v -0.1 -1.7 1.5
v -0.1 0.5 1.5
v -0.1 0.7 1.5
v -0.1 1.5 1.5
v 0.0999999 -1.7 1.5
v 0.0999999 0.5 1.5
v 0.0999999 0.7 1.5
v 0.0999999 1.5 1.5
v 0.3 -1.5 1.5
v 0.3 0.3 1.5
v 0.7 1.1 1.5
v 0.7 1.3 1.5
v 1.3 1.1 1.5
v 1.3 1.3 1.5
v 1.7 -1.5 1.5
v 1.7 0.3 1.5
v 1.9 -1.7 1.5
v 1.9 0.5 1.5
v 1.9 0.7 1.5
v 1.9 1.5 1.5
v 2.5 1.7 1.5
v 2.5 2.1 1.5
v -2.1 -2.1 1.3
v -2.1 -1.9 1.3
v -2.1 1.7 1.3
v -1.9 -1.7 1.3
v -1.9 0.5 1.3
v -1.9 0.7 1.3
v -1.9 1.5 1.3
v -1.7 -2.1 1.3
v -1.7 -1.9 1.3
v -1.7 -1.5 1.3
v -1.7 -1.3 1.3
v -1.7 -1.1 1.3
v -1.7 -0.9 1.3
v -1.7 -0.7 1.3
v -1.7 -0.5 1.3
v -1.7 -0.3 1.3
v -1.7 -0.0999999 1.3
v -1.7 0.0999999 1.3
v -1.7 0.3 1.3
v -1.5 -1.5 1.3
v -1.5 -1.3 1.3
v -1.5 -1.1 1.3
v -1.5 -0.9 1.3
v -1.5 -0.7 1.3
v -1.5 -0.5 1.3
v -1.5 -0.3 1.3
v -1.5 -0.0999999 1.3
v -1.5 0.0999999 1.3
v -1.5 0.3 1.3
v -1.3 -1.5 1.3
v -1.3 -1.3 1.3
v -1.3 -1.1 1.3
v -1.3 -0.9 1.3
v -1.3 -0.7 1.3
v -1.3 -0.5 1.3
v -1.3 -0.3 1.3
v -1.3 -0.0999999 1.3
v -1.3 0.0999999 1.3
v -1.3 0.3 1.3
v -1.1 -1.5 1.3
v -1.1 -1.3 1.3
v -1.1 -1.1 1.3
v -1.1 -0.9 1.3
v -1.1 -0.7 1.3
v -1.1 -0.5 1.3
v -1.1 -0.3 1.3
v -1.1 -0.0999999 1.3
v -1.1 0.0999999 1.3
v -1.1 0.3 1.3
v -0.9 -1.5 1.3
v -0.9 -1.3 1.3
v -0.9 -1.1 1.3
v -0.9 -0.9 1.3
v -0.9 -0.7 1.3
v -0.9 -0.5 1.3
v -0.9 -0.3 1.3
v -0.9 -0.0999999 1.3
v -0.9 0.0999999 1.3
v -0.9 0.3 1.3
v -0.7 -1.5 1.3
v -0.7 -1.3 1.3
v -0.7 -1.1 1.3
v -0.7 -0.9 1.3
v -0.7 -0.7 1.3
v -0.7 -0.5 1.3
v -0.7 -0.3 1.3
v -0.7 -0.0999999 1.3
v -0.7 0.0999999 1.3
v -0.7 0.3 1.3
v -0.5 -1.5 1.3
v -0.5 -1.3 1.3
v -0.5 -1.1 1.3
v -0.5 -0.9 1.3
v -0.5 -0.7 1.3
v -0.5 -0.5 1.3
v -0.5 -0.3 1.3
v -0.5 -0.0999999 1.3
v -0.5 0.0999999 1.3
v -0.5 0.3 1.3
v -0.3 -1.5 1.3
v -0.3 -1.3 1.3
v -0.3 -1.1 1.3
v -0.3 -0.9 1.3
v -0.3 -0.7 1.3
v -0.3 -0.5 1.3
v -0.3 -0.3 1.3
v -0.3 -0.0999999 1.3
v -0.3 0.0999999 1.3
v -0.3 0.3 1.3
v -0.1 -1.7 1.3
v -0.1 0.5 1.3
v -0.1 0.7 1.3
v -0.1 1.5 1.3
v 0.0999999 -1.7 1.3
v 0.0999999 0.5 1.3
v 0.0999999 0.7 1.3
v 0.0999999 1.5 1.3
v 0.3 -1.5 1.3
v 0.3 -1.3 1.3
v 0.3 -1.1 1.3
v 0.3 -0.9 1.3
v 0.3 -0.7 1.3
v 0.3 -0.5 1.3
v 0.3 -0.3 1.3
v 0.3 -0.0999999 1.3
v 0.3 0.0999999 1.3
v 0.3 0.3 1.3
v 0.5 -1.5 1.3
v 0.5 -1.3 1.3
v 0.5 -1.1 1.3
v 0.5 -0.9 1.3
v 0.5 -0.7 1.3
v 0.5 -0.5 1.3
v 0.5 -0.3 1.3
v 0.5 -0.0999999 1.3
v 0.5 0.0999999 1.3
v 0.5 0.3 1.3
v 0.7 -1.5 1.3
v 0.7 -1.3 1.3
v 0.7 -1.1 1.3
v 0.7 -0.9 1.3
v 0.7 -0.7 1.3
v 0.7 -0.5 1.3
v 0.7 -0.3 1.3
v 0.7 -0.0999999 1.3
v 0.7 0.0999999 1.3
v 0.7 0.3 1.3
v 0.9 -1.5 1.3
v 0.9 -1.3 1.3
v 0.9 -1.1 1.3
v 0.9 -0.9 1.3
v 0.9 -0.7 1.3
v 0.9 -0.5 1.3
v 0.9 -0.3 1.3
v 0.9 -0.0999999 1.3
v 0.9 0.0999999 1.3
v 0.9 0.3 1.3
v 1.1 -1.5 1.3
v 1.1 -1.3 1.3
v 1.1 -1.1 1.3
v 1.1 -0.9 1.3
v 1.1 -0.7 1.3
v 1.1 -0.5 1.3
v 1.1 -0.3 1.3
v 1.1 -0.0999999 1.3
v 1.1 0.0999999 1.3
v 1.1 0.3 1.3
v 1.3 -1.5 1.3
v 1.3 -1.3 1.3
v 1.3 -1.1 1.3
v 1.3 -0.9 1.3
v 1.3 -0.7 1.3
v 1.3 -0.5 1.3
v 1.3 -0.3 1.3
v 1.3 -0.0999999 1.3
v 1.3 0.0999999 1.3
v 1.3 0.3 1.3
v 1.5 -1.5 1.3
v 1.5 -1.3 1.3
v 1.5 -1.1 1.3
v 1.5 -0.9 1.3
v 1.5 -0.7 1.3
v 1.5 -0.5 1.3
v 1.5 -0.3 1.3
v 1.5 -0.0999999 1.3
v 1.5 0.0999999 1.3
v 1.5 0.3 1.3
v 1.7 -2.1 1.3
v 1.7 -1.9 1.3
v 1.7 -1.5 1.3
v 1.7 -1.3 1.3
v 1.7 -1.1 1.3
v 1.7 -0.9 1.3
v 1.7 -0.7 1.3
v 1.7 -0.5 1.3
v 1.7 -0.3 1.3
v 1.7 -0.0999999 1.3
v 1.7 0.0999999 1.3
v 1.7 0.3 1.3
v 1.9 -1.7 1.3
v 1.9 0.5 1.3
v 1.9 0.7 1.3
v 1.9 1.5 1.3
v 2 -1.9 1.3
v 2 1.7 1.3
v 2.1 -2.1 1.3
v 2.1 -1.9 1.3
v 2.1 1.7 1.3
v -2.1 -2.1 -1.3
v -2.1 -1.9 -1.3
v -1.7 -2.1 -1.3
v -1.7 -1.9 -1.3
v 1.7 -2.1 -1.3
v 1.7 -1.9 -1.3
v 2 -1.9 -1.3
v 2.1 -2.1 -1.3
v 2.1 -1.9 -1.3
v -2.1 -2.1 0.9
v -2.1 -1.9 0.9
v -1.7 -2.1 0.9
v -1.7 -1.9 0.9
v 1.7 -2.1 0.9
v 1.7 -1.9 0.9
v 2 -1.9 0.9
v 2.1 -2.1 0.9
v 2.1 -1.9 0.9
v -2.5 1.7 -1.7
v -2.5 2 -1.7
v -2.5 2.1 -1.7
v -2.1 -2.1 -1.7
v -2.1 -1.9 -1.7
v -2.1 1.7 -1.7
v -1.7 -2.1 -1.7
v -1.7 -1.9 -1.7
v 1.7 -2.1 -1.7
v 1.7 -1.9 -1.7
v 2 -1.9 -1.7
v 2 1.7 -1.7
v 2.1 -2.1 -1.7
v 2.1 -1.9 -1.7
v 2.1 1.7 -1.7
v 2.4 1.7 -1.7
v 2.4 2 -1.7
v 2.5 1.7 -1.7
v 2.5 2.1 -1.7
v -2.1 -2.1 1.3
v -1.7 -2.1 1.3
v 1.7 -2.1 1.3
v 2.1 -2.1 1.3
v -2.1 -2.1 0.9
v -1.7 -2.1 0.9
v 1.7 -2.1 0.9
v 2.1 -2.1 0.9
v -2.1 -2.1 -1.3
v -1.7 -2.1 -1.3
v 1.7 -2.1 -1.3
v 2.1 -2.1 -1.3
v -2.1 -2.1 -1.7
v -1.7 -2.1 -1.7
v 1.7 -2.1 -1.7
v 2.1 -2.1 -1.7
v -1.7 -1.9 1.3
v 1.7 -1.9 1.3
v -1.7 -1.9 1.2
v 1.7 -1.9 1.2
v -2.1 -1.9 0.9
v -1.7 -1.9 0.9
v 1.7 -1.9 0.9
v 2 -1.9 0.9
v 2.1 -1.9 0.9
v -2.1 -1.9 -1.3
v -1.7 -1.9 -1.3
v 1.7 -1.9 -1.3
v 2 -1.9 -1.3
v 2.1 -1.9 -1.3
v -1.7 -1.9 -1.7
v 1.7 -1.9 -1.7
v -1.9 -1.7 1.5
v -0.1 -1.7 1.5
v 0.0999999 -1.7 1.5
v 1.9 -1.7 1.5
v -1.9 -1.7 1.3
v -0.1 -1.7 1.3
v 0.0999999 -1.7 1.3
v 1.9 -1.7 1.3
v -1.7 0.3 1.5
v -0.3 0.3 1.5
v 0.3 0.3 1.5
v 1.7 0.3 1.5
v -1.7 0.3 1.3
v -1.5 0.3 1.3
v -1.3 0.3 1.3
v -1.1 0.3 1.3
v -0.9 0.3 1.3
v -0.7 0.3 1.3
v -0.5 0.3 1.3
v -0.3 0.3 1.3
v 0.3 0.3 1.3
v 0.5 0.3 1.3
v 0.7 0.3 1.3
v 0.9 0.3 1.3
v 1.1 0.3 1.3
v 1.3 0.3 1.3
v 1.5 0.3 1.3
v 1.7 0.3 1.3
v -1.9 0.7 1.5
v -0.1 0.7 1.5
v 0.0999999 0.7 1.5
v 1.9 0.7 1.5
v -1.9 0.7 1.3
v -0.1 0.7 1.3
v 0.0999999 0.7 1.3
v 1.9 0.7 1.3
v -1.3 1.1 1.7
v -0.7 1.1 1.7
v 0.7 1.1 1.7
v 1.3 1.1 1.7
v -1.3 1.1 1.5
v -0.7 1.1 1.5
v 0.7 1.1 1.5
v 1.3 1.1 1.5
v -2.5 1.7 1.5
v 2.5 1.7 1.5
v -2.5 1.7 1.4
v 2.4 1.7 1.4
v -2.1 1.7 1.3
v 2 1.7 1.3
v 2.1 1.7 1.3
v -2.1 1.7 1.2
v -2.5 1.7 -1.7
v -2.1 1.7 -1.7
v 2.1 1.7 -1.7
v 2.4 1.7 -1.7
v 2.5 1.7 -1.7
v -1.7 -1.5 1.5
v -0.3 -1.5 1.5
v 0.3 -1.5 1.5
v 1.7 -1.5 1.5
v -1.7 -1.5 1.3
v -1.5 -1.5 1.3
v -1.3 -1.5 1.3
v -1.1 -1.5 1.3
v -0.9 -1.5 1.3
v -0.7 -1.5 1.3
v -0.5 -1.5 1.3
v -0.3 -1.5 1.3
v 0.3 -1.5 1.3
v 0.5 -1.5 1.3
v 0.7 -1.5 1.3
v 0.9 -1.5 1.3
v 1.1 -1.5 1.3
v 1.3 -1.5 1.3
v 1.5 -1.5 1.3
v 1.7 -1.5 1.3
v -1.9 0.5 1.5
v -0.1 0.5 1.5
v 0.0999999 0.5 1.5
v 1.9 0.5 1.5
v -1.9 0.5 1.3
v -0.1 0.5 1.3
v 0.0999999 0.5 1.3
v 1.9 0.5 1.3
v -1.3 1.3 1.7
v -0.7 1.3 1.7
v 0.7 1.3 1.7
v 1.3 1.3 1.7
v -1.3 1.3 1.5
v -0.7 1.3 1.5
v 0.7 1.3 1.5
v 1.3 1.3 1.5
v -1.9 1.5 1.5
v -0.1 1.5 1.5
v 0.0999999 1.5 1.5
v 1.9 1.5 1.5
v -1.9 1.5 1.3
v -0.1 1.5 1.3
v 0.0999999 1.5 1.3
v 1.9 1.5 1.3
v -2.5 2.1 1.5
v 2.5 2.1 1.5
v -2.5 2.1 -1.7
v 2.5 2.1 -1.7

# faces
f 4/3/1 2/3/1 1/3/1
f 4/4/1 3/4/1 2/4/1
f 5/4/1 3/4/1 4/4/1
f 6/3/1 4/3/1 1/3/1
f 6/3/1 5/3/1 4/3/1
f 7/3/1 5/3/1 6/3/1
f 12/2/1 9/2/1 8/2/1
f 13/2/1 9/2/1 12/2/1
f 14/2/1 9/2/1 13/2/1
f 15/2/1 11/2/1 10/2/1
f 16/2/1 11/2/1 15/2/1
f 17/3/1 13/3/1 12/3/1
f 18/4/1 14/4/1 13/4/1
f 18/3/1 13/3/1 17/3/1
f 18/4/1 15/4/1 14/4/1
f 18/4/1 16/4/1 15/4/1
f 19/4/1 16/4/1 18/4/1
f 22/1/1 21/1/1 20/1/1
f 23/1/1 21/1/1 22/1/1
f 26/1/1 25/1/1 24/1/1
f 27/1/1 25/1/1 26/1/1
f 30/2/1 29/2/1 28/2/1
f 31/2/1 29/2/1 30/2/1
f 34/1/1 33/1/1 32/1/1
f 35/1/1 34/1/1 32/1/1
f 36/1/1 35/1/1 32/1/1
f 37/1/1 36/1/1 32/1/1
f 38/1/1 37/1/1 32/1/1
f 39/1/1 38/1/1 32/1/1
f 40/1/1 39/1/1 32/1/1
f 41/1/1 40/1/1 32/1/1
f 42/1/1 41/1/1 32/1/1
f 43/1/1 41/1/1 42/1/1
f 46/1/1 45/1/1 44/1/1
f 47/1/1 45/1/1 46/1/1
f 50/1/1 49/1/1 48/1/1
f 51/1/1 49/1/1 50/1/1
f 54/2/1 53/2/1 52/2/1
f 55/2/1 53/2/1 54/2/1
f 60/2/1 57/2/1 56/2/1
f 61/2/1 57/2/1 60/2/1
f 62/2/1 57/2/1 61/2/1
f 63/2/1 59/2/1 58/2/1
f 64/2/1 59/2/1 63/2/1
f 67/1/1 66/1/1 65/1/1
f 68/1/1 67/1/1 65/1/1
f 69/1/1 68/1/1 65/1/1
f 70/1/1 69/1/1 65/1/1
f 71/1/1 70/1/1 65/1/1
f 72/1/1 71/1/1 65/1/1
f 73/1/1 72/1/1 65/1/1
f 74/1/1 73/1/1 65/1/1
f 75/1/1 74/1/1 65/1/1
f 76/1/1 74/1/1 75/1/1
f 77/2/2 78/2/2 81/2/2
f 81/2/2 78/2/2 82/2/2
f 82/2/2 78/2/2 83/2/2
f 79/2/2 80/2/2 84/2/2
f 84/2/2 80/2/2 85/2/2
f 86/1/2 87/1/2 88/1/2
f 86/1/2 88/1/2 89/1/2
f 86/1/2 89/1/2 90/1/2
f 86/1/2 90/1/2 91/1/2
f 86/1/2 91/1/2 92/1/2
f 86/1/2 92/1/2 93/1/2
f 86/1/2 93/1/2 94/1/2
f 86/1/2 94/1/2 95/1/2
f 86/1/2 95/1/2 96/1/2
f 96/1/2 95/1/2 97/1/2
f 98/2/2 99/2/2 100/2/2
f 100/2/2 99/2/2 101/2/2
f 102/1/2 103/1/2 104/1/2
f 104/1/2 103/1/2 105/1/2
f 106/1/2 107/1/2 108/1/2
f 108/1/2 107/1/2 109/1/2
f 110/1/2 111/1/2 112/1/2
f 110/1/2 112/1/2 113/1/2
f 110/1/2 113/1/2 114/1/2
f 110/1/2 114/1/2 115/1/2
f 110/1/2 115/1/2 116/1/2
f 110/1/2 116/1/2 117/1/2
f 110/1/2 117/1/2 118/1/2
f 110/1/2 118/1/2 119/1/2
f 110/1/2 119/1/2 120/1/2
f 120/1/2 119/1/2 121/1/2
f 122/2/2 123/2/2 124/2/2
f 124/2/2 123/2/2 125/2/2
f 126/1/2 127/1/2 128/1/2
f 128/1/2 127/1/2 129/1/2
f 130/1/2 131/1/2 132/1/2
f 132/1/2 131/1/2 133/1/2
f 134/2/2 135/2/2 138/2/2
f 138/2/2 135/2/2 139/2/2
f 136/2/2 137/2/2 140/2/2
f 140/2/2 137/2/2 141/2/2
f 138/1/2 139/1/2 142/1/2
f 139/1/2 140/1/2 142/1/2
f 140/1/2 141/1/2 142/1/2
f 142/1/2 141/1/2 143/1/2
f 144/3/2 145/3/2 146/3/2
f 146/3/2 145/3/2 147/3/2
f 150/2/3 149/2/3 148/2/3
f 151/2/3 149/2/3 150/2/3
f 154/2/3 153/2/3 152/2/3
f 155/2/3 153/2/3 154/2/3
f 162/1/3 159/1/3 158/1/3
f 163/1/3 159/1/3 162/1/3
f 164/1/3 161/1/3 160/1/3
f 165/1/3 161/1/3 164/1/3
f 166/1/3 164/1/3 160/1/3
f 167/1/3 161/1/3 165/1/3
f 168/1/3 162/1/3 158/1/3
f 169/1/3 159/1/3 163/1/3
f 170/1/3 168/1/3 158/1/3
f 170/1/3 169/1/3 168/1/3
f 171/1/3 159/1/3 169/1/3
f 171/1/3 169/1/3 170/1/3
f 172/1/3 167/1/3 166/1/3
f 172/1/3 166/1/3 160/1/3
f 173/1/3 161/1/3 167/1/3
f 173/1/3 167/1/3 172/1/3
f 178/1/3 175/1/3 174/1/3
f 179/1/3 175/1/3 178/1/3
f 180/1/3 177/1/3 176/1/3
f 181/1/3 177/1/3 180/1/3
f 182/1/3 180/1/3 176/1/3
f 183/1/3 177/1/3 181/1/3
f 184/1/3 178/1/3 174/1/3
f 185/1/3 175/1/3 179/1/3
f 186/1/3 184/1/3 174/1/3
f 186/1/3 185/1/3 184/1/3
f 187/1/3 175/1/3 185/1/3
f 187/1/3 185/1/3 186/1/3
f 188/1/3 183/1/3 182/1/3
f 188/1/3 182/1/3 176/1/3
f 189/1/3 177/1/3 183/1/3
f 189/1/3 183/1/3 188/1/3
f 190/3/3 157/3/3 156/3/3
f 191/3/3 157/3/3 190/3/3
f 195/3/3 194/3/3 193/3/3
f 196/3/3 194/3/3 195/3/3
f 197/3/3 194/3/3 196/3/3
f 198/3/3 194/3/3 197/3/3
f 199/2/3 193/2/3 192/2/3
f 200/3/3 195/3/3 193/3/3
f 200/2/3 193/2/3 199/2/3
f 211/1/3 202/1/3 201/1/3
f 212/2/3 203/2/3 202/2/3
f 212/1/3 202/1/3 211/1/3
f 213/1/3 204/1/3 203/1/3
f 213/2/3 203/2/3 212/2/3
f 214/2/3 205/2/3 204/2/3
f 214/1/3 204/1/3 213/1/3
f 215/1/3 206/1/3 205/1/3
f 215/2/3 205/2/3 214/2/3
f 216/2/3 207/2/3 206/2/3
f 216/1/3 206/1/3 215/1/3
f 217/1/3 208/1/3 207/1/3
f 217/2/3 207/2/3 216/2/3
f 218/2/3 209/2/3 208/2/3
f 218/1/3 208/1/3 217/1/3
f 219/1/3 210/1/3 209/1/3
f 219/2/3 209/2/3 218/2/3
f 220/1/3 210/1/3 219/1/3
f 221/2/3 212/2/3 211/2/3
f 222/1/3 213/1/3 212/1/3
f 222/2/3 212/2/3 221/2/3
f 223/2/3 214/2/3 213/2/3
f 223/1/3 213/1/3 222/1/3
f 224/1/3 215/1/3 214/1/3
f 224/2/3 214/2/3 223/2/3
f 225/2/3 216/2/3 215/2/3
f 225/1/3 215/1/3 224/1/3
f 226/1/3 217/1/3 216/1/3
f 226/2/3 216/2/3 225/2/3
f 227/2/3 218/2/3 217/2/3
f 227/1/3 217/1/3 226/1/3
f 228/1/3 219/1/3 218/1/3
f 228/2/3 218/2/3 227/2/3
f 229/2/3 220/2/3 219/2/3
f 229/1/3 219/1/3 228/1/3
f 230/2/3 220/2/3 229/2/3
f 231/1/3 222/1/3 221/1/3
f 232/2/3 223/2/3 222/2/3
f 232/1/3 222/1/3 231/1/3
f 233/1/3 224/1/3 223/1/3
f 233/2/3 223/2/3 232/2/3
f 234/2/3 225/2/3 224/2/3
f 234/1/3 224/1/3 233/1/3
f 235/1/3 226/1/3 225/1/3
f 235/2/3 225/2/3 234/2/3
f 236/2/3 227/2/3 226/2/3
f 236/1/3 226/1/3 235/1/3
f 237/1/3 228/1/3 227/1/3
f 237/2/3 227/2/3 236/2/3
f 238/2/3 229/2/3 228/2/3
f 238/1/3 228/1/3 237/1/3
f 239/1/3 230/1/3 229/1/3
f 239/2/3 229/2/3 238/2/3
f 240/1/3 230/1/3 239/1/3
f 241/2/3 232/2/3 231/2/3
f 242/1/3 233/1/3 232/1/3
f 242/2/3 232/2/3 241/2/3
f 243/2/3 234/2/3 233/2/3
f 243/1/3 233/1/3 242/1/3
f 244/1/3 235/1/3 234/1/3
f 244/2/3 234/2/3 243/2/3
f 245/2/3 236/2/3 235/2/3
f 245/1/3 235/1/3 244/1/3
f 246/1/3 237/1/3 236/1/3
f 246/2/3 236/2/3 245/2/3
f 247/2/3 238/2/3 237/2/3
f 247/1/3 237/1/3 246/1/3
f 248/1/3 239/1/3 238/1/3
f 248/2/3 238/2/3 247/2/3
f 249/2/3 240/2/3 239/2/3
f 249/1/3 239/1/3 248/1/3
f 250/2/3 240/2/3 249/2/3
f 251/1/3 242/1/3 241/1/3
f 252/2/3 243/2/3 242/2/3
f 252/1/3 242/1/3 251/1/3
f 253/1/3 244/1/3 243/1/3
f 253/2/3 243/2/3 252/2/3
f 254/2/3 245/2/3 244/2/3
f 254/1/3 244/1/3 253/1/3
f 255/1/3 246/1/3 245/1/3
f 255/2/3 245/2/3 254/2/3
f 256/2/3 247/2/3 246/2/3
f 256/1/3 246/1/3 255/1/3
f 257/1/3 248/1/3 247/1/3
f 257/2/3 247/2/3 256/2/3
f 258/2/3 249/2/3 248/2/3
f 258/1/3 248/1/3 257/1/3
f 259/1/3 250/1/3 249/1/3
f 259/2/3 249/2/3 258/2/3
f 260/1/3 250/1/3 259/1/3
f 261/2/3 252/2/3 251/2/3
f 262/1/3 253/1/3 252/1/3
f 262/2/3 252/2/3 261/2/3
f 263/2/3 254/2/3 253/2/3
f 263/1/3 253/1/3 262/1/3
f 264/1/3 255/1/3 254/1/3
f 264/2/3 254/2/3 263/2/3
f 265/2/3 256/2/3 255/2/3
f 265/1/3 255/1/3 264/1/3
f 266/1/3 257/1/3 256/1/3
f 266/2/3 256/2/3 265/2/3
f 267/2/3 258/2/3 257/2/3
f 267/1/3 257/1/3 266/1/3
f 268/1/3 259/1/3 258/1/3
f 268/2/3 258/2/3 267/2/3
f 269/2/3 260/2/3 259/2/3
f 269/1/3 259/1/3 268/1/3
f 270/2/3 260/2/3 269/2/3
f 271/1/3 262/1/3 261/1/3
f 272/2/3 263/2/3 262/2/3
f 272/1/3 262/1/3 271/1/3
f 273/1/3 264/1/3 263/1/3
f 273/2/3 263/2/3 272/2/3
f 274/2/3 265/2/3 264/2/3
f 274/1/3 264/1/3 273/1/3
f 275/1/3 266/1/3 265/1/3
f 275/2/3 265/2/3 274/2/3
f 276/2/3 267/2/3 266/2/3
f 276/1/3 266/1/3 275/1/3
f 277/1/3 268/1/3 267/1/3
f 277/2/3 267/2/3 276/2/3
f 278/2/3 269/2/3 268/2/3
f 278/1/3 268/1/3 277/1/3
f 279/1/3 270/1/3 269/1/3
f 279/2/3 269/2/3 278/2/3
f 280/1/3 270/1/3 279/1/3
f 281/3/3 195/3/3 200/3/3
f 282/3/3 197/3/3 196/3/3
f 283/3/3 197/3/3 282/3/3
f 284/3/3 194/3/3 198/3/3
f 285/3/3 283/3/3 282/3/3
f 285/3/3 284/3/3 283/3/3
f 285/3/3 281/3/3 200/3/3
f 285/3/3 282/3/3 281/3/3
f 286/3/3 284/3/3 285/3/3
f 287/3/3 284/3/3 286/3/3
f 288/3/3 194/3/3 284/3/3
f 288/3/3 284/3/3 287/3/3
f 299/1/3 290/1/3 289/1/3
f 300/2/3 291/2/3 290/2/3
f 300/1/3 290/1/3 299/1/3
f 301/1/3 292/1/3 291/1/3
f 301/2/3 291/2/3 300/2/3
f 302/2/3 293/2/3 292/2/3
f 302/1/3 292/1/3 301/1/3
f 303/1/3 294/1/3 293/1/3
f 303/2/3 293/2/3 302/2/3
f 304/2/3 295/2/3 294/2/3
f 304/1/3 294/1/3 303/1/3
f 305/1/3 296/1/3 295/1/3
f 305/2/3 295/2/3 304/2/3
f 306/2/3 297/2/3 296/2/3
f 306/1/3 296/1/3 305/1/3
f 307/1/3 298/1/3 297/1/3
f 307/2/3 297/2/3 306/2/3
f 308/1/3 298/1/3 307/1/3
f 309/2/3 300/2/3 299/2/3
f 310/1/3 301/1/3 300/1/3
f 310/2/3 300/2/3 309/2/3
f 311/2/3 302/2/3 301/2/3
f 311/1/3 301/1/3 310/1/3
f 312/1/3 303/1/3 302/1/3
f 312/2/3 302/2/3 311/2/3
f 313/2/3 304/2/3 303/2/3
f 313/1/3 303/1/3 312/1/3
f 314/1/3 305/1/3 304/1/3
f 314/2/3 304/2/3 313/2/3
f 315/2/3 306/2/3 305/2/3
f 315/1/3 305/1/3 314/1/3
f 316/1/3 307/1/3 306/1/3
f 316/2/3 306/2/3 315/2/3
f 317/2/3 308/2/3 307/2/3
f 317/1/3 307/1/3 316/1/3
f 318/2/3 308/2/3 317/2/3
f 319/1/3 310/1/3 309/1/3
f 320/2/3 311/2/3 310/2/3
f 320/1/3 310/1/3 319/1/3
f 321/1/3 312/1/3 311/1/3
f 321/2/3 311/2/3 320/2/3
f 322/2/3 313/2/3 312/2/3
f 322/1/3 312/1/3 321/1/3
f 323/1/3 314/1/3 313/1/3
f 323/2/3 313/2/3 322/2/3
f 324/2/3 315/2/3 314/2/3
f 324/1/3 314/1/3 323/1/3
f 325/1/3 316/1/3 315/1/3
f 325/2/3 315/2/3 324/2/3
f 326/2/3 317/2/3 316/2/3
f 326/1/3 316/1/3 325/1/3
f 327/1/3 318/1/3 317/1/3
f 327/2/3 317/2/3 326/2/3
f 328/1/3 318/1/3 327/1/3
f 329/2/3 320/2/3 319/2/3
f 330/1/3 321/1/3 320/1/3
f 330/2/3 320/2/3 329/2/3
f 331/2/3 322/2/3 321/2/3
f 331/1/3 321/1/3 330/1/3
f 332/1/3 323/1/3 322/1/3
f 332/2/3 322/2/3 331/2/3
f 333/2/3 324/2/3 323/2/3
f 333/1/3 323/1/3 332/1/3
f 334/1/3 325/1/3 324/1/3
f 334/2/3 324/2/3 333/2/3
f 335/2/3 326/2/3 325/2/3
f 335/1/3 325/1/3 334/1/3
f 336/1/3 327/1/3 326/1/3
f 336/2/3 326/2/3 335/2/3
f 337/2/3 328/2/3 327/2/3
f 337/1/3 327/1/3 336/1/3
f 338/2/3 328/2/3 337/2/3
f 339/1/3 330/1/3 329/1/3
f 340/2/3 331/2/3 330/2/3
f 340/1/3 330/1/3 339/1/3
f 341/1/3 332/1/3 331/1/3
f 341/2/3 331/2/3 340/2/3
f 342/2/3 333/2/3 332/2/3
f 342/1/3 332/1/3 341/1/3
f 343/1/3 334/1/3 333/1/3
f 343/2/3 333/2/3 342/2/3
f 344/2/3 335/2/3 334/2/3
f 344/1/3 334/1/3 343/1/3
f 345/1/3 336/1/3 335/1/3
f 345/2/3 335/2/3 344/2/3
f 346/2/3 337/2/3 336/2/3
f 346/1/3 336/1/3 345/1/3
f 347/1/3 338/1/3 337/1/3
f 347/2/3 337/2/3 346/2/3
f 348/1/3 338/1/3 347/1/3
f 349/2/3 340/2/3 339/2/3
f 350/1/3 341/1/3 340/1/3
f 350/2/3 340/2/3 349/2/3
f 351/2/3 342/2/3 341/2/3
f 351/1/3 341/1/3 350/1/3
f 352/1/3 343/1/3 342/1/3
f 352/2/3 342/2/3 351/2/3
f 353/2/3 344/2/3 343/2/3
f 353/1/3 343/1/3 352/1/3
f 354/1/3 345/1/3 344/1/3
f 354/2/3 344/2/3 353/2/3
f 355/2/3 346/2/3 345/2/3
f 355/1/3 345/1/3 354/1/3
f 356/1/3 347/1/3 346/1/3
f 356/2/3 346/2/3 355/2/3
f 357/2/3 348/2/3 347/2/3
f 357/1/3 347/1/3 356/1/3
f 358/2/3 348/2/3 357/2/3
f 360/3/3 285/3/3 200/3/3
f 361/1/3 350/1/3 349/1/3
f 362/2/3 351/2/3 350/2/3
f 362/1/3 350/1/3 361/1/3
f 363/1/3 352/1/3 351/1/3
f 363/2/3 351/2/3 362/2/3
f 364/2/3 353/2/3 352/2/3
f 364/1/3 352/1/3 363/1/3
f 365/1/3 354/1/3 353/1/3
f 365/2/3 353/2/3 364/2/3
f 366/2/3 355/2/3 354/2/3
f 366/1/3 354/1/3 365/1/3
f 367/1/3 356/1/3 355/1/3
f 367/2/3 355/2/3 366/2/3
f 368/2/3 357/2/3 356/2/3
f 368/1/3 356/1/3 367/1/3
f 369/1/3 358/1/3 357/1/3
f 369/2/3 357/2/3 368/2/3
f 370/1/3 358/1/3 369/1/3
f 371/3/3 285/3/3 360/3/3
f 372/3/3 287/3/3 286/3/3
f 373/3/3 287/3/3 372/3/3
f 374/3/3 194/3/3 288/3/3
f 375/3/3 371/3/3 360/3/3
f 375/3/3 374/3/3 373/3/3
f 375/3/3 373/3/3 372/3/3
f 375/2/3 360/2/3 359/2/3
f 375/3/3 372/3/3 371/3/3
f 376/3/3 194/3/3 374/3/3
f 376/3/3 374/3/3 375/3/3
f 377/2/3 375/2/3 359/2/3
f 378/1/3 376/1/3 375/1/3
f 378/2/3 375/2/3 377/2/3
f 379/1/3 376/1/3 378/1/3
f 382/2/3 381/2/3 380/2/3
f 383/2/3 381/2/3 382/2/3
f 386/2/3 385/2/3 384/2/3
f 387/2/3 386/2/3 384/2/3
f 388/2/3 386/2/3 387/2/3
f 389/2/4 390/2/4 391/2/4
f 391/2/4 390/2/4 392/2/4
f 393/2/4 394/2/4 395/2/4
f 393/2/4 395/2/4 396/2/4
f 396/2/4 395/2/4 397/2/4
f 398/4/4 399/4/4 403/4/4
f 401/2/4 402/2/4 404/2/4
f 402/4/4 403/4/4 405/4/4
f 404/2/4 402/2/4 405/2/4
f 405/4/4 403/4/4 407/4/4
f 407/4/4 403/4/4 408/4/4
f 406/2/4 407/2/4 408/2/4
f 403/4/4 399/4/4 409/4/4
f 408/4/4 403/4/4 409/4/4
f 406/2/4 408/2/4 410/2/4
f 408/1/4 409/1/4 411/1/4
f 410/2/4 408/2/4 411/2/4
f 409/4/4 399/4/4 412/4/4
f 411/1/4 409/1/4 412/1/4
f 412/4/4 399/4/4 413/4/4
f 399/3/4 400/3/4 414/3/4
f 413/4/4 399/4/4 414/4/4
f 413/3/4 414/3/4 415/3/4
f 414/3/4 400/3/4 416/3/4
f 415/3/4 414/3/4 416/3/4
f 421/2/5 418/2/5 417/2/5
f 422/2/5 418/2/5 421/2/5
f 423/2/5 420/2/5 419/2/5
f 424/2/5 420/2/5 423/2/5
f 429/2/5 426/2/5 425/2/5
f 430/2/5 426/2/5 429/2/5
f 431/2/5 428/2/5 427/2/5
f 432/2/5 428/2/5 431/2/5
f 435/3/5 434/3/5 433/3/5
f 436/3/5 434/3/5 435/3/5
f 438/4/5 436/4/5 435/4/5
f 439/4/5 436/4/5 438/4/5
f 442/4/5 439/4/5 438/4/5
f 442/4/5 438/4/5 437/4/5
f 442/4/5 440/4/5 439/4/5
f 443/4/5 440/4/5 442/4/5
f 444/4/5 440/4/5 443/4/5
f 445/1/5 441/1/5 440/1/5
f 445/4/5 440/4/5 444/4/5
f 446/1/5 441/1/5 445/1/5
f 447/4/5 444/4/5 443/4/5
f 448/4/5 444/4/5 447/4/5
f 453/1/5 450/1/5 449/1/5
f 454/1/5 450/1/5 453/1/5
f 455/1/5 452/1/5 451/1/5
f 456/1/5 452/1/5 455/1/5
f 461/1/5 458/1/5 457/1/5
f 462/1/5 458/1/5 461/1/5
f 463/1/5 458/1/5 462/1/5
f 464/1/5 458/1/5 463/1/5
f 465/1/5 458/1/5 464/1/5
f 466/1/5 458/1/5 465/1/5
f 467/1/5 458/1/5 466/1/5
f 468/1/5 458/1/5 467/1/5
f 469/1/5 460/1/5 459/1/5
f 470/1/5 460/1/5 469/1/5
f 471/1/5 460/1/5 470/1/5
f 472/1/5 460/1/5 471/1/5
f 473/1/5 460/1/5 472/1/5
f 474/1/5 460/1/5 473/1/5
f 475/1/5 460/1/5 474/1/5
f 476/1/5 460/1/5 475/1/5
f 481/1/5 478/1/5 477/1/5
f 482/1/5 478/1/5 481/1/5
f 483/1/5 480/1/5 479/1/5
f 484/1/5 480/1/5 483/1/5
f 489/2/5 486/2/5 485/2/5
f 490/2/5 486/2/5 489/2/5
f 491/2/5 488/2/5 487/2/5
f 492/2/5 488/2/5 491/2/5
f 495/3/5 494/3/5 493/3/5
f 496/3/5 494/3/5 495/3/5
f 497/4/5 496/4/5 495/4/5
f 498/4/5 496/4/5 497/4/5
f 499/4/5 496/4/5 498/4/5
f 500/4/5 497/4/5 495/4/5
f 501/4/5 500/4/5 495/4/5
f 502/4/5 500/4/5 501/4/5
f 503/4/5 496/4/5 499/4/5
f 504/3/5 494/3/5 496/3/5
f 504/4/5 496/4/5 503/4/5
f 505/3/5 494/3/5 504/3/5
f 506/1/6 507/1/6 510/1/6
f 510/1/6 507/1/6 511/1/6
f 511/1/6 507/1/6 512/1/6
f 512/1/6 507/1/6 513/1/6
f 513/1/6 507/1/6 514/1/6
f 514/1/6 507/1/6 515/1/6
f 515/1/6 507/1/6 516/1/6
f 516/1/6 507/1/6 517/1/6
f 508/1/6 509/1/6 518/1/6
f 518/1/6 509/1/6 519/1/6
f 519/1/6 509/1/6 520/1/6
f 520/1/6 509/1/6 521/1/6
f 521/1/6 509/1/6 522/1/6
f 522/1/6 509/1/6 523/1/6
f 523/1/6 509/1/6 524/1/6
f 524/1/6 509/1/6 525/1/6
f 526/1/6 527/1/6 530/1/6
f 530/1/6 527/1/6 531/1/6
f 528/1/6 529/1/6 532/1/6
f 532/1/6 529/1/6 533/1/6
f 534/2/6 535/2/6 538/2/6
f 538/2/6 535/2/6 539/2/6
f 536/2/6 537/2/6 540/2/6
f 540/2/6 537/2/6 541/2/6
f 542/1/6 543/1/6 546/1/6
f 546/1/6 543/1/6 547/1/6
f 544/1/6 545/1/6 548/1/6
f 548/1/6 545/1/6 549/1/6
f 550/3/6 551/3/6 552/3/6
f 552/3/6 551/3/6 553/3/6
