# MagicaVoxel @ Ephtracy

# group
o 

# material
mtllib chertej-114.mtl
usemtl palette

# normals
vn -1 0 0
vn 1 0 0
vn 0 0 1
vn 0 0 -1
vn 0 -1 0
vn 0 1 0

# texcoords
vt 0.0527344 0.5
vt 0.357422 0.5
vt 0.537109 0.5
vt 0.958984 0.5

# verts
v -3.5 1.2 -6.3
v -3.5 1.2 -14.1
v -3.5 1.8 -6.3
v -3.5 1.8 -14.1
v -3.5 2 -6.3
v -3.5 2 -8.7
v -3.5 2 -8.9
v -3.5 2 -11.5
v -3.5 2 -11.7
v -3.5 2 -14.1
v -3.5 2.4 -5.3
v -3.5 2.4 -6.1
v -3.5 2.4 -14.3
v -3.5 2.4 -15.1
v -3.5 2.8 -6.3
v -3.5 2.8 -8.7
v -3.5 2.8 -8.9
v -3.5 2.8 -11.5
v -3.5 2.8 -11.7
v -3.5 2.8 -14.1
v -3.5 3.2 -5.3
v -3.5 3.2 -6.1
v -3.5 3.2 -14.3
v -3.5 3.2 -15.1
v -3.3 0.4 -5.5
v -3.3 0.4 -5.9
v -3.3 0.4 -14.5
v -3.3 0.4 -14.9
v -3.3 0.8 -5.9
v -3.3 0.8 -14.5
v -3.3 1.2 -5.3
v -3.3 1.2 -5.5
v -3.3 1.2 -6.3
v -3.3 1.2 -14.1
v -3.3 1.2 -14.9
v -3.3 1.2 -15.1
v -3.3 1.8 -6.3
v -3.3 1.8 -14.1
v -3.3 2 -6.3
v -3.3 2 -8.7
v -3.3 2 -8.9
v -3.3 2 -11.5
v -3.3 2 -11.7
v -3.3 2 -14.1
v -3.3 2.4 -5.1
v -3.3 2.4 -5.3
v -3.3 2.4 -6.1
v -3.3 2.4 -14.3
v -3.3 2.4 -15.1
v -3.3 2.4 -15.3
v -3.3 2.6 -8.7
v -3.3 2.6 -8.9
v -3.3 2.6 -11.5
v -3.3 2.6 -11.7
v -3.3 2.8 -6.3
v -3.3 2.8 -14.1
v -3.3 3.2 -5.1
v -3.3 3.2 -5.3
v -3.3 3.2 -6.1
v -3.3 3.2 -6.3
v -3.3 3.2 -14.1
v -3.3 3.2 -14.3
v -3.3 3.2 -15.1
v -3.3 3.2 -15.3
v -3.3 3.4 -5.3
v -3.3 3.4 -6.1
v -3.3 3.4 -14.3
v -3.3 3.4 -15.1
v -0.9 2.8 -6.5
v -0.9 2.8 -7.9
v -0.9 2.8 -12.5
v -0.9 2.8 -13.9
v -0.9 4 -6.5
v -0.9 4 -7.9
v -0.9 4 -12.5
v -0.9 4 -13.9
v -0.7 2.8 -6.3
v -0.7 2.8 -6.5
v -0.7 2.8 -7.9
v -0.7 2.8 -8.1
v -0.7 2.8 -12.3
v -0.7 2.8 -12.5
v -0.7 2.8 -13.9
v -0.7 2.8 -14.1
v -0.7 3.2 -6.3
v -0.7 3.2 -14.1
v -0.7 4 -6.5
v -0.7 4 -7.9
v -0.7 4 -12.5
v -0.7 4 -13.9
v -0.7 4.2 -6.3
v -0.7 4.2 -8.1
v -0.7 4.2 -12.3
v -0.7 4.2 -14.1
v -0.3 2.6 -8.7
v -0.3 2.6 -8.9
v -0.3 2.6 -11.5
v -0.3 2.6 -11.7
v -0.3 2.8 -6.3
v -0.3 2.8 -6.5
v -0.3 2.8 -7.9
v -0.3 2.8 -8.7
v -0.3 2.8 -8.9
v -0.3 2.8 -11.5
v -0.3 2.8 -11.7
v -0.3 2.8 -12.5
v -0.3 2.8 -13.9
v -0.3 2.8 -14.1
v -0.3 3.2 -6.3
v -0.3 3.2 -14.1
v -0.3 4 -6.5
v -0.3 4 -7.9
v -0.3 4 -12.5
v -0.3 4 -13.9
v -0.3 5 -6.3
v -0.3 5 -14.1
v -0.0999999 3.2 -6.1
v -0.0999999 3.2 -6.3
v -0.0999999 3.2 -14.1
v -0.0999999 3.2 -14.3
v -0.0999999 3.4 -6.1
v -0.0999999 3.4 -14.3
v -0.0999999 5 -6.1
v -0.0999999 5 -6.3
v -0.0999999 5 -14.1
v -0.0999999 5 -14.3
v -0.0999999 5.2 -6.3
v -0.0999999 5.2 -14.1
v 0.3 0.4 -5.5
v 0.3 0.4 -5.9
v 0.3 0.4 -14.5
v 0.3 0.4 -14.9
v 0.3 0.8 -5.5
v 0.3 0.8 -5.9
v 0.3 0.8 -14.5
v 0.3 0.8 -14.9
v -2.9 0.4 -5.5
v -2.9 0.4 -5.9
v -2.9 0.4 -14.5
v -2.9 0.4 -14.9
v -2.9 0.8 -5.5
v -2.9 0.8 -5.9
v -2.9 0.8 -14.5
v -2.9 0.8 -14.9
v -0.5 2.8 -6.3
v -0.5 2.8 -6.5
v -0.5 2.8 -7.9
v -0.5 2.8 -8.1
v -0.5 2.8 -12.3
v -0.5 2.8 -12.5
v -0.5 2.8 -13.9
v -0.5 2.8 -14.1
v -0.5 3.2 -6.3
v -0.5 3.2 -14.1
v -0.5 4 -6.5
v -0.5 4 -7.9
v -0.5 4 -12.5
v -0.5 4 -13.9
v -0.5 4.2 -6.3
v -0.5 4.2 -8.1
v -0.5 4.2 -12.3
v -0.5 4.2 -14.1
v 0.5 2.4 -5.1
v 0.5 2.4 -5.3
v 0.5 2.4 -15.1
v 0.5 2.4 -15.3
v 0.5 3.2 -5.1
v 0.5 3.2 -5.3
v 0.5 3.2 -6.3
v 0.5 3.2 -14.1
v 0.5 3.2 -15.1
v 0.5 3.2 -15.3
v 0.5 3.4 -5.3
v 0.5 3.4 -6.1
v 0.5 3.4 -14.3
v 0.5 3.4 -15.1
v 0.5 5 -6.1
v 0.5 5 -6.3
v 0.5 5 -14.1
v 0.5 5 -14.3
v 0.5 5.2 -6.3
v 0.5 5.2 -14.1
v 0.7 0.4 -5.5
v 0.7 0.4 -5.9
v 0.7 0.4 -14.5
v 0.7 0.4 -14.9
v 0.7 0.8 -5.9
v 0.7 0.8 -14.5
v 0.7 1.2 -5.3
v 0.7 1.2 -5.5
v 0.7 1.2 -14.9
v 0.7 1.2 -15.1
v 0.7 3.2 -5.3
v 0.7 3.2 -6.3
v 0.7 3.2 -14.1
v 0.7 3.2 -15.1
v 0.7 5 -6.3
v 0.7 5 -14.1
v -3.3 2.4 -5.1
v -3.3 3.2 -5.1
v 0.5 2.4 -5.1
v 0.5 3.2 -5.1
v -3.5 2.4 -5.3
v -3.5 3.2 -5.3
v -3.3 1.2 -5.3
v -3.3 2.4 -5.3
v -3.3 3.2 -5.3
v -3.3 3.4 -5.3
v 0.5 2.4 -5.3
v 0.5 3.2 -5.3
v 0.5 3.4 -5.3
v 0.7 1.2 -5.3
v 0.7 3.2 -5.3
v -3.3 0.4 -5.5
v -3.3 1.2 -5.5
v -2.9 0.4 -5.5
v -2.9 0.8 -5.5
v 0.3 0.4 -5.5
v 0.3 0.8 -5.5
v 0.7 0.4 -5.5
v 0.7 1.2 -5.5
v -0.0999999 3.4 -6.1
v -0.0999999 5 -6.1
v 0.5 3.4 -6.1
v 0.5 5 -6.1
v -3.5 1.2 -6.3
v -3.5 1.8 -6.3
v -3.5 2 -6.3
v -3.5 2.8 -6.3
v -3.3 1.2 -6.3
v -3.3 1.8 -6.3
v -3.3 2 -6.3
v -3.3 2.8 -6.3
v -0.7 3.2 -6.3
v -0.7 4.2 -6.3
v -0.5 3.2 -6.3
v -0.5 4.2 -6.3
v -0.3 3.2 -6.3
v -0.3 5 -6.3
v -0.0999999 3.2 -6.3
v -0.0999999 5 -6.3
v -0.0999999 5.2 -6.3
v 0.5 3.2 -6.3
v 0.5 5 -6.3
v 0.5 5.2 -6.3
v 0.7 3.2 -6.3
v 0.7 5 -6.3
v -0.9 2.8 -6.5
v -0.9 4 -6.5
v -0.7 2.8 -6.5
v -0.7 4 -6.5
v -0.5 2.8 -6.5
v -0.5 4 -6.5
v -0.3 2.8 -6.5
v -0.3 4 -6.5
v -3.5 2 -8.9
v -3.5 2.8 -8.9
v -3.3 2 -8.9
v -3.3 2.6 -8.9
v -0.3 2.6 -8.9
v -0.3 2.8 -8.9
v -3.5 2 -11.7
v -3.5 2.8 -11.7
v -3.3 2 -11.7
v -3.3 2.6 -11.7
v -0.3 2.6 -11.7
v -0.3 2.8 -11.7
v -0.7 2.8 -12.3
v -0.7 4.2 -12.3
v -0.5 2.8 -12.3
v -0.5 4.2 -12.3
v -0.9 2.8 -12.5
v -0.9 4 -12.5
v -0.7 2.8 -12.5
v -0.7 4 -12.5
v -0.5 2.8 -12.5
v -0.5 4 -12.5
v -0.3 2.8 -12.5
v -0.3 4 -12.5
v -3.3 2.8 -14.1
v -3.3 3.2 -14.1
v -0.7 2.8 -14.1
v -0.7 3.2 -14.1
v -0.5 2.8 -14.1
v -0.5 3.2 -14.1
v -0.3 2.8 -14.1
v -0.3 3.2 -14.1
v -3.5 2.4 -14.3
v -3.5 3.2 -14.3
v -3.3 2.4 -14.3
v -3.3 3.2 -14.3
v -3.3 3.4 -14.3
v -0.0999999 3.2 -14.3
v -0.0999999 3.4 -14.3
v -3.3 0.4 -14.5
v -3.3 0.8 -14.5
v -2.9 0.4 -14.5
v -2.9 0.8 -14.5
v 0.3 0.4 -14.5
v 0.3 0.8 -14.5
v 0.7 0.4 -14.5
v 0.7 0.8 -14.5
v -3.3 0.4 -5.9
v -3.3 0.8 -5.9
v -2.9 0.4 -5.9
v -2.9 0.8 -5.9
v 0.3 0.4 -5.9
v 0.3 0.8 -5.9
v 0.7 0.4 -5.9
v 0.7 0.8 -5.9
v -3.5 2.4 -6.1
v -3.5 3.2 -6.1
v -3.3 2.4 -6.1
v -3.3 3.2 -6.1
v -3.3 3.4 -6.1
v -0.0999999 3.2 -6.1
v -0.0999999 3.4 -6.1
v -3.3 2.8 -6.3
v -3.3 3.2 -6.3
v -0.7 2.8 -6.3
v -0.7 3.2 -6.3
v -0.5 2.8 -6.3
v -0.5 3.2 -6.3
v -0.3 2.8 -6.3
v -0.3 3.2 -6.3
v -0.9 2.8 -7.9
v -0.9 4 -7.9
v -0.7 2.8 -7.9
v -0.7 4 -7.9
v -0.5 2.8 -7.9
v -0.5 4 -7.9
v -0.3 2.8 -7.9
v -0.3 4 -7.9
v -0.7 2.8 -8.1
v -0.7 4.2 -8.1
v -0.5 2.8 -8.1
v -0.5 4.2 -8.1
v -3.5 2 -8.7
v -3.5 2.8 -8.7
v -3.3 2 -8.7
v -3.3 2.6 -8.7
v -0.3 2.6 -8.7
v -0.3 2.8 -8.7
v -3.5 2 -11.5
v -3.5 2.8 -11.5
v -3.3 2 -11.5
v -3.3 2.6 -11.5
v -0.3 2.6 -11.5
v -0.3 2.8 -11.5
v -0.9 2.8 -13.9
v -0.9 4 -13.9
v -0.7 2.8 -13.9
v -0.7 4 -13.9
v -0.5 2.8 -13.9
v -0.5 4 -13.9
v -0.3 2.8 -13.9
v -0.3 4 -13.9
v -3.5 1.2 -14.1
v -3.5 1.8 -14.1
v -3.5 2 -14.1
v -3.5 2.8 -14.1
v -3.3 1.2 -14.1
v -3.3 1.8 -14.1
v -3.3 2 -14.1
v -3.3 2.8 -14.1
v -0.7 3.2 -14.1
v -0.7 4.2 -14.1
v -0.5 3.2 -14.1
v -0.5 4.2 -14.1
v -0.3 3.2 -14.1
v -0.3 5 -14.1
v -0.0999999 3.2 -14.1
v -0.0999999 5 -14.1
v -0.0999999 5.2 -14.1
v 0.5 3.2 -14.1
v 0.5 5 -14.1
v 0.5 5.2 -14.1
v 0.7 3.2 -14.1
v 0.7 5 -14.1
v -0.0999999 3.4 -14.3
v -0.0999999 5 -14.3
v 0.5 3.4 -14.3
v 0.5 5 -14.3
v -3.3 0.4 -14.9
v -3.3 1.2 -14.9
v -2.9 0.4 -14.9
v -2.9 0.8 -14.9
v 0.3 0.4 -14.9
v 0.3 0.8 -14.9
v 0.7 0.4 -14.9
v 0.7 1.2 -14.9
v -3.5 2.4 -15.1
v -3.5 3.2 -15.1
v -3.3 1.2 -15.1
v -3.3 2.4 -15.1
v -3.3 3.2 -15.1
v -3.3 3.4 -15.1
v 0.5 2.4 -15.1
v 0.5 3.2 -15.1
v 0.5 3.4 -15.1
v 0.7 1.2 -15.1
v 0.7 3.2 -15.1
v -3.3 2.4 -15.3
v -3.3 3.2 -15.3
v 0.5 2.4 -15.3
v 0.5 3.2 -15.3
v -3.3 0.4 -5.5
v -2.9 0.4 -5.5
v 0.3 0.4 -5.5
v 0.7 0.4 -5.5
v -3.2 0.4 -5.6
v -3 0.4 -5.6
v 0.4 0.4 -5.6
v 0.6 0.4 -5.6
v -3.2 0.4 -5.8
v -3 0.4 -5.8
v 0.4 0.4 -5.8
v 0.6 0.4 -5.8
v -3.3 0.4 -5.9
v -2.9 0.4 -5.9
v 0.3 0.4 -5.9
v 0.7 0.4 -5.9
v -3.3 0.4 -14.5
v -2.9 0.4 -14.5
v 0.3 0.4 -14.5
v 0.7 0.4 -14.5
v 0.4 0.4 -14.6
v 0.6 0.4 -14.6
v 0.4 0.4 -14.8
v 0.6 0.4 -14.8
v -3.3 0.4 -14.9
v -2.9 0.4 -14.9
v 0.3 0.4 -14.9
v 0.7 0.4 -14.9
v -2.9 0.8 -5.5
v 0.3 0.8 -5.5
v -3.3 0.8 -5.9
v -2.9 0.8 -5.9
v 0.3 0.8 -5.9
v 0.7 0.8 -5.9
v -3.3 0.8 -14.5
v -2.9 0.8 -14.5
v 0.3 0.8 -14.5
v 0.7 0.8 -14.5
v -2.9 0.8 -14.9
v 0.3 0.8 -14.9
v -3.3 1.2 -5.3
v 0.7 1.2 -5.3
v -3.3 1.2 -5.5
v 0.7 1.2 -5.5
v -3.5 1.2 -6.3
v -3.3 1.2 -6.3
v -3.5 1.2 -14.1
v -3.3 1.2 -14.1
v -3.3 1.2 -14.9
v 0.7 1.2 -14.9
v -3.3 1.2 -15.1
v 0.7 1.2 -15.1
v -3.5 2 -6.3
v -3.3 2 -6.3
v -3.5 2 -8.7
v -3.3 2 -8.7
v -3.5 2 -8.9
v -3.3 2 -8.9
v -3.5 2 -11.5
v -3.3 2 -11.5
v -3.5 2 -11.7
v -3.3 2 -11.7
v -3.5 2 -14.1
v -3.3 2 -14.1
v -3.3 2.4 -5.1
v 0.5 2.4 -5.1
v -3.5 2.4 -5.3
v -3.3 2.4 -5.3
v 0.5 2.4 -5.3
v -3.5 2.4 -6.1
v -3.3 2.4 -6.1
v -3.5 2.4 -14.3
v -3.3 2.4 -14.3
v -3.5 2.4 -15.1
v -3.3 2.4 -15.1
v 0.5 2.4 -15.1
v -3.3 2.4 -15.3
v 0.5 2.4 -15.3
v -3.5 1.8 -6.3
v -3.3 1.8 -6.3
v -3.5 1.8 -14.1
v -3.3 1.8 -14.1
v -3.3 2.6 -8.7
v -0.3 2.6 -8.7
v -3.3 2.6 -8.9
v -0.3 2.6 -8.9
v -3.3 2.6 -11.5
v -0.3 2.6 -11.5
v -3.3 2.6 -11.7
v -0.3 2.6 -11.7
v -3.5 2.8 -6.3
v -3.3 2.8 -6.3
v -0.7 2.8 -6.3
v -0.5 2.8 -6.3
v -0.3 2.8 -6.3
v -0.9 2.8 -6.5
v -0.7 2.8 -6.5
v -0.5 2.8 -6.5
v -0.3 2.8 -6.5
v -0.9 2.8 -7.9
v -0.7 2.8 -7.9
v -0.5 2.8 -7.9
v -0.3 2.8 -7.9
v -0.7 2.8 -8.1
v -0.5 2.8 -8.1
v -3.5 2.8 -8.7
v -0.3 2.8 -8.7
v -3.5 2.8 -8.9
v -0.3 2.8 -8.9
v -3.5 2.8 -11.5
v -0.3 2.8 -11.5
v -3.5 2.8 -11.7
v -0.3 2.8 -11.7
v -0.7 2.8 -12.3
v -0.5 2.8 -12.3
v -0.9 2.8 -12.5
v -0.7 2.8 -12.5
v -0.5 2.8 -12.5
v -0.3 2.8 -12.5
v -0.9 2.8 -13.9
v -0.7 2.8 -13.9
v -0.5 2.8 -13.9
v -0.3 2.8 -13.9
v -3.5 2.8 -14.1
v -3.3 2.8 -14.1
v -0.7 2.8 -14.1
v -0.5 2.8 -14.1
v -0.3 2.8 -14.1
v -3.3 3.2 -5.1
v 0.5 3.2 -5.1
v -3.5 3.2 -5.3
v -3.3 3.2 -5.3
v 0.5 3.2 -5.3
v 0.7 3.2 -5.3
v -3.5 3.2 -6.1
v -3.3 3.2 -6.1
v -0.0999999 3.2 -6.1
v -3.3 3.2 -6.3
v -0.7 3.2 -6.3
v -0.5 3.2 -6.3
v -0.3 3.2 -6.3
v -0.0999999 3.2 -6.3
v 0.5 3.2 -6.3
v 0.7 3.2 -6.3
v -3.3 3.2 -14.1
v -0.7 3.2 -14.1
v -0.5 3.2 -14.1
v -0.3 3.2 -14.1
v -0.0999999 3.2 -14.1
v 0.5 3.2 -14.1
v 0.7 3.2 -14.1
v -3.5 3.2 -14.3
v -3.3 3.2 -14.3
v -0.0999999 3.2 -14.3
v -3.5 3.2 -15.1
v -3.3 3.2 -15.1
v 0.5 3.2 -15.1
v 0.7 3.2 -15.1
v -3.3 3.2 -15.3
v 0.5 3.2 -15.3
v -3.3 3.4 -5.3
v 0.5 3.4 -5.3
v -3.3 3.4 -6.1
v -0.0999999 3.4 -6.1
v 0.5 3.4 -6.1
v -3.3 3.4 -14.3
v -0.0999999 3.4 -14.3
v 0.5 3.4 -14.3
v -3.3 3.4 -15.1
v 0.5 3.4 -15.1
v -0.9 4 -6.5
v -0.7 4 -6.5
v -0.5 4 -6.5
v -0.3 4 -6.5
v -0.9 4 -7.9
v -0.7 4 -7.9
v -0.5 4 -7.9
v -0.3 4 -7.9
v -0.9 4 -12.5
v -0.7 4 -12.5
v -0.5 4 -12.5
v -0.3 4 -12.5
v -0.9 4 -13.9
v -0.7 4 -13.9
v -0.5 4 -13.9
v -0.3 4 -13.9
v -0.7 4.2 -6.3
v -0.5 4.2 -6.3
v -0.7 4.2 -8.1
v -0.5 4.2 -8.1
v -0.7 4.2 -12.3
v -0.5 4.2 -12.3
v -0.7 4.2 -14.1
v -0.5 4.2 -14.1
v -0.0999999 5 -6.1
v 0.5 5 -6.1
v -0.3 5 -6.3
v -0.0999999 5 -6.3
v 0.5 5 -6.3
v 0.7 5 -6.3
v -0.3 5 -14.1
v -0.0999999 5 -14.1
v 0.5 5 -14.1
v 0.7 5 -14.1
v -0.0999999 5 -14.3
v 0.5 5 -14.3
v -0.0999999 5.2 -6.3
v 0.5 5.2 -6.3
v -0.0999999 5.2 -14.1
v 0.5 5.2 -14.1

# faces
f 3/4/1 2/4/1 1/4/1
f 4/4/1 2/4/1 3/4/1
f 15/4/1 6/4/1 5/4/1
f 16/4/1 6/4/1 15/4/1
f 17/4/1 8/4/1 7/4/1
f 18/4/1 8/4/1 17/4/1
f 19/4/1 10/4/1 9/4/1
f 20/4/1 10/4/1 19/4/1
f 21/4/1 12/4/1 11/4/1
f 22/4/1 12/4/1 21/4/1
f 23/4/1 14/4/1 13/4/1
f 24/4/1 14/4/1 23/4/1
f 29/2/1 26/2/1 25/2/1
f 30/2/1 28/2/1 27/2/1
f 32/2/1 29/2/1 25/2/1
f 32/2/1 30/2/1 29/2/1
f 33/2/1 30/2/1 32/2/1
f 34/2/1 30/2/1 33/2/1
f 35/2/1 28/2/1 30/2/1
f 35/2/1 30/2/1 34/2/1
f 37/4/1 32/4/1 31/4/1
f 37/4/1 33/4/1 32/4/1
f 38/4/1 36/4/1 35/4/1
f 38/4/1 35/4/1 34/4/1
f 39/4/1 37/4/1 31/4/1
f 39/3/1 38/3/1 37/3/1
f 40/3/1 38/3/1 39/3/1
f 41/3/1 38/3/1 40/3/1
f 42/3/1 38/3/1 41/3/1
f 43/3/1 38/3/1 42/3/1
f 44/4/1 36/4/1 38/4/1
f 44/3/1 38/3/1 43/3/1
f 46/4/1 39/4/1 31/4/1
f 47/4/1 39/4/1 46/4/1
f 48/4/1 36/4/1 44/4/1
f 49/4/1 36/4/1 48/4/1
f 51/3/1 41/3/1 40/3/1
f 52/3/1 41/3/1 51/3/1
f 53/3/1 43/3/1 42/3/1
f 54/3/1 43/3/1 53/3/1
f 55/4/1 39/4/1 47/4/1
f 56/4/1 48/4/1 44/4/1
f 57/4/1 46/4/1 45/4/1
f 58/4/1 46/4/1 57/4/1
f 59/4/1 55/4/1 47/4/1
f 60/4/1 55/4/1 59/4/1
f 61/4/1 48/4/1 56/4/1
f 62/4/1 48/4/1 61/4/1
f 63/4/1 50/4/1 49/4/1
f 64/4/1 50/4/1 63/4/1
f 65/4/1 59/4/1 58/4/1
f 66/4/1 59/4/1 65/4/1
f 67/4/1 63/4/1 62/4/1
f 68/4/1 63/4/1 67/4/1
f 73/1/1 70/1/1 69/1/1
f 74/1/1 70/1/1 73/1/1
f 75/1/1 72/1/1 71/1/1
f 76/1/1 72/1/1 75/1/1
f 85/1/1 78/1/1 77/1/1
f 86/1/1 84/1/1 83/1/1
f 87/1/1 78/1/1 85/1/1
f 88/1/1 80/1/1 79/1/1
f 89/1/1 82/1/1 81/1/1
f 90/1/1 86/1/1 83/1/1
f 91/1/1 87/1/1 85/1/1
f 91/1/1 88/1/1 87/1/1
f 92/1/1 80/1/1 88/1/1
f 92/1/1 88/1/1 91/1/1
f 93/1/1 90/1/1 89/1/1
f 93/1/1 89/1/1 81/1/1
f 94/1/1 86/1/1 90/1/1
f 94/1/1 90/1/1 93/1/1
f 102/4/1 96/4/1 95/4/1
f 103/4/1 96/4/1 102/4/1
f 104/4/1 98/4/1 97/4/1
f 105/4/1 98/4/1 104/4/1
f 109/4/1 100/4/1 99/4/1
f 110/4/1 108/4/1 107/4/1
f 111/4/1 100/4/1 109/4/1
f 112/4/1 103/4/1 102/4/1
f 112/4/1 102/4/1 101/4/1
f 112/4/1 104/4/1 103/4/1
f 112/4/1 105/4/1 104/4/1
f 112/4/1 106/4/1 105/4/1
f 113/4/1 106/4/1 112/4/1
f 114/4/1 110/4/1 107/4/1
f 115/4/1 111/4/1 109/4/1
f 115/4/1 114/4/1 113/4/1
f 115/4/1 113/4/1 112/4/1
f 115/4/1 112/4/1 111/4/1
f 116/4/1 110/4/1 114/4/1
f 116/4/1 114/4/1 115/4/1
f 121/4/1 118/4/1 117/4/1
f 122/4/1 120/4/1 119/4/1
f 123/4/1 118/4/1 121/4/1
f 124/4/1 118/4/1 123/4/1
f 125/4/1 122/4/1 119/4/1
f 126/4/1 122/4/1 125/4/1
f 127/4/1 125/4/1 124/4/1
f 128/4/1 125/4/1 127/4/1
f 133/2/1 130/2/1 129/2/1
f 134/2/1 130/2/1 133/2/1
f 135/2/1 132/2/1 131/2/1
f 136/2/1 132/2/1 135/2/1
f 137/2/2 138/2/2 141/2/2
f 141/2/2 138/2/2 142/2/2
f 139/2/2 140/2/2 143/2/2
f 143/2/2 140/2/2 144/2/2
f 145/1/2 146/1/2 153/1/2
f 151/1/2 152/1/2 154/1/2
f 153/1/2 146/1/2 155/1/2
f 147/1/2 148/1/2 156/1/2
f 149/1/2 150/1/2 157/1/2
f 151/1/2 154/1/2 158/1/2
f 153/1/2 155/1/2 159/1/2
f 155/1/2 156/1/2 159/1/2
f 156/1/2 148/1/2 160/1/2
f 159/1/2 156/1/2 160/1/2
f 157/1/2 158/1/2 161/1/2
f 149/1/2 157/1/2 161/1/2
f 158/1/2 154/1/2 162/1/2
f 161/1/2 158/1/2 162/1/2
f 163/4/2 164/4/2 167/4/2
f 167/4/2 164/4/2 168/4/2
f 165/4/2 166/4/2 171/4/2
f 171/4/2 166/4/2 172/4/2
f 168/4/2 169/4/2 173/4/2
f 173/4/2 169/4/2 174/4/2
f 170/4/2 171/4/2 175/4/2
f 175/4/2 171/4/2 176/4/2
f 174/4/2 169/4/2 177/4/2
f 177/4/2 169/4/2 178/4/2
f 170/4/2 175/4/2 179/4/2
f 179/4/2 175/4/2 180/4/2
f 178/4/2 179/4/2 181/4/2
f 181/4/2 179/4/2 182/4/2
f 183/2/2 184/2/2 187/2/2
f 185/2/2 186/2/2 188/2/2
f 183/2/2 187/2/2 190/2/2
f 187/2/2 188/2/2 190/2/2
f 188/2/2 186/2/2 191/2/2
f 190/2/2 188/2/2 191/2/2
f 189/4/2 190/4/2 193/4/2
f 191/4/2 192/4/2 193/4/2
f 190/4/2 191/4/2 193/4/2
f 193/4/2 192/4/2 194/4/2
f 194/4/2 192/4/2 195/4/2
f 195/4/2 192/4/2 196/4/2
f 194/4/2 195/4/2 197/4/2
f 197/4/2 195/4/2 198/4/2
f 201/4/3 200/4/3 199/4/3
f 202/4/3 200/4/3 201/4/3
f 206/4/3 204/4/3 203/4/3
f 207/4/3 204/4/3 206/4/3
f 209/4/3 206/4/3 205/4/3
f 210/4/3 208/4/3 207/4/3
f 211/4/3 208/4/3 210/4/3
f 212/4/3 209/4/3 205/4/3
f 212/4/3 210/4/3 209/4/3
f 213/4/3 210/4/3 212/4/3
f 216/2/3 215/2/3 214/2/3
f 217/2/3 215/2/3 216/2/3
f 219/2/3 215/2/3 217/2/3
f 220/2/3 219/2/3 218/2/3
f 221/2/3 215/2/3 219/2/3
f 221/2/3 219/2/3 220/2/3
f 224/4/3 223/4/3 222/4/3
f 225/4/3 223/4/3 224/4/3
f 230/4/3 227/4/3 226/4/3
f 231/4/3 227/4/3 230/4/3
f 232/4/3 229/4/3 228/4/3
f 233/4/3 229/4/3 232/4/3
f 236/1/3 235/1/3 234/1/3
f 237/1/3 235/1/3 236/1/3
f 240/4/3 239/4/3 238/4/3
f 241/4/3 239/4/3 240/4/3
f 244/4/3 242/4/3 241/4/3
f 245/4/3 242/4/3 244/4/3
f 246/4/3 244/4/3 243/4/3
f 247/4/3 244/4/3 246/4/3
f 250/1/3 249/1/3 248/1/3
f 251/1/3 249/1/3 250/1/3
f 254/1/3 253/1/3 252/1/3
f 255/1/3 253/1/3 254/1/3
f 258/4/3 257/4/3 256/4/3
f 259/4/3 257/4/3 258/4/3
f 260/4/3 257/4/3 259/4/3
f 261/4/3 257/4/3 260/4/3
f 264/4/3 263/4/3 262/4/3
f 265/4/3 263/4/3 264/4/3
f 266/4/3 263/4/3 265/4/3
f 267/4/3 263/4/3 266/4/3
f 270/1/3 269/1/3 268/1/3
f 271/1/3 269/1/3 270/1/3
f 274/1/3 273/1/3 272/1/3
f 275/1/3 273/1/3 274/1/3
f 278/1/3 277/1/3 276/1/3
f 279/1/3 277/1/3 278/1/3
f 282/4/3 281/4/3 280/4/3
f 283/4/3 281/4/3 282/4/3
f 286/4/3 285/4/3 284/4/3
f 287/4/3 285/4/3 286/4/3
f 290/4/3 289/4/3 288/4/3
f 291/4/3 289/4/3 290/4/3
f 293/4/3 292/4/3 291/4/3
f 294/4/3 292/4/3 293/4/3
f 297/2/3 296/2/3 295/2/3
f 298/2/3 296/2/3 297/2/3
f 301/2/3 300/2/3 299/2/3
f 302/2/3 300/2/3 301/2/3
f 303/2/4 304/2/4 305/2/4
f 305/2/4 304/2/4 306/2/4
f 307/2/4 308/2/4 309/2/4
f 309/2/4 308/2/4 310/2/4
f 311/4/4 312/4/4 313/4/4
f 313/4/4 312/4/4 314/4/4
f 314/4/4 315/4/4 316/4/4
f 316/4/4 315/4/4 317/4/4
f 318/4/4 319/4/4 320/4/4
f 320/4/4 319/4/4 321/4/4
f 322/4/4 323/4/4 324/4/4
f 324/4/4 323/4/4 325/4/4
f 326/1/4 327/1/4 328/1/4
f 328/1/4 327/1/4 329/1/4
f 330/1/4 331/1/4 332/1/4
f 332/1/4 331/1/4 333/1/4
f 334/1/4 335/1/4 336/1/4
f 336/1/4 335/1/4 337/1/4
f 338/4/4 339/4/4 340/4/4
f 340/4/4 339/4/4 341/4/4
f 341/4/4 339/4/4 342/4/4
f 342/4/4 339/4/4 343/4/4
f 344/4/4 345/4/4 346/4/4
f 346/4/4 345/4/4 347/4/4
f 347/4/4 345/4/4 348/4/4
f 348/4/4 345/4/4 349/4/4
f 350/1/4 351/1/4 352/1/4
f 352/1/4 351/1/4 353/1/4
f 354/1/4 355/1/4 356/1/4
f 356/1/4 355/1/4 357/1/4
f 358/4/4 359/4/4 362/4/4
f 362/4/4 359/4/4 363/4/4
f 360/4/4 361/4/4 364/4/4
f 364/4/4 361/4/4 365/4/4
f 366/1/4 367/1/4 368/1/4
f 368/1/4 367/1/4 369/1/4
f 370/4/4 371/4/4 372/4/4
f 372/4/4 371/4/4 373/4/4
f 373/4/4 374/4/4 376/4/4
f 376/4/4 374/4/4 377/4/4
f 375/4/4 376/4/4 378/4/4
f 378/4/4 376/4/4 379/4/4
f 380/4/4 381/4/4 382/4/4
f 382/4/4 381/4/4 383/4/4
f 384/2/4 385/2/4 386/2/4
f 386/2/4 385/2/4 387/2/4
f 387/2/4 385/2/4 389/2/4
f 388/2/4 389/2/4 390/2/4
f 389/2/4 385/2/4 391/2/4
f 390/2/4 389/2/4 391/2/4
f 392/4/4 393/4/4 395/4/4
f 395/4/4 393/4/4 396/4/4
f 394/4/4 395/4/4 398/4/4
f 396/4/4 397/4/4 399/4/4
f 399/4/4 397/4/4 400/4/4
f 394/4/4 398/4/4 401/4/4
f 398/4/4 399/4/4 401/4/4
f 401/4/4 399/4/4 402/4/4
f 403/4/4 404/4/4 405/4/4
f 405/4/4 404/4/4 406/4/4
f 411/2/5 408/2/5 407/2/5
f 412/2/5 408/2/5 411/2/5
f 413/2/5 410/2/5 409/2/5
f 414/2/5 410/2/5 413/2/5
f 415/2/5 411/2/5 407/2/5
f 415/3/5 412/3/5 411/3/5
f 416/2/5 408/2/5 412/2/5
f 416/3/5 412/3/5 415/3/5
f 417/3/5 414/3/5 413/3/5
f 417/2/5 413/2/5 409/2/5
f 418/2/5 410/2/5 414/2/5
f 418/3/5 414/3/5 417/3/5
f 419/2/5 415/2/5 407/2/5
f 419/2/5 416/2/5 415/2/5
f 420/2/5 408/2/5 416/2/5
f 420/2/5 416/2/5 419/2/5
f 421/2/5 417/2/5 409/2/5
f 421/2/5 418/2/5 417/2/5
f 422/2/5 410/2/5 418/2/5
f 422/2/5 418/2/5 421/2/5
f 427/2/5 426/2/5 425/2/5
f 428/2/5 426/2/5 427/2/5
f 429/2/5 427/2/5 425/2/5
f 429/3/5 428/3/5 427/3/5
f 430/2/5 426/2/5 428/2/5
f 430/3/5 428/3/5 429/3/5
f 431/2/5 424/2/5 423/2/5
f 432/2/5 424/2/5 431/2/5
f 433/2/5 429/2/5 425/2/5
f 433/2/5 430/2/5 429/2/5
f 434/2/5 426/2/5 430/2/5
f 434/2/5 430/2/5 433/2/5
f 438/2/5 436/2/5 435/2/5
f 439/2/5 436/2/5 438/2/5
f 441/2/5 438/2/5 437/2/5
f 441/2/5 440/2/5 439/2/5
f 441/2/5 439/2/5 438/2/5
f 442/2/5 440/2/5 441/2/5
f 443/2/5 440/2/5 442/2/5
f 444/2/5 440/2/5 443/2/5
f 445/2/5 443/2/5 442/2/5
f 446/2/5 443/2/5 445/2/5
f 449/4/5 448/4/5 447/4/5
f 450/4/5 448/4/5 449/4/5
f 453/4/5 452/4/5 451/4/5
f 454/4/5 452/4/5 453/4/5
f 457/4/5 456/4/5 455/4/5
f 458/4/5 456/4/5 457/4/5
f 461/4/5 460/4/5 459/4/5
f 462/4/5 460/4/5 461/4/5
f 465/4/5 464/4/5 463/4/5
f 466/4/5 464/4/5 465/4/5
f 469/4/5 468/4/5 467/4/5
f 470/4/5 468/4/5 469/4/5
f 474/4/5 472/4/5 471/4/5
f 475/4/5 472/4/5 474/4/5
f 476/4/5 474/4/5 473/4/5
f 477/4/5 474/4/5 476/4/5
f 480/4/5 479/4/5 478/4/5
f 481/4/5 479/4/5 480/4/5
f 483/4/5 482/4/5 481/4/5
f 484/4/5 482/4/5 483/4/5
f 485/4/6 486/4/6 487/4/6
f 487/4/6 486/4/6 488/4/6
f 489/3/6 490/3/6 491/3/6
f 491/3/6 490/3/6 492/3/6
f 493/3/6 494/3/6 495/3/6
f 495/3/6 494/3/6 496/3/6
f 497/4/6 498/4/6 502/4/6
f 498/4/6 499/4/6 502/4/6
f 502/4/6 499/4/6 503/4/6
f 500/4/6 501/4/6 504/4/6
f 504/4/6 501/4/6 505/4/6
f 497/4/6 502/4/6 506/4/6
f 506/4/6 507/4/6 510/4/6
f 508/4/6 509/4/6 511/4/6
f 497/4/6 506/4/6 512/4/6
f 510/4/6 511/4/6 512/4/6
f 506/4/6 510/4/6 512/4/6
f 511/4/6 509/4/6 513/4/6
f 512/4/6 511/4/6 513/4/6
f 514/4/6 515/4/6 516/4/6
f 516/4/6 515/4/6 517/4/6
f 518/4/6 519/4/6 520/4/6
f 520/4/6 519/4/6 521/4/6
f 518/4/6 520/4/6 522/4/6
f 522/4/6 520/4/6 523/4/6
f 521/4/6 519/4/6 524/4/6
f 524/4/6 519/4/6 525/4/6
f 518/4/6 522/4/6 526/4/6
f 518/4/6 526/4/6 530/4/6
f 526/4/6 527/4/6 530/4/6
f 530/4/6 527/4/6 531/4/6
f 531/4/6 527/4/6 532/4/6
f 528/4/6 529/4/6 533/4/6
f 533/4/6 529/4/6 534/4/6
f 535/4/6 536/4/6 538/4/6
f 538/4/6 536/4/6 539/4/6
f 537/4/6 538/4/6 541/4/6
f 541/4/6 538/4/6 542/4/6
f 542/4/6 543/4/6 544/4/6
f 544/4/6 543/4/6 545/4/6
f 545/4/6 543/4/6 546/4/6
f 546/4/6 543/4/6 547/4/6
f 547/4/6 543/4/6 548/4/6
f 539/4/6 540/4/6 549/4/6
f 549/4/6 540/4/6 550/4/6
f 551/4/6 552/4/6 559/4/6
f 552/4/6 553/4/6 559/4/6
f 554/4/6 555/4/6 559/4/6
f 553/4/6 554/4/6 559/4/6
f 559/4/6 555/4/6 560/4/6
f 558/4/6 559/4/6 561/4/6
f 561/4/6 559/4/6 562/4/6
f 556/4/6 557/4/6 563/4/6
f 563/4/6 557/4/6 564/4/6
f 562/4/6 563/4/6 565/4/6
f 565/4/6 563/4/6 566/4/6
f 567/4/6 568/4/6 569/4/6
f 569/4/6 568/4/6 570/4/6
f 570/4/6 568/4/6 571/4/6
f 572/4/6 573/4/6 575/4/6
f 573/4/6 574/4/6 575/4/6
f 575/4/6 574/4/6 576/4/6
f 577/1/6 578/1/6 581/1/6
f 581/1/6 578/1/6 582/1/6
f 579/1/6 580/1/6 583/1/6
f 583/1/6 580/1/6 584/1/6
f 585/1/6 586/1/6 589/1/6
f 589/1/6 586/1/6 590/1/6
f 587/1/6 588/1/6 591/1/6
f 591/1/6 588/1/6 592/1/6
f 593/1/6 594/1/6 595/1/6
f 595/1/6 594/1/6 596/1/6
f 597/1/6 598/1/6 599/1/6
f 599/1/6 598/1/6 600/1/6
f 601/4/6 602/4/6 604/4/6
f 604/4/6 602/4/6 605/4/6
f 603/4/6 604/4/6 607/4/6
f 607/4/6 604/4/6 608/4/6
f 605/4/6 606/4/6 609/4/6
f 609/4/6 606/4/6 610/4/6
f 608/4/6 609/4/6 611/4/6
f 611/4/6 609/4/6 612/4/6
f 613/4/6 614/4/6 615/4/6
f 615/4/6 614/4/6 616/4/6
