# MagicaVoxel @ Ephtracy

# group
o 

# material
mtllib chertej-160.mtl
usemtl palette

# normals
vn -1 0 0
vn 1 0 0
vn 0 0 1
vn 0 0 -1
vn 0 -1 0
vn 0 1 0

# texcoords
vt 0.0292969 0.5
vt 0.0566406 0.5
vt 0.533203 0.5

# verts
v 6.6 3.8 29.2
v 6.6 3.8 26
v 6.6 4.2 29.2
v 6.6 4.2 26
v 7 0 29
v 7 0 28.6
v 7 0 26.4
v 7 0 26
v 7 0.2 29
v 7 0.2 28.6
v 7 0.2 26.4
v 7 0.2 26
v 7 2.8 29
v 7 2.8 27.5
v 7 2.9 27.5
v 7 2.9 26.4
v 7 3.5 28.9
v 7 3.5 26.4
v 7 3.6 29
v 7 3.6 28.9
v 7 3.8 29
v 7 3.8 26
v 10.8 0 29
v 10.8 0 28.6
v 10.8 0 26.4
v 10.8 0 26
v 10.8 0.2 29
v 10.8 0.2 28.6
v 10.8 0.2 26.4
v 10.8 0.2 26
v 7.4 0 29
v 7.4 0 28.6
v 7.4 0 26.4
v 7.4 0 26
v 7.4 0.2 29
v 7.4 0.2 28.6
v 7.4 0.2 26.4
v 7.4 0.2 26
v 11.2 0 29
v 11.2 0 28.6
v 11.2 0 26.4
v 11.2 0 26
v 11.2 0.2 29
v 11.2 0.2 28.6
v 11.2 0.2 26.4
v 11.2 0.2 26
v 11.2 2.8 29
v 11.2 2.8 26.1
v 11.2 3.5 27.8
v 11.2 3.5 26.1
v 11.2 3.6 29
v 11.2 3.6 27.8
v 11.2 3.8 29
v 11.2 3.8 26
v 11.6 3.8 29.2
v 11.6 3.8 26
v 11.6 4.2 29.2
v 11.6 4.2 26
v 6.6 3.8 29.2
v 6.6 4.2 29.2
v 11.6 3.8 29.2
v 11.6 4.2 29.2
v 7 0 29
v 7 0.2 29
v 7 2.8 29
v 7 3.6 29
v 7 3.8 29
v 7.4 0 29
v 7.4 0.2 29
v 7.4 0.4 29
v 7.4 0.8 29
v 7.4 1 29
v 7.4 1.2 29
v 7.4 1.4 29
v 7.4 1.6 29
v 7.4 1.8 29
v 7.4 2 29
v 7.4 2.2 29
v 7.4 2.4 29
v 7.6 0.6 29
v 7.6 0.8 29
v 7.6 1 29
v 7.6 1.2 29
v 7.6 1.4 29
v 7.6 1.6 29
v 7.6 1.8 29
v 7.6 2 29
v 7.6 2.2 29
v 7.6 2.4 29
v 7.8 0.6 29
v 7.8 0.8 29
v 7.8 1 29
v 7.8 1.2 29
v 7.8 1.4 29
v 7.8 1.6 29
v 7.8 1.8 29
v 7.8 2 29
v 7.8 2.2 29
v 7.8 2.4 29
v 8 0.6 29
v 8 0.8 29
v 8 1 29
v 8 1.2 29
v 8 1.4 29
v 8 1.6 29
v 8 1.8 29
v 8 2 29
v 8 2.2 29
v 8 2.4 29
v 8.2 0.6 29
v 8.2 0.8 29
v 8.2 1 29
v 8.2 1.2 29
v 8.2 1.4 29
v 8.2 1.6 29
v 8.2 1.8 29
v 8.2 2 29
v 8.2 2.2 29
v 8.2 2.4 29
v 8.4 0.6 29
v 8.4 0.8 29
v 8.4 1 29
v 8.4 1.2 29
v 8.4 1.4 29
v 8.4 1.6 29
v 8.4 1.8 29
v 8.4 2 29
v 8.4 2.2 29
v 8.4 2.4 29
v 8.6 0.6 29
v 8.6 0.8 29
v 8.6 1 29
v 8.6 1.2 29
v 8.6 1.4 29
v 8.6 1.6 29
v 8.6 1.8 29
v 8.6 2 29
v 8.6 2.2 29
v 8.6 2.4 29
v 8.8 0.6 29
v 8.8 0.8 29
v 8.8 1 29
v 8.8 1.2 29
v 8.8 1.4 29
v 8.8 1.6 29
v 8.8 1.8 29
v 8.8 2 29
v 8.8 2.2 29
v 8.8 2.4 29
v 9 0.6 29
v 9 0.8 29
v 9 1 29
v 9 1.2 29
v 9 1.4 29
v 9 1.6 29
v 9 1.8 29
v 9 2 29
v 9 2.2 29
v 9 2.4 29
v 9.2 0.6 29
v 9.2 0.8 29
v 9.2 1 29
v 9.2 1.2 29
v 9.2 1.4 29
v 9.2 1.6 29
v 9.2 1.8 29
v 9.2 2 29
v 9.2 2.2 29
v 9.2 2.4 29
v 9.4 0.6 29
v 9.4 0.8 29
v 9.4 1 29
v 9.4 1.2 29
v 9.4 1.4 29
v 9.4 1.6 29
v 9.4 1.8 29
v 9.4 2 29
v 9.4 2.2 29
v 9.4 2.4 29
v 9.6 0.6 29
v 9.6 0.8 29
v 9.6 1 29
v 9.6 1.2 29
v 9.6 1.4 29
v 9.6 1.6 29
v 9.6 1.8 29
v 9.6 2 29
v 9.6 2.2 29
v 9.6 2.4 29
v 9.8 0.6 29
v 9.8 0.8 29
v 9.8 1 29
v 9.8 1.2 29
v 9.8 1.4 29
v 9.8 1.6 29
v 9.8 1.8 29
v 9.8 2 29
v 9.8 2.2 29
v 9.8 2.4 29
v 10 0.6 29
v 10 0.8 29
v 10 1 29
v 10 1.2 29
v 10 1.4 29
v 10 1.6 29
v 10 1.8 29
v 10 2 29
v 10 2.2 29
v 10 2.4 29
v 10.2 0.6 29
v 10.2 0.8 29
v 10.2 1 29
v 10.2 1.2 29
v 10.2 1.4 29
v 10.2 1.6 29
v 10.2 1.8 29
v 10.2 2 29
v 10.2 2.2 29
v 10.2 2.4 29
v 10.4 0.6 29
v 10.4 0.8 29
v 10.4 1 29
v 10.4 1.2 29
v 10.4 1.4 29
v 10.4 1.6 29
v 10.4 1.8 29
v 10.4 2 29
v 10.4 2.2 29
v 10.4 2.4 29
v 10.6 0.6 29
v 10.6 0.8 29
v 10.6 1 29
v 10.6 1.2 29
v 10.6 1.4 29
v 10.6 1.6 29
v 10.6 1.8 29
v 10.6 2 29
v 10.6 2.2 29
v 10.6 2.4 29
v 10.8 0 29
v 10.8 0.2 29
v 10.8 0.4 29
v 10.8 0.8 29
v 10.8 1 29
v 10.8 1.2 29
v 10.8 1.4 29
v 10.8 1.6 29
v 10.8 1.8 29
v 10.8 2 29
v 10.8 2.2 29
v 10.8 2.4 29
v 11.2 0 29
v 11.2 0.2 29
v 11.2 2.8 29
v 11.2 3.6 29
v 11.2 3.8 29
v 7 0 26.4
v 7 0.2 26.4
v 7.4 0 26.4
v 7.4 0.2 26.4
v 10.8 0 26.4
v 10.8 0.2 26.4
v 11.2 0 26.4
v 11.2 0.2 26.4
v 7 0 28.6
v 7 0.2 28.6
v 7.4 0 28.6
v 7.4 0.2 28.6
v 10.8 0 28.6
v 10.8 0.2 28.6
v 11.2 0 28.6
v 11.2 0.2 28.6
v 6.6 3.8 26
v 6.6 4.2 26
v 7 0 26
v 7 0.2 26
v 7 3.8 26
v 7.4 0 26
v 7.4 0.2 26
v 10.8 0 26
v 10.8 0.2 26
v 11.2 0 26
v 11.2 0.2 26
v 11.2 3.8 26
v 11.6 3.8 26
v 11.6 4.2 26
v 7 0 29
v 7.4 0 29
v 10.8 0 29
v 11.2 0 29
v 7 0 28.6
v 7.4 0 28.6
v 10.8 0 28.6
v 11.2 0 28.6
v 7 0 26.4
v 7.4 0 26.4
v 10.8 0 26.4
v 11.2 0 26.4
v 7 0 26
v 7.4 0 26
v 10.8 0 26
v 11.2 0 26
v 7.4 0.2 29
v 10.8 0.2 29
v 7 0.2 28.6
v 7.4 0.2 28.6
v 10.8 0.2 28.6
v 11.2 0.2 28.6
v 7 0.2 26.4
v 7.4 0.2 26.4
v 10.8 0.2 26.4
v 11.2 0.2 26.4
v 7.4 0.2 26
v 10.8 0.2 26
v 6.6 3.8 29.2
v 11.6 3.8 29.2
v 7 3.8 29
v 11.2 3.8 29
v 6.6 3.8 26
v 7 3.8 26
v 11.2 3.8 26
v 11.6 3.8 26
v 6.6 4.2 29.2
v 11.6 4.2 29.2
v 6.6 4.2 26
v 11.6 4.2 26

# faces
f 3/1/1 2/1/1 1/1/1
f 4/1/1 2/1/1 3/1/1
f 9/3/1 6/3/1 5/3/1
f 10/3/1 6/3/1 9/3/1
f 11/3/1 8/3/1 7/3/1
f 12/3/1 8/3/1 11/3/1
f 13/1/1 10/1/1 9/1/1
f 13/1/1 11/1/1 10/1/1
f 13/1/1 12/1/1 11/1/1
f 14/1/1 12/1/1 13/1/1
f 15/2/1 14/2/1 13/2/1
f 15/1/1 12/1/1 14/1/1
f 16/1/1 12/1/1 15/1/1
f 17/2/1 15/2/1 13/2/1
f 17/2/1 16/2/1 15/2/1
f 18/1/1 12/1/1 16/1/1
f 18/2/1 16/2/1 17/2/1
f 19/2/1 17/2/1 13/2/1
f 20/1/1 18/1/1 17/1/1
f 20/2/1 17/2/1 19/2/1
f 21/1/1 20/1/1 19/1/1
f 22/1/1 12/1/1 18/1/1
f 22/1/1 20/1/1 21/1/1
f 22/1/1 18/1/1 20/1/1
f 27/3/1 24/3/1 23/3/1
f 28/3/1 24/3/1 27/3/1
f 29/3/1 26/3/1 25/3/1
f 30/3/1 26/3/1 29/3/1
f 31/3/2 32/3/2 35/3/2
f 35/3/2 32/3/2 36/3/2
f 33/3/2 34/3/2 37/3/2
f 37/3/2 34/3/2 38/3/2
f 39/3/2 40/3/2 43/3/2
f 43/3/2 40/3/2 44/3/2
f 41/3/2 42/3/2 45/3/2
f 45/3/2 42/3/2 46/3/2
f 43/1/2 44/1/2 47/1/2
f 44/1/2 45/1/2 47/1/2
f 45/1/2 46/1/2 47/1/2
f 47/1/2 46/1/2 48/1/2
f 47/2/2 48/2/2 49/2/2
f 48/1/2 46/1/2 50/1/2
f 49/2/2 48/2/2 50/2/2
f 47/2/2 49/2/2 51/2/2
f 49/1/2 50/1/2 52/1/2
f 51/2/2 49/2/2 52/2/2
f 51/1/2 52/1/2 53/1/2
f 50/1/2 46/1/2 54/1/2
f 53/1/2 52/1/2 54/1/2
f 52/1/2 50/1/2 54/1/2
f 55/1/2 56/1/2 57/1/2
f 57/1/2 56/1/2 58/1/2
f 61/1/3 60/1/3 59/1/3
f 62/1/3 60/1/3 61/1/3
f 68/3/3 64/3/3 63/3/3
f 69/1/3 65/1/3 64/1/3
f 69/3/3 64/3/3 68/3/3
f 70/1/3 65/1/3 69/1/3
f 71/1/3 65/1/3 70/1/3
f 72/1/3 65/1/3 71/1/3
f 73/1/3 65/1/3 72/1/3
f 74/1/3 65/1/3 73/1/3
f 75/1/3 65/1/3 74/1/3
f 76/1/3 65/1/3 75/1/3
f 77/1/3 65/1/3 76/1/3
f 78/1/3 65/1/3 77/1/3
f 79/1/3 65/1/3 78/1/3
f 80/2/3 71/2/3 70/2/3
f 81/3/3 72/3/3 71/3/3
f 81/2/3 71/2/3 80/2/3
f 82/2/3 73/2/3 72/2/3
f 82/3/3 72/3/3 81/3/3
f 83/3/3 74/3/3 73/3/3
f 83/2/3 73/2/3 82/2/3
f 84/2/3 75/2/3 74/2/3
f 84/3/3 74/3/3 83/3/3
f 85/3/3 76/3/3 75/3/3
f 85/2/3 75/2/3 84/2/3
f 86/1/3 77/1/3 76/1/3
f 86/3/3 76/3/3 85/3/3
f 87/3/3 78/3/3 77/3/3
f 87/1/3 77/1/3 86/1/3
f 88/2/3 79/2/3 78/2/3
f 88/3/3 78/3/3 87/3/3
f 89/1/3 65/1/3 79/1/3
f 89/2/3 79/2/3 88/2/3
f 90/2/3 80/2/3 70/2/3
f 90/3/3 81/3/3 80/3/3
f 91/2/3 82/2/3 81/2/3
f 91/3/3 81/3/3 90/3/3
f 92/3/3 83/3/3 82/3/3
f 92/2/3 82/2/3 91/2/3
f 93/2/3 84/2/3 83/2/3
f 93/3/3 83/3/3 92/3/3
f 94/3/3 85/3/3 84/3/3
f 94/2/3 84/2/3 93/2/3
f 95/2/3 86/2/3 85/2/3
f 95/3/3 85/3/3 94/3/3
f 96/3/3 87/3/3 86/3/3
f 96/2/3 86/2/3 95/2/3
f 97/2/3 88/2/3 87/2/3
f 97/3/3 87/3/3 96/3/3
f 98/3/3 89/3/3 88/3/3
f 98/2/3 88/2/3 97/2/3
f 99/1/3 65/1/3 89/1/3
f 99/3/3 89/3/3 98/3/3
f 100/2/3 90/2/3 70/2/3
f 100/2/3 91/2/3 90/2/3
f 101/3/3 92/3/3 91/3/3
f 101/2/3 91/2/3 100/2/3
f 102/2/3 93/2/3 92/2/3
f 102/3/3 92/3/3 101/3/3
f 103/3/3 94/3/3 93/3/3
f 103/2/3 93/2/3 102/2/3
f 104/2/3 95/2/3 94/2/3
f 104/3/3 94/3/3 103/3/3
f 105/3/3 96/3/3 95/3/3
f 105/2/3 95/2/3 104/2/3
f 106/1/3 97/1/3 96/1/3
f 106/3/3 96/3/3 105/3/3
f 107/3/3 98/3/3 97/3/3
f 107/1/3 97/1/3 106/1/3
f 108/2/3 99/2/3 98/2/3
f 108/3/3 98/3/3 107/3/3
f 109/1/3 65/1/3 99/1/3
f 109/2/3 99/2/3 108/2/3
f 110/2/3 100/2/3 70/2/3
f 110/3/3 101/3/3 100/3/3
f 111/2/3 102/2/3 101/2/3
f 111/3/3 101/3/3 110/3/3
f 112/3/3 103/3/3 102/3/3
f 112/2/3 102/2/3 111/2/3
f 113/2/3 104/2/3 103/2/3
f 113/3/3 103/3/3 112/3/3
f 114/3/3 105/3/3 104/3/3
f 114/2/3 104/2/3 113/2/3
f 115/2/3 106/2/3 105/2/3
f 115/3/3 105/3/3 114/3/3
f 116/3/3 107/3/3 106/3/3
f 116/2/3 106/2/3 115/2/3
f 117/2/3 108/2/3 107/2/3
f 117/3/3 107/3/3 116/3/3
f 118/3/3 109/3/3 108/3/3
f 118/2/3 108/2/3 117/2/3
f 119/1/3 65/1/3 109/1/3
f 119/3/3 109/3/3 118/3/3
f 120/2/3 111/2/3 110/2/3
f 120/2/3 110/2/3 70/2/3
f 121/3/3 112/3/3 111/3/3
f 121/2/3 111/2/3 120/2/3
f 122/2/3 113/2/3 112/2/3
f 122/3/3 112/3/3 121/3/3
f 123/3/3 114/3/3 113/3/3
f 123/2/3 113/2/3 122/2/3
f 124/2/3 115/2/3 114/2/3
f 124/3/3 114/3/3 123/3/3
f 125/3/3 116/3/3 115/3/3
f 125/2/3 115/2/3 124/2/3
f 126/1/3 117/1/3 116/1/3
f 126/3/3 116/3/3 125/3/3
f 127/3/3 118/3/3 117/3/3
f 127/1/3 117/1/3 126/1/3
f 128/2/3 119/2/3 118/2/3
f 128/3/3 118/3/3 127/3/3
f 129/1/3 65/1/3 119/1/3
f 129/2/3 119/2/3 128/2/3
f 130/2/3 120/2/3 70/2/3
f 130/3/3 121/3/3 120/3/3
f 131/2/3 122/2/3 121/2/3
f 131/3/3 121/3/3 130/3/3
f 132/3/3 123/3/3 122/3/3
f 132/2/3 122/2/3 131/2/3
f 133/2/3 124/2/3 123/2/3
f 133/3/3 123/3/3 132/3/3
f 134/3/3 125/3/3 124/3/3
f 134/2/3 124/2/3 133/2/3
f 135/2/3 126/2/3 125/2/3
f 135/3/3 125/3/3 134/3/3
f 136/3/3 127/3/3 126/3/3
f 136/2/3 126/2/3 135/2/3
f 137/2/3 128/2/3 127/2/3
f 137/3/3 127/3/3 136/3/3
f 138/3/3 129/3/3 128/3/3
f 138/2/3 128/2/3 137/2/3
f 139/1/3 65/1/3 129/1/3
f 139/3/3 129/3/3 138/3/3
f 140/2/3 130/2/3 70/2/3
f 140/2/3 131/2/3 130/2/3
f 141/3/3 132/3/3 131/3/3
f 141/2/3 131/2/3 140/2/3
f 142/2/3 133/2/3 132/2/3
f 142/3/3 132/3/3 141/3/3
f 143/3/3 134/3/3 133/3/3
f 143/2/3 133/2/3 142/2/3
f 144/2/3 135/2/3 134/2/3
f 144/3/3 134/3/3 143/3/3
f 145/3/3 136/3/3 135/3/3
f 145/2/3 135/2/3 144/2/3
f 146/1/3 137/1/3 136/1/3
f 146/3/3 136/3/3 145/3/3
f 147/3/3 138/3/3 137/3/3
f 147/1/3 137/1/3 146/1/3
f 148/2/3 139/2/3 138/2/3
f 148/3/3 138/3/3 147/3/3
f 149/1/3 65/1/3 139/1/3
f 149/2/3 139/2/3 148/2/3
f 150/2/3 140/2/3 70/2/3
f 150/3/3 141/3/3 140/3/3
f 151/2/3 142/2/3 141/2/3
f 151/3/3 141/3/3 150/3/3
f 152/3/3 143/3/3 142/3/3
f 152/2/3 142/2/3 151/2/3
f 153/2/3 144/2/3 143/2/3
f 153/3/3 143/3/3 152/3/3
f 154/3/3 145/3/3 144/3/3
f 154/2/3 144/2/3 153/2/3
f 155/2/3 146/2/3 145/2/3
f 155/3/3 145/3/3 154/3/3
f 156/3/3 147/3/3 146/3/3
f 156/2/3 146/2/3 155/2/3
f 157/2/3 148/2/3 147/2/3
f 157/3/3 147/3/3 156/3/3
f 158/3/3 149/3/3 148/3/3
f 158/2/3 148/2/3 157/2/3
f 159/1/3 65/1/3 149/1/3
f 159/3/3 149/3/3 158/3/3
f 160/2/3 150/2/3 70/2/3
f 160/2/3 151/2/3 150/2/3
f 161/3/3 152/3/3 151/3/3
f 161/2/3 151/2/3 160/2/3
f 162/2/3 153/2/3 152/2/3
f 162/3/3 152/3/3 161/3/3
f 163/3/3 154/3/3 153/3/3
f 163/2/3 153/2/3 162/2/3
f 164/2/3 155/2/3 154/2/3
f 164/3/3 154/3/3 163/3/3
f 165/3/3 156/3/3 155/3/3
f 165/2/3 155/2/3 164/2/3
f 166/2/3 157/2/3 156/2/3
f 166/3/3 156/3/3 165/3/3
f 167/3/3 158/3/3 157/3/3
f 167/2/3 157/2/3 166/2/3
f 168/2/3 159/2/3 158/2/3
f 168/3/3 158/3/3 167/3/3
f 169/1/3 65/1/3 159/1/3
f 169/2/3 159/2/3 168/2/3
f 170/2/3 160/2/3 70/2/3
f 170/3/3 161/3/3 160/3/3
f 171/2/3 162/2/3 161/2/3
f 171/3/3 161/3/3 170/3/3
f 172/3/3 163/3/3 162/3/3
f 172/2/3 162/2/3 171/2/3
f 173/2/3 164/2/3 163/2/3
f 173/3/3 163/3/3 172/3/3
f 174/3/3 165/3/3 164/3/3
f 174/2/3 164/2/3 173/2/3
f 175/2/3 166/2/3 165/2/3
f 175/3/3 165/3/3 174/3/3
f 176/3/3 167/3/3 166/3/3
f 176/2/3 166/2/3 175/2/3
f 177/2/3 168/2/3 167/2/3
f 177/3/3 167/3/3 176/3/3
f 178/3/3 169/3/3 168/3/3
f 178/2/3 168/2/3 177/2/3
f 179/1/3 65/1/3 169/1/3
f 179/3/3 169/3/3 178/3/3
f 180/2/3 170/2/3 70/2/3
f 180/2/3 171/2/3 170/2/3
f 181/3/3 172/3/3 171/3/3
f 181/2/3 171/2/3 180/2/3
f 182/2/3 173/2/3 172/2/3
f 182/3/3 172/3/3 181/3/3
f 183/3/3 174/3/3 173/3/3
f 183/2/3 173/2/3 182/2/3
f 184/2/3 175/2/3 174/2/3
f 184/3/3 174/3/3 183/3/3
f 185/3/3 176/3/3 175/3/3
f 185/2/3 175/2/3 184/2/3
f 186/1/3 177/1/3 176/1/3
f 186/3/3 176/3/3 185/3/3
f 187/3/3 178/3/3 177/3/3
f 187/1/3 177/1/3 186/1/3
f 188/2/3 179/2/3 178/2/3
f 188/3/3 178/3/3 187/3/3
f 189/1/3 65/1/3 179/1/3
f 189/2/3 179/2/3 188/2/3
f 190/2/3 180/2/3 70/2/3
f 190/3/3 181/3/3 180/3/3
f 191/2/3 182/2/3 181/2/3
f 191/3/3 181/3/3 190/3/3
f 192/3/3 183/3/3 182/3/3
f 192/2/3 182/2/3 191/2/3
f 193/2/3 184/2/3 183/2/3
f 193/3/3 183/3/3 192/3/3
f 194/3/3 185/3/3 184/3/3
f 194/2/3 184/2/3 193/2/3
f 195/2/3 186/2/3 185/2/3
f 195/3/3 185/3/3 194/3/3
f 196/3/3 187/3/3 186/3/3
f 196/2/3 186/2/3 195/2/3
f 197/2/3 188/2/3 187/2/3
f 197/3/3 187/3/3 196/3/3
f 198/3/3 189/3/3 188/3/3
f 198/2/3 188/2/3 197/2/3
f 199/1/3 65/1/3 189/1/3
f 199/3/3 189/3/3 198/3/3
f 200/2/3 190/2/3 70/2/3
f 200/2/3 191/2/3 190/2/3
f 201/3/3 192/3/3 191/3/3
f 201/2/3 191/2/3 200/2/3
f 202/2/3 193/2/3 192/2/3
f 202/3/3 192/3/3 201/3/3
f 203/3/3 194/3/3 193/3/3
f 203/2/3 193/2/3 202/2/3
f 204/2/3 195/2/3 194/2/3
f 204/3/3 194/3/3 203/3/3
f 205/3/3 196/3/3 195/3/3
f 205/2/3 195/2/3 204/2/3
f 206/1/3 197/1/3 196/1/3
f 206/3/3 196/3/3 205/3/3
f 207/3/3 198/3/3 197/3/3
f 207/1/3 197/1/3 206/1/3
f 208/2/3 199/2/3 198/2/3
f 208/3/3 198/3/3 207/3/3
f 209/1/3 65/1/3 199/1/3
f 209/2/3 199/2/3 208/2/3
f 210/3/3 201/3/3 200/3/3
f 210/2/3 200/2/3 70/2/3
f 211/2/3 202/2/3 201/2/3
f 211/3/3 201/3/3 210/3/3
f 212/3/3 203/3/3 202/3/3
f 212/2/3 202/2/3 211/2/3
f 213/2/3 204/2/3 203/2/3
f 213/3/3 203/3/3 212/3/3
f 214/3/3 205/3/3 204/3/3
f 214/2/3 204/2/3 213/2/3
f 215/2/3 206/2/3 205/2/3
f 215/3/3 205/3/3 214/3/3
f 216/3/3 207/3/3 206/3/3
f 216/2/3 206/2/3 215/2/3
f 217/2/3 208/2/3 207/2/3
f 217/3/3 207/3/3 216/3/3
f 218/3/3 209/3/3 208/3/3
f 218/2/3 208/2/3 217/2/3
f 219/1/3 65/1/3 209/1/3
f 219/3/3 209/3/3 218/3/3
f 220/2/3 210/2/3 70/2/3
f 220/2/3 211/2/3 210/2/3
f 221/3/3 212/3/3 211/3/3
f 221/2/3 211/2/3 220/2/3
f 222/2/3 213/2/3 212/2/3
f 222/3/3 212/3/3 221/3/3
f 223/3/3 214/3/3 213/3/3
f 223/2/3 213/2/3 222/2/3
f 224/2/3 215/2/3 214/2/3
f 224/3/3 214/3/3 223/3/3
f 225/3/3 216/3/3 215/3/3
f 225/2/3 215/2/3 224/2/3
f 226/1/3 217/1/3 216/1/3
f 226/3/3 216/3/3 225/3/3
f 227/3/3 218/3/3 217/3/3
f 227/1/3 217/1/3 226/1/3
f 228/2/3 219/2/3 218/2/3
f 228/3/3 218/3/3 227/3/3
f 229/1/3 65/1/3 219/1/3
f 229/2/3 219/2/3 228/2/3
f 230/2/3 220/2/3 70/2/3
f 230/3/3 221/3/3 220/3/3
f 231/2/3 222/2/3 221/2/3
f 231/3/3 221/3/3 230/3/3
f 232/3/3 223/3/3 222/3/3
f 232/2/3 222/2/3 231/2/3
f 233/2/3 224/2/3 223/2/3
f 233/3/3 223/3/3 232/3/3
f 234/3/3 225/3/3 224/3/3
f 234/2/3 224/2/3 233/2/3
f 235/2/3 226/2/3 225/2/3
f 235/3/3 225/3/3 234/3/3
f 236/3/3 227/3/3 226/3/3
f 236/2/3 226/2/3 235/2/3
f 237/2/3 228/2/3 227/2/3
f 237/3/3 227/3/3 236/3/3
f 238/3/3 229/3/3 228/3/3
f 238/2/3 228/2/3 237/2/3
f 239/1/3 65/1/3 229/1/3
f 239/3/3 229/3/3 238/3/3
f 241/1/3 70/1/3 69/1/3
f 242/2/3 230/2/3 70/2/3
f 242/2/3 231/2/3 230/2/3
f 242/1/3 70/1/3 241/1/3
f 243/3/3 232/3/3 231/3/3
f 243/2/3 231/2/3 242/2/3
f 244/2/3 233/2/3 232/2/3
f 244/3/3 232/3/3 243/3/3
f 245/3/3 234/3/3 233/3/3
f 245/2/3 233/2/3 244/2/3
f 246/2/3 235/2/3 234/2/3
f 246/3/3 234/3/3 245/3/3
f 247/3/3 236/3/3 235/3/3
f 247/2/3 235/2/3 246/2/3
f 248/1/3 237/1/3 236/1/3
f 248/3/3 236/3/3 247/3/3
f 249/3/3 238/3/3 237/3/3
f 249/1/3 237/1/3 248/1/3
f 250/2/3 239/2/3 238/2/3
f 250/3/3 238/3/3 249/3/3
f 251/1/3 65/1/3 239/1/3
f 251/2/3 239/2/3 250/2/3
f 252/3/3 241/3/3 240/3/3
f 253/1/3 248/1/3 247/1/3
f 253/3/3 241/3/3 252/3/3
f 253/1/3 250/1/3 249/1/3
f 253/1/3 251/1/3 250/1/3
f 253/1/3 249/1/3 248/1/3
f 253/1/3 246/1/3 245/1/3
f 253/1/3 247/1/3 246/1/3
f 253/1/3 243/1/3 242/1/3
f 253/1/3 245/1/3 244/1/3
f 253/1/3 242/1/3 241/1/3
f 253/1/3 244/1/3 243/1/3
f 254/2/3 66/2/3 65/2/3
f 254/1/3 251/1/3 253/1/3
f 254/1/3 65/1/3 251/1/3
f 255/1/3 67/1/3 66/1/3
f 255/2/3 66/2/3 254/2/3
f 256/1/3 67/1/3 255/1/3
f 259/3/3 258/3/3 257/3/3
f 260/3/3 258/3/3 259/3/3
f 263/3/3 262/3/3 261/3/3
f 264/3/3 262/3/3 263/3/3
f 265/3/4 266/3/4 267/3/4
f 267/3/4 266/3/4 268/3/4
f 269/3/4 270/3/4 271/3/4
f 271/3/4 270/3/4 272/3/4
f 273/1/4 274/1/4 277/1/4
f 275/3/4 276/3/4 278/3/4
f 276/1/4 277/1/4 279/1/4
f 278/3/4 276/3/4 279/3/4
f 279/1/4 277/1/4 281/1/4
f 280/3/4 281/3/4 282/3/4
f 281/1/4 277/1/4 283/1/4
f 282/3/4 281/3/4 283/3/4
f 277/1/4 274/1/4 284/1/4
f 283/1/4 277/1/4 284/1/4
f 284/1/4 274/1/4 285/1/4
f 285/1/4 274/1/4 286/1/4
f 291/3/5 288/3/5 287/3/5
f 292/3/5 288/3/5 291/3/5
f 293/3/5 290/3/5 289/3/5
f 294/3/5 290/3/5 293/3/5
f 299/3/5 296/3/5 295/3/5
f 300/3/5 296/3/5 299/3/5
f 301/3/5 298/3/5 297/3/5
f 302/3/5 298/3/5 301/3/5
f 306/1/5 304/1/5 303/1/5
f 307/1/5 304/1/5 306/1/5
f 309/1/5 306/1/5 305/1/5
f 309/1/5 308/1/5 307/1/5
f 309/1/5 307/1/5 306/1/5
f 310/1/5 308/1/5 309/1/5
f 311/1/5 308/1/5 310/1/5
f 312/1/5 308/1/5 311/1/5
f 313/1/5 311/1/5 310/1/5
f 314/1/5 311/1/5 313/1/5
f 317/1/5 316/1/5 315/1/5
f 318/1/5 316/1/5 317/1/5
f 319/1/5 317/1/5 315/1/5
f 320/1/5 317/1/5 319/1/5
f 321/1/5 316/1/5 318/1/5
f 322/1/5 316/1/5 321/1/5
f 323/1/6 324/1/6 325/1/6
f 325/1/6 324/1/6 326/1/6
