# MagicaVoxel @ Ephtracy

# group
o 

# material
mtllib chertej-1.mtl
usemtl palette

# normals
vn -1 0 0
vn 1 0 0
vn 0 0 1
vn 0 0 -1
vn 0 -1 0
vn 0 1 0

# texcoords
vt 0.0566406 0.5
vt 0.533203 0.5
vt 0.837891 0.5

# verts
v -1 -1.3 0.05
v -1 -1.3 -0.05
v -1 -1.1 -0.05
v -1 -1.1 -0.15
v -1 0.9 -0.05
v -1 0.9 -0.15
v -1 1.3 0.05
v -1 1.3 -0.05
v -0.9 -1.1 0.25
v -0.9 -1.1 0.05
v -0.9 -0.9 -0.15
v -0.9 -0.9 -0.25
v -0.9 0.5 -0.15
v -0.9 0.5 -0.25
v -0.9 1.1 0.25
v -0.9 1.1 0.05
v 0.7 -0.9 0.25
v 0.7 -0.9 0.05
v 0.7 -0.7 0.05
v 0.7 -0.5 0.05
v 0.7 -0.3 0.05
v 0.7 -0.0999999 0.05
v 0.7 0.1 0.05
v 0.7 0.3 0.05
v 0.7 0.5 0.05
v 0.7 0.7 0.05
v 0.7 0.9 0.25
v 0.7 0.9 0.05
v -0.7 -0.9 0.25
v -0.7 -0.9 0.05
v -0.7 -0.7 0.05
v -0.7 -0.5 0.05
v -0.7 -0.3 0.05
v -0.7 -0.0999999 0.05
v -0.7 0.1 0.05
v -0.7 0.3 0.05
v -0.7 0.5 0.05
v -0.7 0.7 0.05
v -0.7 0.9 0.25
v -0.7 0.9 0.05
v 0.7 -1.1 -0.05
v 0.7 -1.1 -0.15
v 0.7 -0.9 -0.15
v 0.7 -0.9 -0.25
v 0.7 -0.7 -0.05
v 0.7 -0.7 -0.15
v 0.7 -0.5 -0.05
v 0.7 -0.5 -0.15
v 0.7 -0.0999999 -0.05
v 0.7 -0.0999999 -0.15
v 0.7 0.1 -0.05
v 0.7 0.1 -0.15
v 0.7 0.3 -0.05
v 0.7 0.3 -0.15
v 0.7 0.5 -0.05
v 0.7 0.5 -0.15
v 0.7 0.5 -0.25
v 0.7 0.9 -0.05
v 0.7 0.9 -0.15
v 0.9 -1.1 0.25
v 0.9 -1.1 0.05
v 0.9 1.1 0.25
v 0.9 1.1 0.05
v 1 -1.3 0.05
v 1 -1.3 -0.05
v 1 1.3 0.05
v 1 1.3 -0.05
v -0.9 -1.1 0.25
v -0.9 1.1 0.25
v -0.7 -0.9 0.25
v -0.7 0.9 0.25
v 0.7 -0.9 0.25
v 0.7 0.9 0.25
v 0.9 -1.1 0.25
v 0.9 1.1 0.25
v -1 -1.3 0.05
v -1 1.3 0.05
v -0.9 -1.1 0.05
v -0.9 1.1 0.05
v -0.7 -0.9 0.05
v -0.7 -0.7 0.05
v -0.7 -0.5 0.05
v -0.7 -0.3 0.05
v -0.7 -0.0999999 0.05
v -0.7 0.1 0.05
v -0.7 0.3 0.05
v -0.7 0.5 0.05
v -0.7 0.7 0.05
v -0.7 0.9 0.05
v -0.5 -0.9 0.05
v -0.5 -0.7 0.05
v -0.5 -0.5 0.05
v -0.5 -0.3 0.05
v -0.5 -0.0999999 0.05
v -0.5 0.1 0.05
v -0.5 0.3 0.05
v -0.5 0.5 0.05
v -0.5 0.7 0.05
v -0.5 0.9 0.05
v -0.3 -0.9 0.05
v -0.3 -0.7 0.05
v -0.3 -0.5 0.05
v -0.3 -0.3 0.05
v -0.3 -0.0999999 0.05
v -0.3 0.1 0.05
v -0.3 0.3 0.05
v -0.3 0.5 0.05
v -0.3 0.7 0.05
v -0.3 0.9 0.05
v -0.1 -0.9 0.05
v -0.1 -0.7 0.05
v -0.1 -0.5 0.05
v -0.1 -0.3 0.05
v -0.1 -0.0999999 0.05
v -0.1 0.1 0.05
v -0.1 0.3 0.05
v -0.1 0.5 0.05
v -0.1 0.7 0.05
v -0.1 0.9 0.05
v 0.1 -0.9 0.05
v 0.1 -0.7 0.05
v 0.1 -0.5 0.05
v 0.1 -0.3 0.05
v 0.1 -0.0999999 0.05
v 0.1 0.1 0.05
v 0.1 0.3 0.05
v 0.1 0.5 0.05
v 0.1 0.7 0.05
v 0.1 0.9 0.05
v 0.3 -0.9 0.05
v 0.3 -0.7 0.05
v 0.3 -0.5 0.05
v 0.3 -0.3 0.05
v 0.3 -0.0999999 0.05
v 0.3 0.1 0.05
v 0.3 0.3 0.05
v 0.3 0.5 0.05
v 0.3 0.7 0.05
v 0.3 0.9 0.05
v 0.5 -0.9 0.05
v 0.5 -0.7 0.05
v 0.5 -0.5 0.05
v 0.5 -0.3 0.05
v 0.5 -0.0999999 0.05
v 0.5 0.1 0.05
v 0.5 0.3 0.05
v 0.5 0.5 0.05
v 0.5 0.7 0.05
v 0.5 0.9 0.05
v 0.7 -0.9 0.05
v 0.7 -0.7 0.05
v 0.7 -0.5 0.05
v 0.7 -0.3 0.05
v 0.7 -0.0999999 0.05
v 0.7 0.1 0.05
v 0.7 0.3 0.05
v 0.7 0.5 0.05
v 0.7 0.7 0.05
v 0.7 0.9 0.05
v 0.9 -1.1 0.05
v 0.9 1.1 0.05
v 1 -1.3 0.05
v 1 1.3 0.05
v -1 -1.3 -0.05
v -1 -1.1 -0.05
v -1 0.9 -0.05
v -1 1.3 -0.05
v 0.7 -1.1 -0.05
v 0.7 -0.7 -0.05
v 0.7 -0.5 -0.05
v 0.7 -0.0999999 -0.05
v 0.7 0.1 -0.05
v 0.7 0.3 -0.05
v 0.7 0.5 -0.05
v 0.7 0.9 -0.05
v 1 -1.3 -0.05
v 1 1.3 -0.05
v -1 -1.1 -0.15
v -1 0.9 -0.15
v -0.9 -0.9 -0.15
v -0.9 0.5 -0.15
v 0.7 -1.1 -0.15
v 0.7 -0.9 -0.15
v 0.7 0.5 -0.15
v 0.7 0.9 -0.15
v -0.9 -0.9 -0.25
v -0.9 0.5 -0.25
v 0.7 -0.9 -0.25
v 0.7 0.5 -0.25
v -1 -1.3 0.05
v 1 -1.3 0.05
v -1 -1.3 -0.05
v 1 -1.3 -0.05
v -0.9 -1.1 0.25
v 0.9 -1.1 0.25
v -0.9 -1.1 0.05
v 0.9 -1.1 0.05
v -1 -1.1 -0.05
v 0.7 -1.1 -0.05
v -1 -1.1 -0.15
v 0.7 -1.1 -0.15
v -0.9 -0.9 -0.15
v 0.7 -0.9 -0.15
v -0.9 -0.9 -0.25
v 0.7 -0.9 -0.25
v -0.7 0.9 0.25
v 0.7 0.9 0.25
v -0.7 0.9 0.05
v -0.5 0.9 0.05
v -0.3 0.9 0.05
v -0.1 0.9 0.05
v 0.1 0.9 0.05
v 0.3 0.9 0.05
v 0.5 0.9 0.05
v 0.7 0.9 0.05
v -0.7 -0.9 0.25
v 0.7 -0.9 0.25
v -0.7 -0.9 0.05
v -0.5 -0.9 0.05
v -0.3 -0.9 0.05
v -0.1 -0.9 0.05
v 0.1 -0.9 0.05
v 0.3 -0.9 0.05
v 0.5 -0.9 0.05
v 0.7 -0.9 0.05
v -0.9 0.5 -0.15
v 0.7 0.5 -0.15
v -0.9 0.5 -0.25
v 0.7 0.5 -0.25
v -1 0.9 -0.05
v 0.7 0.9 -0.05
v -1 0.9 -0.15
v 0.7 0.9 -0.15
v -0.9 1.1 0.25
v 0.9 1.1 0.25
v -0.9 1.1 0.05
v 0.9 1.1 0.05
v -1 1.3 0.05
v 1 1.3 0.05
v -1 1.3 -0.05
v 1 1.3 -0.05

# faces
f 3/3/1 2/3/1 1/3/1
f 5/3/1 3/3/1 1/3/1
f 5/3/1 4/3/1 3/3/1
f 6/3/1 4/3/1 5/3/1
f 7/3/1 5/3/1 1/3/1
f 8/3/1 5/3/1 7/3/1
f 13/3/1 12/3/1 11/3/1
f 14/3/1 12/3/1 13/3/1
f 15/1/1 10/1/1 9/1/1
f 16/1/1 10/1/1 15/1/1
f 19/1/1 18/1/1 17/1/1
f 20/1/1 19/1/1 17/1/1
f 21/1/1 20/1/1 17/1/1
f 22/1/1 21/1/1 17/1/1
f 23/1/1 22/1/1 17/1/1
f 24/1/1 23/1/1 17/1/1
f 25/1/1 24/1/1 17/1/1
f 26/1/1 25/1/1 17/1/1
f 27/1/1 26/1/1 17/1/1
f 28/1/1 26/1/1 27/1/1
f 29/1/2 30/1/2 31/1/2
f 29/1/2 31/1/2 32/1/2
f 29/1/2 32/1/2 33/1/2
f 29/1/2 33/1/2 34/1/2
f 29/1/2 34/1/2 35/1/2
f 29/1/2 35/1/2 36/1/2
f 29/1/2 36/1/2 37/1/2
f 29/1/2 37/1/2 38/1/2
f 29/1/2 38/1/2 39/1/2
f 39/1/2 38/1/2 40/1/2
f 41/3/2 42/3/2 43/3/2
f 41/3/2 43/3/2 45/3/2
f 43/3/2 44/3/2 45/3/2
f 45/3/2 44/3/2 46/3/2
f 45/2/2 46/2/2 47/2/2
f 46/3/2 44/3/2 48/3/2
f 47/2/2 46/2/2 48/2/2
f 47/3/2 48/3/2 49/3/2
f 48/3/2 44/3/2 50/3/2
f 49/3/2 48/3/2 50/3/2
f 49/1/2 50/1/2 51/1/2
f 50/3/2 44/3/2 52/3/2
f 51/1/2 50/1/2 52/1/2
f 51/2/2 52/2/2 53/2/2
f 52/3/2 44/3/2 54/3/2
f 53/2/2 52/2/2 54/2/2
f 53/1/2 54/1/2 55/1/2
f 54/3/2 44/3/2 56/3/2
f 55/1/2 54/1/2 56/1/2
f 56/3/2 44/3/2 57/3/2
f 55/3/2 56/3/2 58/3/2
f 58/3/2 56/3/2 59/3/2
f 60/1/2 61/1/2 62/1/2
f 62/1/2 61/1/2 63/1/2
f 64/3/2 65/3/2 66/3/2
f 66/3/2 65/3/2 67/3/2
f 70/1/3 69/1/3 68/1/3
f 71/1/3 69/1/3 70/1/3
f 72/1/3 70/1/3 68/1/3
f 73/1/3 69/1/3 71/1/3
f 74/1/3 72/1/3 68/1/3
f 74/1/3 73/1/3 72/1/3
f 75/1/3 69/1/3 73/1/3
f 75/1/3 73/1/3 74/1/3
f 78/3/3 77/3/3 76/3/3
f 79/3/3 77/3/3 78/3/3
f 90/1/3 81/1/3 80/1/3
f 91/2/3 82/2/3 81/2/3
f 91/1/3 81/1/3 90/1/3
f 92/1/3 83/1/3 82/1/3
f 92/2/3 82/2/3 91/2/3
f 93/2/3 84/2/3 83/2/3
f 93/1/3 83/1/3 92/1/3
f 94/1/3 85/1/3 84/1/3
f 94/2/3 84/2/3 93/2/3
f 95/2/3 86/2/3 85/2/3
f 95/1/3 85/1/3 94/1/3
f 96/1/3 87/1/3 86/1/3
f 96/2/3 86/2/3 95/2/3
f 97/2/3 88/2/3 87/2/3
f 97/1/3 87/1/3 96/1/3
f 98/1/3 89/1/3 88/1/3
f 98/2/3 88/2/3 97/2/3
f 99/1/3 89/1/3 98/1/3
f 100/2/3 91/2/3 90/2/3
f 101/1/3 92/1/3 91/1/3
f 101/2/3 91/2/3 100/2/3
f 102/2/3 93/2/3 92/2/3
f 102/1/3 92/1/3 101/1/3
f 103/1/3 94/1/3 93/1/3
f 103/2/3 93/2/3 102/2/3
f 104/2/3 95/2/3 94/2/3
f 104/1/3 94/1/3 103/1/3
f 105/1/3 96/1/3 95/1/3
f 105/2/3 95/2/3 104/2/3
f 106/2/3 97/2/3 96/2/3
f 106/1/3 96/1/3 105/1/3
f 107/1/3 98/1/3 97/1/3
f 107/2/3 97/2/3 106/2/3
f 108/2/3 99/2/3 98/2/3
f 108/1/3 98/1/3 107/1/3
f 109/2/3 99/2/3 108/2/3
f 110/1/3 101/1/3 100/1/3
f 111/2/3 102/2/3 101/2/3
f 111/1/3 101/1/3 110/1/3
f 112/1/3 103/1/3 102/1/3
f 112/2/3 102/2/3 111/2/3
f 113/2/3 104/2/3 103/2/3
f 113/1/3 103/1/3 112/1/3
f 114/1/3 105/1/3 104/1/3
f 114/2/3 104/2/3 113/2/3
f 115/2/3 106/2/3 105/2/3
f 115/1/3 105/1/3 114/1/3
f 116/1/3 107/1/3 106/1/3
f 116/2/3 106/2/3 115/2/3
f 117/2/3 108/2/3 107/2/3
f 117/1/3 107/1/3 116/1/3
f 118/1/3 109/1/3 108/1/3
f 118/2/3 108/2/3 117/2/3
f 119/1/3 109/1/3 118/1/3
f 120/2/3 111/2/3 110/2/3
f 121/1/3 112/1/3 111/1/3
f 121/2/3 111/2/3 120/2/3
f 122/2/3 113/2/3 112/2/3
f 122/1/3 112/1/3 121/1/3
f 123/1/3 114/1/3 113/1/3
f 123/2/3 113/2/3 122/2/3
f 124/2/3 115/2/3 114/2/3
f 124/1/3 114/1/3 123/1/3
f 125/1/3 116/1/3 115/1/3
f 125/2/3 115/2/3 124/2/3
f 126/2/3 117/2/3 116/2/3
f 126/1/3 116/1/3 125/1/3
f 127/1/3 118/1/3 117/1/3
f 127/2/3 117/2/3 126/2/3
f 128/2/3 119/2/3 118/2/3
f 128/1/3 118/1/3 127/1/3
f 129/2/3 119/2/3 128/2/3
f 130/1/3 121/1/3 120/1/3
f 131/2/3 122/2/3 121/2/3
f 131/1/3 121/1/3 130/1/3
f 132/1/3 123/1/3 122/1/3
f 132/2/3 122/2/3 131/2/3
f 133/2/3 124/2/3 123/2/3
f 133/1/3 123/1/3 132/1/3
f 134/1/3 125/1/3 124/1/3
f 134/2/3 124/2/3 133/2/3
f 135/2/3 126/2/3 125/2/3
f 135/1/3 125/1/3 134/1/3
f 136/1/3 127/1/3 126/1/3
f 136/2/3 126/2/3 135/2/3
f 137/2/3 128/2/3 127/2/3
f 137/1/3 127/1/3 136/1/3
f 138/1/3 129/1/3 128/1/3
f 138/2/3 128/2/3 137/2/3
f 139/1/3 129/1/3 138/1/3
f 140/2/3 131/2/3 130/2/3
f 141/1/3 132/1/3 131/1/3
f 141/2/3 131/2/3 140/2/3
f 142/2/3 133/2/3 132/2/3
f 142/1/3 132/1/3 141/1/3
f 143/1/3 134/1/3 133/1/3
f 143/2/3 133/2/3 142/2/3
f 144/2/3 135/2/3 134/2/3
f 144/1/3 134/1/3 143/1/3
f 145/1/3 136/1/3 135/1/3
f 145/2/3 135/2/3 144/2/3
f 146/2/3 137/2/3 136/2/3
f 146/1/3 136/1/3 145/1/3
f 147/1/3 138/1/3 137/1/3
f 147/2/3 137/2/3 146/2/3
f 148/2/3 139/2/3 138/2/3
f 148/1/3 138/1/3 147/1/3
f 149/2/3 139/2/3 148/2/3
f 150/1/3 141/1/3 140/1/3
f 151/2/3 142/2/3 141/2/3
f 151/1/3 141/1/3 150/1/3
f 152/1/3 143/1/3 142/1/3
f 152/2/3 142/2/3 151/2/3
f 153/2/3 144/2/3 143/2/3
f 153/1/3 143/1/3 152/1/3
f 154/1/3 145/1/3 144/1/3
f 154/2/3 144/2/3 153/2/3
f 155/2/3 146/2/3 145/2/3
f 155/1/3 145/1/3 154/1/3
f 156/1/3 147/1/3 146/1/3
f 156/2/3 146/2/3 155/2/3
f 157/2/3 148/2/3 147/2/3
f 157/1/3 147/1/3 156/1/3
f 158/1/3 149/1/3 148/1/3
f 158/2/3 148/2/3 157/2/3
f 159/1/3 149/1/3 158/1/3
f 160/3/3 78/3/3 76/3/3
f 161/3/3 77/3/3 79/3/3
f 162/3/3 160/3/3 76/3/3
f 162/3/3 161/3/3 160/3/3
f 163/3/3 77/3/3 161/3/3
f 163/3/3 161/3/3 162/3/3
f 164/3/4 165/3/4 168/3/4
f 166/3/4 167/3/4 175/3/4
f 173/3/4 174/3/4 176/3/4
f 174/3/4 175/3/4 176/3/4
f 164/3/4 168/3/4 176/3/4
f 168/3/4 169/3/4 176/3/4
f 172/3/4 173/3/4 176/3/4
f 171/3/4 172/3/4 176/3/4
f 170/3/4 171/3/4 176/3/4
f 169/3/4 170/3/4 176/3/4
f 175/3/4 167/3/4 177/3/4
f 176/3/4 175/3/4 177/3/4
f 178/3/4 179/3/4 180/3/4
f 180/3/4 179/3/4 181/3/4
f 178/3/4 180/3/4 182/3/4
f 182/3/4 180/3/4 183/3/4
f 181/3/4 179/3/4 184/3/4
f 184/3/4 179/3/4 185/3/4
f 186/3/4 187/3/4 188/3/4
f 188/3/4 187/3/4 189/3/4
f 192/3/5 191/3/5 190/3/5
f 193/3/5 191/3/5 192/3/5
f 196/1/5 195/1/5 194/1/5
f 197/1/5 195/1/5 196/1/5
f 200/3/5 199/3/5 198/3/5
f 201/3/5 199/3/5 200/3/5
f 204/3/5 203/3/5 202/3/5
f 205/3/5 203/3/5 204/3/5
f 208/1/5 207/1/5 206/1/5
f 209/1/5 207/1/5 208/1/5
f 210/1/5 207/1/5 209/1/5
f 211/1/5 207/1/5 210/1/5
f 212/1/5 207/1/5 211/1/5
f 213/1/5 207/1/5 212/1/5
f 214/1/5 207/1/5 213/1/5
f 215/1/5 207/1/5 214/1/5
f 216/1/6 217/1/6 218/1/6
f 218/1/6 217/1/6 219/1/6
f 219/1/6 217/1/6 220/1/6
f 220/1/6 217/1/6 221/1/6
f 221/1/6 217/1/6 222/1/6
f 222/1/6 217/1/6 223/1/6
f 223/1/6 217/1/6 224/1/6
f 224/1/6 217/1/6 225/1/6
f 226/3/6 227/3/6 228/3/6
f 228/3/6 227/3/6 229/3/6
f 230/3/6 231/3/6 232/3/6
f 232/3/6 231/3/6 233/3/6
f 234/1/6 235/1/6 236/1/6
f 236/1/6 235/1/6 237/1/6
f 238/3/6 239/3/6 240/3/6
f 240/3/6 239/3/6 241/3/6
