# MagicaVoxel @ Ephtracy

# group
o 

# material
mtllib chertej-176.mtl
usemtl palette

# normals
vn 0 0 -1
vn 0 0 1
vn -1 0 0
vn 1 0 0
vn 0 -1 0
vn 0 1 0

# texcoords
vt 0.0292969 0.5
vt 0.0566406 0.5
vt 0.533203 0.5

# verts
v 18.9 3.8 14.3
v 22.1 3.8 14.3
v 18.9 4.2 14.3
v 22.1 4.2 14.3
v 19.1 0 14.7
v 19.5 0 14.7
v 21.7 0 14.7
v 22.1 0 14.7
v 19.1 0.2 14.7
v 19.5 0.2 14.7
v 21.7 0.2 14.7
v 22.1 0.2 14.7
v 19.1 3.8 14.7
v 22.1 3.8 14.7
v 18.9 0.4 14.9
v 19.1 0.4 14.9
v 18.9 2.6 14.9
v 19.1 2.6 14.9
v 18.9 2.8 14.9
v 19.1 2.8 14.9
v 18.9 3.6 14.9
v 19.1 3.6 14.9
v 18.7 3.2 15.5
v 18.9 3.2 15.5
v 18.7 3.4 15.5
v 18.9 3.4 15.5
v 18.9 0.6 16.5
v 19.1 0.6 16.5
v 19.1 0.8 16.5
v 19.1 1 16.5
v 19.1 1.2 16.5
v 19.1 1.4 16.5
v 19.1 1.6 16.5
v 19.1 1.8 16.5
v 19.1 2 16.5
v 19.1 2.2 16.5
v 18.9 2.4 16.5
v 19.1 2.4 16.5
v 18.9 0.4 16.9
v 19.1 0.4 16.9
v 18.9 2.6 16.9
v 19.1 2.6 16.9
v 18.9 2.8 16.9
v 19.1 2.8 16.9
v 18.9 3.6 16.9
v 19.1 3.6 16.9
v 18.7 3.2 17.5
v 18.9 3.2 17.5
v 18.7 3.4 17.5
v 18.9 3.4 17.5
v 19.1 0 18.5
v 19.5 0 18.5
v 21.7 0 18.5
v 22.1 0 18.5
v 19.1 0.2 18.5
v 19.5 0.2 18.5
v 21.7 0.2 18.5
v 22.1 0.2 18.5
v 18.9 0.6 18.5
v 19.1 0.6 18.5
v 19.1 0.8 18.5
v 19.1 1 18.5
v 19.1 1.2 18.5
v 19.1 1.4 18.5
v 19.1 1.6 18.5
v 19.1 1.8 18.5
v 19.1 2 18.5
v 19.1 2.2 18.5
v 18.9 2.4 18.5
v 19.1 2.4 18.5
v 19.1 0 15.1
v 19.5 0 15.1
v 21.7 0 15.1
v 22.1 0 15.1
v 19.1 0.2 15.1
v 19.5 0.2 15.1
v 21.7 0.2 15.1
v 22.1 0.2 15.1
v 18.9 0.6 15.1
v 19.1 0.6 15.1
v 19.1 0.8 15.1
v 19.1 1 15.1
v 19.1 1.2 15.1
v 19.1 1.4 15.1
v 19.1 1.6 15.1
v 19.1 1.8 15.1
v 19.1 2 15.1
v 19.1 2.2 15.1
v 18.9 2.4 15.1
v 19.1 2.4 15.1
v 18.7 3.2 16.1
v 18.9 3.2 16.1
v 18.7 3.4 16.1
v 18.9 3.4 16.1
v 18.9 0.4 16.7
v 19.1 0.4 16.7
v 18.9 2.6 16.7
v 19.1 2.6 16.7
v 18.9 2.8 16.7
v 19.1 2.8 16.7
v 18.9 3.6 16.7
v 19.1 3.6 16.7
v 18.9 0.6 17.1
v 19.1 0.6 17.1
v 19.1 0.8 17.1
v 19.1 1 17.1
v 19.1 1.2 17.1
v 19.1 1.4 17.1
v 19.1 1.6 17.1
v 19.1 1.8 17.1
v 19.1 2 17.1
v 19.1 2.2 17.1
v 18.9 2.4 17.1
v 19.1 2.4 17.1
v 18.7 3.2 18.1
v 18.9 3.2 18.1
v 18.7 3.4 18.1
v 18.9 3.4 18.1
v 18.9 0.4 18.7
v 19.1 0.4 18.7
v 18.9 2.6 18.7
v 19.1 2.6 18.7
v 18.9 2.8 18.7
v 19.1 2.8 18.7
v 18.9 3.6 18.7
v 19.1 3.6 18.7
v 19.1 0 18.9
v 19.5 0 18.9
v 21.7 0 18.9
v 22.1 0 18.9
v 19.1 0.2 18.9
v 19.5 0.2 18.9
v 21.7 0.2 18.9
v 22.1 0.2 18.9
v 19.1 3.8 18.9
v 22.1 3.8 18.9
v 18.9 3.8 19.3
v 22.1 3.8 19.3
v 18.9 4.2 19.3
v 22.1 4.2 19.3
v 18.7 3.2 15.5
v 18.7 3.4 15.5
v 18.7 3.2 16.1
v 18.7 3.4 16.1
v 18.7 3.2 17.5
v 18.7 3.4 17.5
v 18.7 3.2 18.1
v 18.7 3.4 18.1
v 18.9 3.8 14.3
v 18.9 4.2 14.3
v 18.9 0.4 14.9
v 18.9 2.6 14.9
v 18.9 2.8 14.9
v 18.9 3.6 14.9
v 18.9 0.6 15.1
v 18.9 2.4 15.1
v 18.9 3.2 15.5
v 18.9 3.4 15.5
v 18.9 3.2 16.1
v 18.9 3.4 16.1
v 18.9 0.6 16.5
v 18.9 2.4 16.5
v 18.9 0.4 16.7
v 18.9 2.6 16.7
v 18.9 2.8 16.7
v 18.9 3.6 16.7
v 18.9 0.4 16.9
v 18.9 2.6 16.9
v 18.9 2.8 16.9
v 18.9 3.6 16.9
v 18.9 0.6 17.1
v 18.9 2.4 17.1
v 18.9 3.2 17.5
v 18.9 3.4 17.5
v 18.9 3.2 18.1
v 18.9 3.4 18.1
v 18.9 0.6 18.5
v 18.9 2.4 18.5
v 18.9 0.4 18.7
v 18.9 2.6 18.7
v 18.9 2.8 18.7
v 18.9 3.6 18.7
v 18.9 3.8 19.3
v 18.9 4.2 19.3
v 19.1 0 14.7
v 19.1 0.2 14.7
v 19.1 3.8 14.7
v 19.1 0.4 14.9
v 19.1 2.6 14.9
v 19.1 2.8 14.9
v 19.1 3.6 14.9
v 19.1 0 15.1
v 19.1 0.2 15.1
v 19.1 0.6 15.1
v 19.1 0.8 15.1
v 19.1 1 15.1
v 19.1 1.2 15.1
v 19.1 1.4 15.1
v 19.1 1.6 15.1
v 19.1 1.8 15.1
v 19.1 2 15.1
v 19.1 2.2 15.1
v 19.1 2.4 15.1
v 19.1 0.6 15.3
v 19.1 0.8 15.3
v 19.1 1 15.3
v 19.1 1.2 15.3
v 19.1 1.4 15.3
v 19.1 1.6 15.3
v 19.1 1.8 15.3
v 19.1 2 15.3
v 19.1 2.2 15.3
v 19.1 2.4 15.3
v 19.1 0.6 15.5
v 19.1 0.8 15.5
v 19.1 1 15.5
v 19.1 1.2 15.5
v 19.1 1.4 15.5
v 19.1 1.6 15.5
v 19.1 1.8 15.5
v 19.1 2 15.5
v 19.1 2.2 15.5
v 19.1 2.4 15.5
v 19.1 0.6 15.7
v 19.1 0.8 15.7
v 19.1 1 15.7
v 19.1 1.2 15.7
v 19.1 1.4 15.7
v 19.1 1.6 15.7
v 19.1 1.8 15.7
v 19.1 2 15.7
v 19.1 2.2 15.7
v 19.1 2.4 15.7
v 19.1 0.6 15.9
v 19.1 0.8 15.9
v 19.1 1 15.9
v 19.1 1.2 15.9
v 19.1 1.4 15.9
v 19.1 1.6 15.9
v 19.1 1.8 15.9
v 19.1 2 15.9
v 19.1 2.2 15.9
v 19.1 2.4 15.9
v 19.1 0.6 16.1
v 19.1 0.8 16.1
v 19.1 1 16.1
v 19.1 1.2 16.1
v 19.1 1.4 16.1
v 19.1 1.6 16.1
v 19.1 1.8 16.1
v 19.1 2 16.1
v 19.1 2.2 16.1
v 19.1 2.4 16.1
v 19.1 0.6 16.3
v 19.1 0.8 16.3
v 19.1 1 16.3
v 19.1 1.2 16.3
v 19.1 1.4 16.3
v 19.1 1.6 16.3
v 19.1 1.8 16.3
v 19.1 2 16.3
v 19.1 2.2 16.3
v 19.1 2.4 16.3
v 19.1 0.6 16.5
v 19.1 0.8 16.5
v 19.1 1 16.5
v 19.1 1.2 16.5
v 19.1 1.4 16.5
v 19.1 1.6 16.5
v 19.1 1.8 16.5
v 19.1 2 16.5
v 19.1 2.2 16.5
v 19.1 2.4 16.5
v 19.1 0.4 16.7
v 19.1 2.6 16.7
v 19.1 2.8 16.7
v 19.1 3.6 16.7
v 19.1 0.4 16.9
v 19.1 2.6 16.9
v 19.1 2.8 16.9
v 19.1 3.6 16.9
v 19.1 0.6 17.1
v 19.1 0.8 17.1
v 19.1 1 17.1
v 19.1 1.2 17.1
v 19.1 1.4 17.1
v 19.1 1.6 17.1
v 19.1 1.8 17.1
v 19.1 2 17.1
v 19.1 2.2 17.1
v 19.1 2.4 17.1
v 19.1 0.6 17.3
v 19.1 0.8 17.3
v 19.1 1 17.3
v 19.1 1.2 17.3
v 19.1 1.4 17.3
v 19.1 1.6 17.3
v 19.1 1.8 17.3
v 19.1 2 17.3
v 19.1 2.2 17.3
v 19.1 2.4 17.3
v 19.1 0.6 17.5
v 19.1 0.8 17.5
v 19.1 1 17.5
v 19.1 1.2 17.5
v 19.1 1.4 17.5
v 19.1 1.6 17.5
v 19.1 1.8 17.5
v 19.1 2 17.5
v 19.1 2.2 17.5
v 19.1 2.4 17.5
v 19.1 0.6 17.7
v 19.1 0.8 17.7
v 19.1 1 17.7
v 19.1 1.2 17.7
v 19.1 1.4 17.7
v 19.1 1.6 17.7
v 19.1 1.8 17.7
v 19.1 2 17.7
v 19.1 2.2 17.7
v 19.1 2.4 17.7
v 19.1 0.6 17.9
v 19.1 0.8 17.9
v 19.1 1 17.9
v 19.1 1.2 17.9
v 19.1 1.4 17.9
v 19.1 1.6 17.9
v 19.1 1.8 17.9
v 19.1 2 17.9
v 19.1 2.2 17.9
v 19.1 2.4 17.9
v 19.1 0.6 18.1
v 19.1 0.8 18.1
v 19.1 1 18.1
v 19.1 1.2 18.1
v 19.1 1.4 18.1
v 19.1 1.6 18.1
v 19.1 1.8 18.1
v 19.1 2 18.1
v 19.1 2.2 18.1
v 19.1 2.4 18.1
v 19.1 0.6 18.3
v 19.1 0.8 18.3
v 19.1 1 18.3
v 19.1 1.2 18.3
v 19.1 1.4 18.3
v 19.1 1.6 18.3
v 19.1 1.8 18.3
v 19.1 2 18.3
v 19.1 2.2 18.3
v 19.1 2.4 18.3
v 19.1 0 18.5
v 19.1 0.2 18.5
v 19.1 0.6 18.5
v 19.1 0.8 18.5
v 19.1 1 18.5
v 19.1 1.2 18.5
v 19.1 1.4 18.5
v 19.1 1.6 18.5
v 19.1 1.8 18.5
v 19.1 2 18.5
v 19.1 2.2 18.5
v 19.1 2.4 18.5
v 19.1 0.4 18.7
v 19.1 2.6 18.7
v 19.1 2.8 18.7
v 19.1 3.6 18.7
v 19.1 0 18.9
v 19.1 0.2 18.9
v 19.1 3.8 18.9
v 21.7 0 14.7
v 21.7 0.2 14.7
v 21.7 0 15.1
v 21.7 0.2 15.1
v 21.7 0 18.5
v 21.7 0.2 18.5
v 21.7 0 18.9
v 21.7 0.2 18.9
v 19.5 0 14.7
v 19.5 0.2 14.7
v 19.5 0 15.1
v 19.5 0.2 15.1
v 19.5 0 18.5
v 19.5 0.2 18.5
v 19.5 0 18.9
v 19.5 0.2 18.9
v 22.1 3.8 14.3
v 22.1 4.2 14.3
v 22.1 0 14.7
v 22.1 0.2 14.7
v 22.1 3.8 14.7
v 22.1 0 15.1
v 22.1 0.2 15.1
v 22.1 0 18.5
v 22.1 0.2 18.5
v 22.1 0 18.9
v 22.1 0.2 18.9
v 22.1 3.8 18.9
v 22.1 3.8 19.3
v 22.1 4.2 19.3
v 19.1 0 14.7
v 19.1 0 15.1
v 19.1 0 18.5
v 19.1 0 18.9
v 19.5 0 14.7
v 19.5 0 15.1
v 19.5 0 18.5
v 19.5 0 18.9
v 21.7 0 14.7
v 21.7 0 15.1
v 21.7 0 18.5
v 21.7 0 18.9
v 22.1 0 14.7
v 22.1 0 15.1
v 22.1 0 18.5
v 22.1 0 18.9
v 19.1 0.2 15.1
v 19.1 0.2 18.5
v 19.5 0.2 14.7
v 19.5 0.2 15.1
v 19.5 0.2 18.5
v 19.5 0.2 18.9
v 21.7 0.2 14.7
v 21.7 0.2 15.1
v 21.7 0.2 18.5
v 21.7 0.2 18.9
v 22.1 0.2 15.1
v 22.1 0.2 18.5
v 18.9 0.4 14.9
v 18.9 0.4 16.7
v 18.9 0.4 16.9
v 18.9 0.4 18.7
v 19.1 0.4 14.9
v 19.1 0.4 16.7
v 19.1 0.4 16.9
v 19.1 0.4 18.7
v 18.9 2.4 15.1
v 18.9 2.4 16.5
v 18.9 2.4 17.1
v 18.9 2.4 18.5
v 19.1 2.4 15.1
v 19.1 2.4 15.3
v 19.1 2.4 15.5
v 19.1 2.4 15.7
v 19.1 2.4 15.9
v 19.1 2.4 16.1
v 19.1 2.4 16.3
v 19.1 2.4 16.5
v 19.1 2.4 17.1
v 19.1 2.4 17.3
v 19.1 2.4 17.5
v 19.1 2.4 17.7
v 19.1 2.4 17.9
v 19.1 2.4 18.1
v 19.1 2.4 18.3
v 19.1 2.4 18.5
v 18.9 2.8 14.9
v 18.9 2.8 16.7
v 18.9 2.8 16.9
v 18.9 2.8 18.7
v 19.1 2.8 14.9
v 19.1 2.8 16.7
v 19.1 2.8 16.9
v 19.1 2.8 18.7
v 18.7 3.2 15.5
v 18.7 3.2 16.1
v 18.7 3.2 17.5
v 18.7 3.2 18.1
v 18.9 3.2 15.5
v 18.9 3.2 16.1
v 18.9 3.2 17.5
v 18.9 3.2 18.1
v 18.9 3.8 14.3
v 18.9 3.8 19.3
v 19.1 3.8 14.7
v 19.1 3.8 18.9
v 22.1 3.8 14.3
v 22.1 3.8 14.7
v 22.1 3.8 18.9
v 22.1 3.8 19.3
v 18.9 0.6 15.1
v 18.9 0.6 16.5
v 18.9 0.6 17.1
v 18.9 0.6 18.5
v 19.1 0.6 15.1
v 19.1 0.6 15.3
v 19.1 0.6 15.5
v 19.1 0.6 15.7
v 19.1 0.6 15.9
v 19.1 0.6 16.1
v 19.1 0.6 16.3
v 19.1 0.6 16.5
v 19.1 0.6 17.1
v 19.1 0.6 17.3
v 19.1 0.6 17.5
v 19.1 0.6 17.7
v 19.1 0.6 17.9
v 19.1 0.6 18.1
v 19.1 0.6 18.3
v 19.1 0.6 18.5
v 18.9 2.6 14.9
v 18.9 2.6 16.7
v 18.9 2.6 16.9
v 18.9 2.6 18.7
v 19.1 2.6 14.9
v 19.1 2.6 16.7
v 19.1 2.6 16.9
v 19.1 2.6 18.7
v 18.7 3.4 15.5
v 18.7 3.4 16.1
v 18.7 3.4 17.5
v 18.7 3.4 18.1
v 18.9 3.4 15.5
v 18.9 3.4 16.1
v 18.9 3.4 17.5
v 18.9 3.4 18.1
v 18.9 3.6 14.9
v 18.9 3.6 16.7
v 18.9 3.6 16.9
v 18.9 3.6 18.7
v 19.1 3.6 14.9
v 19.1 3.6 16.7
v 19.1 3.6 16.9
v 19.1 3.6 18.7
v 18.9 4.2 14.3
v 18.9 4.2 19.3
v 22.1 4.2 14.3
v 22.1 4.2 19.3

# faces
f 3/1/1 2/1/1 1/1/1
f 4/1/1 2/1/1 3/1/1
f 9/3/1 6/3/1 5/3/1
f 10/3/1 6/3/1 9/3/1
f 11/3/1 8/3/1 7/3/1
f 12/3/1 8/3/1 11/3/1
f 13/1/1 10/1/1 9/1/1
f 13/1/1 11/1/1 10/1/1
f 13/1/1 12/1/1 11/1/1
f 14/1/1 12/1/1 13/1/1
f 17/2/1 16/2/1 15/2/1
f 18/2/1 16/2/1 17/2/1
f 21/2/1 20/2/1 19/2/1
f 22/2/1 20/2/1 21/2/1
f 25/3/1 24/3/1 23/3/1
f 26/3/1 24/3/1 25/3/1
f 29/2/1 28/2/1 27/2/1
f 30/2/1 29/2/1 27/2/1
f 31/2/1 30/2/1 27/2/1
f 32/2/1 31/2/1 27/2/1
f 33/2/1 32/2/1 27/2/1
f 34/2/1 33/2/1 27/2/1
f 35/2/1 34/2/1 27/2/1
f 36/2/1 35/2/1 27/2/1
f 37/2/1 36/2/1 27/2/1
f 38/2/1 36/2/1 37/2/1
f 41/2/1 40/2/1 39/2/1
f 42/2/1 40/2/1 41/2/1
f 45/2/1 44/2/1 43/2/1
f 46/2/1 44/2/1 45/2/1
f 49/3/1 48/3/1 47/3/1
f 50/3/1 48/3/1 49/3/1
f 55/3/1 52/3/1 51/3/1
f 56/3/1 52/3/1 55/3/1
f 57/3/1 54/3/1 53/3/1
f 58/3/1 54/3/1 57/3/1
f 61/2/1 60/2/1 59/2/1
f 62/2/1 61/2/1 59/2/1
f 63/2/1 62/2/1 59/2/1
f 64/2/1 63/2/1 59/2/1
f 65/2/1 64/2/1 59/2/1
f 66/2/1 65/2/1 59/2/1
f 67/2/1 66/2/1 59/2/1
f 68/2/1 67/2/1 59/2/1
f 69/2/1 68/2/1 59/2/1
f 70/2/1 68/2/1 69/2/1
f 71/3/2 72/3/2 75/3/2
f 75/3/2 72/3/2 76/3/2
f 73/3/2 74/3/2 77/3/2
f 77/3/2 74/3/2 78/3/2
f 79/2/2 80/2/2 81/2/2
f 79/2/2 81/2/2 82/2/2
f 79/2/2 82/2/2 83/2/2
f 79/2/2 83/2/2 84/2/2
f 79/2/2 84/2/2 85/2/2
f 79/2/2 85/2/2 86/2/2
f 79/2/2 86/2/2 87/2/2
f 79/2/2 87/2/2 88/2/2
f 79/2/2 88/2/2 89/2/2
f 89/2/2 88/2/2 90/2/2
f 91/3/2 92/3/2 93/3/2
f 93/3/2 92/3/2 94/3/2
f 95/2/2 96/2/2 97/2/2
f 97/2/2 96/2/2 98/2/2
f 99/2/2 100/2/2 101/2/2
f 101/2/2 100/2/2 102/2/2
f 103/2/2 104/2/2 105/2/2
f 103/2/2 105/2/2 106/2/2
f 103/2/2 106/2/2 107/2/2
f 103/2/2 107/2/2 108/2/2
f 103/2/2 108/2/2 109/2/2
f 103/2/2 109/2/2 110/2/2
f 103/2/2 110/2/2 111/2/2
f 103/2/2 111/2/2 112/2/2
f 103/2/2 112/2/2 113/2/2
f 113/2/2 112/2/2 114/2/2
f 115/3/2 116/3/2 117/3/2
f 117/3/2 116/3/2 118/3/2
f 119/2/2 120/2/2 121/2/2
f 121/2/2 120/2/2 122/2/2
f 123/2/2 124/2/2 125/2/2
f 125/2/2 124/2/2 126/2/2
f 127/3/2 128/3/2 131/3/2
f 131/3/2 128/3/2 132/3/2
f 129/3/2 130/3/2 133/3/2
f 133/3/2 130/3/2 134/3/2
f 131/1/2 132/1/2 135/1/2
f 132/1/2 133/1/2 135/1/2
f 133/1/2 134/1/2 135/1/2
f 135/1/2 134/1/2 136/1/2
f 137/1/2 138/1/2 139/1/2
f 139/1/2 138/1/2 140/1/2
f 143/3/3 142/3/3 141/3/3
f 144/3/3 142/3/3 143/3/3
f 147/3/3 146/3/3 145/3/3
f 148/3/3 146/3/3 147/3/3
f 155/2/3 152/2/3 151/2/3
f 156/2/3 152/2/3 155/2/3
f 157/2/3 154/2/3 153/2/3
f 158/2/3 154/2/3 157/2/3
f 159/2/3 157/2/3 153/2/3
f 160/2/3 154/2/3 158/2/3
f 161/2/3 155/2/3 151/2/3
f 162/2/3 152/2/3 156/2/3
f 163/2/3 161/2/3 151/2/3
f 163/2/3 162/2/3 161/2/3
f 164/2/3 152/2/3 162/2/3
f 164/2/3 162/2/3 163/2/3
f 165/2/3 160/2/3 159/2/3
f 165/2/3 159/2/3 153/2/3
f 166/2/3 154/2/3 160/2/3
f 166/2/3 160/2/3 165/2/3
f 171/2/3 168/2/3 167/2/3
f 172/2/3 168/2/3 171/2/3
f 173/2/3 170/2/3 169/2/3
f 174/2/3 170/2/3 173/2/3
f 175/2/3 173/2/3 169/2/3
f 176/2/3 170/2/3 174/2/3
f 177/2/3 171/2/3 167/2/3
f 178/2/3 168/2/3 172/2/3
f 179/2/3 177/2/3 167/2/3
f 179/2/3 178/2/3 177/2/3
f 180/2/3 168/2/3 178/2/3
f 180/2/3 178/2/3 179/2/3
f 181/2/3 176/2/3 175/2/3
f 181/2/3 175/2/3 169/2/3
f 182/2/3 170/2/3 176/2/3
f 182/2/3 176/2/3 181/2/3
f 183/1/3 150/1/3 149/1/3
f 184/1/3 150/1/3 183/1/3
f 188/1/3 187/1/3 186/1/3
f 189/1/3 187/1/3 188/1/3
f 190/1/3 187/1/3 189/1/3
f 191/1/3 187/1/3 190/1/3
f 192/3/3 186/3/3 185/3/3
f 193/1/3 188/1/3 186/1/3
f 193/3/3 186/3/3 192/3/3
f 204/2/3 195/2/3 194/2/3
f 205/3/3 196/3/3 195/3/3
f 205/2/3 195/2/3 204/2/3
f 206/2/3 197/2/3 196/2/3
f 206/3/3 196/3/3 205/3/3
f 207/3/3 198/3/3 197/3/3
f 207/2/3 197/2/3 206/2/3
f 208/2/3 199/2/3 198/2/3
f 208/3/3 198/3/3 207/3/3
f 209/3/3 200/3/3 199/3/3
f 209/2/3 199/2/3 208/2/3
f 210/2/3 201/2/3 200/2/3
f 210/3/3 200/3/3 209/3/3
f 211/3/3 202/3/3 201/3/3
f 211/2/3 201/2/3 210/2/3
f 212/2/3 203/2/3 202/2/3
f 212/3/3 202/3/3 211/3/3
f 213/2/3 203/2/3 212/2/3
f 214/3/3 205/3/3 204/3/3
f 215/2/3 206/2/3 205/2/3
f 215/3/3 205/3/3 214/3/3
f 216/3/3 207/3/3 206/3/3
f 216/2/3 206/2/3 215/2/3
f 217/2/3 208/2/3 207/2/3
f 217/3/3 207/3/3 216/3/3
f 218/3/3 209/3/3 208/3/3
f 218/2/3 208/2/3 217/2/3
f 219/2/3 210/2/3 209/2/3
f 219/3/3 209/3/3 218/3/3
f 220/3/3 211/3/3 210/3/3
f 220/2/3 210/2/3 219/2/3
f 221/2/3 212/2/3 211/2/3
f 221/3/3 211/3/3 220/3/3
f 222/3/3 213/3/3 212/3/3
f 222/2/3 212/2/3 221/2/3
f 223/3/3 213/3/3 222/3/3
f 224/2/3 215/2/3 214/2/3
f 225/3/3 216/3/3 215/3/3
f 225/2/3 215/2/3 224/2/3
f 226/2/3 217/2/3 216/2/3
f 226/3/3 216/3/3 225/3/3
f 227/3/3 218/3/3 217/3/3
f 227/2/3 217/2/3 226/2/3
f 228/2/3 219/2/3 218/2/3
f 228/3/3 218/3/3 227/3/3
f 229/3/3 220/3/3 219/3/3
f 229/2/3 219/2/3 228/2/3
f 230/2/3 221/2/3 220/2/3
f 230/3/3 220/3/3 229/3/3
f 231/3/3 222/3/3 221/3/3
f 231/2/3 221/2/3 230/2/3
f 232/2/3 223/2/3 222/2/3
f 232/3/3 222/3/3 231/3/3
f 233/2/3 223/2/3 232/2/3
f 234/3/3 225/3/3 224/3/3
f 235/2/3 226/2/3 225/2/3
f 235/3/3 225/3/3 234/3/3
f 236/3/3 227/3/3 226/3/3
f 236/2/3 226/2/3 235/2/3
f 237/2/3 228/2/3 227/2/3
f 237/3/3 227/3/3 236/3/3
f 238/3/3 229/3/3 228/3/3
f 238/2/3 228/2/3 237/2/3
f 239/2/3 230/2/3 229/2/3
f 239/3/3 229/3/3 238/3/3
f 240/3/3 231/3/3 230/3/3
f 240/2/3 230/2/3 239/2/3
f 241/2/3 232/2/3 231/2/3
f 241/3/3 231/3/3 240/3/3
f 242/3/3 233/3/3 232/3/3
f 242/2/3 232/2/3 241/2/3
f 243/3/3 233/3/3 242/3/3
f 244/2/3 235/2/3 234/2/3
f 245/3/3 236/3/3 235/3/3
f 245/2/3 235/2/3 244/2/3
f 246/2/3 237/2/3 236/2/3
f 246/3/3 236/3/3 245/3/3
f 247/3/3 238/3/3 237/3/3
f 247/2/3 237/2/3 246/2/3
f 248/2/3 239/2/3 238/2/3
f 248/3/3 238/3/3 247/3/3
f 249/3/3 240/3/3 239/3/3
f 249/2/3 239/2/3 248/2/3
f 250/2/3 241/2/3 240/2/3
f 250/3/3 240/3/3 249/3/3
f 251/3/3 242/3/3 241/3/3
f 251/2/3 241/2/3 250/2/3
f 252/2/3 243/2/3 242/2/3
f 252/3/3 242/3/3 251/3/3
f 253/2/3 243/2/3 252/2/3
f 254/3/3 245/3/3 244/3/3
f 255/2/3 246/2/3 245/2/3
f 255/3/3 245/3/3 254/3/3
f 256/3/3 247/3/3 246/3/3
f 256/2/3 246/2/3 255/2/3
f 257/2/3 248/2/3 247/2/3
f 257/3/3 247/3/3 256/3/3
f 258/3/3 249/3/3 248/3/3
f 258/2/3 248/2/3 257/2/3
f 259/2/3 250/2/3 249/2/3
f 259/3/3 249/3/3 258/3/3
f 260/3/3 251/3/3 250/3/3
f 260/2/3 250/2/3 259/2/3
f 261/2/3 252/2/3 251/2/3
f 261/3/3 251/3/3 260/3/3
f 262/3/3 253/3/3 252/3/3
f 262/2/3 252/2/3 261/2/3
f 263/3/3 253/3/3 262/3/3
f 264/2/3 255/2/3 254/2/3
f 265/3/3 256/3/3 255/3/3
f 265/2/3 255/2/3 264/2/3
f 266/2/3 257/2/3 256/2/3
f 266/3/3 256/3/3 265/3/3
f 267/3/3 258/3/3 257/3/3
f 267/2/3 257/2/3 266/2/3
f 268/2/3 259/2/3 258/2/3
f 268/3/3 258/3/3 267/3/3
f 269/3/3 260/3/3 259/3/3
f 269/2/3 259/2/3 268/2/3
f 270/2/3 261/2/3 260/2/3
f 270/3/3 260/3/3 269/3/3
f 271/3/3 262/3/3 261/3/3
f 271/2/3 261/2/3 270/2/3
f 272/2/3 263/2/3 262/2/3
f 272/3/3 262/3/3 271/3/3
f 273/2/3 263/2/3 272/2/3
f 274/1/3 188/1/3 193/1/3
f 275/1/3 190/1/3 189/1/3
f 276/1/3 190/1/3 275/1/3
f 277/1/3 187/1/3 191/1/3
f 278/1/3 276/1/3 275/1/3
f 278/1/3 277/1/3 276/1/3
f 278/1/3 274/1/3 193/1/3
f 278/1/3 275/1/3 274/1/3
f 279/1/3 277/1/3 278/1/3
f 280/1/3 277/1/3 279/1/3
f 281/1/3 187/1/3 277/1/3
f 281/1/3 277/1/3 280/1/3
f 292/2/3 283/2/3 282/2/3
f 293/3/3 284/3/3 283/3/3
f 293/2/3 283/2/3 292/2/3
f 294/2/3 285/2/3 284/2/3
f 294/3/3 284/3/3 293/3/3
f 295/3/3 286/3/3 285/3/3
f 295/2/3 285/2/3 294/2/3
f 296/2/3 287/2/3 286/2/3
f 296/3/3 286/3/3 295/3/3
f 297/3/3 288/3/3 287/3/3
f 297/2/3 287/2/3 296/2/3
f 298/2/3 289/2/3 288/2/3
f 298/3/3 288/3/3 297/3/3
f 299/3/3 290/3/3 289/3/3
f 299/2/3 289/2/3 298/2/3
f 300/2/3 291/2/3 290/2/3
f 300/3/3 290/3/3 299/3/3
f 301/2/3 291/2/3 300/2/3
f 302/3/3 293/3/3 292/3/3
f 303/2/3 294/2/3 293/2/3
f 303/3/3 293/3/3 302/3/3
f 304/3/3 295/3/3 294/3/3
f 304/2/3 294/2/3 303/2/3
f 305/2/3 296/2/3 295/2/3
f 305/3/3 295/3/3 304/3/3
f 306/3/3 297/3/3 296/3/3
f 306/2/3 296/2/3 305/2/3
f 307/2/3 298/2/3 297/2/3
f 307/3/3 297/3/3 306/3/3
f 308/3/3 299/3/3 298/3/3
f 308/2/3 298/2/3 307/2/3
f 309/2/3 300/2/3 299/2/3
f 309/3/3 299/3/3 308/3/3
f 310/3/3 301/3/3 300/3/3
f 310/2/3 300/2/3 309/2/3
f 311/3/3 301/3/3 310/3/3
f 312/2/3 303/2/3 302/2/3
f 313/3/3 304/3/3 303/3/3
f 313/2/3 303/2/3 312/2/3
f 314/2/3 305/2/3 304/2/3
f 314/3/3 304/3/3 313/3/3
f 315/3/3 306/3/3 305/3/3
f 315/2/3 305/2/3 314/2/3
f 316/2/3 307/2/3 306/2/3
f 316/3/3 306/3/3 315/3/3
f 317/3/3 308/3/3 307/3/3
f 317/2/3 307/2/3 316/2/3
f 318/2/3 309/2/3 308/2/3
f 318/3/3 308/3/3 317/3/3
f 319/3/3 310/3/3 309/3/3
f 319/2/3 309/2/3 318/2/3
f 320/2/3 311/2/3 310/2/3
f 320/3/3 310/3/3 319/3/3
f 321/2/3 311/2/3 320/2/3
f 322/3/3 313/3/3 312/3/3
f 323/2/3 314/2/3 313/2/3
f 323/3/3 313/3/3 322/3/3
f 324/3/3 315/3/3 314/3/3
f 324/2/3 314/2/3 323/2/3
f 325/2/3 316/2/3 315/2/3
f 325/3/3 315/3/3 324/3/3
f 326/3/3 317/3/3 316/3/3
f 326/2/3 316/2/3 325/2/3
f 327/2/3 318/2/3 317/2/3
f 327/3/3 317/3/3 326/3/3
f 328/3/3 319/3/3 318/3/3
f 328/2/3 318/2/3 327/2/3
f 329/2/3 320/2/3 319/2/3
f 329/3/3 319/3/3 328/3/3
f 330/3/3 321/3/3 320/3/3
f 330/2/3 320/2/3 329/2/3
f 331/3/3 321/3/3 330/3/3
f 332/2/3 323/2/3 322/2/3
f 333/3/3 324/3/3 323/3/3
f 333/2/3 323/2/3 332/2/3
f 334/2/3 325/2/3 324/2/3
f 334/3/3 324/3/3 333/3/3
f 335/3/3 326/3/3 325/3/3
f 335/2/3 325/2/3 334/2/3
f 336/2/3 327/2/3 326/2/3
f 336/3/3 326/3/3 335/3/3
f 337/3/3 328/3/3 327/3/3
f 337/2/3 327/2/3 336/2/3
f 338/2/3 329/2/3 328/2/3
f 338/3/3 328/3/3 337/3/3
f 339/3/3 330/3/3 329/3/3
f 339/2/3 329/2/3 338/2/3
f 340/2/3 331/2/3 330/2/3
f 340/3/3 330/3/3 339/3/3
f 341/2/3 331/2/3 340/2/3
f 342/3/3 333/3/3 332/3/3
f 343/2/3 334/2/3 333/2/3
f 343/3/3 333/3/3 342/3/3
f 344/3/3 335/3/3 334/3/3
f 344/2/3 334/2/3 343/2/3
f 345/2/3 336/2/3 335/2/3
f 345/3/3 335/3/3 344/3/3
f 346/3/3 337/3/3 336/3/3
f 346/2/3 336/2/3 345/2/3
f 347/2/3 338/2/3 337/2/3
f 347/3/3 337/3/3 346/3/3
f 348/3/3 339/3/3 338/3/3
f 348/2/3 338/2/3 347/2/3
f 349/2/3 340/2/3 339/2/3
f 349/3/3 339/3/3 348/3/3
f 350/3/3 341/3/3 340/3/3
f 350/2/3 340/2/3 349/2/3
f 351/3/3 341/3/3 350/3/3
f 353/1/3 278/1/3 193/1/3
f 354/2/3 343/2/3 342/2/3
f 355/3/3 344/3/3 343/3/3
f 355/2/3 343/2/3 354/2/3
f 356/2/3 345/2/3 344/2/3
f 356/3/3 344/3/3 355/3/3
f 357/3/3 346/3/3 345/3/3
f 357/2/3 345/2/3 356/2/3
f 358/2/3 347/2/3 346/2/3
f 358/3/3 346/3/3 357/3/3
f 359/3/3 348/3/3 347/3/3
f 359/2/3 347/2/3 358/2/3
f 360/2/3 349/2/3 348/2/3
f 360/3/3 348/3/3 359/3/3
f 361/3/3 350/3/3 349/3/3
f 361/2/3 349/2/3 360/2/3
f 362/2/3 351/2/3 350/2/3
f 362/3/3 350/3/3 361/3/3
f 363/2/3 351/2/3 362/2/3
f 364/1/3 278/1/3 353/1/3
f 365/1/3 280/1/3 279/1/3
f 366/1/3 280/1/3 365/1/3
f 367/1/3 187/1/3 281/1/3
f 368/3/3 353/3/3 352/3/3
f 369/1/3 364/1/3 353/1/3
f 369/3/3 353/3/3 368/3/3
f 369/1/3 366/1/3 365/1/3
f 369/1/3 367/1/3 366/1/3
f 369/1/3 365/1/3 364/1/3
f 370/1/3 187/1/3 367/1/3
f 370/1/3 367/1/3 369/1/3
f 373/3/3 372/3/3 371/3/3
f 374/3/3 372/3/3 373/3/3
f 377/3/3 376/3/3 375/3/3
f 378/3/3 376/3/3 377/3/3
f 379/3/4 380/3/4 381/3/4
f 381/3/4 380/3/4 382/3/4
f 383/3/4 384/3/4 385/3/4
f 385/3/4 384/3/4 386/3/4
f 387/1/4 388/1/4 391/1/4
f 389/3/4 390/3/4 392/3/4
f 390/1/4 391/1/4 393/1/4
f 392/3/4 390/3/4 393/3/4
f 393/1/4 391/1/4 395/1/4
f 394/3/4 395/3/4 396/3/4
f 395/1/4 391/1/4 397/1/4
f 396/3/4 395/3/4 397/3/4
f 391/1/4 388/1/4 398/1/4
f 397/1/4 391/1/4 398/1/4
f 398/1/4 388/1/4 399/1/4
f 399/1/4 388/1/4 400/1/4
f 405/3/5 402/3/5 401/3/5
f 406/3/5 402/3/5 405/3/5
f 407/3/5 404/3/5 403/3/5
f 408/3/5 404/3/5 407/3/5
f 413/3/5 410/3/5 409/3/5
f 414/3/5 410/3/5 413/3/5
f 415/3/5 412/3/5 411/3/5
f 416/3/5 412/3/5 415/3/5
f 420/1/5 418/1/5 417/1/5
f 421/1/5 418/1/5 420/1/5
f 423/1/5 420/1/5 419/1/5
f 423/1/5 422/1/5 421/1/5
f 423/1/5 421/1/5 420/1/5
f 424/1/5 422/1/5 423/1/5
f 425/1/5 422/1/5 424/1/5
f 426/1/5 422/1/5 425/1/5
f 427/1/5 425/1/5 424/1/5
f 428/1/5 425/1/5 427/1/5
f 433/2/5 430/2/5 429/2/5
f 434/2/5 430/2/5 433/2/5
f 435/2/5 432/2/5 431/2/5
f 436/2/5 432/2/5 435/2/5
f 441/2/5 438/2/5 437/2/5
f 442/2/5 438/2/5 441/2/5
f 443/2/5 438/2/5 442/2/5
f 444/2/5 438/2/5 443/2/5
f 445/2/5 438/2/5 444/2/5
f 446/2/5 438/2/5 445/2/5
f 447/2/5 438/2/5 446/2/5
f 448/2/5 438/2/5 447/2/5
f 449/2/5 440/2/5 439/2/5
f 450/2/5 440/2/5 449/2/5
f 451/2/5 440/2/5 450/2/5
f 452/2/5 440/2/5 451/2/5
f 453/2/5 440/2/5 452/2/5
f 454/2/5 440/2/5 453/2/5
f 455/2/5 440/2/5 454/2/5
f 456/2/5 440/2/5 455/2/5
f 461/2/5 458/2/5 457/2/5
f 462/2/5 458/2/5 461/2/5
f 463/2/5 460/2/5 459/2/5
f 464/2/5 460/2/5 463/2/5
f 469/3/5 466/3/5 465/3/5
f 470/3/5 466/3/5 469/3/5
f 471/3/5 468/3/5 467/3/5
f 472/3/5 468/3/5 471/3/5
f 475/1/5 474/1/5 473/1/5
f 476/1/5 474/1/5 475/1/5
f 477/1/5 475/1/5 473/1/5
f 478/1/5 475/1/5 477/1/5
f 479/1/5 474/1/5 476/1/5
f 480/1/5 474/1/5 479/1/5
f 481/2/6 482/2/6 485/2/6
f 485/2/6 482/2/6 486/2/6
f 486/2/6 482/2/6 487/2/6
f 487/2/6 482/2/6 488/2/6
f 488/2/6 482/2/6 489/2/6
f 489/2/6 482/2/6 490/2/6
f 490/2/6 482/2/6 491/2/6
f 491/2/6 482/2/6 492/2/6
f 483/2/6 484/2/6 493/2/6
f 493/2/6 484/2/6 494/2/6
f 494/2/6 484/2/6 495/2/6
f 495/2/6 484/2/6 496/2/6
f 496/2/6 484/2/6 497/2/6
f 497/2/6 484/2/6 498/2/6
f 498/2/6 484/2/6 499/2/6
f 499/2/6 484/2/6 500/2/6
f 501/2/6 502/2/6 505/2/6
f 505/2/6 502/2/6 506/2/6
f 503/2/6 504/2/6 507/2/6
f 507/2/6 504/2/6 508/2/6
f 509/3/6 510/3/6 513/3/6
f 513/3/6 510/3/6 514/3/6
f 511/3/6 512/3/6 515/3/6
f 515/3/6 512/3/6 516/3/6
f 517/2/6 518/2/6 521/2/6
f 521/2/6 518/2/6 522/2/6
f 519/2/6 520/2/6 523/2/6
f 523/2/6 520/2/6 524/2/6
f 525/1/6 526/1/6 527/1/6
f 527/1/6 526/1/6 528/1/6
