# MagicaVoxel @ Ephtracy

# group
o 

# material
mtllib chertej-75.mtl
usemtl palette

# normals
vn -1 0 0
vn 1 0 0
vn 0 0 1
vn 0 0 -1
vn 0 -1 0
vn 0 1 0

# texcoords
vt 0.0371094 0.5
vt 0.0488281 0.5
vt 0.572266 0.5
vt 0.837891 0.5
vt 0.958984 0.5

# verts
v 3.4 4.5 -11.1
v 3.4 4.5 -11.5
v 3.4 4.7 -11.1
v 3.4 4.7 -11.5
v 3.4 5 -11.1
v 3.4 5 -11.5
v 3.4 5.2 -11.1
v 3.4 5.2 -11.5
v 3.4 5.4 -11.1
v 3.4 5.4 -11.2
v 3.4 5.4 -11.4
v 3.4 5.4 -11.5
v 3.4 5.5 -11.2
v 3.4 5.5 -11.4
v 3.5 4.3 -11.2
v 3.5 4.3 -11.4
v 3.5 4.5 -11.2
v 3.5 4.5 -11.4
v 3.5 5.4 -11.1
v 3.5 5.4 -11.2
v 3.5 5.4 -11.4
v 3.5 5.4 -11.5
v 3.5 5.5 -11.1
v 3.5 5.5 -11.2
v 3.5 5.5 -11.4
v 3.5 5.5 -11.5
v 3.7 4.3 -11.2
v 3.7 4.3 -11.4
v 3.7 4.5 -11.2
v 3.7 4.5 -11.4
v 3.7 5.4 -11.1
v 3.7 5.4 -11.2
v 3.7 5.4 -11.4
v 3.7 5.4 -11.5
v 3.7 5.5 -11.1
v 3.7 5.5 -11.2
v 3.7 5.5 -11.4
v 3.7 5.5 -11.5
v 3.8 4.5 -11.1
v 3.8 4.5 -11.5
v 3.8 4.7 -11.1
v 3.8 4.7 -11.5
v 3.8 4.9 -11.2
v 3.8 4.9 -11.4
v 3.8 5 -11.1
v 3.8 5 -11.2
v 3.8 5 -11.4
v 3.8 5 -11.5
v 3.8 5.2 -11.1
v 3.8 5.2 -11.5
v 3.8 5.4 -11.1
v 3.8 5.4 -11.2
v 3.8 5.4 -11.4
v 3.8 5.4 -11.5
v 3.8 5.5 -11.2
v 3.8 5.5 -11.4
v 3.4 4.5 -11.1
v 3.4 4.7 -11.1
v 3.4 5 -11.1
v 3.4 5.2 -11.1
v 3.4 5.4 -11.1
v 3.5 4.6 -11.1
v 3.5 4.7 -11.1
v 3.5 5.4 -11.1
v 3.5 5.5 -11.1
v 3.6 4.5 -11.1
v 3.6 4.6 -11.1
v 3.7 4.5 -11.1
v 3.7 4.7 -11.1
v 3.7 5.4 -11.1
v 3.7 5.5 -11.1
v 3.8 4.5 -11.1
v 3.8 4.7 -11.1
v 3.8 5 -11.1
v 3.8 5.2 -11.1
v 3.8 5.4 -11.1
v 3.4 5.4 -11.2
v 3.4 5.5 -11.2
v 3.5 4.3 -11.2
v 3.5 4.5 -11.2
v 3.5 5.4 -11.2
v 3.5 5.5 -11.2
v 3.6 4.5 -11.2
v 3.7 4.3 -11.2
v 3.7 4.5 -11.2
v 3.7 5.4 -11.2
v 3.7 5.5 -11.2
v 3.8 5.4 -11.2
v 3.8 5.5 -11.2
v 3.4 5.4 -11.4
v 3.4 5.5 -11.4
v 3.5 4.3 -11.4
v 3.5 4.5 -11.4
v 3.5 5.4 -11.4
v 3.5 5.5 -11.4
v 3.7 4.3 -11.4
v 3.7 4.5 -11.4
v 3.7 5.4 -11.4
v 3.7 5.5 -11.4
v 3.8 5.4 -11.4
v 3.8 5.5 -11.4
v 3.4 4.5 -11.5
v 3.4 4.7 -11.5
v 3.4 5 -11.5
v 3.4 5.2 -11.5
v 3.4 5.4 -11.5
v 3.5 4.9 -11.5
v 3.5 5 -11.5
v 3.5 5.4 -11.5
v 3.5 5.5 -11.5
v 3.7 4.9 -11.5
v 3.7 5 -11.5
v 3.7 5.4 -11.5
v 3.7 5.5 -11.5
v 3.8 4.5 -11.5
v 3.8 4.7 -11.5
v 3.8 5 -11.5
v 3.8 5.2 -11.5
v 3.8 5.4 -11.5
v 3.5 4.3 -11.2
v 3.7 4.3 -11.2
v 3.5 4.3 -11.4
v 3.7 4.3 -11.4
v 3.4 4.5 -11.1
v 3.6 4.5 -11.1
v 3.7 4.5 -11.1
v 3.8 4.5 -11.1
v 3.5 4.5 -11.2
v 3.6 4.5 -11.2
v 3.7 4.5 -11.2
v 3.5 4.5 -11.4
v 3.7 4.5 -11.4
v 3.4 4.5 -11.5
v 3.8 4.5 -11.5
v 3.4 5.4 -11.1
v 3.5 5.4 -11.1
v 3.7 5.4 -11.1
v 3.8 5.4 -11.1
v 3.4 5.4 -11.2
v 3.5 5.4 -11.2
v 3.7 5.4 -11.2
v 3.8 5.4 -11.2
v 3.4 5.4 -11.4
v 3.5 5.4 -11.4
v 3.7 5.4 -11.4
v 3.8 5.4 -11.4
v 3.4 5.4 -11.5
v 3.5 5.4 -11.5
v 3.7 5.4 -11.5
v 3.8 5.4 -11.5
v 3.5 5.5 -11.1
v 3.7 5.5 -11.1
v 3.4 5.5 -11.2
v 3.5 5.5 -11.2
v 3.7 5.5 -11.2
v 3.8 5.5 -11.2
v 3.4 5.5 -11.4
v 3.5 5.5 -11.4
v 3.7 5.5 -11.4
v 3.8 5.5 -11.4
v 3.5 5.5 -11.5
v 3.7 5.5 -11.5

# faces
f 3/1/1 2/1/1 1/1/1
f 4/1/1 2/1/1 3/1/1
f 5/2/1 4/2/1 3/2/1
f 6/2/1 4/2/1 5/2/1
f 7/3/1 6/3/1 5/3/1
f 8/3/1 6/3/1 7/3/1
f 9/4/1 8/4/1 7/4/1
f 10/4/1 8/4/1 9/4/1
f 11/4/1 8/4/1 10/4/1
f 12/4/1 8/4/1 11/4/1
f 13/4/1 11/4/1 10/4/1
f 14/4/1 11/4/1 13/4/1
f 17/1/1 16/1/1 15/1/1
f 18/1/1 16/1/1 17/1/1
f 23/4/1 20/4/1 19/4/1
f 24/4/1 20/4/1 23/4/1
f 25/4/1 22/4/1 21/4/1
f 26/4/1 22/4/1 25/4/1
f 27/1/2 28/1/2 29/1/2
f 29/1/2 28/1/2 30/1/2
f 31/4/2 32/4/2 35/4/2
f 35/4/2 32/4/2 36/4/2
f 33/4/2 34/4/2 37/4/2
f 37/4/2 34/4/2 38/4/2
f 39/1/2 40/1/2 41/1/2
f 41/1/2 40/1/2 42/1/2
f 41/2/2 42/2/2 43/2/2
f 43/2/2 42/2/2 44/2/2
f 41/2/2 43/2/2 45/2/2
f 43/3/2 44/3/2 46/3/2
f 45/2/2 43/2/2 46/2/2
f 44/2/2 42/2/2 47/2/2
f 46/3/2 44/3/2 47/3/2
f 47/2/2 42/2/2 48/2/2
f 45/3/2 46/3/2 49/3/2
f 46/3/2 47/3/2 49/3/2
f 47/3/2 48/3/2 49/3/2
f 49/3/2 48/3/2 50/3/2
f 49/4/2 50/4/2 51/4/2
f 51/4/2 50/4/2 52/4/2
f 52/4/2 50/4/2 53/4/2
f 53/4/2 50/4/2 54/4/2
f 52/4/2 53/4/2 55/4/2
f 55/4/2 53/4/2 56/4/2
f 62/1/3 58/1/3 57/1/3
f 63/2/3 59/2/3 58/2/3
f 63/1/3 58/1/3 62/1/3
f 64/4/3 61/4/3 60/4/3
f 66/1/3 62/1/3 57/1/3
f 67/2/3 63/2/3 62/2/3
f 67/1/3 62/1/3 66/1/3
f 68/2/3 67/2/3 66/2/3
f 69/2/3 59/2/3 63/2/3
f 69/2/3 67/2/3 68/2/3
f 69/2/3 63/2/3 67/2/3
f 70/4/3 65/4/3 64/4/3
f 70/4/3 64/4/3 60/4/3
f 71/4/3 65/4/3 70/4/3
f 72/1/3 69/1/3 68/1/3
f 73/2/3 59/2/3 69/2/3
f 73/1/3 69/1/3 72/1/3
f 74/3/3 60/3/3 59/3/3
f 74/2/3 59/2/3 73/2/3
f 75/4/3 70/4/3 60/4/3
f 75/3/3 60/3/3 74/3/3
f 76/4/3 70/4/3 75/4/3
f 81/4/3 78/4/3 77/4/3
f 82/4/3 78/4/3 81/4/3
f 83/1/3 80/1/3 79/1/3
f 84/1/3 83/1/3 79/1/3
f 85/1/3 83/1/3 84/1/3
f 88/4/3 87/4/3 86/4/3
f 89/4/3 87/4/3 88/4/3
f 90/4/4 91/4/4 94/4/4
f 94/4/4 91/4/4 95/4/4
f 92/1/4 93/1/4 96/1/4
f 96/1/4 93/1/4 97/1/4
f 98/4/4 99/4/4 100/4/4
f 100/4/4 99/4/4 101/4/4
f 103/2/4 104/2/4 107/2/4
f 104/3/4 105/3/4 108/3/4
f 107/2/4 104/2/4 108/2/4
f 105/4/4 106/4/4 109/4/4
f 103/2/4 107/2/4 111/2/4
f 107/3/4 108/3/4 111/3/4
f 108/3/4 105/3/4 112/3/4
f 111/3/4 108/3/4 112/3/4
f 109/4/4 110/4/4 113/4/4
f 105/4/4 109/4/4 113/4/4
f 113/4/4 110/4/4 114/4/4
f 102/1/4 103/1/4 115/1/4
f 103/2/4 111/2/4 116/2/4
f 115/1/4 103/1/4 116/1/4
f 111/2/4 112/2/4 116/2/4
f 112/3/4 105/3/4 117/3/4
f 116/2/4 112/2/4 117/2/4
f 105/4/4 113/4/4 118/4/4
f 117/3/4 105/3/4 118/3/4
f 118/4/4 113/4/4 119/4/4
f 122/1/5 121/1/5 120/1/5
f 123/1/5 121/1/5 122/1/5
f 128/1/5 125/1/5 124/1/5
f 129/2/5 126/2/5 125/2/5
f 129/1/5 125/1/5 128/1/5
f 130/1/5 127/1/5 126/1/5
f 130/2/5 126/2/5 129/2/5
f 131/1/5 128/1/5 124/1/5
f 132/1/5 127/1/5 130/1/5
f 133/1/5 131/1/5 124/1/5
f 133/1/5 132/1/5 131/1/5
f 134/1/5 127/1/5 132/1/5
f 134/1/5 132/1/5 133/1/5
f 135/4/6 136/4/6 139/4/6
f 139/4/6 136/4/6 140/4/6
f 137/4/6 138/4/6 141/4/6
f 141/4/6 138/4/6 142/4/6
f 143/4/6 144/4/6 147/4/6
f 147/4/6 144/4/6 148/4/6
f 145/4/6 146/4/6 149/4/6
f 149/4/6 146/4/6 150/4/6
f 151/4/6 152/4/6 154/4/6
f 154/4/6 152/4/6 155/4/6
f 153/4/6 154/4/6 157/4/6
f 155/4/6 156/4/6 157/4/6
f 154/4/6 155/4/6 157/4/6
f 157/4/6 156/4/6 158/4/6
f 158/4/6 156/4/6 159/4/6
f 159/4/6 156/4/6 160/4/6
f 158/4/6 159/4/6 161/4/6
f 161/4/6 159/4/6 162/4/6
