# MagicaVoxel @ Ephtracy

# group
o 

# material
mtllib KitchenDrawer.mtl
usemtl palette

# normals
vn -1 0 0
vn 1 0 0
vn 0 0 1
vn 0 0 -1
vn 0 -1 0
vn 0 1 0

# texcoords
vt 0.0566406 0.5
vt 0.533203 0.5
vt 0.837891 0.5
vt 0.958984 0.5

# verts
v -2.1 -1.9 1.3
v -2.1 -1.9 -1.7
v -2.1 2 1.3
v -2.1 2 -1.7
v -1.9 -1.7 1.5
v -1.9 -1.7 1.3
v -1.9 0.5 1.5
v -1.9 0.5 1.3
v -1.9 0.7 1.5
v -1.9 0.7 1.3
v -1.9 1.5 1.5
v -1.9 1.5 1.3
v -1.3 1.1 1.7
v -1.3 1.1 1.5
v -1.3 1.3 1.7
v -1.3 1.3 1.5
v -0.3 -1.5 1.5
v -0.3 -1.5 1.3
v -0.3 -1.3 1.3
v -0.3 -1.1 1.3
v -0.3 -0.9 1.3
v -0.3 -0.7 1.3
v -0.3 -0.5 1.3
v -0.3 -0.3 1.3
v -0.3 -0.1 1.3
v -0.3 0.1 1.3
v -0.3 0.3 1.5
v -0.3 0.3 1.3
v 0.0999999 -1.7 1.5
v 0.0999999 -1.7 1.3
v 0.0999999 0.5 1.5
v 0.0999999 0.5 1.3
v 0.0999999 0.7 1.5
v 0.0999999 0.7 1.3
v 0.0999999 1.5 1.5
v 0.0999999 1.5 1.3
v 0.7 1.1 1.7
v 0.7 1.1 1.5
v 0.7 1.3 1.7
v 0.7 1.3 1.5
v 1.7 -1.5 1.5
v 1.7 -1.5 1.3
v 1.7 -1.3 1.3
v 1.7 -1.1 1.3
v 1.7 -0.9 1.3
v 1.7 -0.7 1.3
v 1.7 -0.5 1.3
v 1.7 -0.3 1.3
v 1.7 -0.1 1.3
v 1.7 0.1 1.3
v 1.7 0.3 1.5
v 1.7 0.3 1.3
v -1.7 -1.5 1.5
v -1.7 -1.5 1.3
v -1.7 -1.3 1.3
v -1.7 -1.1 1.3
v -1.7 -0.9 1.3
v -1.7 -0.7 1.3
v -1.7 -0.5 1.3
v -1.7 -0.3 1.3
v -1.7 -0.1 1.3
v -1.7 0.1 1.3
v -1.7 0.3 1.5
v -1.7 0.3 1.3
v -0.7 1.1 1.7
v -0.7 1.1 1.5
v -0.7 1.3 1.7
v -0.7 1.3 1.5
v -0.0999999 -1.7 1.5
v -0.0999999 -1.7 1.3
v -0.0999999 0.5 1.5
v -0.0999999 0.5 1.3
v -0.0999999 0.7 1.5
v -0.0999999 0.7 1.3
v -0.0999999 1.5 1.5
v -0.0999999 1.5 1.3
v 0.3 -1.5 1.5
v 0.3 -1.5 1.3
v 0.3 -1.3 1.3
v 0.3 -1.1 1.3
v 0.3 -0.9 1.3
v 0.3 -0.7 1.3
v 0.3 -0.5 1.3
v 0.3 -0.3 1.3
v 0.3 -0.1 1.3
v 0.3 0.1 1.3
v 0.3 0.3 1.5
v 0.3 0.3 1.3
v 1.3 1.1 1.7
v 1.3 1.1 1.5
v 1.3 1.3 1.7
v 1.3 1.3 1.5
v 1.9 -1.7 1.5
v 1.9 -1.7 1.3
v 1.9 0.5 1.5
v 1.9 0.5 1.3
v 1.9 0.7 1.5
v 1.9 0.7 1.3
v 1.9 1.5 1.5
v 1.9 1.5 1.3
v 2.1 -1.9 1.3
v 2.1 -1.9 -1.7
v 2.1 2 1.3
v 2.1 2 -1.7
v -1.3 1.1 1.7
v -1.3 1.3 1.7
v -0.7 1.1 1.7
v -0.7 1.3 1.7
v 0.7 1.1 1.7
v 0.7 1.3 1.7
v 1.3 1.1 1.7
v 1.3 1.3 1.7
v -1.9 -1.7 1.5
v -1.9 0.5 1.5
v -1.9 0.7 1.5
v -1.9 1.5 1.5
v -1.7 -1.5 1.5
v -1.7 0.3 1.5
v -1.3 1.1 1.5
v -1.3 1.3 1.5
v -0.7 1.1 1.5
v -0.7 1.3 1.5
v -0.3 -1.5 1.5
v -0.3 0.3 1.5
v -0.0999999 -1.7 1.5
v -0.0999999 0.5 1.5
v -0.0999999 0.7 1.5
v -0.0999999 1.5 1.5
v 0.0999999 -1.7 1.5
v 0.0999999 0.5 1.5
v 0.0999999 0.7 1.5
v 0.0999999 1.5 1.5
v 0.3 -1.5 1.5
v 0.3 0.3 1.5
v 0.7 1.1 1.5
v 0.7 1.3 1.5
v 1.3 1.1 1.5
v 1.3 1.3 1.5
v 1.7 -1.5 1.5
v 1.7 0.3 1.5
v 1.9 -1.7 1.5
v 1.9 0.5 1.5
v 1.9 0.7 1.5
v 1.9 1.5 1.5
v -2.1 -1.9 1.3
v -2.1 2 1.3
v -1.9 -1.7 1.3
v -1.9 0.5 1.3
v -1.9 0.7 1.3
v -1.9 1.5 1.3
v -1.7 -1.5 1.3
v -1.7 -1.3 1.3
v -1.7 -1.1 1.3
v -1.7 -0.9 1.3
v -1.7 -0.7 1.3
v -1.7 -0.5 1.3
v -1.7 -0.3 1.3
v -1.7 -0.1 1.3
v -1.7 0.1 1.3
v -1.7 0.3 1.3
v -1.5 -1.5 1.3
v -1.5 -1.3 1.3
v -1.5 -1.1 1.3
v -1.5 -0.9 1.3
v -1.5 -0.7 1.3
v -1.5 -0.5 1.3
v -1.5 -0.3 1.3
v -1.5 -0.1 1.3
v -1.5 0.1 1.3
v -1.5 0.3 1.3
v -1.3 -1.5 1.3
v -1.3 -1.3 1.3
v -1.3 -1.1 1.3
v -1.3 -0.9 1.3
v -1.3 -0.7 1.3
v -1.3 -0.5 1.3
v -1.3 -0.3 1.3
v -1.3 -0.1 1.3
v -1.3 0.1 1.3
v -1.3 0.3 1.3
v -1.1 -1.5 1.3
v -1.1 -1.3 1.3
v -1.1 -1.1 1.3
v -1.1 -0.9 1.3
v -1.1 -0.7 1.3
v -1.1 -0.5 1.3
v -1.1 -0.3 1.3
v -1.1 -0.1 1.3
v -1.1 0.1 1.3
v -1.1 0.3 1.3
v -0.9 -1.5 1.3
v -0.9 -1.3 1.3
v -0.9 -1.1 1.3
v -0.9 -0.9 1.3
v -0.9 -0.7 1.3
v -0.9 -0.5 1.3
v -0.9 -0.3 1.3
v -0.9 -0.1 1.3
v -0.9 0.1 1.3
v -0.9 0.3 1.3
v -0.7 -1.5 1.3
v -0.7 -1.3 1.3
v -0.7 -1.1 1.3
v -0.7 -0.9 1.3
v -0.7 -0.7 1.3
v -0.7 -0.5 1.3
v -0.7 -0.3 1.3
v -0.7 -0.1 1.3
v -0.7 0.1 1.3
v -0.7 0.3 1.3
v -0.5 -1.5 1.3
v -0.5 -1.3 1.3
v -0.5 -1.1 1.3
v -0.5 -0.9 1.3
v -0.5 -0.7 1.3
v -0.5 -0.5 1.3
v -0.5 -0.3 1.3
v -0.5 -0.1 1.3
v -0.5 0.1 1.3
v -0.5 0.3 1.3
v -0.3 -1.5 1.3
v -0.3 -1.3 1.3
v -0.3 -1.1 1.3
v -0.3 -0.9 1.3
v -0.3 -0.7 1.3
v -0.3 -0.5 1.3
v -0.3 -0.3 1.3
v -0.3 -0.1 1.3
v -0.3 0.1 1.3
v -0.3 0.3 1.3
v -0.0999999 -1.7 1.3
v -0.0999999 0.5 1.3
v -0.0999999 0.7 1.3
v -0.0999999 1.5 1.3
v 0.0999999 -1.7 1.3
v 0.0999999 0.5 1.3
v 0.0999999 0.7 1.3
v 0.0999999 1.5 1.3
v 0.3 -1.5 1.3
v 0.3 -1.3 1.3
v 0.3 -1.1 1.3
v 0.3 -0.9 1.3
v 0.3 -0.7 1.3
v 0.3 -0.5 1.3
v 0.3 -0.3 1.3
v 0.3 -0.1 1.3
v 0.3 0.1 1.3
v 0.3 0.3 1.3
v 0.5 -1.5 1.3
v 0.5 -1.3 1.3
v 0.5 -1.1 1.3
v 0.5 -0.9 1.3
v 0.5 -0.7 1.3
v 0.5 -0.5 1.3
v 0.5 -0.3 1.3
v 0.5 -0.1 1.3
v 0.5 0.1 1.3
v 0.5 0.3 1.3
v 0.7 -1.5 1.3
v 0.7 -1.3 1.3
v 0.7 -1.1 1.3
v 0.7 -0.9 1.3
v 0.7 -0.7 1.3
v 0.7 -0.5 1.3
v 0.7 -0.3 1.3
v 0.7 -0.1 1.3
v 0.7 0.1 1.3
v 0.7 0.3 1.3
v 0.9 -1.5 1.3
v 0.9 -1.3 1.3
v 0.9 -1.1 1.3
v 0.9 -0.9 1.3
v 0.9 -0.7 1.3
v 0.9 -0.5 1.3
v 0.9 -0.3 1.3
v 0.9 -0.1 1.3
v 0.9 0.1 1.3
v 0.9 0.3 1.3
v 1.1 -1.5 1.3
v 1.1 -1.3 1.3
v 1.1 -1.1 1.3
v 1.1 -0.9 1.3
v 1.1 -0.7 1.3
v 1.1 -0.5 1.3
v 1.1 -0.3 1.3
v 1.1 -0.1 1.3
v 1.1 0.1 1.3
v 1.1 0.3 1.3
v 1.3 -1.5 1.3
v 1.3 -1.3 1.3
v 1.3 -1.1 1.3
v 1.3 -0.9 1.3
v 1.3 -0.7 1.3
v 1.3 -0.5 1.3
v 1.3 -0.3 1.3
v 1.3 -0.1 1.3
v 1.3 0.1 1.3
v 1.3 0.3 1.3
v 1.5 -1.5 1.3
v 1.5 -1.3 1.3
v 1.5 -1.1 1.3
v 1.5 -0.9 1.3
v 1.5 -0.7 1.3
v 1.5 -0.5 1.3
v 1.5 -0.3 1.3
v 1.5 -0.1 1.3
v 1.5 0.1 1.3
v 1.5 0.3 1.3
v 1.7 -1.5 1.3
v 1.7 -1.3 1.3
v 1.7 -1.1 1.3
v 1.7 -0.9 1.3
v 1.7 -0.7 1.3
v 1.7 -0.5 1.3
v 1.7 -0.3 1.3
v 1.7 -0.1 1.3
v 1.7 0.1 1.3
v 1.7 0.3 1.3
v 1.9 -1.7 1.3
v 1.9 0.5 1.3
v 1.9 0.7 1.3
v 1.9 1.5 1.3
v 2.1 -1.9 1.3
v 2.1 2 1.3
v -2.1 -1.9 -1.7
v -2.1 2 -1.7
v -2 -1.8 -1.7
v -2 1.6 -1.7
v 2 -1.8 -1.7
v 2 1.6 -1.7
v 2.1 -1.9 -1.7
v 2.1 2 -1.7
v -2.1 -1.9 1.3
v 2.1 -1.9 1.3
v -2.1 -1.9 -1.7
v 2.1 -1.9 -1.7
v -1.9 -1.7 1.5
v -0.0999999 -1.7 1.5
v 0.0999999 -1.7 1.5
v 1.9 -1.7 1.5
v -1.9 -1.7 1.3
v -0.0999999 -1.7 1.3
v 0.0999999 -1.7 1.3
v 1.9 -1.7 1.3
v -1.7 0.3 1.5
v -0.3 0.3 1.5
v 0.3 0.3 1.5
v 1.7 0.3 1.5
v -1.7 0.3 1.3
v -1.5 0.3 1.3
v -1.3 0.3 1.3
v -1.1 0.3 1.3
v -0.9 0.3 1.3
v -0.7 0.3 1.3
v -0.5 0.3 1.3
v -0.3 0.3 1.3
v 0.3 0.3 1.3
v 0.5 0.3 1.3
v 0.7 0.3 1.3
v 0.9 0.3 1.3
v 1.1 0.3 1.3
v 1.3 0.3 1.3
v 1.5 0.3 1.3
v 1.7 0.3 1.3
v -1.9 0.7 1.5
v -0.0999999 0.7 1.5
v 0.0999999 0.7 1.5
v 1.9 0.7 1.5
v -1.9 0.7 1.3
v -0.0999999 0.7 1.3
v 0.0999999 0.7 1.3
v 1.9 0.7 1.3
v -1.3 1.1 1.7
v -0.7 1.1 1.7
v 0.7 1.1 1.7
v 1.3 1.1 1.7
v -1.3 1.1 1.5
v -0.7 1.1 1.5
v 0.7 1.1 1.5
v 1.3 1.1 1.5
v -1.7 -1.5 1.5
v -0.3 -1.5 1.5
v 0.3 -1.5 1.5
v 1.7 -1.5 1.5
v -1.7 -1.5 1.3
v -1.5 -1.5 1.3
v -1.3 -1.5 1.3
v -1.1 -1.5 1.3
v -0.9 -1.5 1.3
v -0.7 -1.5 1.3
v -0.5 -1.5 1.3
v -0.3 -1.5 1.3
v 0.3 -1.5 1.3
v 0.5 -1.5 1.3
v 0.7 -1.5 1.3
v 0.9 -1.5 1.3
v 1.1 -1.5 1.3
v 1.3 -1.5 1.3
v 1.5 -1.5 1.3
v 1.7 -1.5 1.3
v -1.9 0.5 1.5
v -0.0999999 0.5 1.5
v 0.0999999 0.5 1.5
v 1.9 0.5 1.5
v -1.9 0.5 1.3
v -0.0999999 0.5 1.3
v 0.0999999 0.5 1.3
v 1.9 0.5 1.3
v -1.3 1.3 1.7
v -0.7 1.3 1.7
v 0.7 1.3 1.7
v 1.3 1.3 1.7
v -1.3 1.3 1.5
v -0.7 1.3 1.5
v 0.7 1.3 1.5
v 1.3 1.3 1.5
v -1.9 1.5 1.5
v -0.0999999 1.5 1.5
v 0.0999999 1.5 1.5
v 1.9 1.5 1.5
v -1.9 1.5 1.3
v -0.0999999 1.5 1.3
v 0.0999999 1.5 1.3
v 1.9 1.5 1.3
v -2.1 2 1.3
v 2.1 2 1.3
v -2.1 2 -1.7
v 2.1 2 -1.7

# faces
f 3/3/1 2/3/1 1/3/1
f 4/3/1 2/3/1 3/3/1
f 7/1/1 6/1/1 5/1/1
f 8/1/1 6/1/1 7/1/1
f 11/1/1 10/1/1 9/1/1
f 12/1/1 10/1/1 11/1/1
f 15/2/1 14/2/1 13/2/1
f 16/2/1 14/2/1 15/2/1
f 19/1/1 18/1/1 17/1/1
f 20/1/1 19/1/1 17/1/1
f 21/1/1 20/1/1 17/1/1
f 22/1/1 21/1/1 17/1/1
f 23/1/1 22/1/1 17/1/1
f 24/1/1 23/1/1 17/1/1
f 25/1/1 24/1/1 17/1/1
f 26/1/1 25/1/1 17/1/1
f 27/1/1 26/1/1 17/1/1
f 28/1/1 26/1/1 27/1/1
f 31/1/1 30/1/1 29/1/1
f 32/1/1 30/1/1 31/1/1
f 35/1/1 34/1/1 33/1/1
f 36/1/1 34/1/1 35/1/1
f 39/2/1 38/2/1 37/2/1
f 40/2/1 38/2/1 39/2/1
f 43/1/1 42/1/1 41/1/1
f 44/1/1 43/1/1 41/1/1
f 45/1/1 44/1/1 41/1/1
f 46/1/1 45/1/1 41/1/1
f 47/1/1 46/1/1 41/1/1
f 48/1/1 47/1/1 41/1/1
f 49/1/1 48/1/1 41/1/1
f 50/1/1 49/1/1 41/1/1
f 51/1/1 50/1/1 41/1/1
f 52/1/1 50/1/1 51/1/1
f 53/1/2 54/1/2 55/1/2
f 53/1/2 55/1/2 56/1/2
f 53/1/2 56/1/2 57/1/2
f 53/1/2 57/1/2 58/1/2
f 53/1/2 58/1/2 59/1/2
f 53/1/2 59/1/2 60/1/2
f 53/1/2 60/1/2 61/1/2
f 53/1/2 61/1/2 62/1/2
f 53/1/2 62/1/2 63/1/2
f 63/1/2 62/1/2 64/1/2
f 65/2/2 66/2/2 67/2/2
f 67/2/2 66/2/2 68/2/2
f 69/1/2 70/1/2 71/1/2
f 71/1/2 70/1/2 72/1/2
f 73/1/2 74/1/2 75/1/2
f 75/1/2 74/1/2 76/1/2
f 77/1/2 78/1/2 79/1/2
f 77/1/2 79/1/2 80/1/2
f 77/1/2 80/1/2 81/1/2
f 77/1/2 81/1/2 82/1/2
f 77/1/2 82/1/2 83/1/2
f 77/1/2 83/1/2 84/1/2
f 77/1/2 84/1/2 85/1/2
f 77/1/2 85/1/2 86/1/2
f 77/1/2 86/1/2 87/1/2
f 87/1/2 86/1/2 88/1/2
f 89/2/2 90/2/2 91/2/2
f 91/2/2 90/2/2 92/2/2
f 93/1/2 94/1/2 95/1/2
f 95/1/2 94/1/2 96/1/2
f 97/1/2 98/1/2 99/1/2
f 99/1/2 98/1/2 100/1/2
f 101/3/2 102/3/2 103/3/2
f 103/3/2 102/3/2 104/3/2
f 107/2/3 106/2/3 105/2/3
f 108/2/3 106/2/3 107/2/3
f 111/2/3 110/2/3 109/2/3
f 112/2/3 110/2/3 111/2/3
f 117/1/3 114/1/3 113/1/3
f 118/1/3 114/1/3 117/1/3
f 119/1/3 116/1/3 115/1/3
f 120/1/3 116/1/3 119/1/3
f 121/1/3 119/1/3 115/1/3
f 122/1/3 116/1/3 120/1/3
f 123/1/3 117/1/3 113/1/3
f 124/1/3 114/1/3 118/1/3
f 125/1/3 123/1/3 113/1/3
f 125/1/3 124/1/3 123/1/3
f 126/1/3 114/1/3 124/1/3
f 126/1/3 124/1/3 125/1/3
f 127/1/3 122/1/3 121/1/3
f 127/1/3 121/1/3 115/1/3
f 128/1/3 116/1/3 122/1/3
f 128/1/3 122/1/3 127/1/3
f 133/1/3 130/1/3 129/1/3
f 134/1/3 130/1/3 133/1/3
f 135/1/3 132/1/3 131/1/3
f 136/1/3 132/1/3 135/1/3
f 137/1/3 135/1/3 131/1/3
f 138/1/3 132/1/3 136/1/3
f 139/1/3 133/1/3 129/1/3
f 140/1/3 130/1/3 134/1/3
f 141/1/3 139/1/3 129/1/3
f 141/1/3 140/1/3 139/1/3
f 142/1/3 130/1/3 140/1/3
f 142/1/3 140/1/3 141/1/3
f 143/1/3 138/1/3 137/1/3
f 143/1/3 137/1/3 131/1/3
f 144/1/3 132/1/3 138/1/3
f 144/1/3 138/1/3 143/1/3
f 147/3/3 146/3/3 145/3/3
f 148/3/3 146/3/3 147/3/3
f 149/3/3 146/3/3 148/3/3
f 150/3/3 146/3/3 149/3/3
f 161/1/3 152/1/3 151/1/3
f 162/2/3 153/2/3 152/2/3
f 162/1/3 152/1/3 161/1/3
f 163/1/3 154/1/3 153/1/3
f 163/2/3 153/2/3 162/2/3
f 164/2/3 155/2/3 154/2/3
f 164/1/3 154/1/3 163/1/3
f 165/1/3 156/1/3 155/1/3
f 165/2/3 155/2/3 164/2/3
f 166/2/3 157/2/3 156/2/3
f 166/1/3 156/1/3 165/1/3
f 167/1/3 158/1/3 157/1/3
f 167/2/3 157/2/3 166/2/3
f 168/2/3 159/2/3 158/2/3
f 168/1/3 158/1/3 167/1/3
f 169/1/3 160/1/3 159/1/3
f 169/2/3 159/2/3 168/2/3
f 170/1/3 160/1/3 169/1/3
f 171/2/3 162/2/3 161/2/3
f 172/1/3 163/1/3 162/1/3
f 172/2/3 162/2/3 171/2/3
f 173/2/3 164/2/3 163/2/3
f 173/1/3 163/1/3 172/1/3
f 174/1/3 165/1/3 164/1/3
f 174/2/3 164/2/3 173/2/3
f 175/2/3 166/2/3 165/2/3
f 175/1/3 165/1/3 174/1/3
f 176/1/3 167/1/3 166/1/3
f 176/2/3 166/2/3 175/2/3
f 177/2/3 168/2/3 167/2/3
f 177/1/3 167/1/3 176/1/3
f 178/1/3 169/1/3 168/1/3
f 178/2/3 168/2/3 177/2/3
f 179/2/3 170/2/3 169/2/3
f 179/1/3 169/1/3 178/1/3
f 180/2/3 170/2/3 179/2/3
f 181/1/3 172/1/3 171/1/3
f 182/2/3 173/2/3 172/2/3
f 182/1/3 172/1/3 181/1/3
f 183/1/3 174/1/3 173/1/3
f 183/2/3 173/2/3 182/2/3
f 184/2/3 175/2/3 174/2/3
f 184/1/3 174/1/3 183/1/3
f 185/1/3 176/1/3 175/1/3
f 185/2/3 175/2/3 184/2/3
f 186/2/3 177/2/3 176/2/3
f 186/1/3 176/1/3 185/1/3
f 187/1/3 178/1/3 177/1/3
f 187/2/3 177/2/3 186/2/3
f 188/2/3 179/2/3 178/2/3
f 188/1/3 178/1/3 187/1/3
f 189/1/3 180/1/3 179/1/3
f 189/2/3 179/2/3 188/2/3
f 190/1/3 180/1/3 189/1/3
f 191/2/3 182/2/3 181/2/3
f 192/1/3 183/1/3 182/1/3
f 192/2/3 182/2/3 191/2/3
f 193/2/3 184/2/3 183/2/3
f 193/1/3 183/1/3 192/1/3
f 194/1/3 185/1/3 184/1/3
f 194/2/3 184/2/3 193/2/3
f 195/2/3 186/2/3 185/2/3
f 195/1/3 185/1/3 194/1/3
f 196/1/3 187/1/3 186/1/3
f 196/2/3 186/2/3 195/2/3
f 197/2/3 188/2/3 187/2/3
f 197/1/3 187/1/3 196/1/3
f 198/1/3 189/1/3 188/1/3
f 198/2/3 188/2/3 197/2/3
f 199/2/3 190/2/3 189/2/3
f 199/1/3 189/1/3 198/1/3
f 200/2/3 190/2/3 199/2/3
f 201/1/3 192/1/3 191/1/3
f 202/2/3 193/2/3 192/2/3
f 202/1/3 192/1/3 201/1/3
f 203/1/3 194/1/3 193/1/3
f 203/2/3 193/2/3 202/2/3
f 204/2/3 195/2/3 194/2/3
f 204/1/3 194/1/3 203/1/3
f 205/1/3 196/1/3 195/1/3
f 205/2/3 195/2/3 204/2/3
f 206/2/3 197/2/3 196/2/3
f 206/1/3 196/1/3 205/1/3
f 207/1/3 198/1/3 197/1/3
f 207/2/3 197/2/3 206/2/3
f 208/2/3 199/2/3 198/2/3
f 208/1/3 198/1/3 207/1/3
f 209/1/3 200/1/3 199/1/3
f 209/2/3 199/2/3 208/2/3
f 210/1/3 200/1/3 209/1/3
f 211/2/3 202/2/3 201/2/3
f 212/1/3 203/1/3 202/1/3
f 212/2/3 202/2/3 211/2/3
f 213/2/3 204/2/3 203/2/3
f 213/1/3 203/1/3 212/1/3
f 214/1/3 205/1/3 204/1/3
f 214/2/3 204/2/3 213/2/3
f 215/2/3 206/2/3 205/2/3
f 215/1/3 205/1/3 214/1/3
f 216/1/3 207/1/3 206/1/3
f 216/2/3 206/2/3 215/2/3
f 217/2/3 208/2/3 207/2/3
f 217/1/3 207/1/3 216/1/3
f 218/1/3 209/1/3 208/1/3
f 218/2/3 208/2/3 217/2/3
f 219/2/3 210/2/3 209/2/3
f 219/1/3 209/1/3 218/1/3
f 220/2/3 210/2/3 219/2/3
f 221/1/3 212/1/3 211/1/3
f 222/2/3 213/2/3 212/2/3
f 222/1/3 212/1/3 221/1/3
f 223/1/3 214/1/3 213/1/3
f 223/2/3 213/2/3 222/2/3
f 224/2/3 215/2/3 214/2/3
f 224/1/3 214/1/3 223/1/3
f 225/1/3 216/1/3 215/1/3
f 225/2/3 215/2/3 224/2/3
f 226/2/3 217/2/3 216/2/3
f 226/1/3 216/1/3 225/1/3
f 227/1/3 218/1/3 217/1/3
f 227/2/3 217/2/3 226/2/3
f 228/2/3 219/2/3 218/2/3
f 228/1/3 218/1/3 227/1/3
f 229/1/3 220/1/3 219/1/3
f 229/2/3 219/2/3 228/2/3
f 230/1/3 220/1/3 229/1/3
f 231/3/3 147/3/3 145/3/3
f 232/3/3 149/3/3 148/3/3
f 233/3/3 149/3/3 232/3/3
f 234/3/3 146/3/3 150/3/3
f 235/3/3 231/3/3 145/3/3
f 235/3/3 234/3/3 233/3/3
f 235/3/3 233/3/3 232/3/3
f 235/3/3 232/3/3 231/3/3
f 236/3/3 234/3/3 235/3/3
f 237/3/3 234/3/3 236/3/3
f 238/3/3 146/3/3 234/3/3
f 238/3/3 234/3/3 237/3/3
f 249/1/3 240/1/3 239/1/3
f 250/2/3 241/2/3 240/2/3
f 250/1/3 240/1/3 249/1/3
f 251/1/3 242/1/3 241/1/3
f 251/2/3 241/2/3 250/2/3
f 252/2/3 243/2/3 242/2/3
f 252/1/3 242/1/3 251/1/3
f 253/1/3 244/1/3 243/1/3
f 253/2/3 243/2/3 252/2/3
f 254/2/3 245/2/3 244/2/3
f 254/1/3 244/1/3 253/1/3
f 255/1/3 246/1/3 245/1/3
f 255/2/3 245/2/3 254/2/3
f 256/2/3 247/2/3 246/2/3
f 256/1/3 246/1/3 255/1/3
f 257/1/3 248/1/3 247/1/3
f 257/2/3 247/2/3 256/2/3
f 258/1/3 248/1/3 257/1/3
f 259/2/3 250/2/3 249/2/3
f 260/1/3 251/1/3 250/1/3
f 260/2/3 250/2/3 259/2/3
f 261/2/3 252/2/3 251/2/3
f 261/1/3 251/1/3 260/1/3
f 262/1/3 253/1/3 252/1/3
f 262/2/3 252/2/3 261/2/3
f 263/2/3 254/2/3 253/2/3
f 263/1/3 253/1/3 262/1/3
f 264/1/3 255/1/3 254/1/3
f 264/2/3 254/2/3 263/2/3
f 265/2/3 256/2/3 255/2/3
f 265/1/3 255/1/3 264/1/3
f 266/1/3 257/1/3 256/1/3
f 266/2/3 256/2/3 265/2/3
f 267/2/3 258/2/3 257/2/3
f 267/1/3 257/1/3 266/1/3
f 268/2/3 258/2/3 267/2/3
f 269/1/3 260/1/3 259/1/3
f 270/2/3 261/2/3 260/2/3
f 270/1/3 260/1/3 269/1/3
f 271/1/3 262/1/3 261/1/3
f 271/2/3 261/2/3 270/2/3
f 272/2/3 263/2/3 262/2/3
f 272/1/3 262/1/3 271/1/3
f 273/1/3 264/1/3 263/1/3
f 273/2/3 263/2/3 272/2/3
f 274/2/3 265/2/3 264/2/3
f 274/1/3 264/1/3 273/1/3
f 275/1/3 266/1/3 265/1/3
f 275/2/3 265/2/3 274/2/3
f 276/2/3 267/2/3 266/2/3
f 276/1/3 266/1/3 275/1/3
f 277/1/3 268/1/3 267/1/3
f 277/2/3 267/2/3 276/2/3
f 278/1/3 268/1/3 277/1/3
f 279/2/3 270/2/3 269/2/3
f 280/1/3 271/1/3 270/1/3
f 280/2/3 270/2/3 279/2/3
f 281/2/3 272/2/3 271/2/3
f 281/1/3 271/1/3 280/1/3
f 282/1/3 273/1/3 272/1/3
f 282/2/3 272/2/3 281/2/3
f 283/2/3 274/2/3 273/2/3
f 283/1/3 273/1/3 282/1/3
f 284/1/3 275/1/3 274/1/3
f 284/2/3 274/2/3 283/2/3
f 285/2/3 276/2/3 275/2/3
f 285/1/3 275/1/3 284/1/3
f 286/1/3 277/1/3 276/1/3
f 286/2/3 276/2/3 285/2/3
f 287/2/3 278/2/3 277/2/3
f 287/1/3 277/1/3 286/1/3
f 288/2/3 278/2/3 287/2/3
f 289/1/3 280/1/3 279/1/3
f 290/2/3 281/2/3 280/2/3
f 290/1/3 280/1/3 289/1/3
f 291/1/3 282/1/3 281/1/3
f 291/2/3 281/2/3 290/2/3
f 292/2/3 283/2/3 282/2/3
f 292/1/3 282/1/3 291/1/3
f 293/1/3 284/1/3 283/1/3
f 293/2/3 283/2/3 292/2/3
f 294/2/3 285/2/3 284/2/3
f 294/1/3 284/1/3 293/1/3
f 295/1/3 286/1/3 285/1/3
f 295/2/3 285/2/3 294/2/3
f 296/2/3 287/2/3 286/2/3
f 296/1/3 286/1/3 295/1/3
f 297/1/3 288/1/3 287/1/3
f 297/2/3 287/2/3 296/2/3
f 298/1/3 288/1/3 297/1/3
f 299/2/3 290/2/3 289/2/3
f 300/1/3 291/1/3 290/1/3
f 300/2/3 290/2/3 299/2/3
f 301/2/3 292/2/3 291/2/3
f 301/1/3 291/1/3 300/1/3
f 302/1/3 293/1/3 292/1/3
f 302/2/3 292/2/3 301/2/3
f 303/2/3 294/2/3 293/2/3
f 303/1/3 293/1/3 302/1/3
f 304/1/3 295/1/3 294/1/3
f 304/2/3 294/2/3 303/2/3
f 305/2/3 296/2/3 295/2/3
f 305/1/3 295/1/3 304/1/3
f 306/1/3 297/1/3 296/1/3
f 306/2/3 296/2/3 305/2/3
f 307/2/3 298/2/3 297/2/3
f 307/1/3 297/1/3 306/1/3
f 308/2/3 298/2/3 307/2/3
f 309/1/3 300/1/3 299/1/3
f 310/2/3 301/2/3 300/2/3
f 310/1/3 300/1/3 309/1/3
f 311/1/3 302/1/3 301/1/3
f 311/2/3 301/2/3 310/2/3
f 312/2/3 303/2/3 302/2/3
f 312/1/3 302/1/3 311/1/3
f 313/1/3 304/1/3 303/1/3
f 313/2/3 303/2/3 312/2/3
f 314/2/3 305/2/3 304/2/3
f 314/1/3 304/1/3 313/1/3
f 315/1/3 306/1/3 305/1/3
f 315/2/3 305/2/3 314/2/3
f 316/2/3 307/2/3 306/2/3
f 316/1/3 306/1/3 315/1/3
f 317/1/3 308/1/3 307/1/3
f 317/2/3 307/2/3 316/2/3
f 318/1/3 308/1/3 317/1/3
f 319/3/3 235/3/3 145/3/3
f 320/3/3 237/3/3 236/3/3
f 321/3/3 237/3/3 320/3/3
f 322/3/3 146/3/3 238/3/3
f 323/3/3 319/3/3 145/3/3
f 323/3/3 322/3/3 321/3/3
f 323/3/3 321/3/3 320/3/3
f 323/3/3 320/3/3 319/3/3
f 324/3/3 146/3/3 322/3/3
f 324/3/3 322/3/3 323/3/3
f 325/3/4 326/3/4 327/3/4
f 327/3/4 326/3/4 328/3/4
f 325/3/4 327/3/4 329/3/4
f 327/4/4 328/4/4 329/4/4
f 328/3/4 326/3/4 330/3/4
f 329/4/4 328/4/4 330/4/4
f 325/3/4 329/3/4 331/3/4
f 329/3/4 330/3/4 331/3/4
f 330/3/4 326/3/4 332/3/4
f 331/3/4 330/3/4 332/3/4
f 335/3/5 334/3/5 333/3/5
f 336/3/5 334/3/5 335/3/5
f 341/1/5 338/1/5 337/1/5
f 342/1/5 338/1/5 341/1/5
f 343/1/5 340/1/5 339/1/5
f 344/1/5 340/1/5 343/1/5
f 349/1/5 346/1/5 345/1/5
f 350/1/5 346/1/5 349/1/5
f 351/1/5 346/1/5 350/1/5
f 352/1/5 346/1/5 351/1/5
f 353/1/5 346/1/5 352/1/5
f 354/1/5 346/1/5 353/1/5
f 355/1/5 346/1/5 354/1/5
f 356/1/5 346/1/5 355/1/5
f 357/1/5 348/1/5 347/1/5
f 358/1/5 348/1/5 357/1/5
f 359/1/5 348/1/5 358/1/5
f 360/1/5 348/1/5 359/1/5
f 361/1/5 348/1/5 360/1/5
f 362/1/5 348/1/5 361/1/5
f 363/1/5 348/1/5 362/1/5
f 364/1/5 348/1/5 363/1/5
f 369/1/5 366/1/5 365/1/5
f 370/1/5 366/1/5 369/1/5
f 371/1/5 368/1/5 367/1/5
f 372/1/5 368/1/5 371/1/5
f 377/2/5 374/2/5 373/2/5
f 378/2/5 374/2/5 377/2/5
f 379/2/5 376/2/5 375/2/5
f 380/2/5 376/2/5 379/2/5
f 381/1/6 382/1/6 385/1/6
f 385/1/6 382/1/6 386/1/6
f 386/1/6 382/1/6 387/1/6
f 387/1/6 382/1/6 388/1/6
f 388/1/6 382/1/6 389/1/6
f 389/1/6 382/1/6 390/1/6
f 390/1/6 382/1/6 391/1/6
f 391/1/6 382/1/6 392/1/6
f 383/1/6 384/1/6 393/1/6
f 393/1/6 384/1/6 394/1/6
f 394/1/6 384/1/6 395/1/6
f 395/1/6 384/1/6 396/1/6
f 396/1/6 384/1/6 397/1/6
f 397/1/6 384/1/6 398/1/6
f 398/1/6 384/1/6 399/1/6
f 399/1/6 384/1/6 400/1/6
f 401/1/6 402/1/6 405/1/6
f 405/1/6 402/1/6 406/1/6
f 403/1/6 404/1/6 407/1/6
f 407/1/6 404/1/6 408/1/6
f 409/2/6 410/2/6 413/2/6
f 413/2/6 410/2/6 414/2/6
f 411/2/6 412/2/6 415/2/6
f 415/2/6 412/2/6 416/2/6
f 417/1/6 418/1/6 421/1/6
f 421/1/6 418/1/6 422/1/6
f 419/1/6 420/1/6 423/1/6
f 423/1/6 420/1/6 424/1/6
f 425/3/6 426/3/6 427/3/6
f 427/3/6 426/3/6 428/3/6
