# MagicaVoxel @ Ephtracy

# group
o 

# material
mtllib chertej-430.mtl
usemtl palette

# normals
vn 0 0 -1
vn 0 0 1
vn 1 0 0
vn -1 0 0
vn 0 -1 0
vn 0 1 0

# texcoords
vt 0.00976562 0.5
vt 0.0527344 0.5
vt 0.0566406 0.5
vt 0.958984 0.5

# verts
v 25.2 -0.1 13.4
v 19.2 -0.1 13.4
v 15.6 -0.1 13.4
v 15.6 7.9 13.4
v 13.2 7.9 13.4
v 25.2 9.9 13.4
v 19.2 9.9 13.4
v 13.2 9.9 13.4
v 25.2 -0.1 13.6
v 19.2 -0.1 13.6
v 15.6 -0.1 13.6
v 25.2 0.1 13.6
v 24.4 0.1 13.6
v 24.2 0.1 13.6
v 20.2 0.1 13.6
v 20 0.1 13.6
v 19.2 0.1 13.6
v 18.4 0.1 13.6
v 18.2 0.1 13.6
v 24.4 0.3 13.6
v 24.2 0.3 13.6
v 20.2 0.3 13.6
v 20 0.3 13.6
v 18.4 0.3 13.6
v 18.2 0.3 13.6
v 15.6 7.9 13.6
v 14 7.9 13.6
v 24.4 9.7 13.6
v 24.2 9.7 13.6
v 20.2 9.7 13.6
v 20 9.7 13.6
v 18.4 9.7 13.6
v 18.2 9.7 13.6
v 14.2 9.7 13.6
v 14 9.7 13.6
v 24.2 9.9 13.6
v 20.2 9.9 13.6
v 18.2 9.9 13.6
v 14.2 9.9 13.6
v 25.2 0.1 14.4
v 24.2 0.1 14.4
v 20.2 0.1 14.4
v 18.2 0.1 14.4
v 25.2 0.3 14.4
v 24.4 0.3 14.4
v 24.2 0.3 14.4
v 20.2 0.3 14.4
v 20 0.3 14.4
v 18.4 0.3 14.4
v 18.2 0.3 14.4
v 14 7.9 14.4
v 13.2 7.9 14.4
v 25.2 9.7 14.4
v 24.4 9.7 14.4
v 24.2 9.7 14.4
v 20.2 9.7 14.4
v 20 9.7 14.4
v 18.4 9.7 14.4
v 18.2 9.7 14.4
v 14.2 9.7 14.4
v 14 9.7 14.4
v 13.2 9.7 14.4
v 25.2 9.9 14.4
v 24.2 9.9 14.4
v 20.2 9.9 14.4
v 18.2 9.9 14.4
v 14.2 9.9 14.4
v 13.2 9.9 14.4
v 25.2 -0.1 13.4
v 25.2 9.9 13.4
v 25.2 -0.1 13.6
v 25.2 0.1 13.6
v 25.2 9.9 13.6
v 25.2 0.1 14.2
v 25.2 0.3 14.2
v 25.2 9.7 14.2
v 25.2 9.9 14.2
v 25.2 0.1 14.4
v 25.2 0.3 14.4
v 25.2 9.7 14.4
v 25.2 9.9 14.4
v 20.2 0.1 13.6
v 20.2 0.3 13.6
v 20.2 9.7 13.6
v 20.2 9.9 13.6
v 20.2 0.1 14.4
v 20.2 0.3 14.4
v 20.2 9.7 14.4
v 20.2 9.9 14.4
v 20 0.3 13.6
v 20 9.7 13.6
v 20 0.3 14.4
v 20 9.7 14.4
v 14.2 9.7 13.6
v 14.2 9.9 13.6
v 14.2 9.7 14.4
v 14.2 9.9 14.4
v 14 7.9 13.6
v 14 9.7 13.6
v 14 7.9 14.4
v 14 9.7 14.4
v 24.4 0.3 13.6
v 24.4 9.7 13.6
v 24.4 0.3 14.4
v 24.4 9.7 14.4
v 24.2 0.1 13.6
v 24.2 0.3 13.6
v 24.2 9.7 13.6
v 24.2 9.9 13.6
v 24.2 0.1 14.4
v 24.2 0.3 14.4
v 24.2 9.7 14.4
v 24.2 9.9 14.4
v 18.4 0.3 13.6
v 18.4 9.7 13.6
v 18.4 0.3 14.4
v 18.4 9.7 14.4
v 18.2 0.1 13.6
v 18.2 0.3 13.6
v 18.2 9.7 13.6
v 18.2 9.9 13.6
v 18.2 0.1 14.4
v 18.2 0.3 14.4
v 18.2 9.7 14.4
v 18.2 9.9 14.4
v 15.6 -0.1 13.4
v 15.6 7.9 13.4
v 15.6 -0.1 13.6
v 15.6 7.9 13.6
v 13.2 7.9 13.4
v 13.2 9.9 13.4
v 13.2 7.9 13.6
v 13.2 9.9 13.6
v 13.2 9.7 14.2
v 13.2 9.9 14.2
v 13.2 7.9 14.4
v 13.2 9.7 14.4
v 13.2 9.9 14.4
v 25.2 -0.1 13.4
v 25.2 -0.1 13.6
v 19.2 -0.1 13.4
v 19.2 -0.1 13.6
v 15.6 -0.1 13.4
v 15.6 -0.1 13.6
v 25.2 0.1 13.6
v 25.2 0.1 14.2
v 25.2 0.1 14.4
v 24.4 0.1 13.6
v 24.4 0.1 14.2
v 24.2 0.1 13.6
v 24.2 0.1 14.4
v 20.2 0.1 13.6
v 20.2 0.1 14.4
v 20 0.1 13.6
v 20 0.1 14.2
v 19.2 0.1 13.6
v 18.4 0.1 13.6
v 18.4 0.1 14.2
v 18.2 0.1 13.6
v 18.2 0.1 14.4
v 15.6 7.9 13.4
v 15.6 7.9 13.6
v 14 7.9 13.6
v 14 7.9 14.4
v 13.2 7.9 13.4
v 13.2 7.9 13.6
v 13.2 7.9 14.4
v 24.4 9.7 13.6
v 24.4 9.7 14.4
v 24.2 9.7 13.6
v 24.2 9.7 14.4
v 20.2 9.7 13.6
v 20.2 9.7 14.4
v 20 9.7 13.6
v 20 9.7 14.4
v 18.4 9.7 13.6
v 18.4 9.7 14.4
v 18.2 9.7 13.6
v 18.2 9.7 14.4
v 14.2 9.7 13.6
v 14.2 9.7 14.4
v 14 9.7 13.6
v 14 9.7 14.4
v 24.4 0.3 13.6
v 24.4 0.3 14.4
v 24.2 0.3 13.6
v 24.2 0.3 14.4
v 20.2 0.3 13.6
v 20.2 0.3 14.4
v 20 0.3 13.6
v 20 0.3 14.4
v 18.4 0.3 13.6
v 18.4 0.3 14.4
v 18.2 0.3 13.6
v 18.2 0.3 14.4
v 25.2 9.9 13.4
v 25.2 9.9 13.6
v 25.2 9.9 14.2
v 25.2 9.9 14.4
v 24.4 9.9 13.6
v 24.4 9.9 14.2
v 24.2 9.9 13.6
v 24.2 9.9 14.4
v 20.2 9.9 13.6
v 20.2 9.9 14.4
v 20 9.9 13.6
v 20 9.9 14.2
v 19.2 9.9 13.4
v 19.2 9.9 13.6
v 18.4 9.9 13.6
v 18.4 9.9 14.2
v 18.2 9.9 13.6
v 18.2 9.9 14.4
v 14.2 9.9 13.6
v 14.2 9.9 14.4
v 14 9.9 13.6
v 14 9.9 14.2
v 13.2 9.9 13.4
v 13.2 9.9 13.6
v 13.2 9.9 14.2
v 13.2 9.9 14.4

# faces
f 2/2/1 3/2/1 4/2/1
f 1/3/1 2/3/1 6/3/1
f 4/2/1 5/2/1 7/2/1
f 6/3/1 2/3/1 7/3/1
f 2/2/1 4/2/1 7/2/1
f 7/2/1 5/2/1 8/2/1
f 12/3/2 10/3/2 9/3/2
f 13/3/2 10/3/2 12/3/2
f 14/3/2 10/3/2 13/3/2
f 15/3/2 10/3/2 14/3/2
f 16/3/2 10/3/2 15/3/2
f 17/2/2 11/2/2 10/2/2
f 17/3/2 10/3/2 16/3/2
f 18/2/2 11/2/2 17/2/2
f 19/2/2 11/2/2 18/2/2
f 21/3/2 15/3/2 14/3/2
f 22/3/2 15/3/2 21/3/2
f 25/2/2 11/2/2 19/2/2
f 26/2/2 11/2/2 25/2/2
f 26/2/2 25/2/2 24/2/2
f 28/3/2 23/3/2 22/3/2
f 28/3/2 21/3/2 20/3/2
f 28/3/2 22/3/2 21/3/2
f 29/3/2 23/3/2 28/3/2
f 30/3/2 23/3/2 29/3/2
f 31/3/2 23/3/2 30/3/2
f 32/2/2 27/2/2 26/2/2
f 32/2/2 26/2/2 24/2/2
f 33/2/2 27/2/2 32/2/2
f 34/2/2 27/2/2 33/2/2
f 35/2/2 27/2/2 34/2/2
f 36/3/2 30/3/2 29/3/2
f 37/3/2 30/3/2 36/3/2
f 38/2/2 34/2/2 33/2/2
f 39/2/2 34/2/2 38/2/2
f 44/4/2 41/4/2 40/4/2
f 45/4/2 41/4/2 44/4/2
f 46/4/2 41/4/2 45/4/2
f 47/4/2 43/4/2 42/4/2
f 48/4/2 43/4/2 47/4/2
f 49/4/2 43/4/2 48/4/2
f 50/4/2 43/4/2 49/4/2
f 53/1/2 45/1/2 44/1/2
f 54/1/2 45/1/2 53/1/2
f 57/1/2 49/1/2 48/1/2
f 58/1/2 49/1/2 57/1/2
f 61/1/2 52/1/2 51/1/2
f 62/1/2 52/1/2 61/1/2
f 63/4/2 55/4/2 54/4/2
f 63/4/2 54/4/2 53/4/2
f 64/4/2 55/4/2 63/4/2
f 65/4/2 59/4/2 58/4/2
f 65/4/2 57/4/2 56/4/2
f 65/4/2 58/4/2 57/4/2
f 66/4/2 59/4/2 65/4/2
f 67/4/2 62/4/2 61/4/2
f 67/4/2 61/4/2 60/4/2
f 68/4/2 62/4/2 67/4/2
f 69/3/3 70/3/3 71/3/3
f 71/3/3 70/3/3 72/3/3
f 72/3/3 70/3/3 73/3/3
f 72/1/3 73/1/3 74/1/3
f 74/1/3 73/1/3 75/1/3
f 75/1/3 73/1/3 76/1/3
f 76/1/3 73/1/3 77/1/3
f 74/4/3 75/4/3 78/4/3
f 75/1/3 76/1/3 79/1/3
f 78/4/3 75/4/3 79/4/3
f 76/4/3 77/4/3 80/4/3
f 79/1/3 76/1/3 80/1/3
f 80/4/3 77/4/3 81/4/3
f 82/4/3 83/4/3 86/4/3
f 86/4/3 83/4/3 87/4/3
f 84/4/3 85/4/3 88/4/3
f 88/4/3 85/4/3 89/4/3
f 90/1/3 91/1/3 92/1/3
f 92/1/3 91/1/3 93/1/3
f 94/4/3 95/4/3 96/4/3
f 96/4/3 95/4/3 97/4/3
f 98/1/3 99/1/3 100/1/3
f 100/1/3 99/1/3 101/1/3
f 104/1/4 103/1/4 102/1/4
f 105/1/4 103/1/4 104/1/4
f 110/4/4 107/4/4 106/4/4
f 111/4/4 107/4/4 110/4/4
f 112/4/4 109/4/4 108/4/4
f 113/4/4 109/4/4 112/4/4
f 116/1/4 115/1/4 114/1/4
f 117/1/4 115/1/4 116/1/4
f 122/4/4 119/4/4 118/4/4
f 123/4/4 119/4/4 122/4/4
f 124/4/4 121/4/4 120/4/4
f 125/4/4 121/4/4 124/4/4
f 128/2/4 127/2/4 126/2/4
f 129/2/4 127/2/4 128/2/4
f 132/2/4 131/2/4 130/2/4
f 133/2/4 131/2/4 132/2/4
f 134/1/4 133/1/4 132/1/4
f 135/1/4 133/1/4 134/1/4
f 136/1/4 134/1/4 132/1/4
f 137/4/4 135/4/4 134/4/4
f 137/1/4 134/1/4 136/1/4
f 138/4/4 135/4/4 137/4/4
f 139/3/5 140/3/5 141/3/5
f 141/3/5 140/3/5 142/3/5
f 141/2/5 142/2/5 143/2/5
f 143/2/5 142/2/5 144/2/5
f 145/1/5 146/1/5 148/1/5
f 146/4/5 147/4/5 149/4/5
f 148/1/5 146/1/5 149/1/5
f 148/4/5 149/4/5 150/4/5
f 149/4/5 147/4/5 151/4/5
f 150/4/5 149/4/5 151/4/5
f 152/4/5 153/4/5 154/4/5
f 154/4/5 153/4/5 155/4/5
f 154/1/5 155/1/5 156/1/5
f 156/1/5 155/1/5 157/1/5
f 155/4/5 153/4/5 158/4/5
f 157/1/5 155/1/5 158/1/5
f 157/4/5 158/4/5 159/4/5
f 158/4/5 153/4/5 160/4/5
f 159/4/5 158/4/5 160/4/5
f 161/2/5 162/2/5 163/2/5
f 161/2/5 163/2/5 165/2/5
f 163/1/5 164/1/5 166/1/5
f 165/2/5 163/2/5 166/2/5
f 166/1/5 164/1/5 167/1/5
f 168/4/5 169/4/5 170/4/5
f 170/4/5 169/4/5 171/4/5
f 172/4/5 173/4/5 174/4/5
f 174/4/5 173/4/5 175/4/5
f 176/4/5 177/4/5 178/4/5
f 178/4/5 177/4/5 179/4/5
f 180/4/5 181/4/5 182/4/5
f 182/4/5 181/4/5 183/4/5
f 186/4/6 185/4/6 184/4/6
f 187/4/6 185/4/6 186/4/6
f 190/4/6 189/4/6 188/4/6
f 191/4/6 189/4/6 190/4/6
f 194/4/6 193/4/6 192/4/6
f 195/4/6 193/4/6 194/4/6
f 200/3/6 197/3/6 196/3/6
f 200/1/6 198/1/6 197/1/6
f 201/4/6 199/4/6 198/4/6
f 201/1/6 198/1/6 200/1/6
f 202/3/6 200/3/6 196/3/6
f 202/4/6 201/4/6 200/4/6
f 203/4/6 199/4/6 201/4/6
f 203/4/6 201/4/6 202/4/6
f 204/3/6 202/3/6 196/3/6
f 206/3/6 204/3/6 196/3/6
f 206/4/6 205/4/6 204/4/6
f 207/4/6 205/4/6 206/4/6
f 208/3/6 206/3/6 196/3/6
f 209/1/6 207/1/6 206/1/6
f 209/3/6 206/3/6 208/3/6
f 210/2/6 209/2/6 208/2/6
f 210/1/6 207/1/6 209/1/6
f 211/4/6 205/4/6 207/4/6
f 211/1/6 207/1/6 210/1/6
f 212/2/6 210/2/6 208/2/6
f 212/4/6 211/4/6 210/4/6
f 213/4/6 205/4/6 211/4/6
f 213/4/6 211/4/6 212/4/6
f 214/2/6 212/2/6 208/2/6
f 216/2/6 214/2/6 208/2/6
f 216/4/6 215/4/6 214/4/6
f 217/4/6 215/4/6 216/4/6
f 218/2/6 216/2/6 208/2/6
f 219/1/6 217/1/6 216/1/6
f 219/2/6 216/2/6 218/2/6
f 220/4/6 215/4/6 217/4/6
f 220/1/6 217/1/6 219/1/6
f 221/4/6 215/4/6 220/4/6
