# MagicaVoxel @ Ephtracy

# group
o 

# material
mtllib chertej-222.mtl
usemtl palette

# normals
vn 1 0 0
vn -1 0 0
vn 0 0 -1
vn 0 0 1
vn 0 -1 0
vn 0 1 0

# texcoords
vt 0.0292969 0.5
vt 0.0800781 0.5

# verts
v 24.9 0 -22.7
v 24.9 0 -21.8
v 24.9 0.1 -22.7
v 24.9 0.1 -21.8
v 13.1 0 -22.7
v 13.1 0 -21.8
v 13.1 0.1 -22.7
v 13.1 0.1 -21.8
v 24.9 0 -22.7
v 24.9 0.1 -22.7
v 22.1 0 -22.7
v 22.1 0.1 -22.7
v 19.2 0 -22.7
v 19.2 0.1 -22.7
v 16.2 0 -22.7
v 16.2 0.1 -22.7
v 13.1 0 -22.7
v 13.1 0.1 -22.7
v 24.9 0 -21.8
v 24.9 0.1 -21.8
v 22.1 0 -21.8
v 22.1 0.1 -21.8
v 19.2 0 -21.8
v 19.2 0.1 -21.8
v 16.2 0 -21.8
v 16.2 0.1 -21.8
v 13.1 0 -21.8
v 13.1 0.1 -21.8
v 24.9 0 -22.7
v 22.1 0 -22.7
v 19.2 0 -22.7
v 16.2 0 -22.7
v 13.1 0 -22.7
v 24.9 0 -21.8
v 22.1 0 -21.8
v 19.2 0 -21.8
v 16.2 0 -21.8
v 13.1 0 -21.8
v 24.9 0.1 -22.7
v 22.1 0.1 -22.7
v 19.2 0.1 -22.7
v 16.2 0.1 -22.7
v 13.1 0.1 -22.7
v 24.9 0.1 -21.8
v 22.1 0.1 -21.8
v 19.2 0.1 -21.8
v 16.2 0.1 -21.8
v 13.1 0.1 -21.8

# faces
f 3/2/1 2/2/1 1/2/1
f 4/2/1 2/2/1 3/2/1
f 5/1/2 6/1/2 7/1/2
f 7/1/2 6/1/2 8/1/2
f 11/2/3 10/2/3 9/2/3
f 12/2/3 10/2/3 11/2/3
f 13/1/3 12/1/3 11/1/3
f 14/1/3 12/1/3 13/1/3
f 15/2/3 14/2/3 13/2/3
f 16/2/3 14/2/3 15/2/3
f 17/1/3 16/1/3 15/1/3
f 18/1/3 16/1/3 17/1/3
f 19/2/4 20/2/4 21/2/4
f 21/2/4 20/2/4 22/2/4
f 21/1/4 22/1/4 23/1/4
f 23/1/4 22/1/4 24/1/4
f 23/2/4 24/2/4 25/2/4
f 25/2/4 24/2/4 26/2/4
f 25/1/4 26/1/4 27/1/4
f 27/1/4 26/1/4 28/1/4
f 34/2/5 30/2/5 29/2/5
f 35/1/5 31/1/5 30/1/5
f 35/2/5 30/2/5 34/2/5
f 36/2/5 32/2/5 31/2/5
f 36/1/5 31/1/5 35/1/5
f 37/1/5 33/1/5 32/1/5
f 37/2/5 32/2/5 36/2/5
f 38/1/5 33/1/5 37/1/5
f 39/2/6 40/2/6 44/2/6
f 40/1/6 41/1/6 45/1/6
f 44/2/6 40/2/6 45/2/6
f 41/2/6 42/2/6 46/2/6
f 45/1/6 41/1/6 46/1/6
f 42/1/6 43/1/6 47/1/6
f 46/2/6 42/2/6 47/2/6
f 47/1/6 43/1/6 48/1/6
