# MagicaVoxel @ Ephtracy

# group
o 

# material
mtllib outdoors-0.mtl
usemtl palette

# normals
vn -1 0 0
vn 1 0 0
vn 0 0 1
vn 0 0 -1
vn 0 -1 0
vn 0 1 0

# texcoords
vt 0.0371094 0.5
vt 0.505859 0.5
vt 0.876953 0.5
vt 0.982422 0.5

# verts
v -1 2.95 0.4
v -1 2.95 -0.4
v -1 3.05 0.4
v -1 3.05 -0.4
v -0.9 2.15 0.3
v -0.9 2.15 -0.3
v -0.9 2.25 0.2
v -0.9 2.25 -0.2
v -0.9 2.95 0.3
v -0.9 2.95 0.2
v -0.9 2.95 -0.2
v -0.9 2.95 -0.3
v -0.9 3.05 0.3
v -0.9 3.05 -0.3
v -0.9 3.15 0.3
v -0.9 3.15 -0.3
v -0.8 2.25 0.2
v -0.8 2.25 -0.2
v -0.8 2.95 0.2
v -0.8 2.95 -0.2
v -0.7 1.75 0.1
v -0.7 1.75 -0.1
v -0.7 2.15 0.1
v -0.7 2.15 -0.1
v -0.7 3.15 0.1
v -0.7 3.15 -0.1
v -0.7 3.35 0.1
v -0.7 3.35 -0.1
v -0.5 -3.35 0.5
v -0.5 -3.35 -0.5
v -0.5 -3.25 0.5
v -0.5 -3.25 -0.5
v -0.5 1.35 0.1
v -0.5 1.35 -0.1
v -0.5 1.75 0.1
v -0.5 1.75 -0.1
v -0.4 2.25 0.3
v -0.4 2.25 0.2
v -0.4 2.25 -0.2
v -0.4 2.25 -0.3
v -0.4 2.95 0.3
v -0.4 2.95 0.2
v -0.4 2.95 -0.2
v -0.4 2.95 -0.3
v -0.3 -3.25 0.3
v -0.3 -3.25 -0.3
v -0.3 -1.45 0.3
v -0.3 -1.45 -0.3
v -0.3 -1.25 0.3
v -0.3 -1.25 -0.3
v -0.1 -1.25 0.1
v -0.1 -1.25 -0.1
v -0.1 1.35 0.1
v -0.1 1.35 -0.1
v -0.1 1.55 0.1
v -0.1 1.55 -0.1
v -0.1 1.75 0.1
v -0.1 1.75 -0.1
v -0.1 1.95 0.1
v -0.1 1.95 -0.1
v -0.1 2.15 0.1
v -0.1 2.15 -0.1
v 0.2 2.95 0.4
v 0.2 2.95 -0.4
v 0.2 3.05 0.4
v 0.2 3.05 -0.4
v 0.3 1.55 0.1
v 0.3 1.55 -0.1
v 0.3 1.75 0.1
v 0.3 1.75 -0.1
v 0.3 2.15 0.3
v 0.3 2.15 -0.3
v 0.3 2.25 0.2
v 0.3 2.25 -0.2
v 0.3 2.95 0.3
v 0.3 2.95 0.2
v 0.3 2.95 -0.2
v 0.3 2.95 -0.3
v 0.3 3.05 0.3
v 0.3 3.05 -0.3
v 0.3 3.15 0.3
v 0.3 3.15 -0.3
v 0.4 2.25 0.2
v 0.4 2.25 -0.2
v 0.4 2.95 0.2
v 0.4 2.95 -0.2
v 0.5 1.95 0.1
v 0.5 1.95 -0.1
v 0.5 2.15 0.1
v 0.5 2.15 -0.1
v 0.5 3.15 0.1
v 0.5 3.15 -0.1
v 0.5 3.35 0.1
v 0.5 3.35 -0.1
v 0.8 2.25 0.3
v 0.8 2.25 0.2
v 0.8 2.25 -0.2
v 0.8 2.25 -0.3
v 0.8 2.95 0.3
v 0.8 2.95 0.2
v 0.8 2.95 -0.2
v 0.8 2.95 -0.3
v -0.8 2.25 0.3
v -0.8 2.25 0.2
v -0.8 2.25 -0.2
v -0.8 2.25 -0.3
v -0.8 2.95 0.3
v -0.8 2.95 0.2
v -0.8 2.95 -0.2
v -0.8 2.95 -0.3
v -0.5 1.95 0.1
v -0.5 1.95 -0.1
v -0.5 2.15 0.1
v -0.5 2.15 -0.1
v -0.5 3.15 0.1
v -0.5 3.15 -0.1
v -0.5 3.35 0.1
v -0.5 3.35 -0.1
v -0.4 2.25 0.2
v -0.4 2.25 -0.2
v -0.4 2.95 0.2
v -0.4 2.95 -0.2
v -0.3 1.55 0.1
v -0.3 1.55 -0.1
v -0.3 1.75 0.1
v -0.3 1.75 -0.1
v -0.3 2.15 0.3
v -0.3 2.15 -0.3
v -0.3 2.25 0.2
v -0.3 2.25 -0.2
v -0.3 2.95 0.3
v -0.3 2.95 0.2
v -0.3 2.95 -0.2
v -0.3 2.95 -0.3
v -0.3 3.05 0.3
v -0.3 3.05 -0.3
v -0.3 3.15 0.3
v -0.3 3.15 -0.3
v -0.2 2.95 0.4
v -0.2 2.95 -0.4
v -0.2 3.05 0.4
v -0.2 3.05 -0.4
v 0.1 -1.25 0.1
v 0.1 -1.25 -0.1
v 0.1 1.35 0.1
v 0.1 1.35 -0.1
v 0.1 1.55 0.1
v 0.1 1.55 -0.1
v 0.1 1.75 0.1
v 0.1 1.75 -0.1
v 0.1 1.95 0.1
v 0.1 1.95 -0.1
v 0.1 2.15 0.1
v 0.1 2.15 -0.1
v 0.3 -3.25 0.3
v 0.3 -3.25 -0.3
v 0.3 -1.45 0.3
v 0.3 -1.45 -0.3
v 0.3 -1.25 0.3
v 0.3 -1.25 -0.3
v 0.4 2.25 0.3
v 0.4 2.25 0.2
v 0.4 2.25 -0.2
v 0.4 2.25 -0.3
v 0.4 2.95 0.3
v 0.4 2.95 0.2
v 0.4 2.95 -0.2
v 0.4 2.95 -0.3
v 0.5 -3.35 0.5
v 0.5 -3.35 -0.5
v 0.5 -3.25 0.5
v 0.5 -3.25 -0.5
v 0.5 1.35 0.1
v 0.5 1.35 -0.1
v 0.5 1.75 0.1
v 0.5 1.75 -0.1
v 0.7 1.75 0.1
v 0.7 1.75 -0.1
v 0.7 2.15 0.1
v 0.7 2.15 -0.1
v 0.7 3.15 0.1
v 0.7 3.15 -0.1
v 0.7 3.35 0.1
v 0.7 3.35 -0.1
v 0.8 2.25 0.2
v 0.8 2.25 -0.2
v 0.8 2.95 0.2
v 0.8 2.95 -0.2
v 0.9 2.15 0.3
v 0.9 2.15 -0.3
v 0.9 2.25 0.2
v 0.9 2.25 -0.2
v 0.9 2.95 0.3
v 0.9 2.95 0.2
v 0.9 2.95 -0.2
v 0.9 2.95 -0.3
v 0.9 3.05 0.3
v 0.9 3.05 -0.3
v 0.9 3.15 0.3
v 0.9 3.15 -0.3
v 1 2.95 0.4
v 1 2.95 -0.4
v 1 3.05 0.4
v 1 3.05 -0.4
v -0.5 -3.35 0.5
v -0.5 -3.25 0.5
v 0.5 -3.35 0.5
v 0.5 -3.25 0.5
v -1 2.95 0.4
v -1 3.05 0.4
v -0.2 2.95 0.4
v -0.2 3.05 0.4
v 0.2 2.95 0.4
v 0.2 3.05 0.4
v 1 2.95 0.4
v 1 3.05 0.4
v -0.9 2.15 0.3
v -0.9 2.95 0.3
v -0.9 3.05 0.3
v -0.9 3.15 0.3
v -0.8 2.25 0.3
v -0.8 2.95 0.3
v -0.4 2.25 0.3
v -0.4 2.95 0.3
v -0.3 -3.25 0.3
v -0.3 -1.45 0.3
v -0.3 -1.25 0.3
v -0.3 2.15 0.3
v -0.3 2.95 0.3
v -0.3 3.05 0.3
v -0.3 3.15 0.3
v 0.3 -3.25 0.3
v 0.3 -1.45 0.3
v 0.3 -1.25 0.3
v 0.3 2.15 0.3
v 0.3 2.95 0.3
v 0.3 3.05 0.3
v 0.3 3.15 0.3
v 0.4 2.25 0.3
v 0.4 2.95 0.3
v 0.8 2.25 0.3
v 0.8 2.95 0.3
v 0.9 2.15 0.3
v 0.9 2.95 0.3
v 0.9 3.05 0.3
v 0.9 3.15 0.3
v -0.8 2.25 0.2
v -0.8 2.95 0.2
v -0.4 2.25 0.2
v -0.4 2.95 0.2
v 0.4 2.25 0.2
v 0.4 2.95 0.2
v 0.8 2.25 0.2
v 0.8 2.95 0.2
v -0.7 1.75 0.1
v -0.7 2.15 0.1
v -0.7 3.15 0.1
v -0.7 3.35 0.1
v -0.5 1.35 0.1
v -0.5 1.75 0.1
v -0.5 1.95 0.1
v -0.5 2.15 0.1
v -0.5 3.15 0.1
v -0.5 3.35 0.1
v -0.3 1.55 0.1
v -0.3 1.75 0.1
v -0.1 -1.25 0.1
v -0.1 1.35 0.1
v -0.1 1.55 0.1
v -0.1 1.75 0.1
v -0.1 1.95 0.1
v -0.1 2.15 0.1
v 0.1 -1.25 0.1
v 0.1 1.35 0.1
v 0.1 1.55 0.1
v 0.1 1.75 0.1
v 0.1 1.95 0.1
v 0.1 2.15 0.1
v 0.3 1.55 0.1
v 0.3 1.75 0.1
v 0.5 1.35 0.1
v 0.5 1.75 0.1
v 0.5 1.95 0.1
v 0.5 2.15 0.1
v 0.5 3.15 0.1
v 0.5 3.35 0.1
v 0.7 1.75 0.1
v 0.7 2.15 0.1
v 0.7 3.15 0.1
v 0.7 3.35 0.1
v -0.9 2.25 -0.2
v -0.9 2.95 -0.2
v -0.8 2.25 -0.2
v -0.8 2.95 -0.2
v -0.4 2.25 -0.2
v -0.4 2.95 -0.2
v -0.3 2.25 -0.2
v -0.3 2.95 -0.2
v 0.3 2.25 -0.2
v 0.3 2.95 -0.2
v 0.4 2.25 -0.2
v 0.4 2.95 -0.2
v 0.8 2.25 -0.2
v 0.8 2.95 -0.2
v 0.9 2.25 -0.2
v 0.9 2.95 -0.2
v -0.9 2.25 0.2
v -0.9 2.95 0.2
v -0.8 2.25 0.2
v -0.8 2.95 0.2
v -0.4 2.25 0.2
v -0.4 2.95 0.2
v -0.3 2.25 0.2
v -0.3 2.95 0.2
v 0.3 2.25 0.2
v 0.3 2.95 0.2
v 0.4 2.25 0.2
v 0.4 2.95 0.2
v 0.8 2.25 0.2
v 0.8 2.95 0.2
v 0.9 2.25 0.2
v 0.9 2.95 0.2
v -0.7 1.75 -0.1
v -0.7 2.15 -0.1
v -0.7 3.15 -0.1
v -0.7 3.35 -0.1
v -0.5 1.35 -0.1
v -0.5 1.75 -0.1
v -0.5 1.95 -0.1
v -0.5 2.15 -0.1
v -0.5 3.15 -0.1
v -0.5 3.35 -0.1
v -0.3 1.55 -0.1
v -0.3 1.75 -0.1
v -0.1 -1.25 -0.1
v -0.1 1.35 -0.1
v -0.1 1.55 -0.1
v -0.1 1.75 -0.1
v -0.1 1.95 -0.1
v -0.1 2.15 -0.1
v 0.1 -1.25 -0.1
v 0.1 1.35 -0.1
v 0.1 1.55 -0.1
v 0.1 1.75 -0.1
v 0.1 1.95 -0.1
v 0.1 2.15 -0.1
v 0.3 1.55 -0.1
v 0.3 1.75 -0.1
v 0.5 1.35 -0.1
v 0.5 1.75 -0.1
v 0.5 1.95 -0.1
v 0.5 2.15 -0.1
v 0.5 3.15 -0.1
v 0.5 3.35 -0.1
v 0.7 1.75 -0.1
v 0.7 2.15 -0.1
v 0.7 3.15 -0.1
v 0.7 3.35 -0.1
v -0.8 2.25 -0.2
v -0.8 2.95 -0.2
v -0.4 2.25 -0.2
v -0.4 2.95 -0.2
v 0.4 2.25 -0.2
v 0.4 2.95 -0.2
v 0.8 2.25 -0.2
v 0.8 2.95 -0.2
v -0.9 2.15 -0.3
v -0.9 2.95 -0.3
v -0.9 3.05 -0.3
v -0.9 3.15 -0.3
v -0.8 2.25 -0.3
v -0.8 2.95 -0.3
v -0.4 2.25 -0.3
v -0.4 2.95 -0.3
v -0.3 -3.25 -0.3
v -0.3 -1.45 -0.3
v -0.3 -1.25 -0.3
v -0.3 2.15 -0.3
v -0.3 2.95 -0.3
v -0.3 3.05 -0.3
v -0.3 3.15 -0.3
v 0.3 -3.25 -0.3
v 0.3 -1.45 -0.3
v 0.3 -1.25 -0.3
v 0.3 2.15 -0.3
v 0.3 2.95 -0.3
v 0.3 3.05 -0.3
v 0.3 3.15 -0.3
v 0.4 2.25 -0.3
v 0.4 2.95 -0.3
v 0.8 2.25 -0.3
v 0.8 2.95 -0.3
v 0.9 2.15 -0.3
v 0.9 2.95 -0.3
v 0.9 3.05 -0.3
v 0.9 3.15 -0.3
v -1 2.95 -0.4
v -1 3.05 -0.4
v -0.2 2.95 -0.4
v -0.2 3.05 -0.4
v 0.2 2.95 -0.4
v 0.2 3.05 -0.4
v 1 2.95 -0.4
v 1 3.05 -0.4
v -0.5 -3.35 -0.5
v -0.5 -3.25 -0.5
v 0.5 -3.35 -0.5
v 0.5 -3.25 -0.5
v -0.5 -3.35 0.5
v 0.5 -3.35 0.5
v -0.5 -3.35 -0.5
v 0.5 -3.35 -0.5
v -0.5 1.35 0.1
v -0.1 1.35 0.1
v 0.1 1.35 0.1
v 0.5 1.35 0.1
v -0.5 1.35 -0.1
v -0.1 1.35 -0.1
v 0.1 1.35 -0.1
v 0.5 1.35 -0.1
v -0.7 1.75 0.1
v -0.5 1.75 0.1
v -0.3 1.75 0.1
v -0.1 1.75 0.1
v 0.1 1.75 0.1
v 0.3 1.75 0.1
v 0.5 1.75 0.1
v 0.7 1.75 0.1
v -0.7 1.75 -0.1
v -0.5 1.75 -0.1
v -0.3 1.75 -0.1
v -0.1 1.75 -0.1
v 0.1 1.75 -0.1
v 0.3 1.75 -0.1
v 0.5 1.75 -0.1
v 0.7 1.75 -0.1
v -0.9 2.15 0.3
v -0.3 2.15 0.3
v 0.3 2.15 0.3
v 0.9 2.15 0.3
v -0.7 2.15 0.1
v -0.5 2.15 0.1
v 0.5 2.15 0.1
v 0.7 2.15 0.1
v -0.7 2.15 -0.1
v -0.5 2.15 -0.1
v 0.5 2.15 -0.1
v 0.7 2.15 -0.1
v -0.9 2.15 -0.3
v -0.3 2.15 -0.3
v 0.3 2.15 -0.3
v 0.9 2.15 -0.3
v -1 2.95 0.4
v -0.2 2.95 0.4
v 0.2 2.95 0.4
v 1 2.95 0.4
v -0.9 2.95 0.3
v -0.8 2.95 0.3
v -0.4 2.95 0.3
v -0.3 2.95 0.3
v 0.3 2.95 0.3
v 0.4 2.95 0.3
v 0.8 2.95 0.3
v 0.9 2.95 0.3
v -0.9 2.95 0.2
v -0.8 2.95 0.2
v -0.4 2.95 0.2
v -0.3 2.95 0.2
v 0.3 2.95 0.2
v 0.4 2.95 0.2
v 0.8 2.95 0.2
v 0.9 2.95 0.2
v -0.9 2.95 -0.2
v -0.8 2.95 -0.2
v -0.4 2.95 -0.2
v -0.3 2.95 -0.2
v 0.3 2.95 -0.2
v 0.4 2.95 -0.2
v 0.8 2.95 -0.2
v 0.9 2.95 -0.2
v -0.9 2.95 -0.3
v -0.8 2.95 -0.3
v -0.4 2.95 -0.3
v -0.3 2.95 -0.3
v 0.3 2.95 -0.3
v 0.4 2.95 -0.3
v 0.8 2.95 -0.3
v 0.9 2.95 -0.3
v -1 2.95 -0.4
v -0.2 2.95 -0.4
v 0.2 2.95 -0.4
v 1 2.95 -0.4
v -0.5 -3.25 0.5
v 0.5 -3.25 0.5
v -0.3 -3.25 0.3
v 0.3 -3.25 0.3
v -0.3 -3.25 -0.3
v 0.3 -3.25 -0.3
v -0.5 -3.25 -0.5
v 0.5 -3.25 -0.5
v -0.3 -1.25 0.3
v 0.3 -1.25 0.3
v -0.1 -1.25 0.1
v 0.1 -1.25 0.1
v -0.1 -1.25 -0.1
v 0.1 -1.25 -0.1
v -0.3 -1.25 -0.3
v 0.3 -1.25 -0.3
v -0.3 1.55 0.1
v -0.1 1.55 0.1
v 0.1 1.55 0.1
v 0.3 1.55 0.1
v -0.3 1.55 -0.1
v -0.1 1.55 -0.1
v 0.1 1.55 -0.1
v 0.3 1.55 -0.1
v -0.5 1.95 0.1
v -0.1 1.95 0.1
v 0.1 1.95 0.1
v 0.5 1.95 0.1
v -0.5 1.95 -0.1
v -0.1 1.95 -0.1
v 0.1 1.95 -0.1
v 0.5 1.95 -0.1
v -0.1 2.15 0.1
v 0.1 2.15 0.1
v -0.1 2.15 -0.1
v 0.1 2.15 -0.1
v -0.8 2.25 0.3
v -0.4 2.25 0.3
v 0.4 2.25 0.3
v 0.8 2.25 0.3
v -0.9 2.25 0.2
v -0.8 2.25 0.2
v -0.4 2.25 0.2
v -0.3 2.25 0.2
v 0.3 2.25 0.2
v 0.4 2.25 0.2
v 0.8 2.25 0.2
v 0.9 2.25 0.2
v -0.9 2.25 -0.2
v -0.8 2.25 -0.2
v -0.4 2.25 -0.2
v -0.3 2.25 -0.2
v 0.3 2.25 -0.2
v 0.4 2.25 -0.2
v 0.8 2.25 -0.2
v 0.9 2.25 -0.2
v -0.8 2.25 -0.3
v -0.4 2.25 -0.3
v 0.4 2.25 -0.3
v 0.8 2.25 -0.3
v -1 3.05 0.4
v -0.2 3.05 0.4
v 0.2 3.05 0.4
v 1 3.05 0.4
v -0.9 3.05 0.3
v -0.3 3.05 0.3
v 0.3 3.05 0.3
v 0.9 3.05 0.3
v -0.9 3.05 -0.3
v -0.3 3.05 -0.3
v 0.3 3.05 -0.3
v 0.9 3.05 -0.3
v -1 3.05 -0.4
v -0.2 3.05 -0.4
v 0.2 3.05 -0.4
v 1 3.05 -0.4
v -0.9 3.15 0.3
v -0.3 3.15 0.3
v 0.3 3.15 0.3
v 0.9 3.15 0.3
v -0.7 3.15 0.1
v -0.5 3.15 0.1
v 0.5 3.15 0.1
v 0.7 3.15 0.1
v -0.7 3.15 -0.1
v -0.5 3.15 -0.1
v 0.5 3.15 -0.1
v 0.7 3.15 -0.1
v -0.9 3.15 -0.3
v -0.3 3.15 -0.3
v 0.3 3.15 -0.3
v 0.9 3.15 -0.3
v -0.7 3.35 0.1
v -0.5 3.35 0.1
v 0.5 3.35 0.1
v 0.7 3.35 0.1
v -0.7 3.35 -0.1
v -0.5 3.35 -0.1
v 0.5 3.35 -0.1
v 0.7 3.35 -0.1

# faces
f 3/4/1 2/4/1 1/4/1
f 4/4/1 2/4/1 3/4/1
f 7/4/1 6/4/1 5/4/1
f 8/4/1 6/4/1 7/4/1
f 9/4/1 7/4/1 5/4/1
f 10/4/1 7/4/1 9/4/1
f 11/4/1 6/4/1 8/4/1
f 12/4/1 6/4/1 11/4/1
f 15/4/1 14/4/1 13/4/1
f 16/4/1 14/4/1 15/4/1
f 19/1/1 18/1/1 17/1/1
f 20/1/1 18/1/1 19/1/1
f 23/4/1 22/4/1 21/4/1
f 24/4/1 22/4/1 23/4/1
f 27/2/1 26/2/1 25/2/1
f 28/2/1 26/2/1 27/2/1
f 31/2/1 30/2/1 29/2/1
f 32/2/1 30/2/1 31/2/1
f 35/4/1 34/4/1 33/4/1
f 36/4/1 34/4/1 35/4/1
f 41/4/1 38/4/1 37/4/1
f 42/4/1 38/4/1 41/4/1
f 43/4/1 40/4/1 39/4/1
f 44/4/1 40/4/1 43/4/1
f 47/4/1 46/4/1 45/4/1
f 48/4/1 46/4/1 47/4/1
f 49/2/1 48/2/1 47/2/1
f 50/2/1 48/2/1 49/2/1
f 53/4/1 52/4/1 51/4/1
f 54/4/1 52/4/1 53/4/1
f 57/4/1 56/4/1 55/4/1
f 58/4/1 56/4/1 57/4/1
f 61/4/1 60/4/1 59/4/1
f 62/4/1 60/4/1 61/4/1
f 65/4/1 64/4/1 63/4/1
f 66/4/1 64/4/1 65/4/1
f 69/4/1 68/4/1 67/4/1
f 70/4/1 68/4/1 69/4/1
f 73/4/1 72/4/1 71/4/1
f 74/4/1 72/4/1 73/4/1
f 75/4/1 73/4/1 71/4/1
f 76/4/1 73/4/1 75/4/1
f 77/4/1 72/4/1 74/4/1
f 78/4/1 72/4/1 77/4/1
f 81/4/1 80/4/1 79/4/1
f 82/4/1 80/4/1 81/4/1
f 85/1/1 84/1/1 83/1/1
f 86/1/1 84/1/1 85/1/1
f 89/4/1 88/4/1 87/4/1
f 90/4/1 88/4/1 89/4/1
f 93/2/1 92/2/1 91/2/1
f 94/2/1 92/2/1 93/2/1
f 99/4/1 96/4/1 95/4/1
f 100/4/1 96/4/1 99/4/1
f 101/4/1 98/4/1 97/4/1
f 102/4/1 98/4/1 101/4/1
f 103/4/2 104/4/2 107/4/2
f 107/4/2 104/4/2 108/4/2
f 105/4/2 106/4/2 109/4/2
f 109/4/2 106/4/2 110/4/2
f 111/4/2 112/4/2 113/4/2
f 113/4/2 112/4/2 114/4/2
f 115/2/2 116/2/2 117/2/2
f 117/2/2 116/2/2 118/2/2
f 119/1/2 120/1/2 121/1/2
f 121/1/2 120/1/2 122/1/2
f 123/4/2 124/4/2 125/4/2
f 125/4/2 124/4/2 126/4/2
f 127/4/2 128/4/2 129/4/2
f 129/4/2 128/4/2 130/4/2
f 127/4/2 129/4/2 131/4/2
f 131/4/2 129/4/2 132/4/2
f 130/4/2 128/4/2 133/4/2
f 133/4/2 128/4/2 134/4/2
f 135/4/2 136/4/2 137/4/2
f 137/4/2 136/4/2 138/4/2
f 139/4/2 140/4/2 141/4/2
f 141/4/2 140/4/2 142/4/2
f 143/4/2 144/4/2 145/4/2
f 145/4/2 144/4/2 146/4/2
f 147/4/2 148/4/2 149/4/2
f 149/4/2 148/4/2 150/4/2
f 151/4/2 152/4/2 153/4/2
f 153/4/2 152/4/2 154/4/2
f 155/4/2 156/4/2 157/4/2
f 157/4/2 156/4/2 158/4/2
f 157/2/2 158/2/2 159/2/2
f 159/2/2 158/2/2 160/2/2
f 161/4/2 162/4/2 165/4/2
f 165/4/2 162/4/2 166/4/2
f 163/4/2 164/4/2 167/4/2
f 167/4/2 164/4/2 168/4/2
f 169/2/2 170/2/2 171/2/2
f 171/2/2 170/2/2 172/2/2
f 173/4/2 174/4/2 175/4/2
f 175/4/2 174/4/2 176/4/2
f 177/4/2 178/4/2 179/4/2
f 179/4/2 178/4/2 180/4/2
f 181/2/2 182/2/2 183/2/2
f 183/2/2 182/2/2 184/2/2
f 185/1/2 186/1/2 187/1/2
f 187/1/2 186/1/2 188/1/2
f 189/4/2 190/4/2 191/4/2
f 191/4/2 190/4/2 192/4/2
f 189/4/2 191/4/2 193/4/2
f 193/4/2 191/4/2 194/4/2
f 192/4/2 190/4/2 195/4/2
f 195/4/2 190/4/2 196/4/2
f 197/4/2 198/4/2 199/4/2
f 199/4/2 198/4/2 200/4/2
f 201/4/2 202/4/2 203/4/2
f 203/4/2 202/4/2 204/4/2
f 207/2/3 206/2/3 205/2/3
f 208/2/3 206/2/3 207/2/3
f 211/4/3 210/4/3 209/4/3
f 212/4/3 210/4/3 211/4/3
f 215/4/3 214/4/3 213/4/3
f 216/4/3 214/4/3 215/4/3
f 221/4/3 218/4/3 217/4/3
f 222/4/3 218/4/3 221/4/3
f 223/4/3 221/4/3 217/4/3
f 228/4/3 223/4/3 217/4/3
f 228/4/3 224/4/3 223/4/3
f 229/4/3 224/4/3 228/4/3
f 230/4/3 220/4/3 219/4/3
f 231/4/3 220/4/3 230/4/3
f 232/4/3 226/4/3 225/4/3
f 233/2/3 227/2/3 226/2/3
f 233/4/3 226/4/3 232/4/3
f 234/2/3 227/2/3 233/2/3
f 239/4/3 236/4/3 235/4/3
f 240/4/3 236/4/3 239/4/3
f 241/4/3 239/4/3 235/4/3
f 243/4/3 241/4/3 235/4/3
f 243/4/3 242/4/3 241/4/3
f 244/4/3 242/4/3 243/4/3
f 245/4/3 238/4/3 237/4/3
f 246/4/3 238/4/3 245/4/3
f 249/1/3 248/1/3 247/1/3
f 250/1/3 248/1/3 249/1/3
f 253/1/3 252/1/3 251/1/3
f 254/1/3 252/1/3 253/1/3
f 260/4/3 256/4/3 255/4/3
f 261/4/3 256/4/3 260/4/3
f 262/4/3 256/4/3 261/4/3
f 263/2/3 258/2/3 257/2/3
f 264/2/3 258/2/3 263/2/3
f 265/4/3 260/4/3 259/4/3
f 265/4/3 261/4/3 260/4/3
f 266/4/3 261/4/3 265/4/3
f 268/4/3 265/4/3 259/4/3
f 269/4/3 265/4/3 268/4/3
f 270/4/3 261/4/3 266/4/3
f 271/4/3 261/4/3 270/4/3
f 273/4/3 269/4/3 268/4/3
f 273/4/3 268/4/3 267/4/3
f 273/4/3 270/4/3 269/4/3
f 274/4/3 270/4/3 273/4/3
f 275/4/3 270/4/3 274/4/3
f 276/2/3 271/2/3 270/2/3
f 276/4/3 270/4/3 275/4/3
f 277/4/3 272/4/3 271/4/3
f 277/2/3 271/2/3 276/2/3
f 278/4/3 272/4/3 277/4/3
f 279/4/3 275/4/3 274/4/3
f 280/4/3 277/4/3 276/4/3
f 281/4/3 279/4/3 274/4/3
f 281/4/3 280/4/3 279/4/3
f 282/4/3 277/4/3 280/4/3
f 282/4/3 280/4/3 281/4/3
f 283/4/3 277/4/3 282/4/3
f 287/4/3 284/4/3 283/4/3
f 287/4/3 283/4/3 282/4/3
f 288/4/3 284/4/3 287/4/3
f 289/2/3 286/2/3 285/2/3
f 290/2/3 286/2/3 289/2/3
f 293/4/3 292/4/3 291/4/3
f 294/4/3 292/4/3 293/4/3
f 297/4/3 296/4/3 295/4/3
f 298/4/3 296/4/3 297/4/3
f 301/4/3 300/4/3 299/4/3
f 302/4/3 300/4/3 301/4/3
f 305/4/3 304/4/3 303/4/3
f 306/4/3 304/4/3 305/4/3
f 307/4/4 308/4/4 309/4/4
f 309/4/4 308/4/4 310/4/4
f 311/4/4 312/4/4 313/4/4
f 313/4/4 312/4/4 314/4/4
f 315/4/4 316/4/4 317/4/4
f 317/4/4 316/4/4 318/4/4
f 319/4/4 320/4/4 321/4/4
f 321/4/4 320/4/4 322/4/4
f 323/4/4 324/4/4 328/4/4
f 328/4/4 324/4/4 329/4/4
f 329/4/4 324/4/4 330/4/4
f 325/2/4 326/2/4 331/2/4
f 331/2/4 326/2/4 332/2/4
f 327/4/4 328/4/4 333/4/4
f 328/4/4 329/4/4 333/4/4
f 333/4/4 329/4/4 334/4/4
f 327/4/4 333/4/4 336/4/4
f 336/4/4 333/4/4 337/4/4
f 334/4/4 329/4/4 338/4/4
f 338/4/4 329/4/4 339/4/4
f 336/4/4 337/4/4 341/4/4
f 335/4/4 336/4/4 341/4/4
f 337/4/4 338/4/4 341/4/4
f 341/4/4 338/4/4 342/4/4
f 342/4/4 338/4/4 343/4/4
f 338/2/4 339/2/4 344/2/4
f 343/4/4 338/4/4 344/4/4
f 339/4/4 340/4/4 345/4/4
f 344/2/4 339/2/4 345/2/4
f 345/4/4 340/4/4 346/4/4
f 342/4/4 343/4/4 347/4/4
f 344/4/4 345/4/4 348/4/4
f 342/4/4 347/4/4 349/4/4
f 347/4/4 348/4/4 349/4/4
f 348/4/4 345/4/4 350/4/4
f 349/4/4 348/4/4 350/4/4
f 350/4/4 345/4/4 351/4/4
f 351/4/4 352/4/4 355/4/4
f 350/4/4 351/4/4 355/4/4
f 355/4/4 352/4/4 356/4/4
f 353/2/4 354/2/4 357/2/4
f 357/2/4 354/2/4 358/2/4
f 359/1/4 360/1/4 361/1/4
f 361/1/4 360/1/4 362/1/4
f 363/1/4 364/1/4 365/1/4
f 365/1/4 364/1/4 366/1/4
f 367/4/4 368/4/4 371/4/4
f 371/4/4 368/4/4 372/4/4
f 367/4/4 371/4/4 373/4/4
f 367/4/4 373/4/4 378/4/4
f 373/4/4 374/4/4 378/4/4
f 378/4/4 374/4/4 379/4/4
f 369/4/4 370/4/4 380/4/4
f 380/4/4 370/4/4 381/4/4
f 375/4/4 376/4/4 382/4/4
f 376/2/4 377/2/4 383/2/4
f 382/4/4 376/4/4 383/4/4
f 383/2/4 377/2/4 384/2/4
f 385/4/4 386/4/4 389/4/4
f 389/4/4 386/4/4 390/4/4
f 385/4/4 389/4/4 391/4/4
f 385/4/4 391/4/4 393/4/4
f 391/4/4 392/4/4 393/4/4
f 393/4/4 392/4/4 394/4/4
f 387/4/4 388/4/4 395/4/4
f 395/4/4 388/4/4 396/4/4
f 397/4/4 398/4/4 399/4/4
f 399/4/4 398/4/4 400/4/4
f 401/4/4 402/4/4 403/4/4
f 403/4/4 402/4/4 404/4/4
f 405/2/4 406/2/4 407/2/4
f 407/2/4 406/2/4 408/2/4
f 411/2/5 410/2/5 409/2/5
f 412/2/5 410/2/5 411/2/5
f 417/4/5 414/4/5 413/4/5
f 418/4/5 414/4/5 417/4/5
f 419/4/5 416/4/5 415/4/5
f 420/4/5 416/4/5 419/4/5
f 429/4/5 422/4/5 421/4/5
f 430/4/5 422/4/5 429/4/5
f 431/4/5 424/4/5 423/4/5
f 432/4/5 424/4/5 431/4/5
f 433/4/5 426/4/5 425/4/5
f 434/4/5 426/4/5 433/4/5
f 435/4/5 428/4/5 427/4/5
f 436/4/5 428/4/5 435/4/5
f 441/4/5 438/4/5 437/4/5
f 442/4/5 438/4/5 441/4/5
f 443/4/5 440/4/5 439/4/5
f 444/4/5 440/4/5 443/4/5
f 445/4/5 441/4/5 437/4/5
f 446/4/5 438/4/5 442/4/5
f 447/4/5 443/4/5 439/4/5
f 448/4/5 440/4/5 444/4/5
f 449/4/5 445/4/5 437/4/5
f 449/4/5 446/4/5 445/4/5
f 450/4/5 438/4/5 446/4/5
f 450/4/5 446/4/5 449/4/5
f 451/4/5 448/4/5 447/4/5
f 451/4/5 447/4/5 439/4/5
f 452/4/5 440/4/5 448/4/5
f 452/4/5 448/4/5 451/4/5
f 457/4/5 454/4/5 453/4/5
f 458/4/5 454/4/5 457/4/5
f 459/4/5 454/4/5 458/4/5
f 460/4/5 454/4/5 459/4/5
f 461/4/5 456/4/5 455/4/5
f 462/4/5 456/4/5 461/4/5
f 463/4/5 456/4/5 462/4/5
f 464/4/5 456/4/5 463/4/5
f 465/4/5 457/4/5 453/4/5
f 466/4/5 459/4/5 458/4/5
f 467/4/5 459/4/5 466/4/5
f 468/4/5 454/4/5 460/4/5
f 469/4/5 461/4/5 455/4/5
f 470/4/5 463/4/5 462/4/5
f 471/4/5 463/4/5 470/4/5
f 472/4/5 456/4/5 464/4/5
f 473/4/5 465/4/5 453/4/5
f 473/4/5 466/4/5 465/4/5
f 474/4/5 466/4/5 473/4/5
f 475/4/5 468/4/5 467/4/5
f 476/4/5 454/4/5 468/4/5
f 476/4/5 468/4/5 475/4/5
f 477/4/5 469/4/5 455/4/5
f 477/4/5 470/4/5 469/4/5
f 478/4/5 470/4/5 477/4/5
f 479/4/5 472/4/5 471/4/5
f 480/4/5 456/4/5 472/4/5
f 480/4/5 472/4/5 479/4/5
f 481/4/5 473/4/5 453/4/5
f 482/4/5 475/4/5 474/4/5
f 483/4/5 475/4/5 482/4/5
f 484/4/5 454/4/5 476/4/5
f 485/4/5 477/4/5 455/4/5
f 486/4/5 479/4/5 478/4/5
f 487/4/5 479/4/5 486/4/5
f 488/4/5 456/4/5 480/4/5
f 489/4/5 483/4/5 482/4/5
f 489/4/5 484/4/5 483/4/5
f 489/4/5 481/4/5 453/4/5
f 489/4/5 482/4/5 481/4/5
f 490/4/5 454/4/5 484/4/5
f 490/4/5 484/4/5 489/4/5
f 491/4/5 487/4/5 486/4/5
f 491/4/5 485/4/5 455/4/5
f 491/4/5 488/4/5 487/4/5
f 491/4/5 486/4/5 485/4/5
f 492/4/5 456/4/5 488/4/5
f 492/4/5 488/4/5 491/4/5
f 493/2/6 494/2/6 495/2/6
f 495/2/6 494/2/6 496/2/6
f 493/2/6 495/2/6 497/2/6
f 496/2/6 494/2/6 498/2/6
f 493/2/6 497/2/6 499/2/6
f 497/2/6 498/2/6 499/2/6
f 498/2/6 494/2/6 500/2/6
f 499/2/6 498/2/6 500/2/6
f 501/2/6 502/2/6 503/2/6
f 503/2/6 502/2/6 504/2/6
f 501/2/6 503/2/6 505/2/6
f 504/2/6 502/2/6 506/2/6
f 501/2/6 505/2/6 507/2/6
f 505/2/6 506/2/6 507/2/6
f 506/2/6 502/2/6 508/2/6
f 507/2/6 506/2/6 508/2/6
f 509/4/6 510/4/6 513/4/6
f 513/4/6 510/4/6 514/4/6
f 511/4/6 512/4/6 515/4/6
f 515/4/6 512/4/6 516/4/6
f 517/4/6 518/4/6 521/4/6
f 521/4/6 518/4/6 522/4/6
f 519/4/6 520/4/6 523/4/6
f 523/4/6 520/4/6 524/4/6
f 525/4/6 526/4/6 527/4/6
f 527/4/6 526/4/6 528/4/6
f 529/4/6 530/4/6 534/4/6
f 534/4/6 530/4/6 535/4/6
f 531/4/6 532/4/6 538/4/6
f 538/4/6 532/4/6 539/4/6
f 533/4/6 534/4/6 541/4/6
f 541/4/6 534/4/6 542/4/6
f 535/4/6 536/4/6 543/4/6
f 543/4/6 536/4/6 544/4/6
f 537/4/6 538/4/6 545/4/6
f 545/4/6 538/4/6 546/4/6
f 539/4/6 540/4/6 547/4/6
f 547/4/6 540/4/6 548/4/6
f 542/4/6 543/4/6 549/4/6
f 549/4/6 543/4/6 550/4/6
f 546/4/6 547/4/6 551/4/6
f 551/4/6 547/4/6 552/4/6
f 553/4/6 554/4/6 557/4/6
f 557/4/6 554/4/6 558/4/6
f 555/4/6 556/4/6 559/4/6
f 559/4/6 556/4/6 560/4/6
f 553/4/6 557/4/6 561/4/6
f 558/4/6 554/4/6 562/4/6
f 555/4/6 559/4/6 563/4/6
f 560/4/6 556/4/6 564/4/6
f 553/4/6 561/4/6 565/4/6
f 561/4/6 562/4/6 565/4/6
f 562/4/6 554/4/6 566/4/6
f 565/4/6 562/4/6 566/4/6
f 563/4/6 564/4/6 567/4/6
f 555/4/6 563/4/6 567/4/6
f 564/4/6 556/4/6 568/4/6
f 567/4/6 564/4/6 568/4/6
f 569/4/6 570/4/6 573/4/6
f 573/4/6 570/4/6 574/4/6
f 571/4/6 572/4/6 575/4/6
f 575/4/6 572/4/6 576/4/6
f 569/4/6 573/4/6 577/4/6
f 574/4/6 570/4/6 578/4/6
f 571/4/6 575/4/6 579/4/6
f 576/4/6 572/4/6 580/4/6
f 569/4/6 577/4/6 581/4/6
f 577/4/6 578/4/6 581/4/6
f 578/4/6 570/4/6 582/4/6
f 581/4/6 578/4/6 582/4/6
f 579/4/6 580/4/6 583/4/6
f 571/4/6 579/4/6 583/4/6
f 580/4/6 572/4/6 584/4/6
f 583/4/6 580/4/6 584/4/6
f 585/2/6 586/2/6 589/2/6
f 589/2/6 586/2/6 590/2/6
f 587/2/6 588/2/6 591/2/6
f 591/2/6 588/2/6 592/2/6
