# MagicaVoxel @ Ephtracy

# group
o 

# material
mtllib outdoors-8.mtl
usemtl palette

# normals
vn -1 0 0
vn 1 0 0
vn 0 0 1
vn 0 0 -1
vn 0 -1 0
vn 0 1 0

# texcoords
vt 0.982422 0.5
vt 0.986328 0.5
vt 0.990234 0.5
vt 0.994141 0.5

# verts
v -1.6 -0.4 1.6
v -1.6 -0.4 -1.6
v -1.6 -0.3 1.6
v -1.6 -0.3 -1.6
v -1.6 -0.2 1.6
v -1.6 -0.2 -1.6
v -1.6 -0.1 1.6
v -1.6 -0.1 -1.6
v -1.6 0.2 1.6
v -1.6 0.2 -1.6
v -1.6 0.3 1.6
v -1.6 0.3 -1.6
v -1.6 0.4 1.6
v -1.6 0.4 -1.6
v 1.6 -0.4 1.6
v 1.6 -0.4 -1.6
v 1.6 -0.3 1.6
v 1.6 -0.3 -1.6
v 1.6 -0.2 1.6
v 1.6 -0.2 -1.6
v 1.6 -0.1 1.6
v 1.6 -0.1 -1.6
v 1.6 0.2 1.6
v 1.6 0.2 -1.6
v 1.6 0.3 1.6
v 1.6 0.3 -1.6
v 1.6 0.4 1.6
v 1.6 0.4 -1.6
v -1.6 -0.4 1.6
v -1.6 -0.3 1.6
v -1.6 -0.2 1.6
v -1.6 -0.1 1.6
v -1.6 0.2 1.6
v -1.6 0.3 1.6
v -1.6 0.4 1.6
v 1.6 -0.4 1.6
v 1.6 -0.3 1.6
v 1.6 -0.2 1.6
v 1.6 -0.1 1.6
v 1.6 0.2 1.6
v 1.6 0.3 1.6
v 1.6 0.4 1.6
v -1.6 -0.4 -1.6
v -1.6 -0.3 -1.6
v -1.6 -0.2 -1.6
v -1.6 -0.1 -1.6
v -1.6 0.2 -1.6
v -1.6 0.3 -1.6
v -1.6 0.4 -1.6
v 1.6 -0.4 -1.6
v 1.6 -0.3 -1.6
v 1.6 -0.2 -1.6
v 1.6 -0.1 -1.6
v 1.6 0.2 -1.6
v 1.6 0.3 -1.6
v 1.6 0.4 -1.6
v -1.6 -0.4 1.6
v 1.6 -0.4 1.6
v -1.6 -0.4 -1.6
v 1.6 -0.4 -1.6
v -1.6 0.4 1.6
v 1.6 0.4 1.6
v -1.6 0.4 -1.6
v 1.6 0.4 -1.6

# faces
f 3/2/1 2/2/1 1/2/1
f 4/2/1 2/2/1 3/2/1
f 5/3/1 4/3/1 3/3/1
f 6/3/1 4/3/1 5/3/1
f 7/4/1 6/4/1 5/4/1
f 8/4/1 6/4/1 7/4/1
f 9/3/1 8/3/1 7/3/1
f 10/3/1 8/3/1 9/3/1
f 11/1/1 10/1/1 9/1/1
f 12/1/1 10/1/1 11/1/1
f 13/3/1 12/3/1 11/3/1
f 14/3/1 12/3/1 13/3/1
f 15/2/2 16/2/2 17/2/2
f 17/2/2 16/2/2 18/2/2
f 17/3/2 18/3/2 19/3/2
f 19/3/2 18/3/2 20/3/2
f 19/4/2 20/4/2 21/4/2
f 21/4/2 20/4/2 22/4/2
f 21/3/2 22/3/2 23/3/2
f 23/3/2 22/3/2 24/3/2
f 23/1/2 24/1/2 25/1/2
f 25/1/2 24/1/2 26/1/2
f 25/3/2 26/3/2 27/3/2
f 27/3/2 26/3/2 28/3/2
f 36/2/3 30/2/3 29/2/3
f 37/3/3 31/3/3 30/3/3
f 37/2/3 30/2/3 36/2/3
f 38/4/3 32/4/3 31/4/3
f 38/3/3 31/3/3 37/3/3
f 39/3/3 33/3/3 32/3/3
f 39/4/3 32/4/3 38/4/3
f 40/1/3 34/1/3 33/1/3
f 40/3/3 33/3/3 39/3/3
f 41/3/3 35/3/3 34/3/3
f 41/1/3 34/1/3 40/1/3
f 42/3/3 35/3/3 41/3/3
f 43/2/4 44/2/4 50/2/4
f 44/3/4 45/3/4 51/3/4
f 50/2/4 44/2/4 51/2/4
f 45/4/4 46/4/4 52/4/4
f 51/3/4 45/3/4 52/3/4
f 46/3/4 47/3/4 53/3/4
f 52/4/4 46/4/4 53/4/4
f 47/1/4 48/1/4 54/1/4
f 53/3/4 47/3/4 54/3/4
f 48/3/4 49/3/4 55/3/4
f 54/1/4 48/1/4 55/1/4
f 55/3/4 49/3/4 56/3/4
f 59/2/5 58/2/5 57/2/5
f 60/2/5 58/2/5 59/2/5
f 61/3/6 62/3/6 63/3/6
f 63/3/6 62/3/6 64/3/6
