# MagicaVoxel @ Ephtracy

# group
o 

# material
mtllib chertej-0.mtl
usemtl palette

# normals
vn -1 0 0
vn 1 0 0
vn 0 0 1
vn 0 0 -1
vn 0 -1 0
vn 0 1 0

# texcoords
vt 0.0566406 0.5
vt 0.533203 0.5
vt 0.837891 0.5
vt 0.958984 0.5

# verts
v -2.5 1.7 1.55
v -2.5 1.7 -1.65
v -2.5 2.1 1.55
v -2.5 2.1 -1.65
v -2.1 -2.1 1.35
v -2.1 -2.1 0.95
v -2.1 -2.1 -1.25
v -2.1 -2.1 -1.65
v -2.1 -1.9 1.35
v -2.1 -1.9 0.95
v -2.1 -1.9 -1.25
v -2.1 -1.9 -1.65
v -2.1 1.7 1.35
v -2.1 1.7 -1.65
v -1.9 0.9 1.55
v -1.9 0.9 1.35
v -1.9 1.7 1.55
v -1.9 1.7 1.35
v -1.5 -0.9 -0.15
v -1.5 -0.9 -1.65
v -1.5 -0.8 -0.0500001
v -1.5 -0.8 -0.15
v -1.5 -0.7 -0.0500001
v -1.5 -0.7 -1.65
v -1.3 1.2 1.65
v -1.3 1.2 1.55
v -1.3 1.4 1.65
v -1.3 1.4 1.55
v -0.1 -1.7 1.35
v -0.1 -1.7 0.05
v -0.1 0.5 1.35
v -0.1 0.5 0.05
v -0.1 0.7 1.15
v -0.1 0.7 0.45
v -0.1 1.5 1.15
v -0.1 1.5 0.45
v 0.0999999 0.9 1.55
v 0.0999999 0.9 1.35
v 0.0999999 1.7 1.55
v 0.0999999 1.7 1.35
v 0.3 -1.5 0.05
v 0.3 -1.5 -0.0500001
v 0.3 0.3 0.05
v 0.3 0.3 -0.0500001
v 0.7 1.2 1.65
v 0.7 1.2 1.55
v 0.7 1.2 0.25
v 0.7 1.2 0.05
v 0.7 1.3 0.25
v 0.7 1.3 0.05
v 0.7 1.4 1.65
v 0.7 1.4 1.55
v 1.2 1.1 0.65
v 1.2 1.1 0.05
v 1.2 1.2 0.55
v 1.2 1.2 0.25
v 1.2 1.2 0.05
v 1.2 1.3 0.65
v 1.2 1.3 0.55
v 1.7 -2.1 1.35
v 1.7 -2.1 0.95
v 1.7 -2.1 -1.25
v 1.7 -2.1 -1.65
v 1.7 -1.9 1.35
v 1.7 -1.9 0.95
v 1.7 -1.9 -1.25
v 1.7 -1.9 -1.65
v 1.9 -1.7 1.35
v 1.9 -1.7 -0.0500001
v 1.9 0.5 1.35
v 1.9 0.5 -0.0500001
v 1.9 0.7 1.15
v 1.9 0.7 0.05
v 1.9 1.5 1.15
v 1.9 1.5 0.05
v -1.9 -1.7 1.35
v -1.9 -1.7 0.05
v -1.9 0.5 1.35
v -1.9 0.5 0.05
v -1.9 0.7 1.15
v -1.9 0.7 0.45
v -1.9 1.5 1.15
v -1.9 1.5 0.45
v -1.7 -2.1 1.35
v -1.7 -2.1 0.95
v -1.7 -2.1 -1.25
v -1.7 -2.1 -1.65
v -1.7 -1.9 1.35
v -1.7 -1.9 0.95
v -1.7 -1.9 -1.25
v -1.7 -1.9 -1.65
v -1.7 -0.9 -0.25
v -1.7 -0.9 -1.65
v -1.7 -0.8 -0.15
v -1.7 -0.8 -0.25
v -1.7 -0.7 -0.15
v -1.7 -0.7 -1.65
v -1.6 -0.9 -0.15
v -1.6 -0.9 -0.25
v -1.6 -0.8 -0.0500001
v -1.6 -0.8 -0.15
v -1.6 -0.8 -0.25
v -1.6 -0.7 -0.0500001
v -1.6 -0.7 -0.15
v -0.7 1.2 1.65
v -0.7 1.2 1.55
v -0.7 1.4 1.65
v -0.7 1.4 1.55
v -0.1 0.9 1.55
v -0.1 0.9 1.35
v -0.1 1.7 1.55
v -0.1 1.7 1.35
v 0.0999999 -1.7 1.35
v 0.0999999 -1.7 -0.0500001
v 0.0999999 0.5 1.35
v 0.0999999 0.5 -0.0500001
v 0.0999999 0.7 1.15
v 0.0999999 0.7 0.05
v 0.0999999 1.5 1.15
v 0.0999999 1.5 0.05
v 1.3 1.1 0.65
v 1.3 1.1 0.05
v 1.3 1.2 1.65
v 1.3 1.2 1.55
v 1.3 1.2 0.55
v 1.3 1.2 0.25
v 1.3 1.3 0.65
v 1.3 1.3 0.55
v 1.3 1.3 0.25
v 1.3 1.3 0.05
v 1.3 1.4 1.65
v 1.3 1.4 1.55
v 1.7 -1.5 0.05
v 1.7 -1.5 -0.0500001
v 1.7 0.3 0.05
v 1.7 0.3 -0.0500001
v 1.9 0.9 1.55
v 1.9 0.9 1.35
v 1.9 1.7 1.55
v 1.9 1.7 1.35
v 2.1 -2.1 1.35
v 2.1 -2.1 0.95
v 2.1 -2.1 -1.25
v 2.1 -2.1 -1.65
v 2.1 -1.9 1.35
v 2.1 -1.9 0.95
v 2.1 -1.9 -1.25
v 2.1 -1.9 -1.65
v 2.1 1.7 1.35
v 2.1 1.7 -1.65
v 2.5 1.7 1.55
v 2.5 1.7 -1.65
v 2.5 2.1 1.55
v 2.5 2.1 -1.65
v -1.3 1.2 1.65
v -1.3 1.4 1.65
v -0.7 1.2 1.65
v -0.7 1.4 1.65
v 0.7 1.2 1.65
v 0.7 1.4 1.65
v 1.3 1.2 1.65
v 1.3 1.4 1.65
v -2.5 1.7 1.55
v -2.5 2.1 1.55
v -1.9 0.9 1.55
v -1.9 1.7 1.55
v -1.3 1.2 1.55
v -1.3 1.4 1.55
v -0.7 1.2 1.55
v -0.7 1.4 1.55
v -0.1 0.9 1.55
v -0.1 1.7 1.55
v 0.0999999 0.9 1.55
v 0.0999999 1.7 1.55
v 0.7 1.2 1.55
v 0.7 1.4 1.55
v 1.3 1.2 1.55
v 1.3 1.4 1.55
v 1.9 0.9 1.55
v 1.9 1.7 1.55
v 2.5 1.7 1.55
v 2.5 2.1 1.55
v -2.1 -2.1 1.35
v -2.1 -1.9 1.35
v -2.1 1.7 1.35
v -1.9 -1.7 1.35
v -1.9 0.5 1.35
v -1.9 0.9 1.35
v -1.9 1.7 1.35
v -1.7 -2.1 1.35
v -1.7 -1.9 1.35
v -0.1 -1.7 1.35
v -0.1 0.5 1.35
v -0.1 0.9 1.35
v -0.1 1.7 1.35
v 0.0999999 -1.7 1.35
v 0.0999999 0.5 1.35
v 0.0999999 0.9 1.35
v 0.0999999 1.7 1.35
v 1.7 -2.1 1.35
v 1.7 -1.9 1.35
v 1.9 -1.7 1.35
v 1.9 0.5 1.35
v 1.9 0.9 1.35
v 1.9 1.7 1.35
v 2.1 -2.1 1.35
v 2.1 -1.9 1.35
v 2.1 1.7 1.35
v 1.2 1.1 0.65
v 1.2 1.3 0.65
v 1.3 1.1 0.65
v 1.3 1.3 0.65
v -1.9 0.7 0.45
v -1.9 1.5 0.45
v -0.1 0.7 0.45
v -0.1 1.5 0.45
v 0.7 1.2 0.25
v 0.7 1.3 0.25
v 1.2 1.2 0.25
v 1.3 1.2 0.25
v 1.3 1.3 0.25
v -1.9 -1.7 0.05
v -1.9 0.5 0.05
v -0.1 -1.7 0.05
v -0.1 0.5 0.05
v 0.0999999 0.7 0.05
v 0.0999999 1.5 0.05
v 0.3 -1.5 0.05
v 0.3 0.3 0.05
v 0.7 1.2 0.05
v 0.7 1.3 0.05
v 1.2 1.1 0.05
v 1.2 1.2 0.05
v 1.3 1.1 0.05
v 1.3 1.3 0.05
v 1.7 -1.5 0.05
v 1.7 0.3 0.05
v 1.9 0.7 0.05
v 1.9 1.5 0.05
v 0.0999999 -1.7 -0.0500001
v 0.0999999 0.5 -0.0500001
v 0.3 -1.5 -0.0500001
v 0.3 0.3 -0.0500001
v 1.7 -1.5 -0.0500001
v 1.7 0.3 -0.0500001
v 1.9 -1.7 -0.0500001
v 1.9 0.5 -0.0500001
v -2.1 -2.1 -1.25
v -2.1 -1.9 -1.25
v -1.7 -2.1 -1.25
v -1.7 -1.9 -1.25
v 1.7 -2.1 -1.25
v 1.7 -1.9 -1.25
v 2.1 -2.1 -1.25
v 2.1 -1.9 -1.25
v -1.9 0.7 1.15
v -1.9 1.5 1.15
v -0.1 0.7 1.15
v -0.1 1.5 1.15
v 0.0999999 0.7 1.15
v 0.0999999 1.5 1.15
v 1.9 0.7 1.15
v 1.9 1.5 1.15
v -2.1 -2.1 0.95
v -2.1 -1.9 0.95
v -1.7 -2.1 0.95
v -1.7 -1.9 0.95
v 1.7 -2.1 0.95
v 1.7 -1.9 0.95
v 2.1 -2.1 0.95
v 2.1 -1.9 0.95
v 1.2 1.2 0.55
v 1.2 1.3 0.55
v 1.3 1.2 0.55
v 1.3 1.3 0.55
v -1.6 -0.8 -0.0500001
v -1.6 -0.7 -0.0500001
v -1.5 -0.8 -0.0500001
v -1.5 -0.7 -0.0500001
v -1.7 -0.8 -0.15
v -1.7 -0.7 -0.15
v -1.6 -0.9 -0.15
v -1.6 -0.8 -0.15
v -1.6 -0.7 -0.15
v -1.5 -0.9 -0.15
v -1.5 -0.8 -0.15
v -1.7 -0.9 -0.25
v -1.7 -0.8 -0.25
v -1.6 -0.9 -0.25
v -1.6 -0.8 -0.25
v -2.5 1.7 -1.65
v -2.5 2.1 -1.65
v -2.1 -2.1 -1.65
v -2.1 -1.9 -1.65
v -2.1 1.7 -1.65
v -1.7 -2.1 -1.65
v -1.7 -1.9 -1.65
v -1.7 -0.9 -1.65
v -1.7 -0.7 -1.65
v -1.5 -0.9 -1.65
v -1.5 -0.7 -1.65
v 1.7 -2.1 -1.65
v 1.7 -1.9 -1.65
v 2.1 -2.1 -1.65
v 2.1 -1.9 -1.65
v 2.1 1.7 -1.65
v 2.5 1.7 -1.65
v 2.5 2.1 -1.65
v -2.1 -2.1 1.35
v -1.7 -2.1 1.35
v 1.7 -2.1 1.35
v 2.1 -2.1 1.35
v -2.1 -2.1 0.95
v -1.7 -2.1 0.95
v 1.7 -2.1 0.95
v 2.1 -2.1 0.95
v -2.1 -2.1 -1.25
v -1.7 -2.1 -1.25
v 1.7 -2.1 -1.25
v 2.1 -2.1 -1.25
v -2.1 -2.1 -1.65
v -1.7 -2.1 -1.65
v 1.7 -2.1 -1.65
v 2.1 -2.1 -1.65
v -1.7 -1.9 1.35
v 1.7 -1.9 1.35
v -2.1 -1.9 0.95
v -1.7 -1.9 0.95
v 1.7 -1.9 0.95
v 2.1 -1.9 0.95
v -2.1 -1.9 -1.25
v -1.7 -1.9 -1.25
v 1.7 -1.9 -1.25
v 2.1 -1.9 -1.25
v -1.7 -1.9 -1.65
v 1.7 -1.9 -1.65
v 0.3 -1.5 0.05
v 1.7 -1.5 0.05
v 0.3 -1.5 -0.0500001
v 1.7 -1.5 -0.0500001
v -1.6 -0.7 -0.0500001
v -1.5 -0.7 -0.0500001
v -1.7 -0.7 -0.15
v -1.6 -0.7 -0.15
v -1.7 -0.7 -1.65
v -1.5 -0.7 -1.65
v -1.9 0.5 1.35
v -0.1 0.5 1.35
v 0.0999999 0.5 1.35
v 1.9 0.5 1.35
v -1.9 0.5 0.05
v -0.1 0.5 0.05
v 0.0999999 0.5 -0.0500001
v 1.9 0.5 -0.0500001
v -1.9 0.9 1.55
v -0.1 0.9 1.55
v 0.0999999 0.9 1.55
v 1.9 0.9 1.55
v -1.9 0.9 1.35
v -0.1 0.9 1.35
v 0.0999999 0.9 1.35
v 1.9 0.9 1.35
v 1.2 1.1 0.65
v 1.3 1.1 0.65
v 1.2 1.1 0.05
v 1.3 1.1 0.05
v -1.3 1.2 1.65
v -0.7 1.2 1.65
v 0.7 1.2 1.65
v 1.3 1.2 1.65
v -1.3 1.2 1.55
v -0.7 1.2 1.55
v 0.7 1.2 1.55
v 1.3 1.2 1.55
v 0.7 1.2 0.25
v 1.2 1.2 0.25
v 0.7 1.2 0.05
v 1.2 1.2 0.05
v -1.9 1.5 1.15
v -0.1 1.5 1.15
v 0.0999999 1.5 1.15
v 1.9 1.5 1.15
v -1.9 1.5 0.45
v -0.1 1.5 0.45
v 0.0999999 1.5 0.05
v 1.9 1.5 0.05
v -2.5 1.7 1.55
v -1.9 1.7 1.55
v -0.1 1.7 1.55
v 0.0999999 1.7 1.55
v 1.9 1.7 1.55
v 2.5 1.7 1.55
v -2.1 1.7 1.35
v -1.9 1.7 1.35
v -0.1 1.7 1.35
v 0.0999999 1.7 1.35
v 1.9 1.7 1.35
v 2.1 1.7 1.35
v -2.5 1.7 -1.65
v -2.1 1.7 -1.65
v 2.1 1.7 -1.65
v 2.5 1.7 -1.65
v -1.9 -1.7 1.35
v -0.1 -1.7 1.35
v 0.0999999 -1.7 1.35
v 1.9 -1.7 1.35
v -1.9 -1.7 0.05
v -0.1 -1.7 0.05
v 0.0999999 -1.7 -0.0500001
v 1.9 -1.7 -0.0500001
v -1.6 -0.9 -0.15
v -1.5 -0.9 -0.15
v -1.7 -0.9 -0.25
v -1.6 -0.9 -0.25
v -1.7 -0.9 -1.65
v -1.5 -0.9 -1.65
v -1.6 -0.8 -0.0500001
v -1.5 -0.8 -0.0500001
v -1.7 -0.8 -0.15
v -1.6 -0.8 -0.15
v -1.5 -0.8 -0.15
v -1.7 -0.8 -0.25
v -1.6 -0.8 -0.25
v 0.3 0.3 0.05
v 1.7 0.3 0.05
v 0.3 0.3 -0.0500001
v 1.7 0.3 -0.0500001
v -1.9 0.7 1.15
v -0.1 0.7 1.15
v 0.0999999 0.7 1.15
v 1.9 0.7 1.15
v -1.9 0.7 0.45
v -0.1 0.7 0.45
v 0.0999999 0.7 0.05
v 1.9 0.7 0.05
v 1.2 1.2 0.55
v 1.3 1.2 0.55
v 1.2 1.2 0.25
v 1.3 1.2 0.25
v 1.2 1.3 0.65
v 1.3 1.3 0.65
v 1.2 1.3 0.55
v 1.3 1.3 0.55
v 0.7 1.3 0.25
v 1.3 1.3 0.25
v 0.7 1.3 0.05
v 1.3 1.3 0.05
v -1.3 1.4 1.65
v -0.7 1.4 1.65
v 0.7 1.4 1.65
v 1.3 1.4 1.65
v -1.3 1.4 1.55
v -0.7 1.4 1.55
v 0.7 1.4 1.55
v 1.3 1.4 1.55
v -2.5 2.1 1.55
v 2.5 2.1 1.55
v -2.5 2.1 -1.65
v 2.5 2.1 -1.65

# faces
f 3/3/1 2/3/1 1/3/1
f 4/3/1 2/3/1 3/3/1
f 9/2/1 6/2/1 5/2/1
f 10/2/1 6/2/1 9/2/1
f 11/2/1 8/2/1 7/2/1
f 12/2/1 8/2/1 11/2/1
f 13/3/1 10/3/1 9/3/1
f 13/3/1 11/3/1 10/3/1
f 13/3/1 12/3/1 11/3/1
f 14/3/1 12/3/1 13/3/1
f 17/1/1 16/1/1 15/1/1
f 18/1/1 16/1/1 17/1/1
f 22/3/1 20/3/1 19/3/1
f 23/3/1 22/3/1 21/3/1
f 24/3/1 20/3/1 22/3/1
f 24/3/1 22/3/1 23/3/1
f 27/4/1 26/4/1 25/4/1
f 28/4/1 26/4/1 27/4/1
f 31/3/1 30/3/1 29/3/1
f 32/3/1 30/3/1 31/3/1
f 35/3/1 34/3/1 33/3/1
f 36/3/1 34/3/1 35/3/1
f 39/1/1 38/1/1 37/1/1
f 40/1/1 38/1/1 39/1/1
f 43/3/1 42/3/1 41/3/1
f 44/3/1 42/3/1 43/3/1
f 49/3/1 48/3/1 47/3/1
f 50/3/1 48/3/1 49/3/1
f 51/4/1 46/4/1 45/4/1
f 52/4/1 46/4/1 51/4/1
f 55/3/1 54/3/1 53/3/1
f 56/3/1 54/3/1 55/3/1
f 57/3/1 54/3/1 56/3/1
f 58/3/1 55/3/1 53/3/1
f 59/3/1 55/3/1 58/3/1
f 64/2/1 61/2/1 60/2/1
f 65/2/1 61/2/1 64/2/1
f 66/2/1 63/2/1 62/2/1
f 67/2/1 63/2/1 66/2/1
f 70/3/1 69/3/1 68/3/1
f 71/3/1 69/3/1 70/3/1
f 74/3/1 73/3/1 72/3/1
f 75/3/1 73/3/1 74/3/1
f 76/3/2 77/3/2 78/3/2
f 78/3/2 77/3/2 79/3/2
f 80/3/2 81/3/2 82/3/2
f 82/3/2 81/3/2 83/3/2
f 84/2/2 85/2/2 88/2/2
f 88/2/2 85/2/2 89/2/2
f 86/2/2 87/2/2 90/2/2
f 90/2/2 87/2/2 91/2/2
f 92/3/2 93/3/2 95/3/2
f 94/3/2 95/3/2 96/3/2
f 95/3/2 93/3/2 97/3/2
f 96/3/2 95/3/2 97/3/2
f 98/3/2 99/3/2 101/3/2
f 101/3/2 99/3/2 102/3/2
f 100/3/2 101/3/2 103/3/2
f 103/3/2 101/3/2 104/3/2
f 105/4/2 106/4/2 107/4/2
f 107/4/2 106/4/2 108/4/2
f 109/1/2 110/1/2 111/1/2
f 111/1/2 110/1/2 112/1/2
f 113/3/2 114/3/2 115/3/2
f 115/3/2 114/3/2 116/3/2
f 117/3/2 118/3/2 119/3/2
f 119/3/2 118/3/2 120/3/2
f 121/3/2 122/3/2 125/3/2
f 125/3/2 122/3/2 126/3/2
f 121/3/2 125/3/2 127/3/2
f 127/3/2 125/3/2 128/3/2
f 126/3/2 122/3/2 129/3/2
f 129/3/2 122/3/2 130/3/2
f 123/4/2 124/4/2 131/4/2
f 131/4/2 124/4/2 132/4/2
f 133/3/2 134/3/2 135/3/2
f 135/3/2 134/3/2 136/3/2
f 137/1/2 138/1/2 139/1/2
f 139/1/2 138/1/2 140/1/2
f 141/2/2 142/2/2 145/2/2
f 145/2/2 142/2/2 146/2/2
f 143/2/2 144/2/2 147/2/2
f 147/2/2 144/2/2 148/2/2
f 145/3/2 146/3/2 149/3/2
f 146/3/2 147/3/2 149/3/2
f 147/3/2 148/3/2 149/3/2
f 149/3/2 148/3/2 150/3/2
f 151/3/2 152/3/2 153/3/2
f 153/3/2 152/3/2 154/3/2
f 157/4/3 156/4/3 155/4/3
f 158/4/3 156/4/3 157/4/3
f 161/4/3 160/4/3 159/4/3
f 162/4/3 160/4/3 161/4/3
f 166/3/3 164/3/3 163/3/3
f 167/1/3 166/1/3 165/1/3
f 168/1/3 166/1/3 167/1/3
f 169/1/3 167/1/3 165/1/3
f 170/1/3 166/1/3 168/1/3
f 171/1/3 169/1/3 165/1/3
f 171/1/3 170/1/3 169/1/3
f 172/3/3 164/3/3 166/3/3
f 172/1/3 170/1/3 171/1/3
f 172/1/3 166/1/3 170/1/3
f 174/3/3 164/3/3 172/3/3
f 175/1/3 174/1/3 173/1/3
f 176/1/3 174/1/3 175/1/3
f 177/1/3 175/1/3 173/1/3
f 178/1/3 174/1/3 176/1/3
f 179/1/3 177/1/3 173/1/3
f 179/1/3 178/1/3 177/1/3
f 180/3/3 164/3/3 174/3/3
f 180/1/3 178/1/3 179/1/3
f 180/1/3 174/1/3 178/1/3
f 181/3/3 164/3/3 180/3/3
f 182/3/3 164/3/3 181/3/3
f 186/3/3 185/3/3 184/3/3
f 187/3/3 185/3/3 186/3/3
f 188/3/3 185/3/3 187/3/3
f 189/3/3 185/3/3 188/3/3
f 190/2/3 184/2/3 183/2/3
f 191/3/3 186/3/3 184/3/3
f 191/2/3 184/2/3 190/2/3
f 192/3/3 186/3/3 191/3/3
f 193/3/3 188/3/3 187/3/3
f 194/3/3 188/3/3 193/3/3
f 196/3/3 192/3/3 191/3/3
f 196/3/3 195/3/3 194/3/3
f 196/3/3 194/3/3 193/3/3
f 196/3/3 193/3/3 192/3/3
f 197/3/3 195/3/3 196/3/3
f 198/3/3 195/3/3 197/3/3
f 199/3/3 195/3/3 198/3/3
f 201/3/3 196/3/3 191/3/3
f 202/3/3 196/3/3 201/3/3
f 203/3/3 198/3/3 197/3/3
f 204/3/3 198/3/3 203/3/3
f 206/2/3 201/2/3 200/2/3
f 207/3/3 202/3/3 201/3/3
f 207/2/3 201/2/3 206/2/3
f 207/3/3 205/3/3 204/3/3
f 207/3/3 204/3/3 203/3/3
f 207/3/3 203/3/3 202/3/3
f 208/3/3 205/3/3 207/3/3
f 211/3/3 210/3/3 209/3/3
f 212/3/3 210/3/3 211/3/3
f 215/3/3 214/3/3 213/3/3
f 216/3/3 214/3/3 215/3/3
f 219/3/3 218/3/3 217/3/3
f 220/3/3 218/3/3 219/3/3
f 221/3/3 218/3/3 220/3/3
f 224/3/3 223/3/3 222/3/3
f 225/3/3 223/3/3 224/3/3
f 230/3/3 227/3/3 226/3/3
f 231/3/3 227/3/3 230/3/3
f 232/3/3 230/3/3 226/3/3
f 233/3/3 230/3/3 232/3/3
f 234/3/3 232/3/3 226/3/3
f 235/3/3 227/3/3 231/3/3
f 236/3/3 229/3/3 228/3/3
f 237/3/3 229/3/3 236/3/3
f 238/3/3 235/3/3 234/3/3
f 238/3/3 234/3/3 226/3/3
f 239/3/3 227/3/3 235/3/3
f 239/3/3 235/3/3 238/3/3
f 242/3/3 241/3/3 240/3/3
f 243/3/3 241/3/3 242/3/3
f 244/3/3 242/3/3 240/3/3
f 245/3/3 241/3/3 243/3/3
f 246/3/3 244/3/3 240/3/3
f 246/3/3 245/3/3 244/3/3
f 247/3/3 241/3/3 245/3/3
f 247/3/3 245/3/3 246/3/3
f 250/2/3 249/2/3 248/2/3
f 251/2/3 249/2/3 250/2/3
f 254/2/3 253/2/3 252/2/3
f 255/2/3 253/2/3 254/2/3
f 256/1/4 257/1/4 258/1/4
f 258/1/4 257/1/4 259/1/4
f 260/1/4 261/1/4 262/1/4
f 262/1/4 261/1/4 263/1/4
f 264/2/4 265/2/4 266/2/4
f 266/2/4 265/2/4 267/2/4
f 268/2/4 269/2/4 270/2/4
f 270/2/4 269/2/4 271/2/4
f 272/3/4 273/3/4 274/3/4
f 274/3/4 273/3/4 275/3/4
f 276/3/4 277/3/4 278/3/4
f 278/3/4 277/3/4 279/3/4
f 280/3/4 281/3/4 283/3/4
f 283/3/4 281/3/4 284/3/4
f 282/3/4 283/3/4 285/3/4
f 285/3/4 283/3/4 286/3/4
f 287/3/4 288/3/4 289/3/4
f 289/3/4 288/3/4 290/3/4
f 291/3/4 292/3/4 295/3/4
f 293/2/4 294/2/4 296/2/4
f 294/3/4 295/3/4 297/3/4
f 296/2/4 294/2/4 297/2/4
f 297/3/4 295/3/4 298/3/4
f 298/3/4 295/3/4 299/3/4
f 297/3/4 298/3/4 300/3/4
f 299/3/4 295/3/4 301/3/4
f 297/3/4 300/3/4 303/3/4
f 300/3/4 301/3/4 303/3/4
f 302/2/4 303/2/4 304/2/4
f 303/3/4 301/3/4 305/3/4
f 304/2/4 303/2/4 305/2/4
f 295/3/4 292/3/4 306/3/4
f 305/3/4 301/3/4 306/3/4
f 301/3/4 295/3/4 306/3/4
f 306/3/4 292/3/4 307/3/4
f 307/3/4 292/3/4 308/3/4
f 313/2/5 310/2/5 309/2/5
f 314/2/5 310/2/5 313/2/5
f 315/2/5 312/2/5 311/2/5
f 316/2/5 312/2/5 315/2/5
f 321/2/5 318/2/5 317/2/5
f 322/2/5 318/2/5 321/2/5
f 323/2/5 320/2/5 319/2/5
f 324/2/5 320/2/5 323/2/5
f 328/3/5 326/3/5 325/3/5
f 329/3/5 326/3/5 328/3/5
f 331/3/5 328/3/5 327/3/5
f 331/3/5 330/3/5 329/3/5
f 331/3/5 329/3/5 328/3/5
f 332/3/5 330/3/5 331/3/5
f 333/3/5 330/3/5 332/3/5
f 334/3/5 330/3/5 333/3/5
f 335/3/5 333/3/5 332/3/5
f 336/3/5 333/3/5 335/3/5
f 339/3/5 338/3/5 337/3/5
f 340/3/5 338/3/5 339/3/5
f 344/3/5 342/3/5 341/3/5
f 345/3/5 344/3/5 343/3/5
f 346/3/5 342/3/5 344/3/5
f 346/3/5 344/3/5 345/3/5
f 351/3/5 348/3/5 347/3/5
f 352/3/5 348/3/5 351/3/5
f 353/3/5 350/3/5 349/3/5
f 354/3/5 350/3/5 353/3/5
f 359/1/5 356/1/5 355/1/5
f 360/1/5 356/1/5 359/1/5
f 361/1/5 358/1/5 357/1/5
f 362/1/5 358/1/5 361/1/5
f 365/3/5 364/3/5 363/3/5
f 366/3/5 364/3/5 365/3/5
f 371/4/5 368/4/5 367/4/5
f 372/4/5 368/4/5 371/4/5
f 373/4/5 370/4/5 369/4/5
f 374/4/5 370/4/5 373/4/5
f 377/3/5 376/3/5 375/3/5
f 378/3/5 376/3/5 377/3/5
f 383/3/5 380/3/5 379/3/5
f 384/3/5 380/3/5 383/3/5
f 385/3/5 382/3/5 381/3/5
f 386/3/5 382/3/5 385/3/5
f 393/3/5 388/3/5 387/3/5
f 394/3/5 388/3/5 393/3/5
f 395/3/5 390/3/5 389/3/5
f 396/3/5 390/3/5 395/3/5
f 397/3/5 392/3/5 391/3/5
f 398/3/5 392/3/5 397/3/5
f 399/3/5 393/3/5 387/3/5
f 400/3/5 393/3/5 399/3/5
f 401/3/5 392/3/5 398/3/5
f 402/3/5 392/3/5 401/3/5
f 403/3/6 404/3/6 407/3/6
f 407/3/6 404/3/6 408/3/6
f 405/3/6 406/3/6 409/3/6
f 409/3/6 406/3/6 410/3/6
f 411/3/6 412/3/6 414/3/6
f 413/3/6 414/3/6 415/3/6
f 414/3/6 412/3/6 416/3/6
f 415/3/6 414/3/6 416/3/6
f 417/3/6 418/3/6 420/3/6
f 420/3/6 418/3/6 421/3/6
f 419/3/6 420/3/6 422/3/6
f 422/3/6 420/3/6 423/3/6
f 424/3/6 425/3/6 426/3/6
f 426/3/6 425/3/6 427/3/6
f 428/3/6 429/3/6 432/3/6
f 432/3/6 429/3/6 433/3/6
f 430/3/6 431/3/6 434/3/6
f 434/3/6 431/3/6 435/3/6
f 436/3/6 437/3/6 438/3/6
f 438/3/6 437/3/6 439/3/6
f 440/3/6 441/3/6 442/3/6
f 442/3/6 441/3/6 443/3/6
f 444/3/6 445/3/6 446/3/6
f 446/3/6 445/3/6 447/3/6
f 448/4/6 449/4/6 452/4/6
f 452/4/6 449/4/6 453/4/6
f 450/4/6 451/4/6 454/4/6
f 454/4/6 451/4/6 455/4/6
f 456/3/6 457/3/6 458/3/6
f 458/3/6 457/3/6 459/3/6
