# MagicaVoxel @ Ephtracy

# group
o 

# material
mtllib chertej-10.mtl
usemtl palette

# normals
vn -1 0 0
vn 1 0 0
vn 0 0 1
vn 0 0 -1
vn 0 -1 0
vn 0 1 0

# texcoords
vt 0.00195312 0.5
vt 0.0644531 0.5
vt 0.0917969 0.5
vt 0.228516 0.5
vt 0.283203 0.5

# verts
v -0.5 -2 0.4
v -0.5 -2 -0.4
v -0.5 -1.6 0.4
v -0.5 -1.6 -0.4
v -0.5 -1.5 0.4
v -0.5 -1.5 -0.4
v -0.5 -1.3 0.4
v -0.5 -1.3 -0.4
v -0.5 -0.4 0.4
v -0.5 -0.4 -0.4
v -0.5 -0.3 0.4
v -0.5 -0.3 -0.4
v -0.5 0.3 0.4
v -0.5 0.3 -0.4
v -0.4 -2 0.5
v -0.4 -2 0.4
v -0.4 -2 -0.4
v -0.4 -2 -0.5
v -0.4 -1.6 0.5
v -0.4 -1.6 0.4
v -0.4 -1.6 -0.4
v -0.4 -1.6 -0.5
v -0.4 -1.5 0.5
v -0.4 -1.5 0.4
v -0.4 -1.5 -0.4
v -0.4 -1.5 -0.5
v -0.4 -1.3 0.4
v -0.4 -1.3 -0.4
v -0.4 -1.2 0.5
v -0.4 -1.2 0.4
v -0.4 -1.2 -0.4
v -0.4 -1.2 -0.5
v -0.4 -0.4 0.5
v -0.4 -0.4 0.4
v -0.4 -0.4 -0.4
v -0.4 -0.4 -0.5
v -0.4 -0.3 0.5
v -0.4 -0.3 0.4
v -0.4 -0.3 -0.4
v -0.4 -0.3 -0.5
v -0.4 0.3 0.5
v -0.4 0.3 0.4
v -0.4 0.3 0.3
v -0.4 0.3 -0.3
v -0.4 0.3 -0.4
v -0.4 0.3 -0.5
v -0.4 0.7 0.3
v -0.4 0.7 -0.3
v -0.3 0.3 0.4
v -0.3 0.3 0.3
v -0.3 0.3 -0.3
v -0.3 0.3 -0.4
v -0.3 0.7 0.4
v -0.3 0.7 0.3
v -0.3 0.7 0.2
v -0.3 0.7 -0.2
v -0.3 0.7 -0.3
v -0.3 0.7 -0.4
v -0.3 1.3 0.2
v -0.3 1.3 -0.2
v -0.3 1.4 0.2
v -0.3 1.4 -0.2
v -0.3 1.6 0.2
v -0.3 1.6 -0.2
v -0.3 1.7 0.2
v -0.3 1.7 -0.2
v -0.3 2 0.2
v -0.3 2 -0.2
v -0.2 0.7 0.3
v -0.2 0.7 0.2
v -0.2 0.7 -0.2
v -0.2 0.7 -0.3
v -0.2 1.3 0.3
v -0.2 1.3 0.2
v -0.2 1.3 -0.2
v -0.2 1.3 -0.3
v -0.2 1.4 0.3
v -0.2 1.4 0.2
v -0.2 1.4 0.1
v -0.2 1.4 -0.1
v -0.2 1.4 -0.2
v -0.2 1.4 -0.3
v -0.2 1.6 0.3
v -0.2 1.6 0.2
v -0.2 1.6 0.1
v -0.2 1.6 -0.1
v -0.2 1.6 -0.2
v -0.2 1.6 -0.3
v -0.2 1.7 0.3
v -0.2 1.7 0.2
v -0.2 1.7 -0.2
v -0.2 1.7 -0.3
v -0.2 2 0.3
v -0.2 2 0.2
v -0.2 2 -0.2
v -0.2 2 -0.3
v -0.1 1.4 0.2
v -0.1 1.4 0.1
v -0.1 1.4 -0.1
v -0.1 1.4 -0.2
v -0.1 1.6 0.2
v -0.1 1.6 0.1
v -0.1 1.6 -0.1
v -0.1 1.6 -0.2
v 0.1 1.4 0.2
v 0.1 1.4 0.1
v 0.1 1.4 -0.1
v 0.1 1.4 -0.2
v 0.1 1.6 0.2
v 0.1 1.6 0.1
v 0.1 1.6 -0.1
v 0.1 1.6 -0.2
v 0.2 0.7 0.3
v 0.2 0.7 0.2
v 0.2 0.7 -0.2
v 0.2 0.7 -0.3
v 0.2 1.3 0.3
v 0.2 1.3 0.2
v 0.2 1.3 -0.2
v 0.2 1.3 -0.3
v 0.2 1.4 0.3
v 0.2 1.4 0.2
v 0.2 1.4 0.1
v 0.2 1.4 -0.1
v 0.2 1.4 -0.2
v 0.2 1.4 -0.3
v 0.2 1.6 0.3
v 0.2 1.6 0.2
v 0.2 1.6 0.1
v 0.2 1.6 -0.1
v 0.2 1.6 -0.2
v 0.2 1.6 -0.3
v 0.2 1.7 0.3
v 0.2 1.7 0.2
v 0.2 1.7 -0.2
v 0.2 1.7 -0.3
v 0.2 2 0.3
v 0.2 2 0.2
v 0.2 2 -0.2
v 0.2 2 -0.3
v 0.3 0.3 0.4
v 0.3 0.3 0.3
v 0.3 0.3 -0.3
v 0.3 0.3 -0.4
v 0.3 0.7 0.4
v 0.3 0.7 0.3
v 0.3 0.7 0.2
v 0.3 0.7 -0.2
v 0.3 0.7 -0.3
v 0.3 0.7 -0.4
v 0.3 1.3 0.2
v 0.3 1.3 -0.2
v 0.3 1.4 0.2
v 0.3 1.4 -0.2
v 0.3 1.6 0.2
v 0.3 1.6 -0.2
v 0.3 1.7 0.2
v 0.3 1.7 -0.2
v 0.3 2 0.2
v 0.3 2 -0.2
v 0.4 -2 0.5
v 0.4 -2 0.4
v 0.4 -2 -0.4
v 0.4 -2 -0.5
v 0.4 -1.6 0.5
v 0.4 -1.6 0.4
v 0.4 -1.6 -0.4
v 0.4 -1.6 -0.5
v 0.4 -1.5 0.5
v 0.4 -1.5 0.4
v 0.4 -1.5 -0.4
v 0.4 -1.5 -0.5
v 0.4 -1 0.5
v 0.4 -1 0.4
v 0.4 -1 -0.4
v 0.4 -1 -0.5
v 0.4 -0.9 0.4
v 0.4 -0.9 -0.4
v 0.4 -0.6 0.5
v 0.4 -0.6 0.4
v 0.4 -0.6 -0.4
v 0.4 -0.6 -0.5
v 0.4 -0.4 0.5
v 0.4 -0.4 0.4
v 0.4 -0.4 -0.4
v 0.4 -0.4 -0.5
v 0.4 -0.3 0.5
v 0.4 -0.3 0.4
v 0.4 -0.3 -0.4
v 0.4 -0.3 -0.5
v 0.4 0.3 0.5
v 0.4 0.3 0.4
v 0.4 0.3 0.3
v 0.4 0.3 -0.3
v 0.4 0.3 -0.4
v 0.4 0.3 -0.5
v 0.4 0.7 0.3
v 0.4 0.7 -0.3
v 0.5 -2 0.4
v 0.5 -2 -0.4
v 0.5 -1.6 0.4
v 0.5 -1.6 -0.4
v 0.5 -1.5 0.4
v 0.5 -1.5 -0.4
v 0.5 -0.9 0.4
v 0.5 -0.9 -0.4
v 0.5 -0.4 0.4
v 0.5 -0.4 -0.4
v 0.5 -0.3 0.4
v 0.5 -0.3 -0.4
v 0.5 0.3 0.4
v 0.5 0.3 -0.4
v -0.4 -2 0.5
v -0.4 -1.6 0.5
v -0.4 -1.5 0.5
v -0.4 -1.2 0.5
v -0.4 -0.4 0.5
v -0.4 -0.3 0.5
v -0.4 0.3 0.5
v -0.2 -1.2 0.5
v -0.2 -1.1 0.5
v 0 -1.5 0.5
v 0 -1.4 0.5
v 0 -1.1 0.5
v 0 -1 0.5
v 0.1 -1.4 0.5
v 0.1 -1.3 0.5
v 0.1 -1 0.5
v 0.1 -0.8 0.5
v 0.2 -1.3 0.5
v 0.2 -1.1 0.5
v 0.2 -0.8 0.5
v 0.2 -0.7 0.5
v 0.3 -1.1 0.5
v 0.3 -1 0.5
v 0.3 -0.7 0.5
v 0.3 -0.6 0.5
v 0.4 -2 0.5
v 0.4 -1.6 0.5
v 0.4 -1.5 0.5
v 0.4 -1 0.5
v 0.4 -0.6 0.5
v 0.4 -0.4 0.5
v 0.4 -0.3 0.5
v 0.4 0.3 0.5
v -0.5 -2 0.4
v -0.5 -1.6 0.4
v -0.5 -1.5 0.4
v -0.5 -1.3 0.4
v -0.5 -0.4 0.4
v -0.5 -0.3 0.4
v -0.5 0.3 0.4
v -0.4 -2 0.4
v -0.4 -1.6 0.4
v -0.4 -1.5 0.4
v -0.4 -1.3 0.4
v -0.4 -1.2 0.4
v -0.4 -0.4 0.4
v -0.4 -0.3 0.4
v -0.4 0.3 0.4
v -0.3 0.3 0.4
v -0.3 0.7 0.4
v 0.3 0.3 0.4
v 0.3 0.7 0.4
v 0.4 -2 0.4
v 0.4 -1.6 0.4
v 0.4 -1.5 0.4
v 0.4 -1 0.4
v 0.4 -0.9 0.4
v 0.4 -0.6 0.4
v 0.4 -0.4 0.4
v 0.4 -0.3 0.4
v 0.4 0.3 0.4
v 0.5 -2 0.4
v 0.5 -1.6 0.4
v 0.5 -1.5 0.4
v 0.5 -0.9 0.4
v 0.5 -0.4 0.4
v 0.5 -0.3 0.4
v 0.5 0.3 0.4
v -0.4 0.3 0.3
v -0.4 0.7 0.3
v -0.3 0.3 0.3
v -0.3 0.7 0.3
v -0.2 0.7 0.3
v -0.2 1.3 0.3
v -0.2 1.4 0.3
v -0.2 1.6 0.3
v -0.2 1.7 0.3
v -0.2 2 0.3
v 0.2 0.7 0.3
v 0.2 1.3 0.3
v 0.2 1.4 0.3
v 0.2 1.6 0.3
v 0.2 1.7 0.3
v 0.2 2 0.3
v 0.3 0.3 0.3
v 0.3 0.7 0.3
v 0.4 0.3 0.3
v 0.4 0.7 0.3
v -0.3 0.7 0.2
v -0.3 1.3 0.2
v -0.3 1.4 0.2
v -0.3 1.6 0.2
v -0.3 1.7 0.2
v -0.3 2 0.2
v -0.2 0.7 0.2
v -0.2 1.3 0.2
v -0.2 1.4 0.2
v -0.2 1.6 0.2
v -0.2 1.7 0.2
v -0.2 2 0.2
v -0.1 1.4 0.2
v -0.1 1.6 0.2
v 0.1 1.4 0.2
v 0.1 1.6 0.2
v 0.2 0.7 0.2
v 0.2 1.3 0.2
v 0.2 1.4 0.2
v 0.2 1.6 0.2
v 0.2 1.7 0.2
v 0.2 2 0.2
v 0.3 0.7 0.2
v 0.3 1.3 0.2
v 0.3 1.4 0.2
v 0.3 1.6 0.2
v 0.3 1.7 0.2
v 0.3 2 0.2
v -0.2 1.4 0.1
v -0.2 1.6 0.1
v -0.1 1.4 0.1
v -0.1 1.6 0.1
v 0.1 1.4 0.1
v 0.1 1.6 0.1
v 0.2 1.4 0.1
v 0.2 1.6 0.1
v -0.2 1.4 -0.1
v -0.2 1.6 -0.1
v -0.1 1.4 -0.1
v -0.1 1.6 -0.1
v 0.1 1.4 -0.1
v 0.1 1.6 -0.1
v 0.2 1.4 -0.1
v 0.2 1.6 -0.1
v -0.3 0.7 -0.2
v -0.3 1.3 -0.2
v -0.3 1.4 -0.2
v -0.3 1.6 -0.2
v -0.3 1.7 -0.2
v -0.3 2 -0.2
v -0.2 0.7 -0.2
v -0.2 1.3 -0.2
v -0.2 1.4 -0.2
v -0.2 1.6 -0.2
v -0.2 1.7 -0.2
v -0.2 2 -0.2
v -0.1 1.4 -0.2
v -0.1 1.6 -0.2
v 0.1 1.4 -0.2
v 0.1 1.6 -0.2
v 0.2 0.7 -0.2
v 0.2 1.3 -0.2
v 0.2 1.4 -0.2
v 0.2 1.6 -0.2
v 0.2 1.7 -0.2
v 0.2 2 -0.2
v 0.3 0.7 -0.2
v 0.3 1.3 -0.2
v 0.3 1.4 -0.2
v 0.3 1.6 -0.2
v 0.3 1.7 -0.2
v 0.3 2 -0.2
v -0.4 0.3 -0.3
v -0.4 0.7 -0.3
v -0.3 0.3 -0.3
v -0.3 0.7 -0.3
v -0.2 0.7 -0.3
v -0.2 1.3 -0.3
v -0.2 1.4 -0.3
v -0.2 1.6 -0.3
v -0.2 1.7 -0.3
v -0.2 2 -0.3
v 0.2 0.7 -0.3
v 0.2 1.3 -0.3
v 0.2 1.4 -0.3
v 0.2 1.6 -0.3
v 0.2 1.7 -0.3
v 0.2 2 -0.3
v 0.3 0.3 -0.3
v 0.3 0.7 -0.3
v 0.4 0.3 -0.3
v 0.4 0.7 -0.3
v -0.5 -2 -0.4
v -0.5 -1.6 -0.4
v -0.5 -1.5 -0.4
v -0.5 -1.3 -0.4
v -0.5 -0.4 -0.4
v -0.5 -0.3 -0.4
v -0.5 0.3 -0.4
v -0.4 -2 -0.4
v -0.4 -1.6 -0.4
v -0.4 -1.5 -0.4
v -0.4 -1.3 -0.4
v -0.4 -1.2 -0.4
v -0.4 -0.4 -0.4
v -0.4 -0.3 -0.4
v -0.4 0.3 -0.4
v -0.3 0.3 -0.4
v -0.3 0.7 -0.4
v 0.3 0.3 -0.4
v 0.3 0.7 -0.4
v 0.4 -2 -0.4
v 0.4 -1.6 -0.4
v 0.4 -1.5 -0.4
v 0.4 -1 -0.4
v 0.4 -0.9 -0.4
v 0.4 -0.6 -0.4
v 0.4 -0.4 -0.4
v 0.4 -0.3 -0.4
v 0.4 0.3 -0.4
v 0.5 -2 -0.4
v 0.5 -1.6 -0.4
v 0.5 -1.5 -0.4
v 0.5 -0.9 -0.4
v 0.5 -0.4 -0.4
v 0.5 -0.3 -0.4
v 0.5 0.3 -0.4
v -0.4 -2 -0.5
v -0.4 -1.6 -0.5
v -0.4 -1.5 -0.5
v -0.4 -1.2 -0.5
v -0.4 -0.4 -0.5
v -0.4 -0.3 -0.5
v -0.4 0.3 -0.5
v -0.2 -1.2 -0.5
v -0.2 -1.1 -0.5
v 0 -1.5 -0.5
v 0 -1.4 -0.5
v 0 -1.1 -0.5
v 0 -1 -0.5
v 0.1 -1.4 -0.5
v 0.1 -1.3 -0.5
v 0.1 -1 -0.5
v 0.1 -0.8 -0.5
v 0.2 -1.3 -0.5
v 0.2 -1.1 -0.5
v 0.2 -0.8 -0.5
v 0.2 -0.7 -0.5
v 0.3 -1.1 -0.5
v 0.3 -1 -0.5
v 0.3 -0.7 -0.5
v 0.3 -0.6 -0.5
v 0.4 -2 -0.5
v 0.4 -1.6 -0.5
v 0.4 -1.5 -0.5
v 0.4 -1 -0.5
v 0.4 -0.6 -0.5
v 0.4 -0.4 -0.5
v 0.4 -0.3 -0.5
v 0.4 0.3 -0.5
v -0.4 -2 0.5
v 0.4 -2 0.5
v -0.5 -2 0.4
v -0.4 -2 0.4
v 0.4 -2 0.4
v 0.5 -2 0.4
v -0.5 -2 -0.4
v -0.4 -2 -0.4
v 0.4 -2 -0.4
v 0.5 -2 -0.4
v -0.4 -2 -0.5
v 0.4 -2 -0.5
v -0.2 1.6 0.3
v 0.2 1.6 0.3
v -0.3 1.6 0.2
v -0.2 1.6 0.2
v -0.1 1.6 0.2
v 0.1 1.6 0.2
v 0.2 1.6 0.2
v 0.3 1.6 0.2
v -0.2 1.6 0.1
v -0.1 1.6 0.1
v 0.1 1.6 0.1
v 0.2 1.6 0.1
v -0.2 1.6 -0.1
v -0.1 1.6 -0.1
v 0.1 1.6 -0.1
v 0.2 1.6 -0.1
v -0.3 1.6 -0.2
v -0.2 1.6 -0.2
v -0.1 1.6 -0.2
v 0.1 1.6 -0.2
v 0.2 1.6 -0.2
v 0.3 1.6 -0.2
v -0.2 1.6 -0.3
v 0.2 1.6 -0.3
v -0.4 0.3 0.5
v 0.4 0.3 0.5
v -0.5 0.3 0.4
v -0.4 0.3 0.4
v -0.3 0.3 0.4
v 0.3 0.3 0.4
v 0.4 0.3 0.4
v 0.5 0.3 0.4
v -0.4 0.3 0.3
v -0.3 0.3 0.3
v 0.3 0.3 0.3
v 0.4 0.3 0.3
v -0.4 0.3 -0.3
v -0.3 0.3 -0.3
v 0.3 0.3 -0.3
v 0.4 0.3 -0.3
v -0.5 0.3 -0.4
v -0.4 0.3 -0.4
v -0.3 0.3 -0.4
v 0.3 0.3 -0.4
v 0.4 0.3 -0.4
v 0.5 0.3 -0.4
v -0.4 0.3 -0.5
v 0.4 0.3 -0.5
v -0.3 0.7 0.4
v 0.3 0.7 0.4
v -0.4 0.7 0.3
v -0.3 0.7 0.3
v -0.2 0.7 0.3
v 0.2 0.7 0.3
v 0.3 0.7 0.3
v 0.4 0.7 0.3
v -0.3 0.7 0.2
v -0.2 0.7 0.2
v 0.2 0.7 0.2
v 0.3 0.7 0.2
v -0.3 0.7 -0.2
v -0.2 0.7 -0.2
v 0.2 0.7 -0.2
v 0.3 0.7 -0.2
v -0.4 0.7 -0.3
v -0.3 0.7 -0.3
v -0.2 0.7 -0.3
v 0.2 0.7 -0.3
v 0.3 0.7 -0.3
v 0.4 0.7 -0.3
v -0.3 0.7 -0.4
v 0.3 0.7 -0.4
v -0.2 1.4 0.3
v 0.2 1.4 0.3
v -0.3 1.4 0.2
v -0.2 1.4 0.2
v -0.1 1.4 0.2
v 0.1 1.4 0.2
v 0.2 1.4 0.2
v 0.3 1.4 0.2
v -0.2 1.4 0.1
v -0.1 1.4 0.1
v 0.1 1.4 0.1
v 0.2 1.4 0.1
v -0.2 1.4 -0.1
v -0.1 1.4 -0.1
v 0.1 1.4 -0.1
v 0.2 1.4 -0.1
v -0.3 1.4 -0.2
v -0.2 1.4 -0.2
v -0.1 1.4 -0.2
v 0.1 1.4 -0.2
v 0.2 1.4 -0.2
v 0.3 1.4 -0.2
v -0.2 1.4 -0.3
v 0.2 1.4 -0.3
v -0.2 2 0.3
v 0.2 2 0.3
v -0.3 2 0.2
v -0.2 2 0.2
v 0.2 2 0.2
v 0.3 2 0.2
v -0.3 2 -0.2
v -0.2 2 -0.2
v 0.2 2 -0.2
v 0.3 2 -0.2
v -0.2 2 -0.3
v 0.2 2 -0.3

# faces
f 3/2/1 2/2/1 1/2/1
f 4/2/1 2/2/1 3/2/1
f 5/1/1 4/1/1 3/1/1
f 6/1/1 4/1/1 5/1/1
f 7/3/1 6/3/1 5/3/1
f 8/3/1 6/3/1 7/3/1
f 9/4/1 8/4/1 7/4/1
f 10/4/1 8/4/1 9/4/1
f 11/1/1 10/1/1 9/1/1
f 12/1/1 10/1/1 11/1/1
f 13/2/1 12/2/1 11/2/1
f 14/2/1 12/2/1 13/2/1
f 19/2/1 16/2/1 15/2/1
f 20/2/1 16/2/1 19/2/1
f 21/2/1 18/2/1 17/2/1
f 22/2/1 18/2/1 21/2/1
f 23/1/1 20/1/1 19/1/1
f 24/1/1 20/1/1 23/1/1
f 25/1/1 22/1/1 21/1/1
f 26/1/1 22/1/1 25/1/1
f 27/3/1 24/3/1 23/3/1
f 28/3/1 26/3/1 25/3/1
f 29/3/1 27/3/1 23/3/1
f 30/3/1 27/3/1 29/3/1
f 31/3/1 26/3/1 28/3/1
f 32/3/1 26/3/1 31/3/1
f 33/4/1 30/4/1 29/4/1
f 34/4/1 30/4/1 33/4/1
f 35/4/1 32/4/1 31/4/1
f 36/4/1 32/4/1 35/4/1
f 37/1/1 34/1/1 33/1/1
f 38/1/1 34/1/1 37/1/1
f 39/1/1 36/1/1 35/1/1
f 40/1/1 36/1/1 39/1/1
f 41/2/1 38/2/1 37/2/1
f 42/2/1 38/2/1 41/2/1
f 45/2/1 40/2/1 39/2/1
f 46/2/1 40/2/1 45/2/1
f 47/2/1 44/2/1 43/2/1
f 48/2/1 44/2/1 47/2/1
f 53/2/1 50/2/1 49/2/1
f 54/2/1 50/2/1 53/2/1
f 57/2/1 52/2/1 51/2/1
f 58/2/1 52/2/1 57/2/1
f 59/2/1 56/2/1 55/2/1
f 60/2/1 56/2/1 59/2/1
f 61/5/1 60/5/1 59/5/1
f 62/5/1 60/5/1 61/5/1
f 65/4/1 64/4/1 63/4/1
f 66/4/1 64/4/1 65/4/1
f 67/3/1 66/3/1 65/3/1
f 68/3/1 66/3/1 67/3/1
f 73/2/1 70/2/1 69/2/1
f 74/2/1 70/2/1 73/2/1
f 75/2/1 72/2/1 71/2/1
f 76/2/1 72/2/1 75/2/1
f 77/5/1 74/5/1 73/5/1
f 78/5/1 74/5/1 77/5/1
f 81/5/1 76/5/1 75/5/1
f 82/5/1 76/5/1 81/5/1
f 85/5/1 80/5/1 79/5/1
f 86/5/1 80/5/1 85/5/1
f 89/4/1 84/4/1 83/4/1
f 90/4/1 84/4/1 89/4/1
f 91/4/1 88/4/1 87/4/1
f 92/4/1 88/4/1 91/4/1
f 93/3/1 90/3/1 89/3/1
f 94/3/1 90/3/1 93/3/1
f 95/3/1 92/3/1 91/3/1
f 96/3/1 92/3/1 95/3/1
f 101/5/1 98/5/1 97/5/1
f 102/5/1 98/5/1 101/5/1
f 103/5/1 100/5/1 99/5/1
f 104/5/1 100/5/1 103/5/1
f 105/5/2 106/5/2 109/5/2
f 109/5/2 106/5/2 110/5/2
f 107/5/2 108/5/2 111/5/2
f 111/5/2 108/5/2 112/5/2
f 113/2/2 114/2/2 117/2/2
f 117/2/2 114/2/2 118/2/2
f 115/2/2 116/2/2 119/2/2
f 119/2/2 116/2/2 120/2/2
f 117/5/2 118/5/2 121/5/2
f 121/5/2 118/5/2 122/5/2
f 119/5/2 120/5/2 125/5/2
f 125/5/2 120/5/2 126/5/2
f 123/5/2 124/5/2 129/5/2
f 129/5/2 124/5/2 130/5/2
f 127/4/2 128/4/2 133/4/2
f 133/4/2 128/4/2 134/4/2
f 131/4/2 132/4/2 135/4/2
f 135/4/2 132/4/2 136/4/2
f 133/3/2 134/3/2 137/3/2
f 137/3/2 134/3/2 138/3/2
f 135/3/2 136/3/2 139/3/2
f 139/3/2 136/3/2 140/3/2
f 141/2/2 142/2/2 145/2/2
f 145/2/2 142/2/2 146/2/2
f 143/2/2 144/2/2 149/2/2
f 149/2/2 144/2/2 150/2/2
f 147/2/2 148/2/2 151/2/2
f 151/2/2 148/2/2 152/2/2
f 151/5/2 152/5/2 153/5/2
f 153/5/2 152/5/2 154/5/2
f 155/4/2 156/4/2 157/4/2
f 157/4/2 156/4/2 158/4/2
f 157/3/2 158/3/2 159/3/2
f 159/3/2 158/3/2 160/3/2
f 161/2/2 162/2/2 165/2/2
f 165/2/2 162/2/2 166/2/2
f 163/2/2 164/2/2 167/2/2
f 167/2/2 164/2/2 168/2/2
f 165/1/2 166/1/2 169/1/2
f 169/1/2 166/1/2 170/1/2
f 167/1/2 168/1/2 171/1/2
f 171/1/2 168/1/2 172/1/2
f 169/4/2 170/4/2 173/4/2
f 173/4/2 170/4/2 174/4/2
f 171/4/2 172/4/2 175/4/2
f 175/4/2 172/4/2 176/4/2
f 173/3/2 174/3/2 177/3/2
f 175/3/2 176/3/2 178/3/2
f 173/3/2 177/3/2 179/3/2
f 179/3/2 177/3/2 180/3/2
f 178/3/2 176/3/2 181/3/2
f 181/3/2 176/3/2 182/3/2
f 179/4/2 180/4/2 183/4/2
f 183/4/2 180/4/2 184/4/2
f 181/4/2 182/4/2 185/4/2
f 185/4/2 182/4/2 186/4/2
f 183/1/2 184/1/2 187/1/2
f 187/1/2 184/1/2 188/1/2
f 185/1/2 186/1/2 189/1/2
f 189/1/2 186/1/2 190/1/2
f 187/2/2 188/2/2 191/2/2
f 191/2/2 188/2/2 192/2/2
f 189/2/2 190/2/2 195/2/2
f 195/2/2 190/2/2 196/2/2
f 193/2/2 194/2/2 197/2/2
f 197/2/2 194/2/2 198/2/2
f 199/2/2 200/2/2 201/2/2
f 201/2/2 200/2/2 202/2/2
f 201/1/2 202/1/2 203/1/2
f 203/1/2 202/1/2 204/1/2
f 203/4/2 204/4/2 205/4/2
f 205/4/2 204/4/2 206/4/2
f 205/3/2 206/3/2 207/3/2
f 207/3/2 206/3/2 208/3/2
f 207/1/2 208/1/2 209/1/2
f 209/1/2 208/1/2 210/1/2
f 209/2/2 210/2/2 211/2/2
f 211/2/2 210/2/2 212/2/2
f 220/3/3 216/3/3 215/3/3
f 220/4/3 217/4/3 216/4/3
f 221/4/3 217/4/3 220/4/3
f 222/1/3 215/1/3 214/1/3
f 222/3/3 220/3/3 215/3/3
f 222/3/3 221/3/3 220/3/3
f 223/3/3 221/3/3 222/3/3
f 224/4/3 217/4/3 221/4/3
f 224/3/3 221/3/3 223/3/3
f 225/4/3 217/4/3 224/4/3
f 226/4/3 223/4/3 222/4/3
f 226/3/3 224/3/3 223/3/3
f 226/3/3 225/3/3 224/3/3
f 227/3/3 225/3/3 226/3/3
f 228/4/3 217/4/3 225/4/3
f 228/3/3 225/3/3 227/3/3
f 229/4/3 217/4/3 228/4/3
f 230/4/3 227/4/3 226/4/3
f 230/3/3 228/3/3 227/3/3
f 230/3/3 229/3/3 228/3/3
f 231/3/3 229/3/3 230/3/3
f 232/4/3 217/4/3 229/4/3
f 232/3/3 229/3/3 231/3/3
f 233/4/3 217/4/3 232/4/3
f 234/4/3 231/4/3 230/4/3
f 234/3/3 232/3/3 231/3/3
f 234/3/3 233/3/3 232/3/3
f 235/3/3 233/3/3 234/3/3
f 236/4/3 217/4/3 233/4/3
f 236/3/3 233/3/3 235/3/3
f 237/4/3 217/4/3 236/4/3
f 238/2/3 214/2/3 213/2/3
f 239/1/3 222/1/3 214/1/3
f 239/2/3 214/2/3 238/2/3
f 240/4/3 235/4/3 234/4/3
f 240/1/3 222/1/3 239/1/3
f 240/4/3 226/4/3 222/4/3
f 240/4/3 230/4/3 226/4/3
f 240/4/3 234/4/3 230/4/3
f 241/3/3 237/3/3 236/3/3
f 241/4/3 235/4/3 240/4/3
f 241/3/3 236/3/3 235/3/3
f 242/4/3 217/4/3 237/4/3
f 242/3/3 237/3/3 241/3/3
f 243/1/3 218/1/3 217/1/3
f 243/4/3 217/4/3 242/4/3
f 244/2/3 219/2/3 218/2/3
f 244/1/3 218/1/3 243/1/3
f 245/2/3 219/2/3 244/2/3
f 253/2/3 247/2/3 246/2/3
f 254/1/3 248/1/3 247/1/3
f 254/2/3 247/2/3 253/2/3
f 255/3/3 249/3/3 248/3/3
f 255/1/3 248/1/3 254/1/3
f 256/4/3 250/4/3 249/4/3
f 256/3/3 249/3/3 255/3/3
f 257/4/3 250/4/3 256/4/3
f 258/1/3 251/1/3 250/1/3
f 258/4/3 250/4/3 257/4/3
f 259/2/3 252/2/3 251/2/3
f 259/1/3 251/1/3 258/1/3
f 260/2/3 252/2/3 259/2/3
f 263/2/3 262/2/3 261/2/3
f 264/2/3 262/2/3 263/2/3
f 274/2/3 266/2/3 265/2/3
f 275/1/3 267/1/3 266/1/3
f 275/2/3 266/2/3 274/2/3
f 276/4/3 268/4/3 267/4/3
f 276/1/3 267/1/3 275/1/3
f 276/4/3 269/4/3 268/4/3
f 277/3/3 270/3/3 269/3/3
f 277/4/3 269/4/3 276/4/3
f 277/3/3 271/3/3 270/3/3
f 278/1/3 272/1/3 271/1/3
f 278/3/3 271/3/3 277/3/3
f 279/2/3 273/2/3 272/2/3
f 279/1/3 272/1/3 278/1/3
f 280/2/3 273/2/3 279/2/3
f 283/2/3 282/2/3 281/2/3
f 284/2/3 282/2/3 283/2/3
f 291/2/3 286/2/3 285/2/3
f 292/5/3 287/5/3 286/5/3
f 292/2/3 286/2/3 291/2/3
f 293/5/3 287/5/3 292/5/3
f 294/4/3 289/4/3 288/4/3
f 295/3/3 290/3/3 289/3/3
f 295/4/3 289/4/3 294/4/3
f 296/3/3 290/3/3 295/3/3
f 299/2/3 298/2/3 297/2/3
f 300/2/3 298/2/3 299/2/3
f 307/2/3 302/2/3 301/2/3
f 308/5/3 303/5/3 302/5/3
f 308/2/3 302/2/3 307/2/3
f 309/5/3 303/5/3 308/5/3
f 310/4/3 305/4/3 304/4/3
f 311/3/3 306/3/3 305/3/3
f 311/4/3 305/4/3 310/4/3
f 312/3/3 306/3/3 311/3/3
f 315/5/3 314/5/3 313/5/3
f 316/5/3 314/5/3 315/5/3
f 323/2/3 318/2/3 317/2/3
f 324/5/3 319/5/3 318/5/3
f 324/2/3 318/2/3 323/2/3
f 325/5/3 319/5/3 324/5/3
f 326/4/3 321/4/3 320/4/3
f 327/3/3 322/3/3 321/3/3
f 327/4/3 321/4/3 326/4/3
f 328/3/3 322/3/3 327/3/3
f 331/5/3 330/5/3 329/5/3
f 332/5/3 330/5/3 331/5/3
f 335/5/3 334/5/3 333/5/3
f 336/5/3 334/5/3 335/5/3
f 337/5/4 338/5/4 339/5/4
f 339/5/4 338/5/4 340/5/4
f 341/5/4 342/5/4 343/5/4
f 343/5/4 342/5/4 344/5/4
f 345/2/4 346/2/4 351/2/4
f 346/5/4 347/5/4 352/5/4
f 351/2/4 346/2/4 352/2/4
f 352/5/4 347/5/4 353/5/4
f 348/4/4 349/4/4 354/4/4
f 349/3/4 350/3/4 355/3/4
f 354/4/4 349/4/4 355/4/4
f 355/3/4 350/3/4 356/3/4
f 357/5/4 358/5/4 359/5/4
f 359/5/4 358/5/4 360/5/4
f 361/2/4 362/2/4 367/2/4
f 362/5/4 363/5/4 368/5/4
f 367/2/4 362/2/4 368/2/4
f 368/5/4 363/5/4 369/5/4
f 364/4/4 365/4/4 370/4/4
f 365/3/4 366/3/4 371/3/4
f 370/4/4 365/4/4 371/4/4
f 371/3/4 366/3/4 372/3/4
f 373/2/4 374/2/4 375/2/4
f 375/2/4 374/2/4 376/2/4
f 377/2/4 378/2/4 383/2/4
f 378/5/4 379/5/4 384/5/4
f 383/2/4 378/2/4 384/2/4
f 384/5/4 379/5/4 385/5/4
f 380/4/4 381/4/4 386/4/4
f 381/3/4 382/3/4 387/3/4
f 386/4/4 381/4/4 387/4/4
f 387/3/4 382/3/4 388/3/4
f 389/2/4 390/2/4 391/2/4
f 391/2/4 390/2/4 392/2/4
f 393/2/4 394/2/4 400/2/4
f 394/1/4 395/1/4 401/1/4
f 400/2/4 394/2/4 401/2/4
f 395/3/4 396/3/4 402/3/4
f 401/1/4 395/1/4 402/1/4
f 396/4/4 397/4/4 403/4/4
f 402/3/4 396/3/4 403/3/4
f 403/4/4 397/4/4 404/4/4
f 397/1/4 398/1/4 405/1/4
f 404/4/4 397/4/4 405/4/4
f 398/2/4 399/2/4 406/2/4
f 405/1/4 398/1/4 406/1/4
f 406/2/4 399/2/4 407/2/4
f 408/2/4 409/2/4 410/2/4
f 410/2/4 409/2/4 411/2/4
f 412/2/4 413/2/4 421/2/4
f 413/1/4 414/1/4 422/1/4
f 421/2/4 413/2/4 422/2/4
f 414/4/4 415/4/4 423/4/4
f 422/1/4 414/1/4 423/1/4
f 415/4/4 416/4/4 423/4/4
f 416/3/4 417/3/4 424/3/4
f 423/4/4 416/4/4 424/4/4
f 417/3/4 418/3/4 424/3/4
f 418/1/4 419/1/4 425/1/4
f 424/3/4 418/3/4 425/3/4
f 419/2/4 420/2/4 426/2/4
f 425/1/4 419/1/4 426/1/4
f 426/2/4 420/2/4 427/2/4
f 430/3/4 431/3/4 435/3/4
f 431/4/4 432/4/4 435/4/4
f 435/4/4 432/4/4 436/4/4
f 429/1/4 430/1/4 437/1/4
f 430/3/4 435/3/4 437/3/4
f 435/3/4 436/3/4 437/3/4
f 437/3/4 436/3/4 438/3/4
f 436/4/4 432/4/4 439/4/4
f 438/3/4 436/3/4 439/3/4
f 439/4/4 432/4/4 440/4/4
f 437/4/4 438/4/4 441/4/4
f 438/3/4 439/3/4 441/3/4
f 439/3/4 440/3/4 441/3/4
f 441/3/4 440/3/4 442/3/4
f 440/4/4 432/4/4 443/4/4
f 442/3/4 440/3/4 443/3/4
f 443/4/4 432/4/4 444/4/4
f 441/4/4 442/4/4 445/4/4
f 442/3/4 443/3/4 445/3/4
f 443/3/4 444/3/4 445/3/4
f 445/3/4 444/3/4 446/3/4
f 444/4/4 432/4/4 447/4/4
f 446/3/4 444/3/4 447/3/4
f 447/4/4 432/4/4 448/4/4
f 445/4/4 446/4/4 449/4/4
f 446/3/4 447/3/4 449/3/4
f 447/3/4 448/3/4 449/3/4
f 449/3/4 448/3/4 450/3/4
f 448/4/4 432/4/4 451/4/4
f 450/3/4 448/3/4 451/3/4
f 451/4/4 432/4/4 452/4/4
f 428/2/4 429/2/4 453/2/4
f 429/1/4 437/1/4 454/1/4
f 453/2/4 429/2/4 454/2/4
f 449/4/4 450/4/4 455/4/4
f 454/1/4 437/1/4 455/1/4
f 437/4/4 441/4/4 455/4/4
f 441/4/4 445/4/4 455/4/4
f 445/4/4 449/4/4 455/4/4
f 451/3/4 452/3/4 456/3/4
f 455/4/4 450/4/4 456/4/4
f 450/3/4 451/3/4 456/3/4
f 452/4/4 432/4/4 457/4/4
f 456/3/4 452/3/4 457/3/4
f 432/1/4 433/1/4 458/1/4
f 457/4/4 432/4/4 458/4/4
f 433/2/4 434/2/4 459/2/4
f 458/1/4 433/1/4 459/1/4
f 459/2/4 434/2/4 460/2/4
f 464/2/5 462/2/5 461/2/5
f 465/2/5 462/2/5 464/2/5
f 467/2/5 464/2/5 463/2/5
f 467/2/5 466/2/5 465/2/5
f 467/2/5 465/2/5 464/2/5
f 468/2/5 466/2/5 467/2/5
f 469/2/5 466/2/5 468/2/5
f 470/2/5 466/2/5 469/2/5
f 471/2/5 469/2/5 468/2/5
f 472/2/5 469/2/5 471/2/5
f 476/4/5 474/4/5 473/4/5
f 477/4/5 474/4/5 476/4/5
f 478/4/5 474/4/5 477/4/5
f 479/4/5 474/4/5 478/4/5
f 481/4/5 476/4/5 475/4/5
f 481/4/5 477/4/5 476/4/5
f 482/4/5 477/4/5 481/4/5
f 483/4/5 480/4/5 479/4/5
f 483/4/5 479/4/5 478/4/5
f 484/4/5 480/4/5 483/4/5
f 485/4/5 481/4/5 475/4/5
f 488/4/5 480/4/5 484/4/5
f 489/4/5 486/4/5 485/4/5
f 489/4/5 485/4/5 475/4/5
f 490/4/5 486/4/5 489/4/5
f 491/4/5 486/4/5 490/4/5
f 492/4/5 488/4/5 487/4/5
f 493/4/5 480/4/5 488/4/5
f 493/4/5 488/4/5 492/4/5
f 494/4/5 480/4/5 493/4/5
f 495/4/5 491/4/5 490/4/5
f 495/4/5 492/4/5 491/4/5
f 495/4/5 493/4/5 492/4/5
f 496/4/5 493/4/5 495/4/5
f 497/2/6 498/2/6 500/2/6
f 500/2/6 498/2/6 501/2/6
f 501/2/6 498/2/6 502/2/6
f 502/2/6 498/2/6 503/2/6
f 499/2/6 500/2/6 505/2/6
f 500/2/6 501/2/6 505/2/6
f 505/2/6 501/2/6 506/2/6
f 503/2/6 504/2/6 507/2/6
f 502/2/6 503/2/6 507/2/6
f 507/2/6 504/2/6 508/2/6
f 499/2/6 505/2/6 509/2/6
f 508/2/6 504/2/6 512/2/6
f 509/2/6 510/2/6 513/2/6
f 499/2/6 509/2/6 513/2/6
f 513/2/6 510/2/6 514/2/6
f 514/2/6 510/2/6 515/2/6
f 511/2/6 512/2/6 516/2/6
f 512/2/6 504/2/6 517/2/6
f 516/2/6 512/2/6 517/2/6
f 517/2/6 504/2/6 518/2/6
f 514/2/6 515/2/6 519/2/6
f 515/2/6 516/2/6 519/2/6
f 516/2/6 517/2/6 519/2/6
f 519/2/6 517/2/6 520/2/6
f 521/2/6 522/2/6 524/2/6
f 524/2/6 522/2/6 525/2/6
f 525/2/6 522/2/6 526/2/6
f 526/2/6 522/2/6 527/2/6
f 523/2/6 524/2/6 529/2/6
f 524/2/6 525/2/6 529/2/6
f 529/2/6 525/2/6 530/2/6
f 527/2/6 528/2/6 531/2/6
f 526/2/6 527/2/6 531/2/6
f 531/2/6 528/2/6 532/2/6
f 523/2/6 529/2/6 533/2/6
f 532/2/6 528/2/6 536/2/6
f 533/2/6 534/2/6 537/2/6
f 523/2/6 533/2/6 537/2/6
f 537/2/6 534/2/6 538/2/6
f 538/2/6 534/2/6 539/2/6
f 535/2/6 536/2/6 540/2/6
f 536/2/6 528/2/6 541/2/6
f 540/2/6 536/2/6 541/2/6
f 541/2/6 528/2/6 542/2/6
f 538/2/6 539/2/6 543/2/6
f 539/2/6 540/2/6 543/2/6
f 540/2/6 541/2/6 543/2/6
f 543/2/6 541/2/6 544/2/6
f 545/5/6 546/5/6 548/5/6
f 548/5/6 546/5/6 549/5/6
f 549/5/6 546/5/6 550/5/6
f 550/5/6 546/5/6 551/5/6
f 547/5/6 548/5/6 553/5/6
f 548/5/6 549/5/6 553/5/6
f 553/5/6 549/5/6 554/5/6
f 551/5/6 552/5/6 555/5/6
f 550/5/6 551/5/6 555/5/6
f 555/5/6 552/5/6 556/5/6
f 547/5/6 553/5/6 557/5/6
f 556/5/6 552/5/6 560/5/6
f 557/5/6 558/5/6 561/5/6
f 547/5/6 557/5/6 561/5/6
f 561/5/6 558/5/6 562/5/6
f 562/5/6 558/5/6 563/5/6
f 559/5/6 560/5/6 564/5/6
f 560/5/6 552/5/6 565/5/6
f 564/5/6 560/5/6 565/5/6
f 565/5/6 552/5/6 566/5/6
f 562/5/6 563/5/6 567/5/6
f 563/5/6 564/5/6 567/5/6
f 564/5/6 565/5/6 567/5/6
f 567/5/6 565/5/6 568/5/6
f 569/3/6 570/3/6 572/3/6
f 572/3/6 570/3/6 573/3/6
f 571/3/6 572/3/6 575/3/6
f 573/3/6 574/3/6 575/3/6
f 572/3/6 573/3/6 575/3/6
f 575/3/6 574/3/6 576/3/6
f 576/3/6 574/3/6 577/3/6
f 577/3/6 574/3/6 578/3/6
f 576/3/6 577/3/6 579/3/6
f 579/3/6 577/3/6 580/3/6
