# MagicaVoxel @ Ephtracy

# group
o 

# material
mtllib chertej-113.mtl
usemtl palette

# normals
vn -1 0 0
vn 1 0 0
vn 0 0 1
vn 0 0 -1
vn 0 -1 0
vn 0 1 0

# texcoords
vt 0.357422 0.5
vt 0.966797 0.5
vt 0.978516 0.5

# verts
v -5.4 -0.4 37.8
v -5.4 -0.4 37.2
v -5.4 9.8 37.8
v -5.4 9.8 37.2
v -5.2 9.8 37.8
v -5.2 9.8 37.2
v -5.2 10.2 37.8
v -5.2 10.2 37.2
v -5 10.2 37.8
v -5 10.2 37.2
v -5 10.4 37.8
v -5 10.4 37.2
v -4.8 10.4 37.8
v -4.8 10.4 37.2
v -4.8 10.6 37.8
v -4.8 10.6 37.2
v -4.6 10.6 37.8
v -4.6 10.6 37.2
v -4.6 10.8 37.8
v -4.6 10.8 37.2
v -4.4 10.8 37.8
v -4.4 10.8 37.2
v -4.4 11 37.8
v -4.4 11 37.2
v -4.2 11 37.8
v -4.2 11 37.2
v -4.2 11.2 37.8
v -4.2 11.2 37.2
v -3.8 11.2 37.8
v -3.8 11.2 37.2
v -3.8 11.4 37.8
v -3.8 11.4 37.2
v -3 0.4 37.8
v -3 0.4 37.6
v -3 3.6 37.8
v -3 3.6 37.6
v -3 3.8 37.8
v -3 3.8 37.6
v -3 7 37.8
v -3 7 37.6
v -3 7.2 37.8
v -3 7.2 37.6
v -3 10.8 37.8
v -3 10.8 37.6
v -2 10.6 37.8
v -2 10.6 37.6
v -2 10.8 37.8
v -2 10.8 37.6
v -1.8 10.4 37.8
v -1.8 10.4 37.6
v -1.8 10.6 37.8
v -1.8 10.6 37.6
v -1.6 10.2 37.8
v -1.6 10.2 37.6
v -1.6 10.4 37.8
v -1.6 10.4 37.6
v -1.4 10 37.8
v -1.4 10 37.6
v -1.4 10.2 37.8
v -1.4 10.2 37.6
v -1.2 9.8 37.8
v -1.2 9.8 37.6
v -1.2 10 37.8
v -1.2 10 37.6
v -1 0.4 37.8
v -1 0.4 37.6
v -1 3.6 37.8
v -1 3.6 37.6
v -1 3.8 37.8
v -1 3.8 37.6
v -1 7 37.8
v -1 7 37.6
v -1 7.2 37.8
v -1 7.2 37.6
v -1 9.8 37.8
v -1 9.8 37.6
v -4.8 0.4 37.8
v -4.8 0.4 37.6
v -4.8 3.6 37.8
v -4.8 3.6 37.6
v -4.8 3.8 37.8
v -4.8 3.8 37.6
v -4.8 7 37.8
v -4.8 7 37.6
v -4.8 7.2 37.8
v -4.8 7.2 37.6
v -4.8 9.8 37.8
v -4.8 9.8 37.6
v -4.6 9.8 37.8
v -4.6 9.8 37.6
v -4.6 10 37.8
v -4.6 10 37.6
v -4.4 10 37.8
v -4.4 10 37.6
v -4.4 10.2 37.8
v -4.4 10.2 37.6
v -4.2 10.2 37.8
v -4.2 10.2 37.6
v -4.2 10.4 37.8
v -4.2 10.4 37.6
v -4 10.4 37.8
v -4 10.4 37.6
v -4 10.6 37.8
v -4 10.6 37.6
v -3.8 10.6 37.8
v -3.8 10.6 37.6
v -3.8 10.8 37.8
v -3.8 10.8 37.6
v -2.8 0.4 37.8
v -2.8 0.4 37.6
v -2.8 3.6 37.8
v -2.8 3.6 37.6
v -2.8 3.8 37.8
v -2.8 3.8 37.6
v -2.8 7 37.8
v -2.8 7 37.6
v -2.8 7.2 37.8
v -2.8 7.2 37.6
v -2.8 10.8 37.8
v -2.8 10.8 37.6
v -2 11.2 37.8
v -2 11.2 37.2
v -2 11.4 37.8
v -2 11.4 37.2
v -1.6 11 37.8
v -1.6 11 37.2
v -1.6 11.2 37.8
v -1.6 11.2 37.2
v -1.4 10.8 37.8
v -1.4 10.8 37.2
v -1.4 11 37.8
v -1.4 11 37.2
v -1.2 10.6 37.8
v -1.2 10.6 37.2
v -1.2 10.8 37.8
v -1.2 10.8 37.2
v -1 10.4 37.8
v -1 10.4 37.2
v -1 10.6 37.8
v -1 10.6 37.2
v -0.8 10.2 37.8
v -0.8 10.2 37.2
v -0.8 10.4 37.8
v -0.8 10.4 37.2
v -0.6 9.8 37.8
v -0.6 9.8 37.2
v -0.6 10.2 37.8
v -0.6 10.2 37.2
v -0.4 -0.4 37.8
v -0.4 -0.4 37.2
v -0.4 9.8 37.8
v -0.4 9.8 37.2
v -5.4 -0.4 37.8
v -5.4 9.8 37.8
v -5.2 9.8 37.8
v -5.2 10.2 37.8
v -5 10.2 37.8
v -5 10.4 37.8
v -4.8 0.4 37.8
v -4.8 3.6 37.8
v -4.8 3.8 37.8
v -4.8 7 37.8
v -4.8 7.2 37.8
v -4.8 9.8 37.8
v -4.8 10.4 37.8
v -4.8 10.6 37.8
v -4.6 9.8 37.8
v -4.6 10 37.8
v -4.6 10.6 37.8
v -4.6 10.8 37.8
v -4.4 10 37.8
v -4.4 10.2 37.8
v -4.4 10.8 37.8
v -4.4 11 37.8
v -4.2 10.2 37.8
v -4.2 10.4 37.8
v -4.2 11 37.8
v -4.2 11.2 37.8
v -4 10.4 37.8
v -4 10.6 37.8
v -3.8 10.6 37.8
v -3.8 10.8 37.8
v -3.8 11.2 37.8
v -3.8 11.4 37.8
v -3 0.4 37.8
v -3 3.6 37.8
v -3 3.8 37.8
v -3 7 37.8
v -3 7.2 37.8
v -3 10.8 37.8
v -2.8 0.4 37.8
v -2.8 3.6 37.8
v -2.8 3.8 37.8
v -2.8 7 37.8
v -2.8 7.2 37.8
v -2.8 10.8 37.8
v -2 10.6 37.8
v -2 10.8 37.8
v -2 11.2 37.8
v -2 11.4 37.8
v -1.8 10.4 37.8
v -1.8 10.6 37.8
v -1.6 10.2 37.8
v -1.6 10.4 37.8
v -1.6 11 37.8
v -1.6 11.2 37.8
v -1.4 10 37.8
v -1.4 10.2 37.8
v -1.4 10.8 37.8
v -1.4 11 37.8
v -1.2 9.8 37.8
v -1.2 10 37.8
v -1.2 10.6 37.8
v -1.2 10.8 37.8
v -1 0.4 37.8
v -1 3.6 37.8
v -1 3.8 37.8
v -1 7 37.8
v -1 7.2 37.8
v -1 9.8 37.8
v -1 10.4 37.8
v -1 10.6 37.8
v -0.8 10.2 37.8
v -0.8 10.4 37.8
v -0.6 9.8 37.8
v -0.6 10.2 37.8
v -0.4 -0.4 37.8
v -0.4 9.8 37.8
v -4.8 0.4 37.6
v -4.8 3.6 37.6
v -4.8 3.8 37.6
v -4.8 7 37.6
v -4.8 7.2 37.6
v -4.8 9.8 37.6
v -4.6 9.8 37.6
v -4.6 10 37.6
v -4.4 10 37.6
v -4.4 10.2 37.6
v -4.2 10.2 37.6
v -4.2 10.4 37.6
v -4 10.4 37.6
v -4 10.6 37.6
v -3.8 10.6 37.6
v -3.8 10.8 37.6
v -3 0.4 37.6
v -3 3.6 37.6
v -3 3.8 37.6
v -3 7 37.6
v -3 7.2 37.6
v -3 10.8 37.6
v -2.8 0.4 37.6
v -2.8 3.6 37.6
v -2.8 3.8 37.6
v -2.8 7 37.6
v -2.8 7.2 37.6
v -2.8 10.8 37.6
v -2 10.6 37.6
v -2 10.8 37.6
v -1.8 10.4 37.6
v -1.8 10.6 37.6
v -1.6 10.2 37.6
v -1.6 10.4 37.6
v -1.4 10 37.6
v -1.4 10.2 37.6
v -1.2 9.8 37.6
v -1.2 10 37.6
v -1 0.4 37.6
v -1 3.6 37.6
v -1 3.8 37.6
v -1 7 37.6
v -1 7.2 37.6
v -1 9.8 37.6
v -5.4 -0.4 37.2
v -5.4 9.8 37.2
v -5.2 9.8 37.2
v -5.2 10.2 37.2
v -5 10.2 37.2
v -5 10.4 37.2
v -4.8 0.4 37.2
v -4.8 3.6 37.2
v -4.8 3.8 37.2
v -4.8 7 37.2
v -4.8 7.2 37.2
v -4.8 9.6 37.2
v -4.8 10.4 37.2
v -4.8 10.6 37.2
v -4.6 9.6 37.2
v -4.6 10 37.2
v -4.6 10.6 37.2
v -4.6 10.8 37.2
v -4.4 10.8 37.2
v -4.4 11 37.2
v -4.2 10 37.2
v -4.2 10.8 37.2
v -4.2 11 37.2
v -4.2 11.2 37.2
v -3.8 11.2 37.2
v -3.8 11.4 37.2
v -3 0.4 37.2
v -3 3.6 37.2
v -3 3.8 37.2
v -3 7 37.2
v -3 7.2 37.2
v -3 10.8 37.2
v -2.8 0.4 37.2
v -2.8 3.6 37.2
v -2.8 3.8 37.2
v -2.8 7 37.2
v -2.8 7.2 37.2
v -2.8 10.8 37.2
v -2 11.2 37.2
v -2 11.4 37.2
v -1.6 10 37.2
v -1.6 10.8 37.2
v -1.6 11 37.2
v -1.6 11.2 37.2
v -1.4 10.8 37.2
v -1.4 11 37.2
v -1.2 9.6 37.2
v -1.2 10 37.2
v -1.2 10.6 37.2
v -1.2 10.8 37.2
v -1 0.4 37.2
v -1 3.6 37.2
v -1 3.8 37.2
v -1 7 37.2
v -1 7.2 37.2
v -1 9.4 37.2
v -1 10.4 37.2
v -1 10.6 37.2
v -0.8 9.4 37.2
v -0.8 9.6 37.2
v -0.8 10.2 37.2
v -0.8 10.4 37.2
v -0.6 9.8 37.2
v -0.6 10.2 37.2
v -0.4 -0.4 37.2
v -0.4 9.8 37.2
v -5.4 -0.4 37.8
v -0.4 -0.4 37.8
v -5.4 -0.4 37.2
v -0.4 -0.4 37.2
v -4.8 3.6 37.8
v -3 3.6 37.8
v -2.8 3.6 37.8
v -1 3.6 37.8
v -4.8 3.6 37.6
v -3 3.6 37.6
v -2.8 3.6 37.6
v -1 3.6 37.6
v -4.8 7 37.8
v -3 7 37.8
v -2.8 7 37.8
v -1 7 37.8
v -4.8 7 37.6
v -3 7 37.6
v -2.8 7 37.6
v -1 7 37.6
v -4.8 9.8 37.8
v -4.6 9.8 37.8
v -1.2 9.8 37.8
v -1 9.8 37.8
v -4.8 9.8 37.6
v -4.6 9.8 37.6
v -1.2 9.8 37.6
v -1 9.8 37.6
v -4.6 10 37.8
v -4.4 10 37.8
v -1.4 10 37.8
v -1.2 10 37.8
v -4.6 10 37.6
v -4.4 10 37.6
v -1.4 10 37.6
v -1.2 10 37.6
v -4.4 10.2 37.8
v -4.2 10.2 37.8
v -1.6 10.2 37.8
v -1.4 10.2 37.8
v -4.4 10.2 37.6
v -4.2 10.2 37.6
v -1.6 10.2 37.6
v -1.4 10.2 37.6
v -4.2 10.4 37.8
v -4 10.4 37.8
v -1.8 10.4 37.8
v -1.6 10.4 37.8
v -4.2 10.4 37.6
v -4 10.4 37.6
v -1.8 10.4 37.6
v -1.6 10.4 37.6
v -4 10.6 37.8
v -3.8 10.6 37.8
v -2 10.6 37.8
v -1.8 10.6 37.8
v -4 10.6 37.6
v -3.8 10.6 37.6
v -2 10.6 37.6
v -1.8 10.6 37.6
v -3.8 10.8 37.8
v -3 10.8 37.8
v -2.8 10.8 37.8
v -2 10.8 37.8
v -3.8 10.8 37.6
v -3 10.8 37.6
v -2.8 10.8 37.6
v -2 10.8 37.6
v -4.8 0.4 37.8
v -3 0.4 37.8
v -2.8 0.4 37.8
v -1 0.4 37.8
v -4.8 0.4 37.6
v -3 0.4 37.6
v -2.8 0.4 37.6
v -1 0.4 37.6
v -4.8 3.8 37.8
v -3 3.8 37.8
v -2.8 3.8 37.8
v -1 3.8 37.8
v -4.8 3.8 37.6
v -3 3.8 37.6
v -2.8 3.8 37.6
v -1 3.8 37.6
v -4.8 7.2 37.8
v -3 7.2 37.8
v -2.8 7.2 37.8
v -1 7.2 37.8
v -4.8 7.2 37.6
v -3 7.2 37.6
v -2.8 7.2 37.6
v -1 7.2 37.6
v -5.4 9.8 37.8
v -5.2 9.8 37.8
v -0.6 9.8 37.8
v -0.4 9.8 37.8
v -5.4 9.8 37.2
v -5.2 9.8 37.2
v -0.6 9.8 37.2
v -0.4 9.8 37.2
v -5.2 10.2 37.8
v -5 10.2 37.8
v -0.8 10.2 37.8
v -0.6 10.2 37.8
v -5.2 10.2 37.2
v -5 10.2 37.2
v -0.8 10.2 37.2
v -0.6 10.2 37.2
v -5 10.4 37.8
v -4.8 10.4 37.8
v -1 10.4 37.8
v -0.8 10.4 37.8
v -5 10.4 37.2
v -4.8 10.4 37.2
v -1 10.4 37.2
v -0.8 10.4 37.2
v -4.8 10.6 37.8
v -4.6 10.6 37.8
v -1.2 10.6 37.8
v -1 10.6 37.8
v -4.8 10.6 37.2
v -4.6 10.6 37.2
v -1.2 10.6 37.2
v -1 10.6 37.2
v -4.6 10.8 37.8
v -4.4 10.8 37.8
v -1.4 10.8 37.8
v -1.2 10.8 37.8
v -4.6 10.8 37.2
v -4.4 10.8 37.2
v -1.4 10.8 37.2
v -1.2 10.8 37.2
v -4.4 11 37.8
v -4.2 11 37.8
v -1.6 11 37.8
v -1.4 11 37.8
v -4.4 11 37.2
v -4.2 11 37.2
v -1.6 11 37.2
v -1.4 11 37.2
v -4.2 11.2 37.8
v -3.8 11.2 37.8
v -2 11.2 37.8
v -1.6 11.2 37.8
v -4.2 11.2 37.2
v -3.8 11.2 37.2
v -2 11.2 37.2
v -1.6 11.2 37.2
v -3.8 11.4 37.8
v -2 11.4 37.8
v -3.8 11.4 37.2
v -2 11.4 37.2

# faces
f 3/3/1 2/3/1 1/3/1
f 4/3/1 2/3/1 3/3/1
f 7/3/1 6/3/1 5/3/1
f 8/3/1 6/3/1 7/3/1
f 11/3/1 10/3/1 9/3/1
f 12/3/1 10/3/1 11/3/1
f 15/3/1 14/3/1 13/3/1
f 16/3/1 14/3/1 15/3/1
f 19/3/1 18/3/1 17/3/1
f 20/3/1 18/3/1 19/3/1
f 23/3/1 22/3/1 21/3/1
f 24/3/1 22/3/1 23/3/1
f 27/3/1 26/3/1 25/3/1
f 28/3/1 26/3/1 27/3/1
f 31/3/1 30/3/1 29/3/1
f 32/3/1 30/3/1 31/3/1
f 35/1/1 34/1/1 33/1/1
f 36/1/1 34/1/1 35/1/1
f 39/1/1 38/1/1 37/1/1
f 40/1/1 38/1/1 39/1/1
f 43/1/1 42/1/1 41/1/1
f 44/1/1 42/1/1 43/1/1
f 47/3/1 46/3/1 45/3/1
f 48/3/1 46/3/1 47/3/1
f 51/3/1 50/3/1 49/3/1
f 52/3/1 50/3/1 51/3/1
f 55/3/1 54/3/1 53/3/1
f 56/3/1 54/3/1 55/3/1
f 59/3/1 58/3/1 57/3/1
f 60/3/1 58/3/1 59/3/1
f 63/3/1 62/3/1 61/3/1
f 64/3/1 62/3/1 63/3/1
f 67/3/1 66/3/1 65/3/1
f 68/3/1 66/3/1 67/3/1
f 71/3/1 70/3/1 69/3/1
f 72/3/1 70/3/1 71/3/1
f 75/3/1 74/3/1 73/3/1
f 76/3/1 74/3/1 75/3/1
f 77/3/2 78/3/2 79/3/2
f 79/3/2 78/3/2 80/3/2
f 81/3/2 82/3/2 83/3/2
f 83/3/2 82/3/2 84/3/2
f 85/3/2 86/3/2 87/3/2
f 87/3/2 86/3/2 88/3/2
f 89/3/2 90/3/2 91/3/2
f 91/3/2 90/3/2 92/3/2
f 93/3/2 94/3/2 95/3/2
f 95/3/2 94/3/2 96/3/2
f 97/3/2 98/3/2 99/3/2
f 99/3/2 98/3/2 100/3/2
f 101/3/2 102/3/2 103/3/2
f 103/3/2 102/3/2 104/3/2
f 105/3/2 106/3/2 107/3/2
f 107/3/2 106/3/2 108/3/2
f 109/1/2 110/1/2 111/1/2
f 111/1/2 110/1/2 112/1/2
f 113/1/2 114/1/2 115/1/2
f 115/1/2 114/1/2 116/1/2
f 117/1/2 118/1/2 119/1/2
f 119/1/2 118/1/2 120/1/2
f 121/3/2 122/3/2 123/3/2
f 123/3/2 122/3/2 124/3/2
f 125/3/2 126/3/2 127/3/2
f 127/3/2 126/3/2 128/3/2
f 129/3/2 130/3/2 131/3/2
f 131/3/2 130/3/2 132/3/2
f 133/3/2 134/3/2 135/3/2
f 135/3/2 134/3/2 136/3/2
f 137/3/2 138/3/2 139/3/2
f 139/3/2 138/3/2 140/3/2
f 141/3/2 142/3/2 143/3/2
f 143/3/2 142/3/2 144/3/2
f 145/3/2 146/3/2 147/3/2
f 147/3/2 146/3/2 148/3/2
f 149/3/2 150/3/2 151/3/2
f 151/3/2 150/3/2 152/3/2
f 155/3/3 154/3/3 153/3/3
f 157/3/3 156/3/3 155/3/3
f 159/3/3 155/3/3 153/3/3
f 159/3/3 158/3/3 157/3/3
f 159/3/3 157/3/3 155/3/3
f 160/3/3 158/3/3 159/3/3
f 161/3/3 158/3/3 160/3/3
f 162/3/3 158/3/3 161/3/3
f 163/3/3 158/3/3 162/3/3
f 164/3/3 158/3/3 163/3/3
f 165/3/3 158/3/3 164/3/3
f 167/3/3 166/3/3 165/3/3
f 167/3/3 165/3/3 164/3/3
f 168/3/3 166/3/3 167/3/3
f 169/3/3 166/3/3 168/3/3
f 171/3/3 170/3/3 169/3/3
f 171/3/3 169/3/3 168/3/3
f 172/3/3 170/3/3 171/3/3
f 173/3/3 170/3/3 172/3/3
f 175/3/3 174/3/3 173/3/3
f 175/3/3 173/3/3 172/3/3
f 176/3/3 174/3/3 175/3/3
f 177/3/3 174/3/3 176/3/3
f 179/3/3 178/3/3 177/3/3
f 179/3/3 177/3/3 176/3/3
f 180/3/3 178/3/3 179/3/3
f 181/3/3 178/3/3 180/3/3
f 182/3/3 178/3/3 181/3/3
f 183/3/3 178/3/3 182/3/3
f 185/3/3 159/3/3 153/3/3
f 186/1/3 161/1/3 160/1/3
f 187/1/3 161/1/3 186/1/3
f 188/1/3 163/1/3 162/1/3
f 189/1/3 163/1/3 188/1/3
f 190/3/3 184/3/3 183/3/3
f 190/3/3 183/3/3 182/3/3
f 191/1/3 189/1/3 188/1/3
f 191/1/3 190/1/3 189/1/3
f 191/1/3 187/1/3 186/1/3
f 191/3/3 185/3/3 153/3/3
f 191/1/3 188/1/3 187/1/3
f 191/1/3 186/1/3 185/1/3
f 192/1/3 190/1/3 191/1/3
f 193/1/3 190/1/3 192/1/3
f 194/1/3 190/1/3 193/1/3
f 195/1/3 190/1/3 194/1/3
f 196/3/3 184/3/3 190/3/3
f 196/1/3 190/1/3 195/1/3
f 198/3/3 184/3/3 196/3/3
f 199/3/3 184/3/3 198/3/3
f 200/3/3 184/3/3 199/3/3
f 202/3/3 198/3/3 197/3/3
f 202/3/3 199/3/3 198/3/3
f 204/3/3 202/3/3 201/3/3
f 205/3/3 199/3/3 202/3/3
f 205/3/3 202/3/3 204/3/3
f 206/3/3 199/3/3 205/3/3
f 208/3/3 204/3/3 203/3/3
f 208/3/3 205/3/3 204/3/3
f 209/3/3 205/3/3 208/3/3
f 210/3/3 205/3/3 209/3/3
f 212/3/3 208/3/3 207/3/3
f 212/3/3 209/3/3 208/3/3
f 213/3/3 209/3/3 212/3/3
f 214/3/3 209/3/3 213/3/3
f 215/3/3 191/3/3 153/3/3
f 216/1/3 193/1/3 192/1/3
f 217/1/3 193/1/3 216/1/3
f 218/1/3 195/1/3 194/1/3
f 219/1/3 195/1/3 218/1/3
f 220/3/3 212/3/3 211/3/3
f 220/3/3 213/3/3 212/3/3
f 221/3/3 213/3/3 220/3/3
f 222/3/3 213/3/3 221/3/3
f 223/3/3 217/3/3 216/3/3
f 223/3/3 219/3/3 218/3/3
f 223/3/3 221/3/3 220/3/3
f 223/3/3 220/3/3 219/3/3
f 223/3/3 218/3/3 217/3/3
f 223/3/3 216/3/3 215/3/3
f 224/3/3 221/3/3 223/3/3
f 225/3/3 223/3/3 215/3/3
f 226/3/3 223/3/3 225/3/3
f 227/3/3 215/3/3 153/3/3
f 227/3/3 225/3/3 215/3/3
f 228/3/3 225/3/3 227/3/3
f 235/2/3 234/2/3 233/2/3
f 237/2/3 236/2/3 235/2/3
f 239/2/3 238/2/3 237/2/3
f 241/2/3 240/2/3 239/2/3
f 243/2/3 242/2/3 241/2/3
f 245/2/3 230/2/3 229/2/3
f 246/2/3 230/2/3 245/2/3
f 247/2/3 232/2/3 231/2/3
f 248/2/3 232/2/3 247/2/3
f 249/2/3 244/2/3 243/2/3
f 249/2/3 235/2/3 233/2/3
f 249/2/3 237/2/3 235/2/3
f 249/2/3 239/2/3 237/2/3
f 249/2/3 243/2/3 241/2/3
f 249/2/3 241/2/3 239/2/3
f 250/2/3 244/2/3 249/2/3
f 257/2/3 256/2/3 255/2/3
f 258/2/3 256/2/3 257/2/3
f 259/2/3 257/2/3 255/2/3
f 260/2/3 257/2/3 259/2/3
f 261/2/3 259/2/3 255/2/3
f 262/2/3 259/2/3 261/2/3
f 263/2/3 261/2/3 255/2/3
f 264/2/3 261/2/3 263/2/3
f 265/2/3 263/2/3 255/2/3
f 266/2/3 263/2/3 265/2/3
f 267/2/3 252/2/3 251/2/3
f 268/2/3 252/2/3 267/2/3
f 269/2/3 254/2/3 253/2/3
f 270/2/3 254/2/3 269/2/3
f 271/2/3 265/2/3 255/2/3
f 272/2/3 265/2/3 271/2/3
f 273/3/4 274/3/4 275/3/4
f 275/3/4 276/3/4 277/3/4
f 273/3/4 275/3/4 279/3/4
f 277/3/4 278/3/4 279/3/4
f 275/3/4 277/3/4 279/3/4
f 279/3/4 278/3/4 280/3/4
f 280/3/4 278/3/4 281/3/4
f 281/3/4 278/3/4 282/3/4
f 282/3/4 278/3/4 283/3/4
f 283/3/4 278/3/4 284/3/4
f 284/3/4 278/3/4 285/3/4
f 283/2/4 284/2/4 287/2/4
f 285/3/4 286/3/4 287/3/4
f 284/3/4 285/3/4 287/3/4
f 287/3/4 286/3/4 288/3/4
f 288/3/4 286/3/4 289/3/4
f 288/3/4 289/3/4 291/3/4
f 289/3/4 290/3/4 291/3/4
f 287/2/4 288/2/4 293/2/4
f 291/3/4 292/3/4 293/3/4
f 288/3/4 291/3/4 293/3/4
f 293/3/4 292/3/4 294/3/4
f 294/3/4 292/3/4 295/3/4
f 294/3/4 295/3/4 297/3/4
f 295/3/4 296/3/4 297/3/4
f 273/3/4 279/3/4 299/3/4
f 279/2/4 280/2/4 299/2/4
f 280/1/4 281/1/4 300/1/4
f 299/2/4 280/2/4 300/2/4
f 281/2/4 282/2/4 301/2/4
f 300/1/4 281/1/4 301/1/4
f 282/1/4 283/1/4 302/1/4
f 301/2/4 282/2/4 302/2/4
f 283/2/4 287/2/4 303/2/4
f 302/1/4 283/1/4 303/1/4
f 287/2/4 293/2/4 303/2/4
f 293/2/4 294/2/4 303/2/4
f 297/3/4 298/3/4 304/3/4
f 303/2/4 294/2/4 304/2/4
f 294/3/4 297/3/4 304/3/4
f 302/1/4 303/1/4 305/1/4
f 301/1/4 302/1/4 305/1/4
f 303/1/4 304/1/4 305/1/4
f 300/1/4 301/1/4 305/1/4
f 299/1/4 300/1/4 305/1/4
f 273/3/4 299/3/4 305/3/4
f 305/1/4 304/1/4 306/1/4
f 306/1/4 304/1/4 307/1/4
f 307/1/4 304/1/4 308/1/4
f 308/1/4 304/1/4 309/1/4
f 304/3/4 298/3/4 310/3/4
f 309/1/4 304/1/4 310/1/4
f 310/3/4 298/3/4 311/3/4
f 311/3/4 298/3/4 312/3/4
f 309/2/4 310/2/4 313/2/4
f 310/3/4 311/3/4 314/3/4
f 313/2/4 310/2/4 314/2/4
f 314/3/4 311/3/4 315/3/4
f 315/3/4 311/3/4 316/3/4
f 313/3/4 314/3/4 317/3/4
f 314/3/4 315/3/4 317/3/4
f 317/3/4 315/3/4 318/3/4
f 309/2/4 313/2/4 319/2/4
f 313/3/4 317/3/4 320/3/4
f 319/2/4 313/2/4 320/2/4
f 320/3/4 317/3/4 321/3/4
f 321/3/4 317/3/4 322/3/4
f 273/3/4 305/3/4 323/3/4
f 305/2/4 306/2/4 323/2/4
f 306/1/4 307/1/4 324/1/4
f 323/2/4 306/2/4 324/2/4
f 307/2/4 308/2/4 325/2/4
f 324/1/4 307/1/4 325/1/4
f 308/1/4 309/1/4 326/1/4
f 325/2/4 308/2/4 326/2/4
f 309/2/4 319/2/4 327/2/4
f 326/1/4 309/1/4 327/1/4
f 327/2/4 319/2/4 328/2/4
f 320/3/4 321/3/4 329/3/4
f 319/3/4 320/3/4 329/3/4
f 329/3/4 321/3/4 330/3/4
f 324/3/4 325/3/4 331/3/4
f 328/2/4 319/2/4 331/2/4
f 323/3/4 324/3/4 331/3/4
f 326/3/4 327/3/4 331/3/4
f 327/3/4 328/3/4 331/3/4
f 325/3/4 326/3/4 331/3/4
f 319/3/4 329/3/4 332/3/4
f 331/2/4 319/2/4 332/2/4
f 332/3/4 329/3/4 333/3/4
f 333/3/4 329/3/4 334/3/4
f 331/3/4 332/3/4 335/3/4
f 332/3/4 333/3/4 335/3/4
f 335/3/4 333/3/4 336/3/4
f 323/3/4 331/3/4 337/3/4
f 273/3/4 323/3/4 337/3/4
f 331/3/4 335/3/4 337/3/4
f 337/3/4 335/3/4 338/3/4
f 341/3/5 340/3/5 339/3/5
f 342/3/5 340/3/5 341/3/5
f 347/1/5 344/1/5 343/1/5
f 348/1/5 344/1/5 347/1/5
f 349/1/5 346/1/5 345/1/5
f 350/1/5 346/1/5 349/1/5
f 355/1/5 352/1/5 351/1/5
f 356/1/5 352/1/5 355/1/5
f 357/1/5 354/1/5 353/1/5
f 358/1/5 354/1/5 357/1/5
f 363/3/5 360/3/5 359/3/5
f 364/3/5 360/3/5 363/3/5
f 365/3/5 362/3/5 361/3/5
f 366/3/5 362/3/5 365/3/5
f 371/3/5 368/3/5 367/3/5
f 372/3/5 368/3/5 371/3/5
f 373/3/5 370/3/5 369/3/5
f 374/3/5 370/3/5 373/3/5
f 379/3/5 376/3/5 375/3/5
f 380/3/5 376/3/5 379/3/5
f 381/3/5 378/3/5 377/3/5
f 382/3/5 378/3/5 381/3/5
f 387/3/5 384/3/5 383/3/5
f 388/3/5 384/3/5 387/3/5
f 389/3/5 386/3/5 385/3/5
f 390/3/5 386/3/5 389/3/5
f 395/3/5 392/3/5 391/3/5
f 396/3/5 392/3/5 395/3/5
f 397/3/5 394/3/5 393/3/5
f 398/3/5 394/3/5 397/3/5
f 403/3/5 400/3/5 399/3/5
f 404/3/5 400/3/5 403/3/5
f 405/3/5 402/3/5 401/3/5
f 406/3/5 402/3/5 405/3/5
f 407/3/6 408/3/6 411/3/6
f 411/3/6 408/3/6 412/3/6
f 409/3/6 410/3/6 413/3/6
f 413/3/6 410/3/6 414/3/6
f 415/1/6 416/1/6 419/1/6
f 419/1/6 416/1/6 420/1/6
f 417/1/6 418/1/6 421/1/6
f 421/1/6 418/1/6 422/1/6
f 423/1/6 424/1/6 427/1/6
f 427/1/6 424/1/6 428/1/6
f 425/1/6 426/1/6 429/1/6
f 429/1/6 426/1/6 430/1/6
f 431/3/6 432/3/6 435/3/6
f 435/3/6 432/3/6 436/3/6
f 433/3/6 434/3/6 437/3/6
f 437/3/6 434/3/6 438/3/6
f 439/3/6 440/3/6 443/3/6
f 443/3/6 440/3/6 444/3/6
f 441/3/6 442/3/6 445/3/6
f 445/3/6 442/3/6 446/3/6
f 447/3/6 448/3/6 451/3/6
f 451/3/6 448/3/6 452/3/6
f 449/3/6 450/3/6 453/3/6
f 453/3/6 450/3/6 454/3/6
f 455/3/6 456/3/6 459/3/6
f 459/3/6 456/3/6 460/3/6
f 457/3/6 458/3/6 461/3/6
f 461/3/6 458/3/6 462/3/6
f 463/3/6 464/3/6 467/3/6
f 467/3/6 464/3/6 468/3/6
f 465/3/6 466/3/6 469/3/6
f 469/3/6 466/3/6 470/3/6
f 471/3/6 472/3/6 475/3/6
f 475/3/6 472/3/6 476/3/6
f 473/3/6 474/3/6 477/3/6
f 477/3/6 474/3/6 478/3/6
f 479/3/6 480/3/6 483/3/6
f 483/3/6 480/3/6 484/3/6
f 481/3/6 482/3/6 485/3/6
f 485/3/6 482/3/6 486/3/6
f 487/3/6 488/3/6 489/3/6
f 489/3/6 488/3/6 490/3/6
