# MagicaVoxel @ Ephtracy

# group
o 

# material
mtllib chertej-170.mtl
usemtl palette

# normals
vn -1 0 0
vn 1 0 0
vn 0 0 1
vn 0 0 -1
vn 0 -1 0
vn 0 1 0

# texcoords
vt 0.0566406 0.5
vt 0.103516 0.5
vt 0.958984 0.5
vt 0.962891 0.5
vt 0.970703 0.5

# verts
v 5.8 0.4 -25.5
v 5.8 0.4 -28.5
v 5.8 0.4 -28.7
v 5.8 8.2 -25.5
v 5.8 8.2 -28.5
v 5.8 8.2 -28.7
v 6 0 -25.5
v 6 0 -28.7
v 6 0.4 -25.5
v 6 0.4 -28.5
v 6 0.4 -28.7
v 6.2 0.8 -24.9
v 6.2 0.8 -25.5
v 6.2 5.6 -24.9
v 6.2 5.6 -25.5
v 6.2 6.4 -24.9
v 6.2 6.4 -25.5
v 6.2 7.8 -24.9
v 6.2 7.8 -25.5
v 6.4 0.6 -24.9
v 6.4 0.6 -25.5
v 6.4 0.8 -24.9
v 6.4 0.8 -25.5
v 6.4 5.6 -24.9
v 6.4 5.6 -25.5
v 6.4 5.8 -24.9
v 6.4 5.8 -25.5
v 6.4 6.2 -24.9
v 6.4 6.2 -25.5
v 6.4 6.4 -24.9
v 6.4 6.4 -25.5
v 6.4 7.8 -24.9
v 6.4 7.8 -25.5
v 6.4 8 -24.9
v 6.4 8 -25.5
v 6.6 4.2 -24.5
v 6.6 4.2 -24.9
v 6.6 4.4 -24.7
v 6.6 4.4 -24.9
v 6.6 5.4 -24.7
v 6.6 5.4 -24.9
v 6.6 5.6 -24.5
v 6.6 5.6 -24.9
v 6.6 6.4 -24.5
v 6.6 6.4 -24.9
v 6.6 6.6 -24.7
v 6.6 6.6 -24.9
v 6.6 7.6 -24.7
v 6.6 7.6 -24.9
v 6.6 7.8 -24.5
v 6.6 7.8 -24.9
v 6.8 4.2 -24.5
v 6.8 4.2 -24.9
v 6.8 4.4 -24.7
v 6.8 4.4 -24.9
v 6.8 5.4 -24.7
v 6.8 5.4 -24.9
v 6.8 5.6 -24.5
v 6.8 5.6 -24.9
v 6.8 6.4 -24.5
v 6.8 6.4 -24.9
v 6.8 6.6 -24.7
v 6.8 6.6 -24.9
v 6.8 7.6 -24.7
v 6.8 7.6 -24.9
v 6.8 7.8 -24.5
v 6.8 7.8 -24.9
v 9 0.6 -24.9
v 9 0.6 -25.5
v 9 0.8 -24.9
v 9 0.8 -25.5
v 9 5.6 -24.9
v 9 5.6 -25.5
v 9 5.8 -24.9
v 9 5.8 -25.5
v 9 6.2 -24.9
v 9 6.2 -25.5
v 9 6.4 -24.9
v 9 6.4 -25.5
v 9 7.8 -24.9
v 9 7.8 -25.5
v 9 8 -24.9
v 9 8 -25.5
v 9.2 0.8 -24.9
v 9.2 0.8 -25.5
v 9.2 1.2 -25.3
v 9.2 1.2 -25.5
v 9.2 2.2 -25.3
v 9.2 2.2 -25.5
v 9.2 4.2 -25.3
v 9.2 4.2 -25.5
v 9.2 5.2 -25.3
v 9.2 5.2 -25.5
v 9.2 5.6 -24.9
v 9.2 5.6 -25.5
v 9.2 6.4 -24.9
v 9.2 6.4 -25.5
v 9.2 6.6 -25.3
v 9.2 6.6 -25.5
v 9.2 7.6 -25.3
v 9.2 7.6 -25.5
v 9.2 7.8 -24.9
v 9.2 7.8 -25.5
v 9.4 0 -25.5
v 9.4 0 -28.7
v 9.4 0.4 -25.5
v 9.4 0.4 -28.5
v 9.4 0.4 -28.7
v 9.4 1.2 -25.3
v 9.4 1.2 -25.5
v 9.4 2.2 -25.3
v 9.4 2.2 -25.5
v 9.4 4.2 -25.3
v 9.4 4.2 -25.5
v 9.4 5.2 -25.3
v 9.4 5.2 -25.5
v 9.4 6.6 -25.3
v 9.4 6.6 -25.5
v 9.4 7.6 -25.3
v 9.4 7.6 -25.5
v 9.6 0.4 -25.5
v 9.6 0.4 -28.5
v 9.6 0.4 -28.7
v 9.6 8.2 -25.5
v 9.6 8.2 -28.5
v 9.6 8.2 -28.7
v 6.6 4.2 -24.5
v 6.6 5.6 -24.5
v 6.6 6.4 -24.5
v 6.6 7.8 -24.5
v 6.8 4.2 -24.5
v 6.8 5.6 -24.5
v 6.8 6.4 -24.5
v 6.8 7.8 -24.5
v 6.2 0.8 -24.9
v 6.2 5.6 -24.9
v 6.2 6.4 -24.9
v 6.2 7.8 -24.9
v 6.4 0.6 -24.9
v 6.4 0.8 -24.9
v 6.4 5.6 -24.9
v 6.4 5.8 -24.9
v 6.4 6.2 -24.9
v 6.4 6.4 -24.9
v 6.4 7.8 -24.9
v 6.4 8 -24.9
v 6.6 4.2 -24.9
v 6.6 4.4 -24.9
v 6.6 5.4 -24.9
v 6.6 5.6 -24.9
v 6.6 6.4 -24.9
v 6.6 6.6 -24.9
v 6.6 7.6 -24.9
v 6.6 7.8 -24.9
v 6.8 4.2 -24.9
v 6.8 4.4 -24.9
v 6.8 5.4 -24.9
v 6.8 5.6 -24.9
v 6.8 6.4 -24.9
v 6.8 6.6 -24.9
v 6.8 7.6 -24.9
v 6.8 7.8 -24.9
v 8.2 7 -24.9
v 8.2 7.2 -24.9
v 8.4 6.6 -24.9
v 8.4 6.8 -24.9
v 8.4 7 -24.9
v 8.4 7.2 -24.9
v 8.4 7.4 -24.9
v 8.4 7.6 -24.9
v 8.6 6.6 -24.9
v 8.6 6.8 -24.9
v 8.6 7 -24.9
v 8.6 7.2 -24.9
v 8.6 7.4 -24.9
v 8.6 7.6 -24.9
v 8.8 7 -24.9
v 8.8 7.2 -24.9
v 9 0.6 -24.9
v 9 0.8 -24.9
v 9 5.6 -24.9
v 9 5.8 -24.9
v 9 6.2 -24.9
v 9 6.4 -24.9
v 9 7.8 -24.9
v 9 8 -24.9
v 9.2 0.8 -24.9
v 9.2 5.6 -24.9
v 9.2 6.4 -24.9
v 9.2 7.8 -24.9
v 9.2 1.2 -25.3
v 9.2 2.2 -25.3
v 9.2 4.2 -25.3
v 9.2 5.2 -25.3
v 9.2 6.6 -25.3
v 9.2 7.6 -25.3
v 9.4 1.2 -25.3
v 9.4 2.2 -25.3
v 9.4 4.2 -25.3
v 9.4 5.2 -25.3
v 9.4 6.6 -25.3
v 9.4 7.6 -25.3
v 5.8 0.4 -25.5
v 5.8 8.2 -25.5
v 6 0 -25.5
v 6 0.4 -25.5
v 6.2 0.8 -25.5
v 6.2 5.6 -25.5
v 6.2 6.4 -25.5
v 6.2 7.8 -25.5
v 6.4 0.6 -25.5
v 6.4 0.8 -25.5
v 6.4 5.6 -25.5
v 6.4 5.8 -25.5
v 6.4 6.2 -25.5
v 6.4 6.4 -25.5
v 6.4 7.8 -25.5
v 6.4 8 -25.5
v 9 0.6 -25.5
v 9 0.8 -25.5
v 9 5.6 -25.5
v 9 5.8 -25.5
v 9 6.2 -25.5
v 9 6.4 -25.5
v 9 7.8 -25.5
v 9 8 -25.5
v 9.2 0.8 -25.5
v 9.2 1.2 -25.5
v 9.2 2.2 -25.5
v 9.2 4.2 -25.5
v 9.2 5.2 -25.5
v 9.2 5.6 -25.5
v 9.2 6.4 -25.5
v 9.2 6.6 -25.5
v 9.2 7.6 -25.5
v 9.2 7.8 -25.5
v 9.4 0 -25.5
v 9.4 0.4 -25.5
v 9.4 1.2 -25.5
v 9.4 2.2 -25.5
v 9.4 4.2 -25.5
v 9.4 5.2 -25.5
v 9.4 6.6 -25.5
v 9.4 7.6 -25.5
v 9.6 0.4 -25.5
v 9.6 8.2 -25.5
v 6.6 4.4 -24.7
v 6.6 5.4 -24.7
v 6.6 6.6 -24.7
v 6.6 7.6 -24.7
v 6.8 4.4 -24.7
v 6.8 5.4 -24.7
v 6.8 6.6 -24.7
v 6.8 7.6 -24.7
v 5.8 0.4 -28.7
v 5.8 8.2 -28.7
v 6 0 -28.7
v 6 0.4 -28.7
v 9.4 0 -28.7
v 9.4 0.4 -28.7
v 9.6 0.4 -28.7
v 9.6 8.2 -28.7
v 6 0 -25.5
v 9.4 0 -25.5
v 6 0 -28.7
v 9.4 0 -28.7
v 5.8 0.4 -25.5
v 6 0.4 -25.5
v 9.4 0.4 -25.5
v 9.6 0.4 -25.5
v 5.8 0.4 -28.5
v 6 0.4 -28.5
v 9.4 0.4 -28.5
v 9.6 0.4 -28.5
v 5.8 0.4 -28.7
v 6 0.4 -28.7
v 9.4 0.4 -28.7
v 9.6 0.4 -28.7
v 6.4 0.6 -24.9
v 9 0.6 -24.9
v 6.4 0.6 -25.5
v 9 0.6 -25.5
v 6.2 0.8 -24.9
v 6.4 0.8 -24.9
v 9 0.8 -24.9
v 9.2 0.8 -24.9
v 6.2 0.8 -25.5
v 6.4 0.8 -25.5
v 9 0.8 -25.5
v 9.2 0.8 -25.5
v 9.2 1.2 -25.3
v 9.4 1.2 -25.3
v 9.2 1.2 -25.5
v 9.4 1.2 -25.5
v 6.6 4.2 -24.5
v 6.8 4.2 -24.5
v 6.6 4.2 -24.9
v 6.8 4.2 -24.9
v 9.2 4.2 -25.3
v 9.4 4.2 -25.3
v 9.2 4.2 -25.5
v 9.4 4.2 -25.5
v 6.6 5.4 -24.7
v 6.8 5.4 -24.7
v 6.6 5.4 -24.9
v 6.8 5.4 -24.9
v 6.4 6.2 -24.9
v 9 6.2 -24.9
v 6.4 6.2 -25.5
v 9 6.2 -25.5
v 6.6 6.4 -24.5
v 6.8 6.4 -24.5
v 6.2 6.4 -24.9
v 6.4 6.4 -24.9
v 6.6 6.4 -24.9
v 6.8 6.4 -24.9
v 9 6.4 -24.9
v 9.2 6.4 -24.9
v 6.2 6.4 -25.5
v 6.4 6.4 -25.5
v 9 6.4 -25.5
v 9.2 6.4 -25.5
v 9.2 6.6 -25.3
v 9.4 6.6 -25.3
v 9.2 6.6 -25.5
v 9.4 6.6 -25.5
v 6.6 7.6 -24.7
v 6.8 7.6 -24.7
v 6.6 7.6 -24.9
v 6.8 7.6 -24.9
v 9.2 2.2 -25.3
v 9.4 2.2 -25.3
v 9.2 2.2 -25.5
v 9.4 2.2 -25.5
v 6.6 4.4 -24.7
v 6.8 4.4 -24.7
v 6.6 4.4 -24.9
v 6.8 4.4 -24.9
v 9.2 5.2 -25.3
v 9.4 5.2 -25.3
v 9.2 5.2 -25.5
v 9.4 5.2 -25.5
v 6.6 5.6 -24.5
v 6.8 5.6 -24.5
v 6.2 5.6 -24.9
v 6.4 5.6 -24.9
v 6.6 5.6 -24.9
v 6.8 5.6 -24.9
v 9 5.6 -24.9
v 9.2 5.6 -24.9
v 6.2 5.6 -25.5
v 6.4 5.6 -25.5
v 9 5.6 -25.5
v 9.2 5.6 -25.5
v 6.4 5.8 -24.9
v 9 5.8 -24.9
v 6.4 5.8 -25.5
v 9 5.8 -25.5
v 6.6 6.6 -24.7
v 6.8 6.6 -24.7
v 6.6 6.6 -24.9
v 6.8 6.6 -24.9
v 9.2 7.6 -25.3
v 9.4 7.6 -25.3
v 9.2 7.6 -25.5
v 9.4 7.6 -25.5
v 6.6 7.8 -24.5
v 6.8 7.8 -24.5
v 6.2 7.8 -24.9
v 6.4 7.8 -24.9
v 6.6 7.8 -24.9
v 6.8 7.8 -24.9
v 9 7.8 -24.9
v 9.2 7.8 -24.9
v 6.2 7.8 -25.5
v 6.4 7.8 -25.5
v 9 7.8 -25.5
v 9.2 7.8 -25.5
v 6.4 8 -24.9
v 9 8 -24.9
v 6.4 8 -25.5
v 9 8 -25.5
v 5.8 8.2 -25.5
v 9.6 8.2 -25.5
v 5.8 8.2 -28.5
v 9.6 8.2 -28.5
v 5.8 8.2 -28.7
v 9.6 8.2 -28.7

# faces
f 4/3/1 2/3/1 1/3/1
f 5/2/1 3/2/1 2/2/1
f 5/3/1 2/3/1 4/3/1
f 6/2/1 3/2/1 5/2/1
f 9/3/1 8/3/1 7/3/1
f 10/3/1 8/3/1 9/3/1
f 11/3/1 8/3/1 10/3/1
f 14/1/1 13/1/1 12/1/1
f 15/1/1 13/1/1 14/1/1
f 18/1/1 17/1/1 16/1/1
f 19/1/1 17/1/1 18/1/1
f 22/1/1 21/1/1 20/1/1
f 23/1/1 21/1/1 22/1/1
f 26/1/1 25/1/1 24/1/1
f 27/1/1 25/1/1 26/1/1
f 30/1/1 29/1/1 28/1/1
f 31/1/1 29/1/1 30/1/1
f 34/1/1 33/1/1 32/1/1
f 35/1/1 33/1/1 34/1/1
f 38/4/1 37/4/1 36/4/1
f 39/4/1 37/4/1 38/4/1
f 40/4/1 38/4/1 36/4/1
f 42/4/1 40/4/1 36/4/1
f 42/4/1 41/4/1 40/4/1
f 43/4/1 41/4/1 42/4/1
f 46/4/1 45/4/1 44/4/1
f 47/4/1 45/4/1 46/4/1
f 48/4/1 46/4/1 44/4/1
f 50/4/1 48/4/1 44/4/1
f 50/4/1 49/4/1 48/4/1
f 51/4/1 49/4/1 50/4/1
f 52/4/2 53/4/2 54/4/2
f 54/4/2 53/4/2 55/4/2
f 52/4/2 54/4/2 56/4/2
f 52/4/2 56/4/2 58/4/2
f 56/4/2 57/4/2 58/4/2
f 58/4/2 57/4/2 59/4/2
f 60/4/2 61/4/2 62/4/2
f 62/4/2 61/4/2 63/4/2
f 60/4/2 62/4/2 64/4/2
f 60/4/2 64/4/2 66/4/2
f 64/4/2 65/4/2 66/4/2
f 66/4/2 65/4/2 67/4/2
f 68/1/2 69/1/2 70/1/2
f 70/1/2 69/1/2 71/1/2
f 72/1/2 73/1/2 74/1/2
f 74/1/2 73/1/2 75/1/2
f 76/1/2 77/1/2 78/1/2
f 78/1/2 77/1/2 79/1/2
f 80/1/2 81/1/2 82/1/2
f 82/1/2 81/1/2 83/1/2
f 84/1/2 85/1/2 86/1/2
f 86/1/2 85/1/2 87/1/2
f 84/1/2 86/1/2 88/1/2
f 84/1/2 88/1/2 90/1/2
f 88/1/2 89/1/2 90/1/2
f 90/1/2 89/1/2 91/1/2
f 84/1/2 90/1/2 92/1/2
f 84/1/2 92/1/2 94/1/2
f 92/1/2 93/1/2 94/1/2
f 94/1/2 93/1/2 95/1/2
f 96/1/2 97/1/2 98/1/2
f 98/1/2 97/1/2 99/1/2
f 96/1/2 98/1/2 100/1/2
f 96/1/2 100/1/2 102/1/2
f 100/1/2 101/1/2 102/1/2
f 102/1/2 101/1/2 103/1/2
f 104/3/2 105/3/2 106/3/2
f 106/3/2 105/3/2 107/3/2
f 107/3/2 105/3/2 108/3/2
f 109/5/2 110/5/2 111/5/2
f 111/5/2 110/5/2 112/5/2
f 113/5/2 114/5/2 115/5/2
f 115/5/2 114/5/2 116/5/2
f 117/5/2 118/5/2 119/5/2
f 119/5/2 118/5/2 120/5/2
f 121/3/2 122/3/2 124/3/2
f 122/2/2 123/2/2 125/2/2
f 124/3/2 122/3/2 125/3/2
f 125/2/2 123/2/2 126/2/2
f 131/4/3 128/4/3 127/4/3
f 132/4/3 128/4/3 131/4/3
f 133/4/3 130/4/3 129/4/3
f 134/4/3 130/4/3 133/4/3
f 140/1/3 136/1/3 135/1/3
f 141/1/3 136/1/3 140/1/3
f 144/1/3 138/1/3 137/1/3
f 145/1/3 138/1/3 144/1/3
f 147/1/3 142/1/3 141/1/3
f 147/1/3 140/1/3 139/1/3
f 147/1/3 141/1/3 140/1/3
f 148/1/3 142/1/3 147/1/3
f 149/1/3 142/1/3 148/1/3
f 150/1/3 142/1/3 149/1/3
f 151/1/3 146/1/3 145/1/3
f 151/1/3 145/1/3 144/1/3
f 151/1/3 144/1/3 143/1/3
f 152/1/3 146/1/3 151/1/3
f 153/1/3 146/1/3 152/1/3
f 154/1/3 146/1/3 153/1/3
f 155/1/3 147/1/3 139/1/3
f 156/1/3 149/1/3 148/1/3
f 157/1/3 149/1/3 156/1/3
f 158/1/3 142/1/3 150/1/3
f 159/1/3 151/1/3 143/1/3
f 160/1/3 153/1/3 152/1/3
f 161/1/3 153/1/3 160/1/3
f 162/1/3 146/1/3 154/1/3
f 163/1/3 161/1/3 160/1/3
f 163/1/3 162/1/3 161/1/3
f 163/1/3 160/1/3 159/1/3
f 164/1/3 162/1/3 163/1/3
f 165/1/3 163/1/3 159/1/3
f 166/1/3 163/1/3 165/1/3
f 167/4/3 164/4/3 163/4/3
f 167/1/3 163/1/3 166/1/3
f 168/1/3 162/1/3 164/1/3
f 168/4/3 164/4/3 167/4/3
f 169/1/3 162/1/3 168/1/3
f 170/1/3 162/1/3 169/1/3
f 171/4/3 166/4/3 165/4/3
f 171/1/3 165/1/3 159/1/3
f 172/1/3 167/1/3 166/1/3
f 172/4/3 166/4/3 171/4/3
f 172/1/3 168/1/3 167/1/3
f 172/1/3 169/1/3 168/1/3
f 173/1/3 169/1/3 172/1/3
f 174/1/3 169/1/3 173/1/3
f 175/4/3 170/4/3 169/4/3
f 175/1/3 169/1/3 174/1/3
f 176/1/3 162/1/3 170/1/3
f 176/4/3 170/4/3 175/4/3
f 177/4/3 174/4/3 173/4/3
f 177/1/3 172/1/3 171/1/3
f 177/1/3 173/1/3 172/1/3
f 178/1/3 175/1/3 174/1/3
f 178/4/3 174/4/3 177/4/3
f 178/1/3 176/1/3 175/1/3
f 179/1/3 157/1/3 156/1/3
f 179/1/3 155/1/3 139/1/3
f 179/1/3 158/1/3 157/1/3
f 179/1/3 156/1/3 155/1/3
f 180/1/3 158/1/3 179/1/3
f 181/1/3 142/1/3 158/1/3
f 181/1/3 158/1/3 180/1/3
f 182/1/3 142/1/3 181/1/3
f 183/1/3 178/1/3 177/1/3
f 183/1/3 159/1/3 143/1/3
f 183/1/3 177/1/3 171/1/3
f 183/1/3 171/1/3 159/1/3
f 184/1/3 178/1/3 183/1/3
f 185/1/3 176/1/3 178/1/3
f 185/1/3 178/1/3 184/1/3
f 185/1/3 146/1/3 162/1/3
f 185/1/3 162/1/3 176/1/3
f 186/1/3 146/1/3 185/1/3
f 187/1/3 181/1/3 180/1/3
f 188/1/3 181/1/3 187/1/3
f 189/1/3 185/1/3 184/1/3
f 190/1/3 185/1/3 189/1/3
f 197/5/3 192/5/3 191/5/3
f 198/5/3 192/5/3 197/5/3
f 199/5/3 194/5/3 193/5/3
f 200/5/3 194/5/3 199/5/3
f 201/5/3 196/5/3 195/5/3
f 202/5/3 196/5/3 201/5/3
f 206/3/3 204/3/3 203/3/3
f 207/3/3 204/3/3 206/3/3
f 207/3/3 206/3/3 205/3/3
f 208/3/3 204/3/3 207/3/3
f 209/3/3 204/3/3 208/3/3
f 210/3/3 204/3/3 209/3/3
f 211/3/3 207/3/3 205/3/3
f 212/3/3 207/3/3 211/3/3
f 213/3/3 209/3/3 208/3/3
f 214/3/3 209/3/3 213/3/3
f 215/3/3 209/3/3 214/3/3
f 216/3/3 209/3/3 215/3/3
f 217/3/3 204/3/3 210/3/3
f 218/3/3 204/3/3 217/3/3
f 219/3/3 211/3/3 205/3/3
f 222/3/3 215/3/3 214/3/3
f 223/3/3 215/3/3 222/3/3
f 226/3/3 204/3/3 218/3/3
f 227/3/3 220/3/3 219/3/3
f 232/3/3 224/3/3 223/3/3
f 232/3/3 222/3/3 221/3/3
f 232/3/3 223/3/3 222/3/3
f 233/3/3 224/3/3 232/3/3
f 236/3/3 226/3/3 225/3/3
f 237/3/3 219/3/3 205/3/3
f 237/3/3 228/3/3 227/3/3
f 237/3/3 227/3/3 219/3/3
f 238/3/3 228/3/3 237/3/3
f 239/3/3 228/3/3 238/3/3
f 240/3/3 230/3/3 229/3/3
f 241/3/3 230/3/3 240/3/3
f 242/3/3 234/3/3 233/3/3
f 242/3/3 232/3/3 231/3/3
f 242/3/3 233/3/3 232/3/3
f 243/3/3 234/3/3 242/3/3
f 244/3/3 236/3/3 235/3/3
f 245/3/3 239/3/3 238/3/3
f 245/3/3 244/3/3 243/3/3
f 245/3/3 241/3/3 240/3/3
f 245/3/3 243/3/3 242/3/3
f 245/3/3 242/3/3 241/3/3
f 245/3/3 240/3/3 239/3/3
f 246/3/3 236/3/3 244/3/3
f 246/3/3 244/3/3 245/3/3
f 246/3/3 226/3/3 236/3/3
f 246/3/3 204/3/3 226/3/3
f 247/4/4 248/4/4 251/4/4
f 251/4/4 248/4/4 252/4/4
f 249/4/4 250/4/4 253/4/4
f 253/4/4 250/4/4 254/4/4
f 255/2/4 256/2/4 258/2/4
f 257/3/4 258/3/4 259/3/4
f 258/2/4 256/2/4 260/2/4
f 259/3/4 258/3/4 260/3/4
f 260/2/4 256/2/4 261/2/4
f 261/2/4 256/2/4 262/2/4
f 265/3/5 264/3/5 263/3/5
f 266/3/5 264/3/5 265/3/5
f 271/3/5 268/3/5 267/3/5
f 272/3/5 268/3/5 271/3/5
f 273/3/5 270/3/5 269/3/5
f 274/3/5 270/3/5 273/3/5
f 275/2/5 272/2/5 271/2/5
f 276/2/5 272/2/5 275/2/5
f 277/2/5 274/2/5 273/2/5
f 278/2/5 274/2/5 277/2/5
f 281/1/5 280/1/5 279/1/5
f 282/1/5 280/1/5 281/1/5
f 287/1/5 284/1/5 283/1/5
f 288/1/5 284/1/5 287/1/5
f 289/1/5 286/1/5 285/1/5
f 290/1/5 286/1/5 289/1/5
f 293/5/5 292/5/5 291/5/5
f 294/5/5 292/5/5 293/5/5
f 297/4/5 296/4/5 295/4/5
f 298/4/5 296/4/5 297/4/5
f 301/5/5 300/5/5 299/5/5
f 302/5/5 300/5/5 301/5/5
f 305/4/5 304/4/5 303/4/5
f 306/4/5 304/4/5 305/4/5
f 309/1/5 308/1/5 307/1/5
f 310/1/5 308/1/5 309/1/5
f 315/4/5 312/4/5 311/4/5
f 316/4/5 312/4/5 315/4/5
f 319/1/5 314/1/5 313/1/5
f 320/1/5 314/1/5 319/1/5
f 321/1/5 318/1/5 317/1/5
f 322/1/5 318/1/5 321/1/5
f 325/5/5 324/5/5 323/5/5
f 326/5/5 324/5/5 325/5/5
f 329/4/5 328/4/5 327/4/5
f 330/4/5 328/4/5 329/4/5
f 331/5/6 332/5/6 333/5/6
f 333/5/6 332/5/6 334/5/6
f 335/4/6 336/4/6 337/4/6
f 337/4/6 336/4/6 338/4/6
f 339/5/6 340/5/6 341/5/6
f 341/5/6 340/5/6 342/5/6
f 343/4/6 344/4/6 347/4/6
f 347/4/6 344/4/6 348/4/6
f 345/1/6 346/1/6 351/1/6
f 351/1/6 346/1/6 352/1/6
f 349/1/6 350/1/6 353/1/6
f 353/1/6 350/1/6 354/1/6
f 355/1/6 356/1/6 357/1/6
f 357/1/6 356/1/6 358/1/6
f 359/4/6 360/4/6 361/4/6
f 361/4/6 360/4/6 362/4/6
f 363/5/6 364/5/6 365/5/6
f 365/5/6 364/5/6 366/5/6
f 367/4/6 368/4/6 371/4/6
f 371/4/6 368/4/6 372/4/6
f 369/1/6 370/1/6 375/1/6
f 375/1/6 370/1/6 376/1/6
f 373/1/6 374/1/6 377/1/6
f 377/1/6 374/1/6 378/1/6
f 379/1/6 380/1/6 381/1/6
f 381/1/6 380/1/6 382/1/6
f 383/3/6 384/3/6 385/3/6
f 385/3/6 384/3/6 386/3/6
f 385/2/6 386/2/6 387/2/6
f 387/2/6 386/2/6 388/2/6
