# MagicaVoxel @ Ephtracy

# group
o 

# material
mtllib chertej-433.mtl
usemtl palette

# normals
vn -1 0 0
vn 1 0 0
vn 0 0 1
vn 0 0 -1
vn 0 -1 0
vn 0 1 0

# texcoords
vt 0.00976562 0.5
vt 0.0566406 0.5
vt 0.306641 0.5
vt 0.958984 0.5

# verts
v 60 0.1 1.8
v 60 0.1 0.8
v 60 0.1 -3.2
v 60 0.1 -5.2
v 60 0.1 -9.2
v 60 0.1 -9.3
v 60 0.3 1.8
v 60 0.3 1
v 60 0.3 0.8
v 60 0.3 -3.2
v 60 0.3 -3.4
v 60 0.3 -5
v 60 0.3 -5.2
v 60 0.3 -9.2
v 60 0.3 -9.3
v 60 9.7 1.8
v 60 9.7 1
v 60 9.7 0.8
v 60 9.7 -3.2
v 60 9.7 -3.4
v 60 9.7 -5
v 60 9.7 -5.2
v 60 9.7 -9.2
v 60 9.7 -10.2
v 60 9.9 1.8
v 60 9.9 0.8
v 60 9.9 -3.2
v 60 9.9 -5.2
v 60 9.9 -9.2
v 60 9.9 -10.2
v 60.8 -0.1 1.8
v 60.8 -0.1 -4.2
v 60.8 -0.1 -10.2
v 60.8 0.1 1.8
v 60.8 0.1 1
v 60.8 0.1 0.8
v 60.8 0.1 -3.2
v 60.8 0.1 -3.4
v 60.8 0.1 -4.2
v 60.8 0.1 -5
v 60.8 0.1 -5.2
v 60.8 0.1 -9.2
v 60.8 0.1 -9.3
v 60.8 0.1 -10.2
v 60.8 0.3 1
v 60.8 0.3 0.8
v 60.8 0.3 -3.2
v 60.8 0.3 -3.4
v 60.8 0.3 -5
v 60.8 0.3 -5.2
v 60.8 0.3 -9.2
v 60.8 0.3 -9.3
v 60.8 9.7 1
v 60.8 9.7 0.8
v 60.8 9.7 -3.2
v 60.8 9.7 -3.4
v 60.8 9.7 -5
v 60.8 9.7 -5.2
v 60.8 9.7 -9.2
v 60.8 9.7 -9.3
v 60.8 9.9 0.8
v 60.8 9.9 -3.2
v 60.8 9.9 -5.2
v 60.8 9.9 -9.2
v 60.9 0.1 -9.3
v 60.9 0.1 -10.2
v 60.9 9.7 -9.3
v 60.9 9.7 -10.2
v 61 -0.1 1.8
v 61 -0.1 -4.2
v 61 -0.1 -10.2
v 61 9.9 1.8
v 61 9.9 -4.2
v 61 9.9 -10.2
v 60 0.1 1.8
v 60 0.3 1.8
v 60 9.7 1.8
v 60 9.9 1.8
v 60.2 0.1 1.8
v 60.2 0.3 1.8
v 60.2 9.7 1.8
v 60.2 9.9 1.8
v 60.8 -0.1 1.8
v 60.8 0.1 1.8
v 60.8 9.9 1.8
v 61 -0.1 1.8
v 61 9.9 1.8
v 60 0.1 -3.2
v 60 0.3 -3.2
v 60 9.7 -3.2
v 60 9.9 -3.2
v 60.8 0.1 -3.2
v 60.8 0.3 -3.2
v 60.8 9.7 -3.2
v 60.8 9.9 -3.2
v 60 0.3 -3.4
v 60 9.7 -3.4
v 60.8 0.3 -3.4
v 60.8 9.7 -3.4
v 60 0.1 -9.2
v 60 0.3 -9.2
v 60 9.7 -9.2
v 60 9.9 -9.2
v 60.8 0.1 -9.2
v 60.8 0.3 -9.2
v 60.8 9.7 -9.2
v 60.8 9.9 -9.2
v 60 0.3 1
v 60 9.7 1
v 60.8 0.3 1
v 60.8 9.7 1
v 60 0.1 0.8
v 60 0.3 0.8
v 60 9.7 0.8
v 60 9.9 0.8
v 60.8 0.1 0.8
v 60.8 0.3 0.8
v 60.8 9.7 0.8
v 60.8 9.9 0.8
v 60 0.3 -5
v 60 9.7 -5
v 60.8 0.3 -5
v 60.8 9.7 -5
v 60 0.1 -5.2
v 60 0.3 -5.2
v 60 9.7 -5.2
v 60 9.9 -5.2
v 60.8 0.1 -5.2
v 60.8 0.3 -5.2
v 60.8 9.7 -5.2
v 60.8 9.9 -5.2
v 60 0.1 -9.3
v 60 0.3 -9.3
v 60.8 0.1 -9.3
v 60.8 0.3 -9.3
v 60.8 9.7 -9.3
v 60.9 0.1 -9.3
v 60.9 9.7 -9.3
v 60 9.7 -10.2
v 60 9.9 -10.2
v 60.2 9.7 -10.2
v 60.2 9.9 -10.2
v 60.8 -0.1 -10.2
v 60.8 0.1 -10.2
v 60.8 9.7 -10.2
v 60.8 9.9 -10.2
v 60.9 0.1 -10.2
v 60.9 9.7 -10.2
v 61 -0.1 -10.2
v 61 9.9 -10.2
v 60.8 -0.1 1.8
v 61 -0.1 1.8
v 60.8 -0.1 -4.2
v 61 -0.1 -4.2
v 60.8 -0.1 -10.2
v 61 -0.1 -10.2
v 60 0.1 1.8
v 60.2 0.1 1.8
v 60.8 0.1 1.8
v 60.2 0.1 1
v 60.8 0.1 1
v 60 0.1 0.8
v 60.8 0.1 0.8
v 60 0.1 -3.2
v 60.8 0.1 -3.2
v 60.2 0.1 -3.4
v 60.8 0.1 -3.4
v 60.8 0.1 -4.2
v 60.2 0.1 -5
v 60.8 0.1 -5
v 60 0.1 -5.2
v 60.8 0.1 -5.2
v 60 0.1 -9.2
v 60.8 0.1 -9.2
v 60 0.1 -9.3
v 60.8 0.1 -9.3
v 60 9.7 1
v 60.8 9.7 1
v 60 9.7 0.8
v 60.8 9.7 0.8
v 60 9.7 -3.2
v 60.8 9.7 -3.2
v 60 9.7 -3.4
v 60.8 9.7 -3.4
v 60 9.7 -5
v 60.8 9.7 -5
v 60 9.7 -5.2
v 60.8 9.7 -5.2
v 60 9.7 -9.2
v 60.8 9.7 -9.2
v 60.8 9.7 -9.3
v 60.9 9.7 -9.3
v 60.2 9.7 -9.4
v 60.8 9.7 -9.4
v 60 9.7 -10.2
v 60.2 9.7 -10.2
v 60.8 9.7 -10.2
v 60.9 9.7 -10.2
v 60.8 0.1 -9.3
v 60.9 0.1 -9.3
v 60.8 0.1 -10.2
v 60.9 0.1 -10.2
v 60 0.3 1
v 60.8 0.3 1
v 60 0.3 0.8
v 60.8 0.3 0.8
v 60 0.3 -3.2
v 60.8 0.3 -3.2
v 60 0.3 -3.4
v 60.8 0.3 -3.4
v 60 0.3 -5
v 60.8 0.3 -5
v 60 0.3 -5.2
v 60.8 0.3 -5.2
v 60 0.3 -9.2
v 60.8 0.3 -9.2
v 60 0.3 -9.3
v 60.8 0.3 -9.3
v 60 9.9 1.8
v 60.2 9.9 1.8
v 60.8 9.9 1.8
v 61 9.9 1.8
v 60.2 9.9 1
v 60.8 9.9 1
v 60 9.9 0.8
v 60.8 9.9 0.8
v 60 9.9 -3.2
v 60.8 9.9 -3.2
v 60.2 9.9 -3.4
v 60.8 9.9 -3.4
v 60.8 9.9 -4.2
v 61 9.9 -4.2
v 60.2 9.9 -5
v 60.8 9.9 -5
v 60 9.9 -5.2
v 60.8 9.9 -5.2
v 60 9.9 -9.2
v 60.8 9.9 -9.2
v 60.2 9.9 -9.4
v 60.8 9.9 -9.4
v 60 9.9 -10.2
v 60.2 9.9 -10.2
v 60.8 9.9 -10.2
v 61 9.9 -10.2

# faces
f 7/4/1 2/4/1 1/4/1
f 8/4/1 2/4/1 7/4/1
f 9/4/1 2/4/1 8/4/1
f 10/4/1 4/4/1 3/4/1
f 11/4/1 4/4/1 10/4/1
f 12/4/1 4/4/1 11/4/1
f 13/4/1 4/4/1 12/4/1
f 14/4/1 6/4/1 5/4/1
f 15/4/1 6/4/1 14/4/1
f 16/1/1 8/1/1 7/1/1
f 17/1/1 8/1/1 16/1/1
f 20/1/1 12/1/1 11/1/1
f 21/1/1 12/1/1 20/1/1
f 25/4/1 18/4/1 17/4/1
f 25/4/1 17/4/1 16/4/1
f 26/4/1 18/4/1 25/4/1
f 27/4/1 22/4/1 21/4/1
f 27/4/1 21/4/1 20/4/1
f 27/4/1 20/4/1 19/4/1
f 28/4/1 22/4/1 27/4/1
f 29/4/1 24/4/1 23/4/1
f 30/4/1 24/4/1 29/4/1
f 34/2/1 32/2/1 31/2/1
f 35/2/1 32/2/1 34/2/1
f 36/2/1 32/2/1 35/2/1
f 37/2/1 32/2/1 36/2/1
f 38/2/1 32/2/1 37/2/1
f 39/3/1 33/3/1 32/3/1
f 39/2/1 32/2/1 38/2/1
f 40/3/1 33/3/1 39/3/1
f 41/3/1 33/3/1 40/3/1
f 42/3/1 33/3/1 41/3/1
f 43/3/1 33/3/1 42/3/1
f 44/3/1 33/3/1 43/3/1
f 46/2/1 37/2/1 36/2/1
f 47/2/1 37/2/1 46/2/1
f 50/3/1 42/3/1 41/3/1
f 51/3/1 42/3/1 50/3/1
f 53/2/1 48/2/1 47/2/1
f 53/2/1 46/2/1 45/2/1
f 53/2/1 47/2/1 46/2/1
f 54/2/1 48/2/1 53/2/1
f 55/2/1 48/2/1 54/2/1
f 56/2/1 48/2/1 55/2/1
f 57/3/1 52/3/1 51/3/1
f 57/3/1 51/3/1 50/3/1
f 57/3/1 50/3/1 49/3/1
f 58/3/1 52/3/1 57/3/1
f 59/3/1 52/3/1 58/3/1
f 60/3/1 52/3/1 59/3/1
f 61/2/1 55/2/1 54/2/1
f 62/2/1 55/2/1 61/2/1
f 63/3/1 59/3/1 58/3/1
f 64/3/1 59/3/1 63/3/1
f 67/3/1 66/3/1 65/3/1
f 68/3/1 66/3/1 67/3/1
f 69/2/2 70/2/2 72/2/2
f 70/3/2 71/3/2 73/3/2
f 72/2/2 70/2/2 73/2/2
f 73/3/2 71/3/2 74/3/2
f 79/4/3 76/4/3 75/4/3
f 80/1/3 77/1/3 76/1/3
f 80/4/3 76/4/3 79/4/3
f 81/4/3 78/4/3 77/4/3
f 81/1/3 77/1/3 80/1/3
f 82/4/3 78/4/3 81/4/3
f 84/1/3 80/1/3 79/1/3
f 84/1/3 81/1/3 80/1/3
f 84/1/3 82/1/3 81/1/3
f 85/1/3 82/1/3 84/1/3
f 86/2/3 84/2/3 83/2/3
f 86/2/3 85/2/3 84/2/3
f 87/2/3 85/2/3 86/2/3
f 92/4/3 89/4/3 88/4/3
f 93/4/3 89/4/3 92/4/3
f 94/4/3 91/4/3 90/4/3
f 95/4/3 91/4/3 94/4/3
f 98/1/3 97/1/3 96/1/3
f 99/1/3 97/1/3 98/1/3
f 104/4/3 101/4/3 100/4/3
f 105/4/3 101/4/3 104/4/3
f 106/4/3 103/4/3 102/4/3
f 107/4/3 103/4/3 106/4/3
f 108/1/4 109/1/4 110/1/4
f 110/1/4 109/1/4 111/1/4
f 112/4/4 113/4/4 116/4/4
f 116/4/4 113/4/4 117/4/4
f 114/4/4 115/4/4 118/4/4
f 118/4/4 115/4/4 119/4/4
f 120/1/4 121/1/4 122/1/4
f 122/1/4 121/1/4 123/1/4
f 124/4/4 125/4/4 128/4/4
f 128/4/4 125/4/4 129/4/4
f 126/4/4 127/4/4 130/4/4
f 130/4/4 127/4/4 131/4/4
f 132/4/4 133/4/4 134/4/4
f 134/4/4 133/4/4 135/4/4
f 134/3/4 135/3/4 137/3/4
f 135/3/4 136/3/4 137/3/4
f 137/3/4 136/3/4 138/3/4
f 139/4/4 140/4/4 141/4/4
f 141/4/4 140/4/4 142/4/4
f 141/1/4 142/1/4 145/1/4
f 145/1/4 142/1/4 146/1/4
f 143/3/4 144/3/4 147/3/4
f 145/3/4 146/3/4 148/3/4
f 143/3/4 147/3/4 149/3/4
f 147/3/4 148/3/4 149/3/4
f 148/3/4 146/3/4 150/3/4
f 149/3/4 148/3/4 150/3/4
f 153/2/5 152/2/5 151/2/5
f 154/2/5 152/2/5 153/2/5
f 155/3/5 154/3/5 153/3/5
f 156/3/5 154/3/5 155/3/5
f 160/4/5 158/4/5 157/4/5
f 160/1/5 159/1/5 158/1/5
f 161/1/5 159/1/5 160/1/5
f 162/4/5 160/4/5 157/4/5
f 162/4/5 161/4/5 160/4/5
f 163/4/5 161/4/5 162/4/5
f 166/4/5 165/4/5 164/4/5
f 167/4/5 165/4/5 166/4/5
f 168/1/5 167/1/5 166/1/5
f 169/4/5 166/4/5 164/4/5
f 169/1/5 168/1/5 166/1/5
f 170/1/5 168/1/5 169/1/5
f 171/4/5 169/4/5 164/4/5
f 171/4/5 170/4/5 169/4/5
f 172/4/5 170/4/5 171/4/5
f 175/4/5 174/4/5 173/4/5
f 176/4/5 174/4/5 175/4/5
f 179/4/5 178/4/5 177/4/5
f 180/4/5 178/4/5 179/4/5
f 183/4/5 182/4/5 181/4/5
f 184/4/5 182/4/5 183/4/5
f 187/4/5 186/4/5 185/4/5
f 188/4/5 186/4/5 187/4/5
f 191/4/5 190/4/5 189/4/5
f 193/4/5 191/4/5 189/4/5
f 194/3/5 192/3/5 191/3/5
f 194/4/5 191/4/5 193/4/5
f 195/4/5 193/4/5 189/4/5
f 196/1/5 194/1/5 193/1/5
f 196/4/5 193/4/5 195/4/5
f 197/3/5 192/3/5 194/3/5
f 197/1/5 194/1/5 196/1/5
f 198/3/5 192/3/5 197/3/5
f 199/3/6 200/3/6 201/3/6
f 201/3/6 200/3/6 202/3/6
f 203/4/6 204/4/6 205/4/6
f 205/4/6 204/4/6 206/4/6
f 207/4/6 208/4/6 209/4/6
f 209/4/6 208/4/6 210/4/6
f 211/4/6 212/4/6 213/4/6
f 213/4/6 212/4/6 214/4/6
f 215/4/6 216/4/6 217/4/6
f 217/4/6 216/4/6 218/4/6
f 219/4/6 220/4/6 223/4/6
f 220/1/6 221/1/6 223/1/6
f 221/2/6 222/2/6 224/2/6
f 223/1/6 221/1/6 224/1/6
f 219/4/6 223/4/6 225/4/6
f 223/4/6 224/4/6 225/4/6
f 224/2/6 222/2/6 226/2/6
f 225/4/6 224/4/6 226/4/6
f 226/2/6 222/2/6 228/2/6
f 227/4/6 228/4/6 229/4/6
f 228/2/6 222/2/6 230/2/6
f 229/4/6 228/4/6 230/4/6
f 229/1/6 230/1/6 231/1/6
f 230/2/6 222/2/6 231/2/6
f 231/2/6 222/2/6 232/2/6
f 227/4/6 229/4/6 233/4/6
f 229/1/6 231/1/6 233/1/6
f 231/3/6 232/3/6 234/3/6
f 233/1/6 231/1/6 234/1/6
f 227/4/6 233/4/6 235/4/6
f 233/4/6 234/4/6 235/4/6
f 234/3/6 232/3/6 236/3/6
f 235/4/6 234/4/6 236/4/6
f 236/3/6 232/3/6 238/3/6
f 237/4/6 238/4/6 239/4/6
f 238/3/6 232/3/6 240/3/6
f 239/4/6 238/4/6 240/4/6
f 237/4/6 239/4/6 241/4/6
f 239/1/6 240/1/6 242/1/6
f 241/4/6 239/4/6 242/4/6
f 240/3/6 232/3/6 243/3/6
f 242/1/6 240/1/6 243/1/6
f 243/3/6 232/3/6 244/3/6
