# MagicaVoxel @ Ephtracy

# group
o 

# material
mtllib chertej-409.mtl
usemtl palette

# normals
vn -1 0 0
vn 1 0 0
vn 0 0 1
vn 0 0 -1
vn 0 -1 0
vn 0 1 0

# texcoords
vt 0.00976562 0.5
vt 0.0566406 0.5
vt 0.306641 0.5
vt 0.958984 0.5

# verts
v 60 0.1 -10.2
v 60 0.1 -11.2
v 60 0.1 -15.2
v 60 0.1 -17.2
v 60 0.1 -21.2
v 60 0.1 -22.2
v 60 0.3 -10.2
v 60 0.3 -11.2
v 60 0.3 -15.2
v 60 0.3 -15.4
v 60 0.3 -17
v 60 0.3 -17.2
v 60 0.3 -21.2
v 60 0.3 -21.4
v 60 0.3 -22.2
v 60 9.7 -10.2
v 60 9.7 -11.2
v 60 9.7 -15.2
v 60 9.7 -15.4
v 60 9.7 -17
v 60 9.7 -17.2
v 60 9.7 -21.2
v 60 9.7 -21.4
v 60 9.7 -22.2
v 60 9.9 -10.2
v 60 9.9 -11.2
v 60 9.9 -15.2
v 60 9.9 -17.2
v 60 9.9 -21.2
v 60 9.9 -22.2
v 60.8 -0.1 -10.2
v 60.8 -0.1 -16.2
v 60.8 -0.1 -22.2
v 60.8 0 -10.2
v 60.8 0 -11
v 60.8 0.1 -11
v 60.8 0.1 -11.2
v 60.8 0.1 -15.2
v 60.8 0.1 -15.4
v 60.8 0.1 -16.2
v 60.8 0.1 -17
v 60.8 0.1 -17.2
v 60.8 0.1 -21.2
v 60.8 0.1 -21.4
v 60.8 0.1 -22.2
v 60.8 0.3 -11
v 60.8 0.3 -11.2
v 60.8 0.3 -15.2
v 60.8 0.3 -15.4
v 60.8 0.3 -17
v 60.8 0.3 -17.2
v 60.8 0.3 -21.2
v 60.8 0.3 -21.4
v 60.8 9.7 -11
v 60.8 9.7 -11.2
v 60.8 9.7 -15.2
v 60.8 9.7 -15.4
v 60.8 9.7 -17
v 60.8 9.7 -17.2
v 60.8 9.7 -21.2
v 60.8 9.7 -21.4
v 60.8 9.9 -11.2
v 60.8 9.9 -15.2
v 60.8 9.9 -17.2
v 60.8 9.9 -21.2
v 60.9 0 -10.2
v 60.9 0 -11
v 60.9 9.7 -10.2
v 60.9 9.7 -11
v 60.2 0.1 -10.2
v 60.2 0.1 -11
v 60.2 0.3 -10.2
v 60.2 0.3 -11
v 61 -0.1 -10.2
v 61 -0.1 -16.2
v 61 -0.1 -22.2
v 61 9.9 -10.2
v 61 9.9 -16.2
v 61 9.9 -22.2
v 60 0.1 -10.2
v 60 0.3 -10.2
v 60 9.7 -10.2
v 60 9.9 -10.2
v 60.2 0.1 -10.2
v 60.2 0.3 -10.2
v 60.2 9.7 -10.2
v 60.2 9.9 -10.2
v 60.8 -0.1 -10.2
v 60.8 0 -10.2
v 60.8 9.7 -10.2
v 60.8 9.9 -10.2
v 60.9 0 -10.2
v 60.9 9.7 -10.2
v 61 -0.1 -10.2
v 61 9.9 -10.2
v 60.2 0.1 -11
v 60.2 0.3 -11
v 60.8 0 -11
v 60.8 0.1 -11
v 60.8 0.3 -11
v 60.8 9.7 -11
v 60.9 0 -11
v 60.9 9.7 -11
v 60 0.1 -15.2
v 60 0.3 -15.2
v 60 9.7 -15.2
v 60 9.9 -15.2
v 60.8 0.1 -15.2
v 60.8 0.3 -15.2
v 60.8 9.7 -15.2
v 60.8 9.9 -15.2
v 60 0.3 -15.4
v 60 9.7 -15.4
v 60.8 0.3 -15.4
v 60.8 9.7 -15.4
v 60 0.1 -21.2
v 60 0.3 -21.2
v 60 9.7 -21.2
v 60 9.9 -21.2
v 60.8 0.1 -21.2
v 60.8 0.3 -21.2
v 60.8 9.7 -21.2
v 60.8 9.9 -21.2
v 60 0.3 -21.4
v 60 9.7 -21.4
v 60.8 0.3 -21.4
v 60.8 9.7 -21.4
v 60 0.1 -11.2
v 60 0.3 -11.2
v 60 9.7 -11.2
v 60 9.9 -11.2
v 60.8 0.1 -11.2
v 60.8 0.3 -11.2
v 60.8 9.7 -11.2
v 60.8 9.9 -11.2
v 60 0.3 -17
v 60 9.7 -17
v 60.8 0.3 -17
v 60.8 9.7 -17
v 60 0.1 -17.2
v 60 0.3 -17.2
v 60 9.7 -17.2
v 60 9.9 -17.2
v 60.8 0.1 -17.2
v 60.8 0.3 -17.2
v 60.8 9.7 -17.2
v 60.8 9.9 -17.2
v 60 0.1 -22.2
v 60 0.3 -22.2
v 60 9.7 -22.2
v 60 9.9 -22.2
v 60.2 0.1 -22.2
v 60.2 0.3 -22.2
v 60.2 9.7 -22.2
v 60.2 9.9 -22.2
v 60.8 -0.1 -22.2
v 60.8 0.1 -22.2
v 60.8 9.9 -22.2
v 61 -0.1 -22.2
v 61 9.9 -22.2
v 60.8 -0.1 -10.2
v 61 -0.1 -10.2
v 60.8 -0.1 -16.2
v 61 -0.1 -16.2
v 60.8 -0.1 -22.2
v 61 -0.1 -22.2
v 60 0.1 -10.2
v 60.2 0.1 -10.2
v 60.2 0.1 -11
v 60.8 0.1 -11
v 60 0.1 -11.2
v 60.8 0.1 -11.2
v 60 0.1 -15.2
v 60.8 0.1 -15.2
v 60.2 0.1 -15.4
v 60.8 0.1 -15.4
v 60.8 0.1 -16.2
v 60.2 0.1 -17
v 60.8 0.1 -17
v 60 0.1 -17.2
v 60.8 0.1 -17.2
v 60 0.1 -21.2
v 60.8 0.1 -21.2
v 60.2 0.1 -21.4
v 60.8 0.1 -21.4
v 60 0.1 -22.2
v 60.2 0.1 -22.2
v 60.8 0.1 -22.2
v 60 9.7 -10.2
v 60.2 9.7 -10.2
v 60.8 9.7 -10.2
v 60.9 9.7 -10.2
v 60.2 9.7 -11
v 60.8 9.7 -11
v 60.9 9.7 -11
v 60 9.7 -11.2
v 60.8 9.7 -11.2
v 60 9.7 -15.2
v 60.8 9.7 -15.2
v 60 9.7 -15.4
v 60.8 9.7 -15.4
v 60 9.7 -17
v 60.8 9.7 -17
v 60 9.7 -17.2
v 60.8 9.7 -17.2
v 60 9.7 -21.2
v 60.8 9.7 -21.2
v 60 9.7 -21.4
v 60.8 9.7 -21.4
v 60.8 0 -10.2
v 60.9 0 -10.2
v 60.8 0 -11
v 60.9 0 -11
v 60 0.3 -10.2
v 60.2 0.3 -10.2
v 60.2 0.3 -11
v 60.8 0.3 -11
v 60 0.3 -11.2
v 60.8 0.3 -11.2
v 60 0.3 -15.2
v 60.8 0.3 -15.2
v 60 0.3 -15.4
v 60.8 0.3 -15.4
v 60 0.3 -17
v 60.8 0.3 -17
v 60 0.3 -17.2
v 60.8 0.3 -17.2
v 60 0.3 -21.2
v 60.8 0.3 -21.2
v 60 0.3 -21.4
v 60.8 0.3 -21.4
v 60 9.9 -10.2
v 60.2 9.9 -10.2
v 60.8 9.9 -10.2
v 61 9.9 -10.2
v 60.2 9.9 -11
v 60.8 9.9 -11
v 60 9.9 -11.2
v 60.8 9.9 -11.2
v 60 9.9 -15.2
v 60.8 9.9 -15.2
v 60.2 9.9 -15.4
v 60.8 9.9 -15.4
v 60.8 9.9 -16.2
v 61 9.9 -16.2
v 60.2 9.9 -17
v 60.8 9.9 -17
v 60 9.9 -17.2
v 60.8 9.9 -17.2
v 60 9.9 -21.2
v 60.8 9.9 -21.2
v 60.2 9.9 -21.4
v 60.8 9.9 -21.4
v 60 9.9 -22.2
v 60.2 9.9 -22.2
v 60.8 9.9 -22.2
v 61 9.9 -22.2

# faces
f 7/4/1 2/4/1 1/4/1
f 8/4/1 2/4/1 7/4/1
f 9/4/1 4/4/1 3/4/1
f 10/4/1 4/4/1 9/4/1
f 11/4/1 4/4/1 10/4/1
f 12/4/1 4/4/1 11/4/1
f 13/4/1 6/4/1 5/4/1
f 14/4/1 6/4/1 13/4/1
f 15/4/1 6/4/1 14/4/1
f 19/1/1 11/1/1 10/1/1
f 20/1/1 11/1/1 19/1/1
f 23/1/1 15/1/1 14/1/1
f 24/1/1 15/1/1 23/1/1
f 25/4/1 17/4/1 16/4/1
f 26/4/1 17/4/1 25/4/1
f 27/4/1 21/4/1 20/4/1
f 27/4/1 19/4/1 18/4/1
f 27/4/1 20/4/1 19/4/1
f 28/4/1 21/4/1 27/4/1
f 29/4/1 24/4/1 23/4/1
f 29/4/1 23/4/1 22/4/1
f 30/4/1 24/4/1 29/4/1
f 34/2/1 32/2/1 31/2/1
f 35/2/1 32/2/1 34/2/1
f 36/2/1 32/2/1 35/2/1
f 37/2/1 32/2/1 36/2/1
f 38/2/1 32/2/1 37/2/1
f 39/2/1 32/2/1 38/2/1
f 40/3/1 33/3/1 32/3/1
f 40/2/1 32/2/1 39/2/1
f 41/3/1 33/3/1 40/3/1
f 42/3/1 33/3/1 41/3/1
f 43/3/1 33/3/1 42/3/1
f 44/3/1 33/3/1 43/3/1
f 45/3/1 33/3/1 44/3/1
f 47/2/1 38/2/1 37/2/1
f 48/2/1 38/2/1 47/2/1
f 51/3/1 43/3/1 42/3/1
f 52/3/1 43/3/1 51/3/1
f 54/2/1 49/2/1 48/2/1
f 54/2/1 47/2/1 46/2/1
f 54/2/1 48/2/1 47/2/1
f 55/2/1 49/2/1 54/2/1
f 56/2/1 49/2/1 55/2/1
f 57/2/1 49/2/1 56/2/1
f 58/3/1 53/3/1 52/3/1
f 58/3/1 52/3/1 51/3/1
f 58/3/1 51/3/1 50/3/1
f 59/3/1 53/3/1 58/3/1
f 60/3/1 53/3/1 59/3/1
f 61/3/1 53/3/1 60/3/1
f 62/2/1 56/2/1 55/2/1
f 63/2/1 56/2/1 62/2/1
f 64/3/1 60/3/1 59/3/1
f 65/3/1 60/3/1 64/3/1
f 68/2/1 67/2/1 66/2/1
f 69/2/1 67/2/1 68/2/1
f 70/4/2 71/4/2 72/4/2
f 72/4/2 71/4/2 73/4/2
f 74/2/2 75/2/2 77/2/2
f 75/3/2 76/3/2 78/3/2
f 77/2/2 75/2/2 78/2/2
f 78/3/2 76/3/2 79/3/2
f 84/4/3 81/4/3 80/4/3
f 85/4/3 81/4/3 84/4/3
f 86/4/3 83/4/3 82/4/3
f 87/4/3 83/4/3 86/4/3
f 90/1/3 87/1/3 86/1/3
f 91/1/3 87/1/3 90/1/3
f 92/2/3 89/2/3 88/2/3
f 93/2/3 91/2/3 90/2/3
f 94/2/3 92/2/3 88/2/3
f 94/2/3 93/2/3 92/2/3
f 95/2/3 91/2/3 93/2/3
f 95/2/3 93/2/3 94/2/3
f 99/4/3 97/4/3 96/4/3
f 100/4/3 97/4/3 99/4/3
f 102/2/3 99/2/3 98/2/3
f 102/2/3 101/2/3 100/2/3
f 102/2/3 100/2/3 99/2/3
f 103/2/3 101/2/3 102/2/3
f 108/4/3 105/4/3 104/4/3
f 109/4/3 105/4/3 108/4/3
f 110/4/3 107/4/3 106/4/3
f 111/4/3 107/4/3 110/4/3
f 114/1/3 113/1/3 112/1/3
f 115/1/3 113/1/3 114/1/3
f 120/4/3 117/4/3 116/4/3
f 121/4/3 117/4/3 120/4/3
f 122/4/3 119/4/3 118/4/3
f 123/4/3 119/4/3 122/4/3
f 126/1/3 125/1/3 124/1/3
f 127/1/3 125/1/3 126/1/3
f 128/4/4 129/4/4 132/4/4
f 132/4/4 129/4/4 133/4/4
f 130/4/4 131/4/4 134/4/4
f 134/4/4 131/4/4 135/4/4
f 136/1/4 137/1/4 138/1/4
f 138/1/4 137/1/4 139/1/4
f 140/4/4 141/4/4 144/4/4
f 144/4/4 141/4/4 145/4/4
f 142/4/4 143/4/4 146/4/4
f 146/4/4 143/4/4 147/4/4
f 148/4/4 149/4/4 152/4/4
f 149/1/4 150/1/4 153/1/4
f 152/4/4 149/4/4 153/4/4
f 150/4/4 151/4/4 154/4/4
f 153/1/4 150/1/4 154/1/4
f 154/4/4 151/4/4 155/4/4
f 152/1/4 153/1/4 157/1/4
f 153/1/4 154/1/4 157/1/4
f 154/1/4 155/1/4 157/1/4
f 157/1/4 155/1/4 158/1/4
f 156/3/4 157/3/4 159/3/4
f 157/3/4 158/3/4 159/3/4
f 159/3/4 158/3/4 160/3/4
f 163/2/5 162/2/5 161/2/5
f 164/2/5 162/2/5 163/2/5
f 165/3/5 164/3/5 163/3/5
f 166/3/5 164/3/5 165/3/5
f 169/4/5 168/4/5 167/4/5
f 171/4/5 169/4/5 167/4/5
f 171/4/5 170/4/5 169/4/5
f 172/4/5 170/4/5 171/4/5
f 175/4/5 174/4/5 173/4/5
f 176/4/5 174/4/5 175/4/5
f 177/1/5 176/1/5 175/1/5
f 178/4/5 175/4/5 173/4/5
f 178/1/5 177/1/5 175/1/5
f 179/1/5 177/1/5 178/1/5
f 180/4/5 178/4/5 173/4/5
f 180/4/5 179/4/5 178/4/5
f 181/4/5 179/4/5 180/4/5
f 184/4/5 183/4/5 182/4/5
f 185/4/5 183/4/5 184/4/5
f 186/4/5 184/4/5 182/4/5
f 187/1/5 185/1/5 184/1/5
f 187/4/5 184/4/5 186/4/5
f 188/1/5 185/1/5 187/1/5
f 193/4/5 190/4/5 189/4/5
f 193/1/5 191/1/5 190/1/5
f 194/2/5 192/2/5 191/2/5
f 194/1/5 191/1/5 193/1/5
f 195/2/5 192/2/5 194/2/5
f 196/4/5 193/4/5 189/4/5
f 196/4/5 194/4/5 193/4/5
f 197/4/5 194/4/5 196/4/5
f 200/4/5 199/4/5 198/4/5
f 201/4/5 199/4/5 200/4/5
f 204/4/5 203/4/5 202/4/5
f 205/4/5 203/4/5 204/4/5
f 208/4/5 207/4/5 206/4/5
f 209/4/5 207/4/5 208/4/5
f 210/2/6 211/2/6 212/2/6
f 212/2/6 211/2/6 213/2/6
f 214/4/6 215/4/6 216/4/6
f 214/4/6 216/4/6 218/4/6
f 216/4/6 217/4/6 218/4/6
f 218/4/6 217/4/6 219/4/6
f 220/4/6 221/4/6 222/4/6
f 222/4/6 221/4/6 223/4/6
f 224/4/6 225/4/6 226/4/6
f 226/4/6 225/4/6 227/4/6
f 228/4/6 229/4/6 230/4/6
f 230/4/6 229/4/6 231/4/6
f 232/4/6 233/4/6 236/4/6
f 233/1/6 234/1/6 236/1/6
f 234/2/6 235/2/6 237/2/6
f 236/1/6 234/1/6 237/1/6
f 232/4/6 236/4/6 238/4/6
f 236/4/6 237/4/6 238/4/6
f 237/2/6 235/2/6 239/2/6
f 238/4/6 237/4/6 239/4/6
f 239/2/6 235/2/6 241/2/6
f 240/4/6 241/4/6 242/4/6
f 241/2/6 235/2/6 243/2/6
f 242/4/6 241/4/6 243/4/6
f 242/1/6 243/1/6 244/1/6
f 243/2/6 235/2/6 244/2/6
f 244/2/6 235/2/6 245/2/6
f 240/4/6 242/4/6 246/4/6
f 242/1/6 244/1/6 246/1/6
f 244/3/6 245/3/6 247/3/6
f 246/1/6 244/1/6 247/1/6
f 240/4/6 246/4/6 248/4/6
f 246/4/6 247/4/6 248/4/6
f 247/3/6 245/3/6 249/3/6
f 248/4/6 247/4/6 249/4/6
f 249/3/6 245/3/6 251/3/6
f 250/4/6 251/4/6 252/4/6
f 251/3/6 245/3/6 253/3/6
f 252/4/6 251/4/6 253/4/6
f 250/4/6 252/4/6 254/4/6
f 252/1/6 253/1/6 255/1/6
f 254/4/6 252/4/6 255/4/6
f 253/3/6 245/3/6 256/3/6
f 255/1/6 253/1/6 256/1/6
f 256/3/6 245/3/6 257/3/6
